<svg id="Group_2749" data-name="Group 2749" xmlns="http://www.w3.org/2000/svg" width="40" height="40" viewBox="0 0 40 40">
  <g id="Path_29235" data-name="Path 29235" fill="#fff">
    <path d="M 20 39.5 C 17.36730003356934 39.5 14.8136100769043 38.98448944091797 12.40987968444824 37.96780014038086 C 10.08788967132568 36.98567962646484 8.002429962158203 35.57958984375 6.211420059204102 33.78858184814453 C 4.42041015625 31.9975700378418 3.014319896697998 29.912109375 2.03220009803772 27.59012031555176 C 1.015509963035583 25.1863899230957 0.5 22.63269996643066 0.5 20 C 0.5 17.36730003356934 1.015509963035583 14.8136100769043 2.03220009803772 12.40987968444824 C 3.014319896697998 10.08788967132568 4.42041015625 8.002429962158203 6.211420059204102 6.211420059204102 C 8.002429962158203 4.42041015625 10.08788967132568 3.014319896697998 12.40987968444824 2.03220009803772 C 14.8136100769043 1.015509963035583 17.36730003356934 0.5 20 0.5 C 22.63269996643066 0.5 25.1863899230957 1.015509963035583 27.59012031555176 2.03220009803772 C 29.912109375 3.014319896697998 31.9975700378418 4.42041015625 33.78858184814453 6.211420059204102 C 35.57958984375 8.002429962158203 36.98567962646484 10.08788967132568 37.96780014038086 12.40987968444824 C 38.98448944091797 14.8136100769043 39.5 17.36730003356934 39.5 20 C 39.5 22.63269996643066 38.98448944091797 25.1863899230957 37.96780014038086 27.59012031555176 C 36.98567962646484 29.912109375 35.57958984375 31.9975700378418 33.78858184814453 33.78858184814453 C 31.9975700378418 35.57958984375 29.912109375 36.98567962646484 27.59012031555176 37.96780014038086 C 25.1863899230957 38.98448944091797 22.63269996643066 39.5 20 39.5 Z" stroke="none"/>
    <path d="M 20 1 C 17.4345703125 1 14.94642066955566 1.502220153808594 12.60465049743652 2.492698669433594 C 10.34226036071777 3.449611663818359 8.310220718383789 4.819721221923828 6.564968109130859 6.564968109130859 C 4.819721221923828 8.310220718383789 3.449611663818359 10.34226036071777 2.492698669433594 12.60465049743652 C 1.502220153808594 14.94642066955566 1 17.4345703125 1 20 C 1 22.56542015075684 1.502220153808594 25.05358123779297 2.492698669433594 27.39535140991211 C 3.449611663818359 29.65773963928223 4.819721221923828 31.68978118896484 6.564968109130859 33.43502807617188 C 8.310220718383789 35.18027877807617 10.34226036071777 36.55038833618164 12.60465049743652 37.50730133056641 C 14.94642066955566 38.49777984619141 17.4345703125 39 20 39 C 22.56542015075684 39 25.05358123779297 38.49777984619141 27.39535140991211 37.50730133056641 C 29.65773963928223 36.55038833618164 31.68978118896484 35.18027877807617 33.43502807617188 33.43502807617188 C 35.18027877807617 31.68978118896484 36.55038833618164 29.65773963928223 37.50730133056641 27.39535140991211 C 38.49777984619141 25.05358123779297 39 22.56542015075684 39 20 C 39 17.4345703125 38.49777984619141 14.94642066955566 37.50730133056641 12.60465049743652 C 36.55038833618164 10.34226036071777 35.18027877807617 8.310220718383789 33.43502807617188 6.564968109130859 C 31.68978118896484 4.819721221923828 29.65773963928223 3.449611663818359 27.39535140991211 2.492698669433594 C 25.05358123779297 1.502220153808594 22.56542015075684 1 20 1 M 20 0 C 31.04568862915039 0 40 8.954299926757813 40 20 C 40 31.04568862915039 31.04568862915039 40 20 40 C 8.954299926757813 40 0 31.04568862915039 0 20 C 0 8.954299926757813 8.954299926757813 0 20 0 Z" stroke="none" fill="#74bf44"/>
  </g>
  <g id="Icon_ionic-ios-calendar" data-name="Icon ionic-ios-calendar" transform="translate(12 12)">
    <path id="Path_29239" data-name="Path 29239" d="M6.278,6H18.722A1.678,1.678,0,0,1,20.5,7.556V18.444A1.678,1.678,0,0,1,18.722,20H6.278A1.678,1.678,0,0,1,4.5,18.444V7.556A1.678,1.678,0,0,1,6.278,6Z" transform="translate(-4.5 -3)" fill="none" stroke="#74bf44" stroke-linecap="round" stroke-linejoin="round" stroke-width="1.5"/>
    <path id="Path_29240" data-name="Path 29240" d="M24,3V9" transform="translate(-12.444 -3)" fill="none" stroke="#74bf44" stroke-linecap="round" stroke-linejoin="round" stroke-width="1.5"/>
    <path id="Path_29241" data-name="Path 29241" d="M12,3V9" transform="translate(-7.556 -3)" fill="none" stroke="#74bf44" stroke-linecap="round" stroke-linejoin="round" stroke-width="1.5"/>
    <path id="Path_29242" data-name="Path 29242" d="M4.5,15h16" transform="translate(-4.5 -7.746)" fill="none" stroke="#74bf44" stroke-linecap="round" stroke-linejoin="round" stroke-width="1.5"/>
  </g>
</svg>
