<svg id="Icon_-_Communities" data-name="Icon - Communities" xmlns="http://www.w3.org/2000/svg" width="73.859" height="66.263" viewBox="0 0 73.859 66.263">
  <path id="Path_542" data-name="Path 542" d="M7.632,11.9a55.4,55.4,0,0,1,9.834,1.379,28.631,28.631,0,0,1,8.831,3.56c2.424,1.567,4.459,3.5,5.271,6.411.168.6.269,1.223.4,1.836.6,2.854,2.908,4.164,5.236,4.65,3.519.736,6.93,0,10.348-.776a82.6,82.6,0,0,0,14.144-5.038,1.347,1.347,0,0,1,1.154.028,1.658,1.658,0,0,1,.37,1.213,20.439,20.439,0,0,1-.458,2.613A3.158,3.158,0,0,1,60.5,30.147c-3.749,1.263-7.476,2.609-11.276,3.685a29.012,29.012,0,0,1-9.662,1.244,9.817,9.817,0,0,1-6.42-2.264A6.8,6.8,0,0,1,31.035,28.6a8.815,8.815,0,0,0-3.689-6.047,25.037,25.037,0,0,0-9.825-4.171A47.974,47.974,0,0,0,5.416,17.214c-1.246.031-1.692-.547-1.475-1.818A16.185,16.185,0,0,1,4.4,13.572c.42-1.376.836-1.669,2.285-1.669Z" transform="translate(2.858 8.749)" fill="#b98757" fill-rule="evenodd"/>
  <path id="Path_543" data-name="Path 543" d="M10.078,7.055c5.45.663,10.745,1.825,15.393,4.967a11.238,11.238,0,0,1,4.811,6.142,22.284,22.284,0,0,0,.769,2.969c1.065,2.354,3.175,3.277,5.578,3.546,5.221.588,10.146-.793,15-2.46,2.452-.84,4.844-1.876,7.252-2.845.715-.288,2.009-.8,2.655-.092a3.72,3.72,0,0,1,.455,1.64c.356,1.943-.189,2.96-2.039,3.715a89.475,89.475,0,0,1-11.9,3.987,35.484,35.484,0,0,1-9.145,1.286,10.526,10.526,0,0,1-6.633-1.879,6.938,6.938,0,0,1-2.594-4.688,8.436,8.436,0,0,0-2.821-5.233c-2.91-2.608-6.473-3.874-10.2-4.776A43.2,43.2,0,0,0,7.67,12.084a4.048,4.048,0,0,1-1.088-.238,1.1,1.1,0,0,1-.763-1.551A11.7,11.7,0,0,1,7.351,7.828a3.235,3.235,0,0,1,2.727-.772" transform="translate(4.19 5.18)" fill="#b98757" fill-rule="evenodd"/>
  <path id="Path_544" data-name="Path 544" d="M36.692,24.314a16.635,16.635,0,0,1-5.845-1.221,6.6,6.6,0,0,1-3.7-5.228,9.3,9.3,0,0,0-4.128-6.336,24.613,24.613,0,0,0-9.18-3.791c-1.251-.283-2.518-.5-3.748-.854-1.053-.3-1.213-.97-.389-1.655,1.187-.991,2.223-2.387,3.959-2.33a11.948,11.948,0,0,1,3.3.691A19.506,19.506,0,0,1,25.749,9a11.14,11.14,0,0,1,2.342,5.412,5.664,5.664,0,0,0,4.412,4.4,18.135,18.135,0,0,0,8.151.078A66.823,66.823,0,0,0,54.589,14.62a1.7,1.7,0,0,1,2.526,1.018c.161.364.278.746.429,1.116.285.717.508,1.617-.151,2.2a3.315,3.315,0,0,1-1.136.581c-1.8.644-3.6,1.289-5.406,1.907-4.407,1.506-9.362,3.041-14.158,2.871" transform="translate(6.744 2.129)" fill="#b98757" fill-rule="evenodd"/>
  <path id="Path_545" data-name="Path 545" d="M40.963,40.019a10.987,10.987,0,0,1-6.595-1.383,5.954,5.954,0,0,1-2.858-4c-.493-2.561-1.319-4.9-3.416-6.621a20.354,20.354,0,0,0-6.458-3.474,38.553,38.553,0,0,0-10.29-2.073c-1.77-.1-3.541-.21-5.318-.279-1.648-.061-2.131-.5-2.236-2.113-.035-.515-.109-1.022-.167-1.532-.109-1,.387-1.674,1.393-1.636,2.4.1,4.816.163,7.2.486a63.656,63.656,0,0,1,7.466,1.5A22.41,22.41,0,0,1,28.4,23.283a11.094,11.094,0,0,1,3.81,6.895c.463,2.606,2.375,3.947,4.823,4.511,3.29.758,6.538.26,9.782-.442A68.611,68.611,0,0,0,57.855,30.7c.6-.246,1.2-.521,1.822-.711a1,1,0,0,1,.84.066.889.889,0,0,1,.007.828c-.838,1.457-1.653,2.943-2.618,4.318-1.02,1.45-2.646,2.02-4.272,2.528a58.94,58.94,0,0,1-10.093,2.276,20.94,20.94,0,0,1-2.578.014" transform="translate(2.654 12.428)" fill="#edba80" fill-rule="evenodd"/>
  <path id="Path_546" data-name="Path 546" d="M11.991,27.556c.453.39.892.8,1.359,1.168,3.087,2.462,6.25,4.837,9.253,7.4A22.779,22.779,0,0,1,28.494,43.4c-1.326-.3-2.516-.488-3.659-.831a32.59,32.59,0,0,1-10.61-5.385c-4.141-3.18-7.419-7-9.1-12.039a9.8,9.8,0,0,1-.373-1.582,1.238,1.238,0,0,1,1.395-1.518,40.585,40.585,0,0,1,5.359.654c2.745.612,5.481,1.331,8.149,2.21a22.377,22.377,0,0,1,8.559,5.052,13.957,13.957,0,0,1,3.992,7.339,47.921,47.921,0,0,1,.85,6.322A34.062,34.062,0,0,0,24.24,33.285a33.243,33.243,0,0,0-12.031-6.05l-.219.321" transform="translate(3.48 16.195)" fill="#edba80" fill-rule="evenodd"/>
  <path id="Path_547" data-name="Path 547" d="M32.662,17.64a12.38,12.38,0,0,1-6.669-1.6,6.737,6.737,0,0,1-3.026-4.973,8.936,8.936,0,0,0-3.595-5.906c-.97-.739-2.1-1.256-3.1-1.957a11.709,11.709,0,0,1-1.412-1.4,9.667,9.667,0,0,1,1.47-.89C19.048-.13,20.255.553,22,2.741A11.466,11.466,0,0,1,23.932,7.71a5.6,5.6,0,0,0,4.074,4.237,15.9,15.9,0,0,0,8.734.088c3.182-.751,6.326-1.685,9.484-2.544a1.922,1.922,0,0,1,2.205.706c.477.611.959,1.215,1.4,1.846a1.118,1.118,0,0,1-.54,1.8c-2.4.8-4.8,1.652-7.254,2.282-2.235.576-4.528.911-6.806,1.3-.843.146-1.709.146-2.566.213" transform="translate(10.919 0.32)" fill="#edba80" fill-rule="evenodd"/>
  <path id="Path_548" data-name="Path 548" d="M29.091,9.772c-2.38-.115-4.643-.455-6.576-1.962A8.452,8.452,0,0,1,19.647,2.5c-.111-.527-.264-1.053-.324-1.589-.036-.286.019-.819.139-.85a2.47,2.47,0,0,1,1.206.023c.206.052.4.335.508.559,1.1,2.181,3.1,2.946,5.306,3.305a26.3,26.3,0,0,0,7.853-.389,6.474,6.474,0,0,1,3.057.453,12.793,12.793,0,0,1,2.651,1.718c.817.586.743,1.36-.2,1.673a53.294,53.294,0,0,1-5.33,1.558c-1.782.39-3.611.548-5.42.809" transform="translate(14.194 0)" fill="#edba80" fill-rule="evenodd"/>
  <path id="Path_549" data-name="Path 549" d="M22,37.5a17.458,17.458,0,0,1,6.026-4.716,21.393,21.393,0,0,1,7.5-2.212,7.663,7.663,0,0,1,2.374.191c.357.076.64.5.953.769a3.907,3.907,0,0,1-.682.7,35.132,35.132,0,0,1-11.229,4.436c-1.341.285-2.691.527-4.039.777a6.774,6.774,0,0,1-.9.054" transform="translate(16.167 22.448)" fill="#edba80" fill-rule="evenodd"/>
  <path id="Path_550" data-name="Path 550" d="M22.367,48.989s13.781-4.969,17.989-6.536S45.222,34.9,45.222,34.9s1.584-10.323,1.707-10.931-.514-.444-.514-.444a2.447,2.447,0,0,0-2,2.2s-1.164,6.544-1.381,8.788-2.729,3.385-2.729,3.385c-5.759,2.773-9.5,1.055-13.6,2.308a6.161,6.161,0,0,0-4.591,4.579s-.361,3.288.253,4.211" transform="translate(16.176 17.274)" fill="#4e2a0e" fill-rule="evenodd"/>
  <path id="Path_551" data-name="Path 551" d="M35.248,39.807l1-5.474L39.521,24.9s.692-2.514,2.944-1.954l-4.27,13.2s-1.166,2.788-2.948,3.663" transform="translate(25.908 16.808)" fill="#4e2a0e" fill-rule="evenodd"/>
  <path id="Path_552" data-name="Path 552" d="M36.521,38.734A26.482,26.482,0,0,0,39.03,33l5.025-8.932a2.5,2.5,0,0,1,2.962-1L40.48,35.188a6.934,6.934,0,0,1-3.959,3.546" transform="translate(26.843 16.851)" fill="#4e2a0e" fill-rule="evenodd"/>
  <path id="Path_553" data-name="Path 553" d="M30.769,48.989S16.986,44.019,12.78,42.453,7.914,34.9,7.914,34.9,6.328,24.572,6.2,23.964s.515-.444.515-.444a2.444,2.444,0,0,1,1.994,2.2s1.166,6.544,1.383,8.788,2.729,3.385,2.729,3.385c5.759,2.773,9.5,1.055,13.6,2.308a6.158,6.158,0,0,1,4.591,4.579s.361,3.288-.252,4.211" transform="translate(4.549 17.274)" fill="#4e2a0e" fill-rule="evenodd"/>
  <path id="Path_554" data-name="Path 554" d="M10.38,39.807l-1-5.474L6.106,24.9s-.692-2.514-2.944-1.954l4.27,13.2S8.6,38.932,10.38,39.807" transform="translate(2.324 16.808)" fill="#4e2a0e" fill-rule="evenodd"/>
  <path id="Path_555" data-name="Path 555" d="M10.5,38.734A26.482,26.482,0,0,1,7.986,33L2.962,24.071a2.5,2.5,0,0,0-2.962-1L6.536,35.188A6.934,6.934,0,0,0,10.5,38.734" transform="translate(0 16.851)" fill="#4e2a0e" fill-rule="evenodd"/>
</svg>
