<svg xmlns="http://www.w3.org/2000/svg" width="215.535" height="45.97" viewBox="0 0 215.535 45.97">
  <g id="Logomark" transform="translate(-140 -7992)">
    <g id="Subtitle" transform="translate(218.298 8026.31)">
      <path id="Path_564" data-name="Path 564" d="M177.97,79.011a.284.284,0,0,1,.1-.241,1.15,1.15,0,0,1,.3-.153l1.147-.41a.23.23,0,0,1,.048,0h.042a.26.26,0,0,1,.25.112.587.587,0,0,1,.064.293l0,1.634h.843a.359.359,0,0,1,.263.1.4.4,0,0,1,.1.3v1a.434.434,0,0,1-.1.319.354.354,0,0,1-.263.1h-.843l0,4.17a.383.383,0,0,1-.111.3.441.441,0,0,1-.308.1h-1.142a.348.348,0,0,1-.389-.4l-.005-4.17H177.6q-.388,0-.389-.42v-1a.346.346,0,0,1,.389-.394h.369Z" transform="translate(-177.207 -77.418)" fill="#fff"/>
      <path id="Path_565" data-name="Path 565" d="M188.766,82.549a.389.389,0,0,1,.038-.169.368.368,0,0,1,.093-.127.485.485,0,0,1,.273-.088h.763a.275.275,0,0,1,.152.036.327.327,0,0,1,.094.093.692.692,0,0,1,.065.13,1.188,1.188,0,0,0,.068.145c.007.014.02.048.04.1s.043.112.066.176.046.125.068.181l.043.112q.152-.171.29-.36a3.3,3.3,0,0,1,.3-.35,1.422,1.422,0,0,1,.348-.264.938.938,0,0,1,.455-.1,2.532,2.532,0,0,1,.487.042,2.084,2.084,0,0,1,.407.122,2.322,2.322,0,0,1,.381.205c.126.083.264.18.412.29q.349.192.132.571l-.46.8a.417.417,0,0,1-.248.192.464.464,0,0,1-.318-.047,1.615,1.615,0,0,0-.442-.324,1.194,1.194,0,0,0-.513-.106.971.971,0,0,0-.346.057.932.932,0,0,0-.27.161,1.477,1.477,0,0,0-.227.249c-.071.1-.141.2-.213.322v3.755a.426.426,0,0,1-.093.3.407.407,0,0,1-.31.1H189.16a.351.351,0,0,1-.394-.4Z" transform="translate(-183.659 -79.546)" fill="#fff"/>
      <path id="Path_566" data-name="Path 566" d="M209.176,88.368a.476.476,0,0,1-.031.169.253.253,0,0,1-.1.127.25.25,0,0,1-.131.072.671.671,0,0,1-.132.016h-.995a.432.432,0,0,1-.172-.029.264.264,0,0,1-.106-.08.488.488,0,0,1-.068-.127c-.019-.05-.038-.1-.058-.164l-.146-.389c-.091.093-.19.193-.3.3a2.742,2.742,0,0,1-.356.293,2.12,2.12,0,0,1-.422.226,1.294,1.294,0,0,1-.485.091,3.229,3.229,0,0,1-2.334-.988,3.4,3.4,0,0,1-.843-1.5,3.542,3.542,0,0,1-.116-.915,3.452,3.452,0,0,1,.959-2.42,3.254,3.254,0,0,1,1.046-.72,3.176,3.176,0,0,1,1.288-.263,1.669,1.669,0,0,1,.575.1,1.972,1.972,0,0,1,.478.252,2.376,2.376,0,0,1,.388.353,3.816,3.816,0,0,1,.311.4l.2-.628q.05-.129.083-.21a.39.39,0,0,1,.071-.12.189.189,0,0,1,.093-.052.74.74,0,0,1,.157-.013h.752a.636.636,0,0,1,.132.016.247.247,0,0,1,.131.072.319.319,0,0,1,.1.13.426.426,0,0,1,.031.166Zm-4.976-2.9a1.942,1.942,0,0,0,.1.641,1.543,1.543,0,0,0,.3.516,1.409,1.409,0,0,0,.463.345,1.386,1.386,0,0,0,.6.127,1.546,1.546,0,0,0,.628-.127,1.61,1.61,0,0,0,.505-.345,1.57,1.57,0,0,0,.336-.516,1.735,1.735,0,0,0,0-1.274,1.68,1.68,0,0,0-.336-.529,1.6,1.6,0,0,0-.505-.361,1.5,1.5,0,0,0-.628-.132,1.344,1.344,0,0,0-.6.132,1.405,1.405,0,0,0-.463.361,1.654,1.654,0,0,0-.3.529,1.937,1.937,0,0,0-.1.633" transform="translate(-191.259 -79.546)" fill="#fff"/>
      <path id="Path_567" data-name="Path 567" d="M477.918,76.456h.911a.639.639,0,0,1,.132.016.248.248,0,0,1,.131.072.326.326,0,0,1,.1.13.427.427,0,0,1,.03.166v8.439a.476.476,0,0,1-.03.169.256.256,0,0,1-.1.127.25.25,0,0,1-.131.072.676.676,0,0,1-.132.016h-.995a.432.432,0,0,1-.172-.029.264.264,0,0,1-.106-.08.486.486,0,0,1-.068-.127c-.019-.05-.038-.105-.058-.164l-.146-.389c-.091.093-.19.193-.3.3a2.74,2.74,0,0,1-.356.293,2.115,2.115,0,0,1-.422.226,1.294,1.294,0,0,1-.485.091,3.228,3.228,0,0,1-2.334-.988,3.4,3.4,0,0,1-.843-1.5,3.544,3.544,0,0,1-.117-.915,3.455,3.455,0,0,1,.96-2.42,3.258,3.258,0,0,1,1.046-.72,3.176,3.176,0,0,1,1.288-.263,1.675,1.675,0,0,1,.576.1,1.976,1.976,0,0,1,.478.252,2.4,2.4,0,0,1,.389.353,3.923,3.923,0,0,1,.311.4l.038-3.221s0-.222.078-.293a.515.515,0,0,1,.326-.1m-3.67,5.918a1.942,1.942,0,0,0,.1.641,1.542,1.542,0,0,0,.3.516,1.409,1.409,0,0,0,.463.345,1.386,1.386,0,0,0,.6.127,1.546,1.546,0,0,0,.628-.127,1.607,1.607,0,0,0,.505-.345,1.577,1.577,0,0,0,.336-.516,1.708,1.708,0,0,0-.336-1.8,1.594,1.594,0,0,0-.505-.361,1.5,1.5,0,0,0-.628-.132,1.345,1.345,0,0,0-.6.132,1.405,1.405,0,0,0-.463.361,1.653,1.653,0,0,0-.3.529,1.936,1.936,0,0,0-.1.633" transform="translate(-341.986 -76.456)" fill="#fff"/>
      <path id="Path_568" data-name="Path 568" d="M221.526,82.265a.306.306,0,0,1,.139-.073.67.67,0,0,1,.139-.016h.763a.328.328,0,0,1,.268.124.478.478,0,0,1,.073.129c.019.049.036.1.053.151l.157.662a2.522,2.522,0,0,1,.22-.365,1.883,1.883,0,0,1,.366-.382,2.015,2.015,0,0,1,.528-.3,1.907,1.907,0,0,1,.71-.122,2.372,2.372,0,0,1,1.045.227,2.41,2.41,0,0,1,.8.621,2.872,2.872,0,0,1,.512.919,3.414,3.414,0,0,1,.182,1.122v3.4a.46.46,0,0,1-.083.3.326.326,0,0,1-.265.1h-1.167a.443.443,0,0,1-.3-.075.4.4,0,0,1-.081-.293V85.015a.947.947,0,0,0-.1-.423,1.223,1.223,0,0,0-.26-.352,1.245,1.245,0,0,0-.366-.241,1.045,1.045,0,0,0-.417-.088.922.922,0,0,0-.371.083,1.239,1.239,0,0,0-.349.231,1.353,1.353,0,0,0-.268.347,1.04,1.04,0,0,0-.124.434v3.372a.5.5,0,0,1-.033.176.284.284,0,0,1-.1.135.456.456,0,0,1-.124.057.521.521,0,0,1-.134.016H221.8a.4.4,0,0,1-.313-.109.423.423,0,0,1-.1-.29v-5.8a.4.4,0,0,1,.042-.181.333.333,0,0,1,.119-.129Z" transform="translate(-201.871 -79.553)" fill="#fff"/>
      <path id="Path_569" data-name="Path 569" d="M239.429,86.665a1.472,1.472,0,0,0,.3.236,2.185,2.185,0,0,0,.305.156,1.809,1.809,0,0,0,.258.085.84.84,0,0,0,.152.026c.064,0,.146,0,.245-.008a1.288,1.288,0,0,0,.285-.047.582.582,0,0,0,.235-.127.315.315,0,0,0,.1-.249.412.412,0,0,0-.056-.231.441.441,0,0,0-.161-.145,1.292,1.292,0,0,0-.26-.106l-.346-.109a4.12,4.12,0,0,1-1-.4,2.255,2.255,0,0,1-.624-.521,1.708,1.708,0,0,1-.321-.62,2.658,2.658,0,0,1-.091-.7,1.813,1.813,0,0,1,.167-.783,1.724,1.724,0,0,1,.475-.6,2.235,2.235,0,0,1,.737-.389,3.126,3.126,0,0,1,.955-.137,3.091,3.091,0,0,1,.6.054,2.316,2.316,0,0,1,.53.171,2.606,2.606,0,0,1,.493.3,3.98,3.98,0,0,1,.477.439.323.323,0,0,1,.088.194.268.268,0,0,1-.113.194c-.132.111-.257.22-.376.327s-.243.227-.372.358a.278.278,0,0,1-.121.065.249.249,0,0,1-.117,0,.344.344,0,0,1-.106-.052.472.472,0,0,1-.091-.088.88.88,0,0,0-.4-.272,1.446,1.446,0,0,0-.424-.07.761.761,0,0,0-.394.088.274.274,0,0,0-.137.27.293.293,0,0,0,.1.21.684.684,0,0,0,.217.122,1.893,1.893,0,0,0,.272.075c.1.019.184.041.265.065a7.635,7.635,0,0,1,.834.326,2.555,2.555,0,0,1,.657.433,1.807,1.807,0,0,1,.433.615,2.214,2.214,0,0,1,.153.871,2.05,2.05,0,0,1-.2.918,1.96,1.96,0,0,1-.548.68,2.489,2.489,0,0,1-.826.42,3.51,3.51,0,0,1-1.028.145,3.649,3.649,0,0,1-.636-.057,2.9,2.9,0,0,1-.626-.184,2.837,2.837,0,0,1-.576-.327,2.293,2.293,0,0,1-.485-.485.54.54,0,0,1-.083-.153.438.438,0,0,1-.026-.158.4.4,0,0,1,.031-.143.275.275,0,0,1,.088-.111l.652-.669a.227.227,0,0,1,.214-.073.712.712,0,0,1,.24.176" transform="translate(-211.253 -79.508)" fill="#fff"/>
      <path id="Path_570" data-name="Path 570" d="M253.164,79.627a2.091,2.091,0,0,1,.2-.907,2.463,2.463,0,0,1,.541-.744,2.572,2.572,0,0,1,.778-.5,2.362,2.362,0,0,1,.919-.184h.1a.333.333,0,0,1,.265.106.427.427,0,0,1,.094.293v.99a.506.506,0,0,1-.1.319.313.313,0,0,1-.261.127h-.1a.54.54,0,0,0-.2.039.587.587,0,0,0-.171.107.519.519,0,0,0-.121.158.442.442,0,0,0-.046.2v.6h.794a.352.352,0,0,1,.265.1.423.423,0,0,1,.094.3v.949a.478.478,0,0,1-.094.327.337.337,0,0,1-.265.1h-.794v3.719a.357.357,0,0,1-.129.3.447.447,0,0,1-.28.1h-1.091a.379.379,0,0,1-.29-.117.4.4,0,0,1-.109-.283V82h-.521a.4.4,0,0,1-.285-.1.434.434,0,0,1-.108-.327v-.949a.386.386,0,0,1,.108-.3.417.417,0,0,1,.285-.1h.521Z" transform="translate(-219.093 -76.915)" fill="#fff"/>
      <path id="Path_571" data-name="Path 571" d="M263.293,85.463a3.52,3.52,0,0,1,.118-.918,3.473,3.473,0,0,1,.333-.817,3.419,3.419,0,0,1,.516-.685,3.236,3.236,0,0,1,.669-.526,3.317,3.317,0,0,1,.8-.337,3.28,3.28,0,0,1,.892-.12,3.194,3.194,0,0,1,1.29.263,3.276,3.276,0,0,1,1.051.72,3.442,3.442,0,0,1,.967,2.42,3.5,3.5,0,0,1-.452,1.733,3.39,3.39,0,0,1-.516.688,3.279,3.279,0,0,1-1.46.869,3.228,3.228,0,0,1-.882.119,3.262,3.262,0,0,1-2.357-.988,3.361,3.361,0,0,1-.516-.687,3.5,3.5,0,0,1-.452-1.733m1.844,0a1.942,1.942,0,0,0,.1.641,1.568,1.568,0,0,0,.293.516,1.394,1.394,0,0,0,.46.345,1.411,1.411,0,0,0,.608.127,1.332,1.332,0,0,0,1.043-.472,1.524,1.524,0,0,0,.283-.516,2.1,2.1,0,0,0,0-1.274,1.635,1.635,0,0,0-.283-.529,1.343,1.343,0,0,0-.449-.361,1.316,1.316,0,0,0-.594-.132,1.368,1.368,0,0,0-.608.132,1.39,1.39,0,0,0-.46.361,1.683,1.683,0,0,0-.293.529,1.936,1.936,0,0,0-.1.633" transform="translate(-225.256 -79.546)" fill="#fff"/>
      <path id="Path_572" data-name="Path 572" d="M438.18,85.463a3.52,3.52,0,0,1,.118-.918,3.454,3.454,0,0,1,.334-.817,3.4,3.4,0,0,1,.515-.685,3.247,3.247,0,0,1,.669-.526,3.316,3.316,0,0,1,.8-.337,3.28,3.28,0,0,1,.892-.12,3.194,3.194,0,0,1,1.29.263,3.267,3.267,0,0,1,1.051.72,3.438,3.438,0,0,1,.967,2.42,3.5,3.5,0,0,1-.452,1.733,3.39,3.39,0,0,1-.516.688,3.28,3.28,0,0,1-1.46.869,3.227,3.227,0,0,1-.881.119,3.262,3.262,0,0,1-2.357-.988,3.342,3.342,0,0,1-.515-.687,3.49,3.49,0,0,1-.451-1.733m1.844,0a1.941,1.941,0,0,0,.1.641,1.568,1.568,0,0,0,.293.516,1.393,1.393,0,0,0,.46.345,1.412,1.412,0,0,0,.608.127,1.332,1.332,0,0,0,1.044-.472,1.523,1.523,0,0,0,.282-.516,2.1,2.1,0,0,0,0-1.274,1.634,1.634,0,0,0-.282-.529,1.35,1.35,0,0,0-.449-.361,1.317,1.317,0,0,0-.594-.132,1.369,1.369,0,0,0-.608.132,1.39,1.39,0,0,0-.46.361,1.683,1.683,0,0,0-.293.529,1.936,1.936,0,0,0-.1.633" transform="translate(-322.87 -79.546)" fill="#fff"/>
      <path id="Path_573" data-name="Path 573" d="M455.3,85.463a3.52,3.52,0,0,1,.118-.918,3.452,3.452,0,0,1,.334-.817,3.4,3.4,0,0,1,.515-.685,3.235,3.235,0,0,1,.669-.526,3.318,3.318,0,0,1,.8-.337,3.283,3.283,0,0,1,.892-.12,3.193,3.193,0,0,1,1.29.263,3.273,3.273,0,0,1,1.051.72,3.443,3.443,0,0,1,.967,2.42,3.5,3.5,0,0,1-.452,1.733,3.39,3.39,0,0,1-.516.688,3.279,3.279,0,0,1-1.46.869,3.227,3.227,0,0,1-.881.119,3.262,3.262,0,0,1-2.357-.988,3.339,3.339,0,0,1-.515-.687,3.5,3.5,0,0,1-.452-1.733m1.844,0a1.94,1.94,0,0,0,.1.641,1.567,1.567,0,0,0,.293.516,1.393,1.393,0,0,0,.46.345,1.411,1.411,0,0,0,.608.127,1.332,1.332,0,0,0,1.043-.472,1.522,1.522,0,0,0,.283-.516,2.1,2.1,0,0,0,0-1.274,1.632,1.632,0,0,0-.283-.529,1.343,1.343,0,0,0-.449-.361,1.315,1.315,0,0,0-.594-.132,1.368,1.368,0,0,0-.608.132,1.39,1.39,0,0,0-.46.361,1.682,1.682,0,0,0-.293.529,1.934,1.934,0,0,0-.1.633" transform="translate(-332.428 -79.546)" fill="#fff"/>
      <path id="Path_574" data-name="Path 574" d="M281.471,82.549a.4.4,0,0,1,.038-.169.375.375,0,0,1,.093-.127.488.488,0,0,1,.273-.088h.763a.275.275,0,0,1,.151.036.317.317,0,0,1,.094.093.691.691,0,0,1,.066.13,1.077,1.077,0,0,0,.068.145c.006.014.02.048.04.1s.043.112.066.176.046.125.068.181l.043.112q.151-.171.29-.36a3.347,3.347,0,0,1,.3-.35,1.422,1.422,0,0,1,.348-.264.94.94,0,0,1,.455-.1,2.524,2.524,0,0,1,.487.042,2.075,2.075,0,0,1,.407.122,2.3,2.3,0,0,1,.381.205c.127.083.264.18.412.29q.349.192.132.571l-.46.8a.414.414,0,0,1-.247.192.466.466,0,0,1-.318-.047,1.609,1.609,0,0,0-.442-.324,1.193,1.193,0,0,0-.513-.106.97.97,0,0,0-.345.057.926.926,0,0,0-.27.161,1.5,1.5,0,0,0-.228.249c-.071.1-.141.2-.212.322v3.755a.426.426,0,0,1-.094.3.407.407,0,0,1-.31.1h-1.137a.351.351,0,0,1-.394-.4Z" transform="translate(-235.402 -79.546)" fill="#fff"/>
      <path id="Path_575" data-name="Path 575" d="M372.142,81.886a2.09,2.09,0,0,1,.2-.907,2.457,2.457,0,0,1,.541-.744,2.574,2.574,0,0,1,.778-.5,2.361,2.361,0,0,1,.919-.184h.1a.335.335,0,0,1,.265.106.43.43,0,0,1,.094.293v.99a.506.506,0,0,1-.1.319.313.313,0,0,1-.261.127h-.1a.54.54,0,0,0-.2.039.586.586,0,0,0-.171.107.518.518,0,0,0-.121.158.441.441,0,0,0-.046.2v.6h.794a.352.352,0,0,1,.265.1.424.424,0,0,1,.094.3v.949a.479.479,0,0,1-.094.327.337.337,0,0,1-.265.1h-.794v3.719a.357.357,0,0,1-.129.3.445.445,0,0,1-.28.1h-1.091a.379.379,0,0,1-.29-.117.4.4,0,0,1-.109-.283V84.262h-.521a.4.4,0,0,1-.285-.1.434.434,0,0,1-.108-.327v-.949a.386.386,0,0,1,.108-.3.417.417,0,0,1,.285-.1h.521Z" transform="translate(-285.501 -78.16)" fill="#fff"/>
      <path id="Path_576" data-name="Path 576" d="M382.271,87.723a3.526,3.526,0,0,1,.118-.918,3.458,3.458,0,0,1,.334-.817,3.4,3.4,0,0,1,.515-.685,3.232,3.232,0,0,1,.669-.526,3.319,3.319,0,0,1,.8-.337,3.28,3.28,0,0,1,.892-.12,3.193,3.193,0,0,1,1.29.263,3.271,3.271,0,0,1,1.051.72,3.445,3.445,0,0,1,.967,2.42,3.5,3.5,0,0,1-.452,1.733,3.391,3.391,0,0,1-.516.687,3.279,3.279,0,0,1-1.46.869,3.229,3.229,0,0,1-.882.119,3.261,3.261,0,0,1-2.357-.988,3.34,3.34,0,0,1-.515-.687,3.5,3.5,0,0,1-.452-1.733m1.844,0a1.942,1.942,0,0,0,.1.641,1.564,1.564,0,0,0,.293.516,1.388,1.388,0,0,0,.46.345,1.411,1.411,0,0,0,.608.127,1.356,1.356,0,0,0,.594-.127,1.338,1.338,0,0,0,.449-.345,1.52,1.52,0,0,0,.283-.516,2.1,2.1,0,0,0,0-1.274,1.635,1.635,0,0,0-.283-.529,1.343,1.343,0,0,0-.449-.361,1.316,1.316,0,0,0-.594-.132,1.368,1.368,0,0,0-.608.132,1.391,1.391,0,0,0-.46.361,1.684,1.684,0,0,0-.293.529,1.938,1.938,0,0,0-.1.633" transform="translate(-291.664 -80.791)" fill="#fff"/>
      <path id="Path_577" data-name="Path 577" d="M400.449,84.809a.4.4,0,0,1,.038-.169.375.375,0,0,1,.093-.127.486.486,0,0,1,.273-.087h.763a.275.275,0,0,1,.152.036.317.317,0,0,1,.094.093.691.691,0,0,1,.066.13,1.035,1.035,0,0,0,.068.145c.006.014.02.048.04.1s.043.112.066.176.046.125.068.181.036.095.043.112q.151-.171.29-.36a3.3,3.3,0,0,1,.3-.35,1.421,1.421,0,0,1,.348-.264.939.939,0,0,1,.455-.1,2.56,2.56,0,0,1,.487.042,2.077,2.077,0,0,1,.407.122,2.3,2.3,0,0,1,.381.205c.127.083.264.18.412.29q.349.192.132.571l-.46.8a.416.416,0,0,1-.247.192.465.465,0,0,1-.318-.047,1.6,1.6,0,0,0-.442-.324,1.193,1.193,0,0,0-.513-.106.97.97,0,0,0-.346.057.924.924,0,0,0-.27.161,1.494,1.494,0,0,0-.228.249q-.106.145-.212.322v3.755a.425.425,0,0,1-.094.3.407.407,0,0,1-.31.1h-1.137a.35.35,0,0,1-.394-.4Z" transform="translate(-301.81 -80.792)" fill="#fff"/>
      <path id="Path_578" data-name="Path 578" d="M295.653,82.265a.309.309,0,0,1,.139-.073.673.673,0,0,1,.139-.016h.763a.339.339,0,0,1,.156.034.332.332,0,0,1,.111.09.467.467,0,0,1,.073.129c.018.049.036.1.053.151l.156.662c.05-.108.112-.229.184-.365a1.588,1.588,0,0,1,.288-.382,1.492,1.492,0,0,1,.45-.3,1.64,1.64,0,0,1,.674-.122,2.208,2.208,0,0,1,1.132.282,2.368,2.368,0,0,1,.8.758,2.254,2.254,0,0,1,.263-.344,2.166,2.166,0,0,1,.4-.339,2.229,2.229,0,0,1,.533-.255,2.062,2.062,0,0,1,.664-.1,2.262,2.262,0,0,1,1.028.227,2.306,2.306,0,0,1,.768.621,2.767,2.767,0,0,1,.48.919,3.755,3.755,0,0,1,.164,1.122v3.4a.457.457,0,0,1-.083.3.326.326,0,0,1-.265.1h-1.167a.44.44,0,0,1-.3-.075.4.4,0,0,1-.081-.293V84.963a1.218,1.218,0,0,0-.068-.415,1.065,1.065,0,0,0-.189-.335.859.859,0,0,0-.3-.223.907.907,0,0,0-.387-.08.874.874,0,0,0-.364.078.973.973,0,0,0-.3.215,1.045,1.045,0,0,0-.209.332,1.13,1.13,0,0,0-.078.428v3.4a.462.462,0,0,1-.084.3.326.326,0,0,1-.265.1h-1.167a.442.442,0,0,1-.3-.075.4.4,0,0,1-.081-.293V84.963a1.335,1.335,0,0,0-.063-.415,1.033,1.033,0,0,0-.182-.335.849.849,0,0,0-.289-.223.873.873,0,0,0-.381-.08.892.892,0,0,0-.357.075,1.018,1.018,0,0,0-.313.212,1.221,1.221,0,0,0-.232.329,1.137,1.137,0,0,0-.108.426v3.423a.5.5,0,0,1-.033.176.283.283,0,0,1-.1.135.458.458,0,0,1-.124.057.527.527,0,0,1-.134.016H295.93a.4.4,0,0,1-.313-.109.423.423,0,0,1-.1-.29v-5.8a.392.392,0,0,1,.043-.181.329.329,0,0,1,.118-.129Z" transform="translate(-243.244 -79.553)" fill="#fff"/>
      <path id="Path_579" data-name="Path 579" d="M320.766,76.856a.423.423,0,0,1,.091-.308.384.384,0,0,1,.283-.091h1.172a.431.431,0,0,1,.285.091.383.383,0,0,1,.109.308v1.012a.384.384,0,0,1-.028.135.578.578,0,0,1-.078.14.432.432,0,0,1-.123.111.311.311,0,0,1-.164.044H321.14q-.374,0-.374-.43Zm0,2.625a.453.453,0,0,1,.091-.285.332.332,0,0,1,.283-.119H322.3a.365.365,0,0,1,.131.028.441.441,0,0,1,.131.083.53.53,0,0,1,.1.127.319.319,0,0,1,.043.166v5.783a.394.394,0,0,1-.107.3.421.421,0,0,1-.3.1H321.14q-.374,0-.374-.4Z" transform="translate(-257.335 -76.457)" fill="#fff"/>
      <path id="Path_580" data-name="Path 580" d="M328.921,82.265a.308.308,0,0,1,.139-.073.676.676,0,0,1,.139-.016h.763a.339.339,0,0,1,.156.034.333.333,0,0,1,.111.09.467.467,0,0,1,.073.129c.019.049.036.1.053.151l.157.662a2.439,2.439,0,0,1,.22-.365,1.87,1.87,0,0,1,.366-.382,2.02,2.02,0,0,1,.528-.3,1.908,1.908,0,0,1,.71-.122,2.374,2.374,0,0,1,1.046.227,2.407,2.407,0,0,1,.8.621,2.881,2.881,0,0,1,.513.919,3.413,3.413,0,0,1,.182,1.122v3.4a.457.457,0,0,1-.084.3.326.326,0,0,1-.265.1h-1.167a.442.442,0,0,1-.3-.075.4.4,0,0,1-.081-.293V85.015a.949.949,0,0,0-.1-.423,1.216,1.216,0,0,0-.26-.352,1.249,1.249,0,0,0-.366-.241,1.046,1.046,0,0,0-.417-.088.925.925,0,0,0-.371.083,1.247,1.247,0,0,0-.349.231,1.362,1.362,0,0,0-.268.347,1.033,1.033,0,0,0-.123.434v3.372a.491.491,0,0,1-.034.176.281.281,0,0,1-.1.135.448.448,0,0,1-.124.057.523.523,0,0,1-.134.016H329.2a.4.4,0,0,1-.313-.109.424.424,0,0,1-.1-.29v-5.8a.391.391,0,0,1,.043-.181.327.327,0,0,1,.119-.129Z" transform="translate(-261.814 -79.553)" fill="#fff"/>
      <path id="Path_581" data-name="Path 581" d="M350.771,88.511a1.272,1.272,0,0,0,.053-.4q0-.225,0-.459-.147.162-.3.34a2.6,2.6,0,0,1-.335.332,1.693,1.693,0,0,1-.417.252,1.386,1.386,0,0,1-.541.1,3.289,3.289,0,0,1-1.262-.239,2.958,2.958,0,0,1-1.667-1.69,3.509,3.509,0,0,1-.238-1.312A3.681,3.681,0,0,1,346.3,84.1a3.325,3.325,0,0,1,.661-1.079,3.1,3.1,0,0,1,1.006-.721,3.046,3.046,0,0,1,1.262-.262,1.536,1.536,0,0,1,.563.1,1.909,1.909,0,0,1,.456.254,2.522,2.522,0,0,1,.373.35q.169.195.321.386l.192-.617c.02-.059.038-.112.055-.161a.394.394,0,0,1,.065-.122.258.258,0,0,1,.1-.075.442.442,0,0,1,.164-.026h.753a.627.627,0,0,1,.129.016.253.253,0,0,1,.129.072.417.417,0,0,1,.106.125.368.368,0,0,1,.035.171v5.28a3.8,3.8,0,0,1-.258,1.442,3.106,3.106,0,0,1-.7,1.068,2.994,2.994,0,0,1-1.059.664,3.769,3.769,0,0,1-1.9.179,4.22,4.22,0,0,1-.624-.148,3.664,3.664,0,0,1-.6-.251,2.49,2.49,0,0,1-.513-.355.56.56,0,0,1-.106-.109.371.371,0,0,1-.063-.14.4.4,0,0,1,0-.168.52.52,0,0,1,.084-.19l.48-.679a.406.406,0,0,1,.247-.155.459.459,0,0,1,.293.125,1.021,1.021,0,0,0,.29.2,2,2,0,0,0,.339.12,2.026,2.026,0,0,0,.343.057c.112.009.215.013.3.013a1.939,1.939,0,0,0,.475-.062,1.845,1.845,0,0,0,.462-.184,1.564,1.564,0,0,0,.379-.3.931.931,0,0,0,.225-.4m-2.889-3.081a1.942,1.942,0,0,0,.1.645,1.533,1.533,0,0,0,.3.516,1.365,1.365,0,0,0,.463.342,1.406,1.406,0,0,0,.6.125,1.6,1.6,0,0,0,.609-.117,1.534,1.534,0,0,0,.5-.324,1.624,1.624,0,0,0,.485-1.094v-.171a1.62,1.62,0,0,0-.144-.6,1.731,1.731,0,0,0-.341-.5,1.628,1.628,0,0,0-.5-.342,1.487,1.487,0,0,0-.609-.127,1.346,1.346,0,0,0-.6.132,1.437,1.437,0,0,0-.463.355,1.588,1.588,0,0,0-.3.524,1.926,1.926,0,0,0-.1.633" transform="translate(-271.455 -79.533)" fill="#fff"/>
      <path id="Path_582" data-name="Path 582" d="M425.808,88.511a1.27,1.27,0,0,0,.053-.4q0-.225,0-.459-.147.162-.3.34a2.605,2.605,0,0,1-.335.332,1.694,1.694,0,0,1-.417.252,1.387,1.387,0,0,1-.541.1,3.288,3.288,0,0,1-1.262-.239,2.958,2.958,0,0,1-1.667-1.69,3.509,3.509,0,0,1-.238-1.312,3.681,3.681,0,0,1,.238-1.331A3.327,3.327,0,0,1,422,83.021a3.1,3.1,0,0,1,1.006-.721,3.045,3.045,0,0,1,1.262-.262,1.536,1.536,0,0,1,.563.1,1.907,1.907,0,0,1,.455.254,2.523,2.523,0,0,1,.373.35c.113.13.22.259.321.386l.192-.617c.02-.059.038-.112.055-.161a.394.394,0,0,1,.065-.122.258.258,0,0,1,.1-.075.441.441,0,0,1,.164-.026h.753a.626.626,0,0,1,.129.016.254.254,0,0,1,.129.072.417.417,0,0,1,.106.125.368.368,0,0,1,.035.171v5.28a3.8,3.8,0,0,1-.258,1.442,3.106,3.106,0,0,1-.7,1.068,2.993,2.993,0,0,1-1.059.664,3.769,3.769,0,0,1-1.9.179,4.224,4.224,0,0,1-.624-.148,3.665,3.665,0,0,1-.6-.251,2.489,2.489,0,0,1-.513-.355.563.563,0,0,1-.106-.109.372.372,0,0,1-.063-.14.4.4,0,0,1,0-.168.519.519,0,0,1,.083-.19l.48-.679a.406.406,0,0,1,.247-.155.459.459,0,0,1,.293.125,1.023,1.023,0,0,0,.29.2,2,2,0,0,0,.339.12,2.024,2.024,0,0,0,.343.057c.112.009.215.013.3.013a1.94,1.94,0,0,0,.475-.062,1.846,1.846,0,0,0,.462-.184,1.564,1.564,0,0,0,.379-.3.931.931,0,0,0,.225-.4m-2.889-3.081a1.941,1.941,0,0,0,.1.645,1.533,1.533,0,0,0,.3.516,1.365,1.365,0,0,0,.463.342,1.407,1.407,0,0,0,.6.125,1.6,1.6,0,0,0,.609-.117,1.534,1.534,0,0,0,.5-.324,1.624,1.624,0,0,0,.485-1.094v-.171a1.621,1.621,0,0,0-.144-.6,1.733,1.733,0,0,0-.341-.5,1.628,1.628,0,0,0-.5-.342,1.488,1.488,0,0,0-.609-.127,1.346,1.346,0,0,0-.6.132,1.437,1.437,0,0,0-.463.355,1.588,1.588,0,0,0-.3.524,1.924,1.924,0,0,0-.1.633" transform="translate(-313.338 -79.533)" fill="#fff"/>
    </g>
    <g id="Logomark-2" data-name="Logomark" transform="translate(140 7992)">
      <path id="Path_588" data-name="Path 588" d="M3.414,33.374a38.241,38.241,0,0,1,6.947,1A19.92,19.92,0,0,1,16.6,36.956a8.17,8.17,0,0,1,3.723,4.649c.118.438.191.888.282,1.331a4.378,4.378,0,0,0,3.7,3.372c2.486.534,4.894,0,7.309-.562a57.3,57.3,0,0,0,9.99-3.655.921.921,0,0,1,.814.022,1.22,1.22,0,0,1,.262.879,15.235,15.235,0,0,1-.323,1.894,2.265,2.265,0,0,1-1.594,1.718c-2.648.917-5.28,1.892-7.964,2.674a20.087,20.087,0,0,1-6.826.9,6.83,6.83,0,0,1-4.532-1.641,4.97,4.97,0,0,1-1.492-3.053A6.424,6.424,0,0,0,17.338,41.1,17.439,17.439,0,0,0,10.4,38.077a33.032,33.032,0,0,0-8.549-.851c-.881.022-1.2-.4-1.041-1.318a11.368,11.368,0,0,1,.321-1.324c.3-1,.589-1.209,1.615-1.21Z" transform="translate(-0.43 -18.397)" fill="#fff" fill-rule="evenodd"/>
      <path id="Path_589" data-name="Path 589" d="M8.888,19.764c3.849.481,7.59,1.323,10.872,3.6a8.118,8.118,0,0,1,3.4,4.453,16.489,16.489,0,0,0,.542,2.153,4.476,4.476,0,0,0,3.94,2.573c3.687.425,7.168-.576,10.594-1.785,1.731-.611,3.421-1.36,5.121-2.064.505-.209,1.42-.578,1.876-.066a2.726,2.726,0,0,1,.321,1.189,2.081,2.081,0,0,1-1.439,2.693,62,62,0,0,1-8.4,2.89,24.387,24.387,0,0,1-6.46.933,7.305,7.305,0,0,1-4.686-1.361,5.073,5.073,0,0,1-1.83-3.4,6.166,6.166,0,0,0-1.994-3.794,15.84,15.84,0,0,0-7.2-3.464,29.768,29.768,0,0,0-6.352-.905,2.822,2.822,0,0,1-.77-.174.8.8,0,0,1-.538-1.125,8.537,8.537,0,0,1,1.081-1.788,2.241,2.241,0,0,1,1.926-.561" transform="translate(-3.236 -10.891)" fill="#fff" fill-rule="evenodd"/>
      <path id="Path_590" data-name="Path 590" d="M26.382,64.174a7.613,7.613,0,0,1-4.659-1,4.312,4.312,0,0,1-2.017-2.9,7.717,7.717,0,0,0-2.413-4.8,14.236,14.236,0,0,0-4.56-2.52,26.647,26.647,0,0,0-7.268-1.5c-1.252-.071-2.5-.153-3.756-.2C.543,51.2.2,50.884.126,49.712.1,49.34.051,48.971.011,48.6c-.077-.722.272-1.213.983-1.183,1.7.07,3.4.117,5.081.352a43.386,43.386,0,0,1,5.274,1.083,15.68,15.68,0,0,1,6.158,3.186,8.09,8.09,0,0,1,2.689,5A4.033,4.033,0,0,0,23.6,60.308a15.244,15.244,0,0,0,6.908-.32,47.637,47.637,0,0,0,7.8-2.573c.428-.177.848-.378,1.287-.517a.7.7,0,0,1,.595.049.663.663,0,0,1,0,.6c-.592,1.059-1.168,2.135-1.85,3.132a5.286,5.286,0,0,1-3.014,1.833A40.5,40.5,0,0,1,28.2,64.162a14.141,14.141,0,0,1-1.82.012" transform="translate(0 -26.137)" fill="#fff" fill-rule="evenodd"/>
      <path id="Path_591" data-name="Path 591" d="M8.242,65.782c.319.282.629.578.959.847,2.181,1.784,4.415,3.507,6.536,5.363a16.434,16.434,0,0,1,4.16,5.277c-.935-.215-1.775-.355-2.583-.6a22.859,22.859,0,0,1-7.494-3.905A18.235,18.235,0,0,1,3.4,64.03a7.133,7.133,0,0,1-.262-1.147.888.888,0,0,1,.985-1.1,28.047,28.047,0,0,1,3.784.475,59.5,59.5,0,0,1,5.756,1.6A15.734,15.734,0,0,1,19.7,67.522a10.218,10.218,0,0,1,2.819,5.323,35.735,35.735,0,0,1,.6,4.583,24.588,24.588,0,0,0-6.231-7.492,23.268,23.268,0,0,0-8.5-4.387l-.154.233" transform="translate(-1.74 -34.053)" fill="#fff" fill-rule="evenodd"/>
      <path id="Path_592" data-name="Path 592" d="M34.866,23.656a11.477,11.477,0,0,1-4.129-.885,4.787,4.787,0,0,1-2.615-3.792,6.75,6.75,0,0,0-2.915-4.594,17.14,17.14,0,0,0-6.484-2.749c-.884-.206-1.778-.366-2.647-.621-.744-.219-.857-.7-.275-1.2.839-.718,1.57-1.732,2.8-1.69a8.235,8.235,0,0,1,2.333.5,13.741,13.741,0,0,1,6.208,3.922,8.21,8.21,0,0,1,1.653,3.926,4.055,4.055,0,0,0,3.116,3.191,12.5,12.5,0,0,0,5.757.056,46.315,46.315,0,0,0,9.842-3.095,1.191,1.191,0,0,1,1.784.738c.113.265.2.542.3.81a1.4,1.4,0,0,1-.106,1.6,2.351,2.351,0,0,1-.8.421c-1.271.467-2.541.934-3.819,1.383-3.112,1.092-6.613,2.206-10,2.082" transform="translate(-8.613 -4.478)" fill="#fff" fill-rule="evenodd"/>
      <path id="Path_593" data-name="Path 593" d="M43.763,13.7a8.567,8.567,0,0,1-4.71-1.157,4.909,4.909,0,0,1-2.139-3.606,6.491,6.491,0,0,0-2.539-4.283c-.684-.537-1.484-.912-2.191-1.422a8.025,8.025,0,0,1-1-1.016,6.661,6.661,0,0,1,1.038-.644C34.149.808,35,1.305,36.232,2.892A8.464,8.464,0,0,1,37.6,6.5a4.015,4.015,0,0,0,2.876,3.073,10.962,10.962,0,0,0,6.169.064c2.249-.546,4.468-1.222,6.7-1.846A1.337,1.337,0,0,1,54.9,8.3c.336.441.677.879.989,1.337a.818.818,0,0,1-.382,1.3c-1.7.584-3.391,1.2-5.123,1.656-1.577.416-3.2.659-4.807.942-.6.105-1.207.107-1.812.155" transform="translate(-17.407 -0.672)" fill="#fff" fill-rule="evenodd"/>
      <path id="Path_594" data-name="Path 594" d="M50.451,7.087a7.633,7.633,0,0,1-4.646-1.424,6.169,6.169,0,0,1-2.024-3.847c-.079-.384-.188-.765-.232-1.152-.024-.209.015-.594.1-.617A1.712,1.712,0,0,1,44.5.062c.145.039.279.245.358.405a4.593,4.593,0,0,0,3.747,2.4,18.153,18.153,0,0,0,5.546-.283,4.46,4.46,0,0,1,2.16.328,8.956,8.956,0,0,1,1.872,1.245c.577.426.526.986-.141,1.213A36.631,36.631,0,0,1,54.278,6.5c-1.258.284-2.55.4-3.827.587" transform="translate(-24.304 0)" fill="#fff" fill-rule="evenodd"/>
      <path id="Path_595" data-name="Path 595" d="M50.986,90.676a12.392,12.392,0,0,1,4.255-3.42,14.8,14.8,0,0,1,5.3-1.6,5.315,5.315,0,0,1,1.678.137c.251.056.45.365.672.559a2.926,2.926,0,0,1-.482.508,24.464,24.464,0,0,1-7.931,3.218c-.946.206-1.9.382-2.853.562a4.9,4.9,0,0,1-.636.04" transform="translate(-28.458 -47.204)" fill="#fff" fill-rule="evenodd"/>
    </g>
    <g id="Vedanta" transform="translate(188.867 7998.636)">
      <path id="Path_583" data-name="Path 583" d="M204.705,22.327V16.2c0-1.227.177-1.409,1.362-1.409.872,0,1.744,0,2.617,0,.948,0,1.311.368,1.311,1.355q.007,7.5,0,15c0,1.979,0,3.957,0,5.936,0,.976-.234,1.2-1.193,1.2-.893,0-1.785-.015-2.678.008a.763.763,0,0,1-.836-.555c-.188-.5-.407-.985-.646-1.558-.206.2-.392.371-.571.552a5.4,5.4,0,0,1-5.182,1.817,8.387,8.387,0,0,1-5.908-4.12,10.119,10.119,0,0,1-1.074-7.447,8.361,8.361,0,0,1,5.078-6.422c1.987-.832,4.022-1.147,5.96.192a13.2,13.2,0,0,1,1.24,1.1c.13.117.255.24.519.487m-8.032,6.926c0,2.779,1.751,4.517,4.006,4.505a4.3,4.3,0,0,0,4.384-4.437,4.422,4.422,0,0,0-4.34-4.614c-2.328,0-4.039,1.914-4.05,4.545" transform="translate(-155.833 -14.787)" fill="#fff" fill-rule="evenodd"/>
      <path id="Path_584" data-name="Path 584" d="M251.842,28.992c.255-.731.458-1.422.745-2.074a.986.986,0,0,1,.629-.55,13.935,13.935,0,0,1,2.485-.012c.729.071.96.457.963,1.32.008,1.687,0,3.374,0,5.062q0,5.186,0,10.374c0,1.1-.293,1.406-1.355,1.406-.792,0-1.587-.049-2.373.014a1.061,1.061,0,0,1-1.2-.879c-.129-.379-.291-.745-.463-1.18-.4.368-.715.656-1.029.943a5.056,5.056,0,0,1-4.629,1.37,8.968,8.968,0,0,1-5.167-2.739,9.354,9.354,0,0,1-2.408-8.078,8.989,8.989,0,0,1,3.7-6.177,9.193,9.193,0,0,1,3.887-1.579,5.648,5.648,0,0,1,5.876,2.465,2.867,2.867,0,0,0,.332.313m-4.9,1.957c-2.193-.039-4.042,1.891-4.021,4.542.023,2.731,1.6,4.483,4.029,4.505a4.325,4.325,0,0,0,4.392-4.488,4.465,4.465,0,0,0-4.4-4.559" transform="translate(-181.662 -21.027)" fill="#fff" fill-rule="evenodd"/>
      <path id="Path_585" data-name="Path 585" d="M290.062,29.182c.177-.215.307-.353.418-.508a5.546,5.546,0,0,1,5.1-2.464,6.994,6.994,0,0,1,6.348,6.125,14.6,14.6,0,0,1,.169,2.043c.019,3.019.01,6.038.008,9.059,0,.92-.213,1.133-1.109,1.134q-1.554,0-3.1,0c-.84,0-.959-.118-.959-.968q0-4.53,0-9.06a3.4,3.4,0,0,0-2.97-3.306,3.455,3.455,0,0,0-3.207,2.553,3.32,3.32,0,0,0-.037.684q0,4.374,0,8.747c0,1.1-.251,1.351-1.326,1.351-.993,0-1.987,0-2.982,0-.755,0-1.061-.277-1.062-1.029q-.012-8,0-16a.987.987,0,0,1,1.083-1.054c.689-.006,1.381.022,2.069-.009a.923.923,0,0,1,1.013.7c.194.6.34,1.226.549,2" transform="translate(-208.134 -21.08)" fill="#fff" fill-rule="evenodd"/>
      <path id="Path_586" data-name="Path 586" d="M119.186,36.964c.215-.662.441-1.329.648-2q1.134-3.689,2.255-7.382a.965.965,0,0,1,1.076-.775c1.236.032,2.475.051,3.71,0,.916-.042.977.557.738,1.166-.661,1.683-1.348,3.358-2.031,5.032-1.387,3.408-2.788,6.811-4.166,10.224-.817,2.019-.65,1.652-2.319,1.668-1.7.018-1.688,0-2.338-1.634q-2.988-7.5-5.995-15c-.313-.785-.27-1.546.923-1.455a25.41,25.41,0,0,0,2.858.007c1.478-.056,1.369.269,1.736,1.4.944,2.894,1.833,5.805,2.746,8.709,0,.011.036.012.158.049" transform="translate(-110.599 -21.406)" fill="#fff" fill-rule="evenodd"/>
      <path id="Path_587" data-name="Path 587" d="M333.325,32.142c0,1.729,0,3.456,0,5.184,0,1.085-.239,1.329-1.275,1.329q-1.4,0-2.8,0c-1.055,0-1.306-.258-1.308-1.371,0-1.561,0-3.123,0-4.685,0-1.936-.012-3.873.008-5.809,0-.49-.1-.7-.634-.694-1.2.027-1.453-.255-1.453-1.478,0-.749,0-1.5,0-2.248,0-.948.291-1.255,1.225-1.3.853-.045.854-.045.854-.9,0-.728.009-1.457,0-2.186a1.109,1.109,0,0,1,.761-1.2c1.079-.391,2.139-.843,3.228-1.19,1.023-.326,1.38-.017,1.393,1.106.014,1.25.017,2.5,0,3.748-.008.459.146.645.6.625.525-.024,1.055-.026,1.58,0,.806.04,1.145.355,1.168,1.115.026.937.033,1.875,0,2.811-.034.806-.381,1.106-1.159,1.111-.506,0-1.014.027-1.52-.009s-.673.14-.665.668c.026,1.79.01,3.581.01,5.371" transform="translate(-230.749 -15.165)" fill="#fff" fill-rule="evenodd"/>
      <path id="Path_596" data-name="Path 596" d="M370.486,27.4c-.016-.533-.239-.95-.8-.983a16.937,16.937,0,0,0-2.6-.026c-.277.027-.6.444-.751.76a18.664,18.664,0,0,0-.685,1.935c-.22-.28-.341-.438-.466-.592a5.506,5.506,0,0,0-5.246-2.305,8.818,8.818,0,0,0-6.323,3.584,9.4,9.4,0,0,0-1.785,4.545,9.713,9.713,0,0,0,.58,4.754,8.676,8.676,0,0,0,5.015,5.172,6.687,6.687,0,0,0,4.495.5A6.775,6.775,0,0,0,364.6,43c.164-.156.349-.288.568-.47.2.539.365.98.535,1.417a.842.842,0,0,0,.886.6c.852-.023,1.7-.006,2.556-.008,1.1,0,1.349-.253,1.349-1.388q0-7.03,0-14.06c0-.562.012-1.125-.006-1.687m-9.728,12.616c-2.377-.051-3.969-1.763-4-4.468-.032-2.68,1.806-4.654,4.156-4.587a4.53,4.53,0,0,1,4.261,4.585,4.371,4.371,0,0,1-4.415,4.47" transform="translate(-245.197 -21.048)" fill="#fff" fill-rule="evenodd"/>
      <path id="Path_597" data-name="Path 597" d="M160.491,37.176c1.135,0,2.27-.008,3.4-.062s1.478-.436,1.52-1.5a8.727,8.727,0,0,0-4.168-8.219,7.911,7.911,0,0,0-7.2-.841,8.625,8.625,0,0,0-5.818,7.008,9.325,9.325,0,0,0,10.2,11.171,8.654,8.654,0,0,0,5.1-2.47.986.986,0,0,0,.084-1.483c-.452-.559-.924-1.1-1.4-1.638-.52-.584-.936-.564-1.575-.089a5.341,5.341,0,0,1-5.193.946,3.182,3.182,0,0,1-2.157-2.818h.632c2.19,0,4.38.006,6.57,0m-3.23-6.69a3.815,3.815,0,0,1,3.033,2.556h-6.879a3.846,3.846,0,0,1,3.845-2.556" transform="translate(-131.494 -20.994)" fill="#fff" fill-rule="evenodd"/>
    </g>
  </g>
</svg>
