<svg xmlns="http://www.w3.org/2000/svg" width="76.458" height="88.569" viewBox="0 0 76.458 88.569">
  <g id="Group_141341" data-name="Group 141341" transform="translate(0 -29.86)">
    <g id="Icon-Planet" transform="translate(0 29.86)">
      <path id="Path_306" data-name="Path 306" d="M32.861,34.482a25.766,25.766,0,0,1,4.584.643,13.364,13.364,0,0,1,4.116,1.659,5.289,5.289,0,0,1,2.459,2.989c.078.28.125.57.185.856A2.867,2.867,0,0,0,46.647,42.8a11.207,11.207,0,0,0,4.824-.362,38.66,38.66,0,0,0,6.594-2.349.628.628,0,0,1,.538.013.773.773,0,0,1,.172.565,9.605,9.605,0,0,1-.213,1.219,1.473,1.473,0,0,1-1.052,1.1c-1.748.59-3.486,1.216-5.257,1.719a13.526,13.526,0,0,1-4.5.579,4.58,4.58,0,0,1-2.993-1.055,3.164,3.164,0,0,1-.984-1.961,4.107,4.107,0,0,0-1.72-2.819,11.661,11.661,0,0,0-4.58-1.945,22.368,22.368,0,0,0-5.644-.546c-.581.014-.787-.255-.687-.847a7.959,7.959,0,0,1,.211-.851c.2-.64.39-.778,1.066-.778Z" transform="translate(17.587 19.487)" fill="#b8c766" fill-rule="evenodd"/>
      <path id="Path_307" data-name="Path 307" d="M34.094,31.976a15.839,15.839,0,0,1,7.176,2.316,5.233,5.233,0,0,1,2.243,2.863,10.418,10.418,0,0,0,.358,1.384,2.957,2.957,0,0,0,2.6,1.654,15.929,15.929,0,0,0,6.993-1.147c1.143-.393,2.259-.875,3.381-1.327.333-.135.936-.371,1.238-.042a1.739,1.739,0,0,1,.211.764,1.333,1.333,0,0,1-.95,1.733A41.648,41.648,0,0,1,51.8,42.031a16.546,16.546,0,0,1-4.262.6,4.91,4.91,0,0,1-3.093-.875,3.234,3.234,0,0,1-1.21-2.187,3.934,3.934,0,0,0-1.315-2.44A10.592,10.592,0,0,0,37.164,34.9a20.165,20.165,0,0,0-4.193-.582,1.912,1.912,0,0,1-.507-.111.513.513,0,0,1-.355-.723,5.52,5.52,0,0,1,.712-1.15,1.51,1.51,0,0,1,1.272-.36" transform="translate(18.116 18.069)" fill="#b8c766" fill-rule="evenodd"/>
      <path id="Path_308" data-name="Path 308" d="M46.677,39.812a7.731,7.731,0,0,1-2.725-.57,3.076,3.076,0,0,1-1.726-2.437A4.332,4.332,0,0,0,40.3,33.852a11.468,11.468,0,0,0-4.281-1.767c-.582-.133-1.172-.236-1.747-.4-.491-.141-.565-.452-.182-.772.554-.462,1.036-1.113,1.845-1.085a5.515,5.515,0,0,1,1.54.321,9.09,9.09,0,0,1,4.1,2.521,5.188,5.188,0,0,1,1.091,2.523,2.639,2.639,0,0,0,2.058,2.05,8.415,8.415,0,0,0,3.8.036,31.111,31.111,0,0,0,6.5-1.988.792.792,0,0,1,1.177.474c.075.171.13.347.2.52.131.335.236.754-.07,1.027a1.564,1.564,0,0,1-.531.271c-.839.3-1.678.6-2.52.889a19.02,19.02,0,0,1-6.6,1.338" transform="translate(19.13 16.857)" fill="#b8c766" fill-rule="evenodd"/>
      <path id="Path_309" data-name="Path 309" d="M48.387,47.843a5.129,5.129,0,0,1-3.076-.645,2.779,2.779,0,0,1-1.332-1.864,4.9,4.9,0,0,0-1.592-3.086,9.486,9.486,0,0,0-3.01-1.618,17.994,17.994,0,0,0-4.8-.967c-.826-.045-1.651-.1-2.479-.13-.77-.028-.994-.232-1.044-.984-.016-.241-.05-.477-.077-.715-.052-.465.18-.781.65-.762,1.118.045,2.246.077,3.354.227a29.621,29.621,0,0,1,3.479.7,10.45,10.45,0,0,1,4.066,2.047A5.172,5.172,0,0,1,44.3,43.256a2.63,2.63,0,0,0,2.249,2.1,10.321,10.321,0,0,0,4.559-.205A32.023,32.023,0,0,0,56.261,43.5c.282-.114.56-.243.85-.332a.467.467,0,0,1,.391.031.414.414,0,0,1,0,.387c-.39.679-.77,1.371-1.221,2.013a3.524,3.524,0,0,1-1.991,1.179,27.5,27.5,0,0,1-4.7,1.061,9.93,9.93,0,0,1-1.2.006" transform="translate(17.505 20.949)" fill="#b8c766" fill-rule="evenodd"/>
      <path id="Path_310" data-name="Path 310" d="M34.936,42.292c.211.183.416.371.634.545,1.438,1.147,2.913,2.255,4.314,3.448a10.608,10.608,0,0,1,2.745,3.392c-.617-.138-1.171-.229-1.7-.387a15.2,15.2,0,0,1-4.946-2.512,11.739,11.739,0,0,1-4.242-5.613,4.548,4.548,0,0,1-.174-.737.576.576,0,0,1,.65-.707,18.958,18.958,0,0,1,2.5.3c1.279.286,2.554.621,3.8,1.031a10.424,10.424,0,0,1,3.99,2.356,6.514,6.514,0,0,1,1.861,3.421,22.374,22.374,0,0,1,.4,2.947,15.9,15.9,0,0,0-4.113-4.818,15.491,15.491,0,0,0-5.608-2.82c-.033.05-.067.1-.1.15" transform="translate(17.834 22.445)" fill="#b8c766" fill-rule="evenodd"/>
      <path id="Path_311" data-name="Path 311" d="M45.086,36.576a5.765,5.765,0,0,1-3.108-.743,3.141,3.141,0,0,1-1.412-2.32,4.169,4.169,0,0,0-1.676-2.753c-.452-.344-.98-.585-1.446-.912a5.4,5.4,0,0,1-.659-.653,4.369,4.369,0,0,1,.686-.415c1.269-.488,1.831-.169,2.645.85a5.338,5.338,0,0,1,.9,2.318,2.614,2.614,0,0,0,1.9,1.975,7.435,7.435,0,0,0,4.071.041c1.484-.351,2.949-.786,4.422-1.186a.9.9,0,0,1,1.028.33c.222.283.448.565.653.861a.521.521,0,0,1-.252.839c-1.121.374-2.238.77-3.381,1.063-1.042.269-2.111.426-3.174.606-.393.069-.8.069-1.2.1" transform="translate(20.79 16.138)" fill="#b8c766" fill-rule="evenodd"/>
      <path id="Path_312" data-name="Path 312" d="M43.647,32.886a5.122,5.122,0,0,1-3.066-.916A3.944,3.944,0,0,1,39.244,29.5c-.052-.246-.122-.49-.152-.74-.017-.135.009-.382.066-.4a1.159,1.159,0,0,1,.562.011c.1.025.185.157.238.26a3.033,3.033,0,0,0,2.473,1.542,12.244,12.244,0,0,0,3.661-.182,3.03,3.03,0,0,1,1.426.211,5.972,5.972,0,0,1,1.235.8c.38.274.346.634-.094.779a24.654,24.654,0,0,1-2.485.726c-.83.183-1.683.257-2.526.377" transform="translate(22.091 16.01)" fill="#b8c766" fill-rule="evenodd"/>
      <path id="Path_313" data-name="Path 313" d="M40.474,47.356a8.106,8.106,0,0,1,2.809-2.2,9.969,9.969,0,0,1,3.5-1.033,3.617,3.617,0,0,1,1.107.089c.166.036.3.235.444.358a1.811,1.811,0,0,1-.319.327,16.405,16.405,0,0,1-5.234,2.069c-.626.131-1.255.246-1.883.362a3.134,3.134,0,0,1-.421.025" transform="translate(22.875 24.93)" fill="#b8c766" fill-rule="evenodd"/>
      <path id="Path_314" data-name="Path 314" d="M31.823,54.249a5.061,5.061,0,0,1,.892.125,2.588,2.588,0,0,1,.8.322,1.032,1.032,0,0,1,.479.582c.016.055.025.111.036.167a.558.558,0,0,0,.476.421,2.169,2.169,0,0,0,.939-.07,7.5,7.5,0,0,0,1.283-.457.122.122,0,0,1,.1,0,.155.155,0,0,1,.033.11,2.1,2.1,0,0,1-.041.238.288.288,0,0,1-.205.214c-.341.114-.679.236-1.024.335a2.679,2.679,0,0,1-.876.113.892.892,0,0,1-.584-.207.622.622,0,0,1-.191-.382.8.8,0,0,0-.335-.548,2.251,2.251,0,0,0-.892-.379,4.317,4.317,0,0,0-1.1-.106c-.114,0-.155-.05-.135-.164a1.507,1.507,0,0,1,.041-.166c.039-.125.077-.152.208-.152Z" transform="translate(17.793 30.658)" fill="#b8c766" fill-rule="evenodd"/>
      <path id="Path_315" data-name="Path 315" d="M32.062,53.761a3.083,3.083,0,0,1,1.4.451,1.021,1.021,0,0,1,.435.557,2.119,2.119,0,0,0,.07.269.577.577,0,0,0,.507.322,3.089,3.089,0,0,0,1.36-.224c.222-.075.44-.169.659-.258.064-.025.182-.072.241-.008a.34.34,0,0,1,.041.149.258.258,0,0,1-.185.337,7.957,7.957,0,0,1-1.08.363,3.254,3.254,0,0,1-.83.116.948.948,0,0,1-.6-.171.626.626,0,0,1-.235-.426.764.764,0,0,0-.257-.474,2.06,2.06,0,0,0-.925-.434,3.891,3.891,0,0,0-.817-.113.447.447,0,0,1-.1-.022.1.1,0,0,1-.069-.141,1.031,1.031,0,0,1,.139-.224.29.29,0,0,1,.247-.07" transform="translate(17.896 30.382)" fill="#b8c766" fill-rule="evenodd"/>
      <path id="Path_316" data-name="Path 316" d="M34.512,55.287a1.484,1.484,0,0,1-.531-.111.6.6,0,0,1-.335-.474.846.846,0,0,0-.376-.574,2.229,2.229,0,0,0-.833-.344c-.114-.027-.229-.045-.34-.078s-.111-.088-.036-.15c.108-.089.2-.216.36-.211a1.171,1.171,0,0,1,.3.063,1.778,1.778,0,0,1,.8.491,1,1,0,0,1,.211.491.517.517,0,0,0,.4.4,1.642,1.642,0,0,0,.74.006,6.057,6.057,0,0,0,1.265-.387.154.154,0,0,1,.229.092c.014.033.025.067.039.1a.171.171,0,0,1-.014.2.271.271,0,0,1-.1.053c-.163.058-.326.117-.49.172a3.676,3.676,0,0,1-1.285.261" transform="translate(18.093 30.147)" fill="#b8c766" fill-rule="evenodd"/>
      <path id="Path_317" data-name="Path 317" d="M34.844,56.849a1,1,0,0,1-.6-.125.539.539,0,0,1-.258-.363.969.969,0,0,0-.31-.6,1.867,1.867,0,0,0-.587-.315,3.455,3.455,0,0,0-.933-.188c-.161-.009-.322-.02-.484-.027s-.193-.044-.2-.191c0-.047-.011-.092-.016-.139-.009-.091.034-.152.127-.149.218.009.437.016.653.044a5.834,5.834,0,0,1,.678.136,2.021,2.021,0,0,1,.79.4,1,1,0,0,1,.346.625.512.512,0,0,0,.438.41,2,2,0,0,0,.887-.041,6.224,6.224,0,0,0,1-.321c.055-.023.11-.047.166-.066a.1.1,0,0,1,.077.006.084.084,0,0,1,0,.075c-.075.133-.15.268-.238.393a.678.678,0,0,1-.387.229,5.254,5.254,0,0,1-.917.207,1.93,1.93,0,0,1-.233,0" transform="translate(17.777 30.942)" fill="#b8c766" fill-rule="evenodd"/>
      <path id="Path_318" data-name="Path 318" d="M32.226,55.769c.041.036.081.072.124.106.28.222.567.438.839.671a2.062,2.062,0,0,1,.535.659c-.121-.027-.229-.044-.332-.075a2.93,2.93,0,0,1-.963-.488A2.273,2.273,0,0,1,31.6,55.55a.916.916,0,0,1-.034-.144.112.112,0,0,1,.127-.138,3.6,3.6,0,0,1,.487.059c.249.056.5.121.74.2a2.04,2.04,0,0,1,.776.459,1.269,1.269,0,0,1,.362.667,4.274,4.274,0,0,1,.078.573,3.082,3.082,0,0,0-.8-.938,3.029,3.029,0,0,0-1.091-.549l-.02.03" transform="translate(17.84 31.234)" fill="#b8c766" fill-rule="evenodd"/>
      <path id="Path_319" data-name="Path 319" d="M34.2,54.657a1.111,1.111,0,0,1-.606-.146.611.611,0,0,1-.274-.451A.807.807,0,0,0,33,53.525c-.088-.067-.191-.114-.282-.178a1.226,1.226,0,0,1-.128-.127.855.855,0,0,1,.135-.081c.247-.094.357-.033.515.166a1.07,1.07,0,0,1,.175.451.506.506,0,0,0,.369.385,1.434,1.434,0,0,0,.792.008c.29-.067.574-.153.861-.232a.176.176,0,0,1,.2.064c.044.056.088.111.127.169a.1.1,0,0,1-.049.163c-.218.074-.435.15-.659.207-.2.053-.41.083-.617.119-.077.013-.155.013-.233.019" transform="translate(18.417 30.006)" fill="#b8c766" fill-rule="evenodd"/>
      <path id="Path_320" data-name="Path 320" d="M33.921,53.938a1,1,0,0,1-.6-.178.763.763,0,0,1-.261-.482,1.378,1.378,0,0,1-.028-.144c0-.025,0-.074.013-.077a.236.236,0,0,1,.11,0c.019,0,.036.031.045.052a.59.59,0,0,0,.482.3,2.367,2.367,0,0,0,.712-.034.584.584,0,0,1,.277.041,1.176,1.176,0,0,1,.241.157c.074.053.067.124-.019.152a4.741,4.741,0,0,1-.484.141c-.161.036-.327.05-.491.074" transform="translate(18.671 29.982)" fill="#b8c766" fill-rule="evenodd"/>
      <path id="Path_321" data-name="Path 321" d="M33.3,56.755a1.578,1.578,0,0,1,.546-.427,1.966,1.966,0,0,1,.681-.2.717.717,0,0,1,.216.017c.033.008.058.045.086.07a.4.4,0,0,1-.061.064,3.233,3.233,0,0,1-1.02.4c-.121.025-.244.047-.366.07a.688.688,0,0,1-.081,0" transform="translate(18.822 31.717)" fill="#b8c766" fill-rule="evenodd"/>
      <path id="Path_322" data-name="Path 322" d="M1.888,39.069a25.767,25.767,0,0,1,4.584.643,13.366,13.366,0,0,1,4.118,1.659,5.288,5.288,0,0,1,2.457,2.989c.078.28.125.57.185.856a2.867,2.867,0,0,0,2.442,2.168,11.207,11.207,0,0,0,4.824-.362,38.66,38.66,0,0,0,6.594-2.349.628.628,0,0,1,.538.013.773.773,0,0,1,.172.565,9.89,9.89,0,0,1-.213,1.219,1.473,1.473,0,0,1-1.052,1.1c-1.748.59-3.486,1.216-5.257,1.719a13.525,13.525,0,0,1-4.5.579,4.58,4.58,0,0,1-2.993-1.055,3.164,3.164,0,0,1-.984-1.961,4.107,4.107,0,0,0-1.72-2.819A11.661,11.661,0,0,0,6.5,42.091a22.368,22.368,0,0,0-5.644-.546c-.581.014-.787-.255-.687-.848a7.658,7.658,0,0,1,.211-.85c.2-.642.39-.778,1.066-.778Z" transform="translate(0.081 22.08)" fill="#b8c766" fill-rule="evenodd"/>
      <path id="Path_323" data-name="Path 323" d="M3.121,36.562A15.839,15.839,0,0,1,10.3,38.879a5.233,5.233,0,0,1,2.243,2.863,10.419,10.419,0,0,0,.358,1.384,2.958,2.958,0,0,0,2.6,1.654,15.929,15.929,0,0,0,6.993-1.147c1.143-.393,2.259-.875,3.381-1.327.333-.135.936-.371,1.238-.042a1.739,1.739,0,0,1,.211.764,1.333,1.333,0,0,1-.95,1.733,41.652,41.652,0,0,1-5.547,1.858,16.555,16.555,0,0,1-4.262.6,4.91,4.91,0,0,1-3.093-.875,3.226,3.226,0,0,1-1.208-2.187,3.944,3.944,0,0,0-1.316-2.44,10.584,10.584,0,0,0-4.753-2.226A20.061,20.061,0,0,0,2,38.907a1.912,1.912,0,0,1-.507-.111.513.513,0,0,1-.355-.723,5.52,5.52,0,0,1,.712-1.15,1.511,1.511,0,0,1,1.272-.36" transform="translate(0.612 20.66)" fill="#b8c766" fill-rule="evenodd"/>
      <path id="Path_324" data-name="Path 324" d="M15.7,44.4a7.738,7.738,0,0,1-2.725-.57,3.076,3.076,0,0,1-1.726-2.437,4.332,4.332,0,0,0-1.924-2.953,11.467,11.467,0,0,0-4.281-1.767c-.582-.133-1.172-.236-1.747-.4-.49-.141-.565-.452-.182-.772.554-.462,1.036-1.113,1.847-1.086a5.575,5.575,0,0,1,1.539.322,9.09,9.09,0,0,1,4.1,2.521,5.188,5.188,0,0,1,1.091,2.523,2.639,2.639,0,0,0,2.058,2.05,8.415,8.415,0,0,0,3.8.036,31.2,31.2,0,0,0,6.5-1.988.792.792,0,0,1,1.177.474c.075.169.13.347.2.52.131.335.236.754-.07,1.027a1.563,1.563,0,0,1-.531.271c-.839.3-1.676.6-2.52.889A19.012,19.012,0,0,1,15.7,44.4" transform="translate(1.626 19.448)" fill="#b8c766" fill-rule="evenodd"/>
      <path id="Path_325" data-name="Path 325" d="M17.413,52.429a5.129,5.129,0,0,1-3.076-.645,2.777,2.777,0,0,1-1.33-1.864,4.918,4.918,0,0,0-1.593-3.086A9.534,9.534,0,0,0,8.4,45.215a18,18,0,0,0-4.8-.967c-.826-.045-1.651-.1-2.479-.13-.77-.028-.994-.232-1.044-.984-.016-.241-.05-.477-.077-.715-.052-.465.18-.779.65-.762,1.118.045,2.246.077,3.354.227a29.711,29.711,0,0,1,3.481.7,10.454,10.454,0,0,1,4.065,2.047,5.172,5.172,0,0,1,1.775,3.215,2.628,2.628,0,0,0,2.249,2.1,10.321,10.321,0,0,0,4.559-.205,32.024,32.024,0,0,0,5.148-1.654c.282-.114.56-.243.85-.332a.467.467,0,0,1,.391.031.414.414,0,0,1,0,.387c-.39.679-.77,1.371-1.221,2.013a3.519,3.519,0,0,1-1.991,1.179,27.5,27.5,0,0,1-4.7,1.061,9.929,9.929,0,0,1-1.2.006" transform="translate(0.001 23.541)" fill="#b8c766" fill-rule="evenodd"/>
      <path id="Path_326" data-name="Path 326" d="M3.963,46.878c.211.183.416.371.632.545,1.44,1.147,2.914,2.255,4.315,3.448a10.608,10.608,0,0,1,2.745,3.392c-.617-.138-1.172-.227-1.7-.388a15.17,15.17,0,0,1-4.946-2.511A11.739,11.739,0,0,1,.764,45.751a4.547,4.547,0,0,1-.174-.737.576.576,0,0,1,.65-.707,19.02,19.02,0,0,1,2.5.3c1.279.286,2.554.621,3.8,1.031A10.439,10.439,0,0,1,11.529,48a6.514,6.514,0,0,1,1.861,3.421,22.636,22.636,0,0,1,.4,2.947,15.924,15.924,0,0,0-4.113-4.818,15.463,15.463,0,0,0-5.608-2.819c-.034.049-.067.1-.1.149" transform="translate(0.329 25.038)" fill="#b8c766" fill-rule="evenodd"/>
      <path id="Path_327" data-name="Path 327" d="M14.113,41.162A5.771,5.771,0,0,1,11,40.419,3.141,3.141,0,0,1,9.592,38.1a4.169,4.169,0,0,0-1.676-2.753c-.451-.344-.98-.585-1.446-.912a5.4,5.4,0,0,1-.659-.653,4.442,4.442,0,0,1,.686-.415c1.269-.488,1.833-.169,2.645.85a5.318,5.318,0,0,1,.9,2.318,2.614,2.614,0,0,0,1.9,1.975,7.435,7.435,0,0,0,4.071.041c1.484-.351,2.95-.786,4.422-1.186a.9.9,0,0,1,1.028.33c.222.283.448.565.653.861a.521.521,0,0,1-.252.839c-1.121.374-2.238.77-3.381,1.063-1.042.269-2.111.426-3.174.606-.393.069-.8.069-1.2.1" transform="translate(3.286 18.73)" fill="#b8c766" fill-rule="evenodd"/>
      <path id="Path_328" data-name="Path 328" d="M12.673,37.473a5.122,5.122,0,0,1-3.066-.916,3.937,3.937,0,0,1-1.337-2.473c-.052-.246-.124-.49-.152-.74-.017-.135.009-.382.066-.4a1.14,1.14,0,0,1,.562.009c.1.025.185.157.238.26a3.033,3.033,0,0,0,2.473,1.542,12.231,12.231,0,0,0,3.659-.182,3.024,3.024,0,0,1,1.426.211,5.941,5.941,0,0,1,1.236.8c.38.274.346.634-.094.779A24.653,24.653,0,0,1,15.2,37.1c-.83.183-1.683.257-2.526.377" transform="translate(4.586 18.603)" fill="#b8c766" fill-rule="evenodd"/>
      <path id="Path_329" data-name="Path 329" d="M9.5,51.943a8.115,8.115,0,0,1,2.808-2.2,9.987,9.987,0,0,1,3.5-1.033,3.616,3.616,0,0,1,1.107.089c.166.036.3.235.445.358a1.811,1.811,0,0,1-.319.327A16.4,16.4,0,0,1,11.8,51.556c-.626.131-1.255.246-1.884.362a3.1,3.1,0,0,1-.419.025" transform="translate(5.371 27.522)" fill="#b8c766" fill-rule="evenodd"/>
      <path id="Path_330" data-name="Path 330" d="M8.412,13.44a56.407,56.407,0,0,1,10.017,1.406,29.173,29.173,0,0,1,8.995,3.625c2.47,1.6,4.542,3.569,5.37,6.531.171.614.274,1.246.405,1.87.61,2.906,2.961,4.242,5.334,4.736,3.584.75,7.059,0,10.54-.79a84.252,84.252,0,0,0,14.407-5.132,1.369,1.369,0,0,1,1.175.028,1.686,1.686,0,0,1,.376,1.235,21.3,21.3,0,0,1-.465,2.662,3.216,3.216,0,0,1-2.3,2.412c-3.819,1.287-7.615,2.658-11.485,3.755a29.635,29.635,0,0,1-9.843,1.266A10,10,0,0,1,34.4,34.739a6.926,6.926,0,0,1-2.151-4.287,8.981,8.981,0,0,0-3.758-6.159,25.512,25.512,0,0,0-10.008-4.248,48.824,48.824,0,0,0-12.33-1.2c-1.269.033-1.722-.557-1.5-1.85a16.542,16.542,0,0,1,.462-1.859c.429-1.4.851-1.7,2.329-1.7Z" transform="translate(2.601 7.595)" fill="#528830" fill-rule="evenodd"/>
      <path id="Path_331" data-name="Path 331" d="M11.106,7.965c5.55.676,10.945,1.858,15.678,5.06a11.447,11.447,0,0,1,4.9,6.256,22.65,22.65,0,0,0,.783,3.024c1.086,2.4,3.234,3.338,5.682,3.612,5.317.6,10.335-.809,15.278-2.506,2.5-.856,4.933-1.911,7.386-2.9.728-.294,2.046-.811,2.7-.094a3.79,3.79,0,0,1,.463,1.67c.36,1.98-.194,3.014-2.077,3.785a90.935,90.935,0,0,1-12.117,4.06,36.1,36.1,0,0,1-9.314,1.308,10.724,10.724,0,0,1-6.758-1.913,7.069,7.069,0,0,1-2.639-4.775A8.59,8.59,0,0,0,28.2,19.225c-2.961-2.656-6.591-3.947-10.385-4.866a43.892,43.892,0,0,0-9.161-1.271,4.16,4.16,0,0,1-1.108-.243,1.124,1.124,0,0,1-.776-1.582A11.945,11.945,0,0,1,8.326,8.752a3.3,3.3,0,0,1,2.78-.787" transform="translate(3.758 4.496)" fill="#528830" fill-rule="evenodd"/>
      <path id="Path_332" data-name="Path 332" d="M38.6,25.086a16.948,16.948,0,0,1-5.954-1.244,6.721,6.721,0,0,1-3.77-5.326,9.479,9.479,0,0,0-4.2-6.453A25.083,25.083,0,0,0,15.317,8.2c-1.274-.29-2.564-.515-3.819-.872-1.071-.307-1.233-.986-.394-1.684,1.21-1.01,2.263-2.432,4.033-2.374a12.255,12.255,0,0,1,3.362.7,19.869,19.869,0,0,1,8.953,5.509A11.354,11.354,0,0,1,29.837,15a5.766,5.766,0,0,0,4.494,4.481,18.476,18.476,0,0,0,8.3.08,68.125,68.125,0,0,0,14.193-4.345A1.731,1.731,0,0,1,59.4,16.249c.164.371.283.761.437,1.136.29.729.517,1.648-.153,2.241a3.345,3.345,0,0,1-1.158.592c-1.834.656-3.666,1.315-5.506,1.942-4.489,1.534-9.537,3.1-14.421,2.925" transform="translate(5.975 1.848)" fill="#528830" fill-rule="evenodd"/>
      <path id="Path_333" data-name="Path 333" d="M42.333,42.632a11.211,11.211,0,0,1-6.718-1.407A6.071,6.071,0,0,1,32.7,37.151c-.5-2.608-1.343-5-3.478-6.743a20.8,20.8,0,0,0-6.578-3.539,39.2,39.2,0,0,0-10.482-2.11c-1.8-.1-3.608-.216-5.417-.285-1.679-.063-2.169-.507-2.279-2.154-.034-.524-.111-1.041-.167-1.56C4.19,19.744,4.7,19.055,5.721,19.1c2.445.1,4.907.166,7.328.495a64.925,64.925,0,0,1,7.605,1.521,22.84,22.84,0,0,1,8.881,4.475,11.3,11.3,0,0,1,3.88,7.021c.473,2.656,2.42,4.022,4.915,4.6,3.351.773,6.658.266,9.962-.449A69.953,69.953,0,0,0,59.539,33.14c.615-.249,1.222-.529,1.855-.725a1.023,1.023,0,0,1,.856.067.907.907,0,0,1,.008.844c-.853,1.485-1.684,3-2.667,4.4-1.039,1.478-2.7,2.057-4.351,2.573a59.875,59.875,0,0,1-10.282,2.32,21.269,21.269,0,0,1-2.625.014" transform="translate(2.424 10.79)" fill="#9aad39" fill-rule="evenodd"/>
      <path id="Path_334" data-name="Path 334" d="M12.947,30.5c.459.4.908.812,1.382,1.19,3.144,2.507,6.367,4.927,9.427,7.533a23.228,23.228,0,0,1,6,7.411c-1.348-.3-2.562-.5-3.727-.847a33.185,33.185,0,0,1-10.8-5.486C11,37.066,7.666,33.17,5.957,28.041a10.082,10.082,0,0,1-.38-1.611A1.26,1.26,0,0,1,7,24.884a41.215,41.215,0,0,1,5.458.665c2.8.623,5.583,1.355,8.3,2.252a22.785,22.785,0,0,1,8.716,5.146,14.233,14.233,0,0,1,4.068,7.475,48.886,48.886,0,0,1,.866,6.439,34.718,34.718,0,0,0-8.987-10.524,33.829,33.829,0,0,0-12.254-6.162l-.221.327" transform="translate(3.141 14.059)" fill="#9aad39" fill-rule="evenodd"/>
      <path id="Path_335" data-name="Path 335" d="M35.122,18.016a12.613,12.613,0,0,1-6.793-1.626,6.866,6.866,0,0,1-3.083-5.065A9.088,9.088,0,0,0,21.583,5.31c-.986-.753-2.14-1.28-3.16-2a11.694,11.694,0,0,1-1.44-1.427,10.016,10.016,0,0,1,1.5-.906c2.773-1.066,4-.368,5.78,1.859A11.668,11.668,0,0,1,26.228,7.9a5.706,5.706,0,0,0,4.149,4.317,16.214,16.214,0,0,0,8.9.089c3.241-.765,6.444-1.715,9.66-2.592a1.962,1.962,0,0,1,2.248.72c.485.621.977,1.238,1.424,1.881a1.139,1.139,0,0,1-.549,1.834c-2.449.819-4.891,1.681-7.388,2.323-2.277.587-4.614.928-6.935,1.324-.858.149-1.739.149-2.612.218" transform="translate(9.599 0.277)" fill="#9aad39" fill-rule="evenodd"/>
      <path id="Path_336" data-name="Path 336" d="M31.976,9.954c-2.424-.116-4.728-.463-6.7-2a8.6,8.6,0,0,1-2.919-5.4c-.114-.537-.271-1.072-.332-1.618-.038-.293.019-.834.141-.867A2.54,2.54,0,0,1,23.4.089c.21.053.4.341.517.568,1.121,2.223,3.157,3,5.4,3.368,2.684.443,5.336-.038,8-.4a6.6,6.6,0,0,1,3.115.46,13.091,13.091,0,0,1,2.7,1.75c.831.6.758,1.385-.205,1.7A54.09,54.09,0,0,1,37.5,9.131c-1.814.4-3.677.559-5.52.823" transform="translate(12.443 -0.001)" fill="#9aad39" fill-rule="evenodd"/>
      <path id="Path_337" data-name="Path 337" d="M25.045,41.57a17.769,17.769,0,0,1,6.135-4.8,21.8,21.8,0,0,1,7.641-2.254,7.787,7.787,0,0,1,2.418.2c.365.077.65.512.969.781a3.919,3.919,0,0,1-.695.715,35.731,35.731,0,0,1-11.437,4.519c-1.366.29-2.742.537-4.113.792a6.929,6.929,0,0,1-.919.055" transform="translate(14.156 19.488)" fill="#9aad39" fill-rule="evenodd"/>
      <path id="Path_338" data-name="Path 338" d="M39.554,63.289l-.362-18.846h-.651l-.579,18.846Z" transform="translate(21.456 25.117)" fill="#d1a07d"/>
      <path id="Path_339" data-name="Path 339" d="M38.853,53.253l4.741-9.236h.931L38.853,56.389Z" transform="translate(21.959 24.875)" fill="#d1a07d"/>
      <path id="Path_340" data-name="Path 340" d="M39.137,46.659l-1.354-2.216h-1l2.349,4.01Z" transform="translate(20.792 25.116)" fill="#d1a07d"/>
      <path id="Path_341" data-name="Path 341" d="M10,63.289,9.643,44.443H8.992L8.413,63.289Z" transform="translate(4.755 25.117)" fill="#d1a07d"/>
      <path id="Path_342" data-name="Path 342" d="M9.3,53.253l4.741-9.236h.931L9.3,56.389Z" transform="translate(5.258 24.875)" fill="#d1a07d"/>
      <path id="Path_343" data-name="Path 343" d="M9.587,46.659,8.235,44.443h-1l2.349,4.01Z" transform="translate(4.091 25.116)" fill="#d1a07d"/>
      <path id="Path_344" data-name="Path 344" d="M34.252,24.008s.8,26.215-10.18,34.952l-.034-3.154s9.1-8.943,9.425-31.8Z" transform="translate(13.587 13.568)" fill="#c88454"/>
      <path id="Path_345" data-name="Path 345" d="M19,32.633h.731s-1.65,19.55,4.937,24.26l-.038,2.194S16.81,53.489,19,32.633" transform="translate(10.521 18.442)" fill="#c88454"/>
      <path id="Path_346" data-name="Path 346" d="M25.2,78.13l-.65-59.947H23.378L22.337,78.13Z" transform="translate(12.624 10.275)" fill="#c88454"/>
      <path id="Path_347" data-name="Path 347" d="M23.983,51.987a10.033,10.033,0,0,1,1.778.252,5.119,5.119,0,0,1,1.6.642,2.038,2.038,0,0,1,.953,1.158c.031.11.05.222.072.333a1.113,1.113,0,0,0,.948.84,4.349,4.349,0,0,0,1.87-.141,14.933,14.933,0,0,0,2.557-.911.245.245,0,0,1,.208,0,.3.3,0,0,1,.067.219,3.515,3.515,0,0,1-.083.473.57.57,0,0,1-.407.429c-.679.229-1.352.471-2.039.667a5.277,5.277,0,0,1-1.748.224,1.776,1.776,0,0,1-1.16-.409,1.224,1.224,0,0,1-.382-.761,1.6,1.6,0,0,0-.667-1.094,4.561,4.561,0,0,0-1.776-.754,8.587,8.587,0,0,0-2.19-.21c-.225,0-.305-.1-.266-.33a2.52,2.52,0,0,1,.081-.329c.077-.249.152-.3.413-.3Z" transform="translate(13.173 29.38)" fill="#b8c766" fill-rule="evenodd"/>
      <path id="Path_348" data-name="Path 348" d="M24.462,51.016a6.144,6.144,0,0,1,2.783.9,2.03,2.03,0,0,1,.87,1.111,4.261,4.261,0,0,0,.139.535,1.148,1.148,0,0,0,1.01.642,6.153,6.153,0,0,0,2.711-.445c.443-.152.876-.34,1.312-.515.13-.052.363-.144.481-.016a.647.647,0,0,1,.081.3.516.516,0,0,1-.368.671,16.158,16.158,0,0,1-2.152.722,6.363,6.363,0,0,1-1.653.232,1.9,1.9,0,0,1-1.2-.34,1.257,1.257,0,0,1-.468-.847,1.527,1.527,0,0,0-.51-.947,4.109,4.109,0,0,0-1.844-.864,7.813,7.813,0,0,0-1.626-.225.677.677,0,0,1-.2-.044.2.2,0,0,1-.138-.28,2.147,2.147,0,0,1,.277-.446.585.585,0,0,1,.493-.139" transform="translate(13.379 28.83)" fill="#b8c766" fill-rule="evenodd"/>
      <path id="Path_349" data-name="Path 349" d="M29.342,54.055a3.016,3.016,0,0,1-1.056-.221,1.2,1.2,0,0,1-.67-.945,1.683,1.683,0,0,0-.747-1.146,4.441,4.441,0,0,0-1.661-.686c-.225-.052-.454-.091-.678-.155-.189-.055-.219-.175-.07-.3.216-.18.4-.432.717-.421a2.123,2.123,0,0,1,.6.125,3.515,3.515,0,0,1,1.59.977,2.026,2.026,0,0,1,.423.98,1.028,1.028,0,0,0,.8.8,3.279,3.279,0,0,0,1.474.014,12.054,12.054,0,0,0,2.52-.772.308.308,0,0,1,.457.185c.028.066.05.135.077.2a.34.34,0,0,1-.027.4.614.614,0,0,1-.207.1c-.326.116-.65.233-.977.344a7.362,7.362,0,0,1-2.561.52" transform="translate(13.772 28.361)" fill="#b8c766" fill-rule="evenodd"/>
      <path id="Path_350" data-name="Path 350" d="M30,57.17a1.984,1.984,0,0,1-1.193-.25A1.073,1.073,0,0,1,28.3,56.2a1.909,1.909,0,0,0-.618-1.2,3.672,3.672,0,0,0-1.168-.629A6.981,6.981,0,0,0,24.649,54c-.319-.017-.64-.039-.961-.052-.3-.011-.385-.089-.405-.382,0-.092-.019-.185-.03-.277-.019-.18.07-.3.252-.3.434.019.872.03,1.3.088a11.694,11.694,0,0,1,1.349.271,4.067,4.067,0,0,1,1.576.794,2,2,0,0,1,.689,1.247,1.021,1.021,0,0,0,.873.815,4,4,0,0,0,1.769-.08,12.421,12.421,0,0,0,2-.642c.108-.044.216-.094.329-.128a.184.184,0,0,1,.152.013.156.156,0,0,1,0,.149c-.152.265-.3.532-.474.781a1.348,1.348,0,0,1-.772.457,10.578,10.578,0,0,1-1.825.412,3.568,3.568,0,0,1-.466,0" transform="translate(13.141 29.947)" fill="#b8c766" fill-rule="evenodd"/>
      <path id="Path_351" data-name="Path 351" d="M24.789,55.017c.081.07.161.144.246.211.559.445,1.13.875,1.673,1.337a4.146,4.146,0,0,1,1.066,1.316c-.239-.053-.455-.088-.662-.15a5.9,5.9,0,0,1-1.919-.974,4.564,4.564,0,0,1-1.645-2.177,1.953,1.953,0,0,1-.067-.286.223.223,0,0,1,.252-.274,7.38,7.38,0,0,1,.969.117c.5.111.992.241,1.474.4a4.075,4.075,0,0,1,1.548.914,2.522,2.522,0,0,1,.722,1.327A8.8,8.8,0,0,1,28.6,57.92,6.172,6.172,0,0,0,27,56.053a6.008,6.008,0,0,0-2.176-1.094l-.039.058" transform="translate(13.27 30.528)" fill="#b8c766" fill-rule="evenodd"/>
      <path id="Path_352" data-name="Path 352" d="M28.725,52.8a2.233,2.233,0,0,1-1.205-.288,1.221,1.221,0,0,1-.548-.9,1.611,1.611,0,0,0-.651-1.067c-.175-.135-.379-.227-.56-.354a2.167,2.167,0,0,1-.255-.254,1.722,1.722,0,0,1,.266-.161c.491-.189.711-.066,1.025.33a2.05,2.05,0,0,1,.349.9,1.015,1.015,0,0,0,.737.765,2.881,2.881,0,0,0,1.579.017c.576-.136,1.144-.305,1.715-.46a.347.347,0,0,1,.4.127c.086.111.172.221.252.335a.2.2,0,0,1-.1.326c-.435.144-.869.3-1.312.412-.4.1-.819.164-1.232.235-.152.027-.308.027-.463.039" transform="translate(14.415 28.081)" fill="#b8c766" fill-rule="evenodd"/>
      <path id="Path_353" data-name="Path 353" d="M28.167,51.368a1.962,1.962,0,0,1-1.19-.355,1.524,1.524,0,0,1-.518-.958c-.02-.1-.049-.191-.059-.288-.006-.052,0-.149.025-.153a.433.433,0,0,1,.219,0c.038.009.072.061.092.1a1.175,1.175,0,0,0,.958.6,4.711,4.711,0,0,0,1.421-.07,1.18,1.18,0,0,1,.552.081,2.453,2.453,0,0,1,.479.31c.149.108.135.246-.036.3a9.844,9.844,0,0,1-.964.282c-.322.07-.653.1-.98.146" transform="translate(14.92 28.031)" fill="#b8c766" fill-rule="evenodd"/>
      <path id="Path_354" data-name="Path 354" d="M26.936,56.981a3.142,3.142,0,0,1,1.089-.853,3.893,3.893,0,0,1,1.357-.4,1.417,1.417,0,0,1,.429.036c.064.013.116.091.172.138a.68.68,0,0,1-.124.127,6.344,6.344,0,0,1-2.03.8c-.243.052-.487.1-.731.141a1.4,1.4,0,0,1-.163.009" transform="translate(15.223 31.492)" fill="#b8c766" fill-rule="evenodd"/>
      <path id="Path_355" data-name="Path 355" d="M6.341,54.249a5.041,5.041,0,0,1,.892.125,2.572,2.572,0,0,1,.8.322,1.032,1.032,0,0,1,.479.582c.016.055.025.111.036.167a.558.558,0,0,0,.476.421,2.167,2.167,0,0,0,.939-.07,7.5,7.5,0,0,0,1.283-.457.122.122,0,0,1,.1,0,.155.155,0,0,1,.033.11,2.1,2.1,0,0,1-.041.238.288.288,0,0,1-.205.214c-.341.114-.679.236-1.024.335a2.679,2.679,0,0,1-.876.113.885.885,0,0,1-.582-.207.616.616,0,0,1-.193-.382.8.8,0,0,0-.335-.548,2.254,2.254,0,0,0-.891-.379,4.329,4.329,0,0,0-1.1-.106c-.114,0-.153-.05-.135-.164a1.507,1.507,0,0,1,.041-.166c.039-.125.077-.152.208-.152Z" transform="translate(3.392 30.658)" fill="#b8c766" fill-rule="evenodd"/>
      <path id="Path_356" data-name="Path 356" d="M6.582,53.761a3.083,3.083,0,0,1,1.4.451,1.03,1.03,0,0,1,.437.557,1.883,1.883,0,0,0,.069.269.577.577,0,0,0,.507.322,3.085,3.085,0,0,0,1.36-.224c.222-.075.44-.169.659-.258.064-.025.183-.072.241-.008a.32.32,0,0,1,.041.149.259.259,0,0,1-.185.337,7.957,7.957,0,0,1-1.08.363,3.254,3.254,0,0,1-.83.116.951.951,0,0,1-.6-.171.626.626,0,0,1-.235-.426.764.764,0,0,0-.257-.474,2.06,2.06,0,0,0-.925-.434,3.891,3.891,0,0,0-.817-.113.447.447,0,0,1-.1-.022.1.1,0,0,1-.069-.141,1.031,1.031,0,0,1,.139-.224.292.292,0,0,1,.249-.07" transform="translate(3.495 30.382)" fill="#b8c766" fill-rule="evenodd"/>
      <path id="Path_357" data-name="Path 357" d="M9.031,55.287a1.484,1.484,0,0,1-.531-.111.6.6,0,0,1-.337-.474.839.839,0,0,0-.374-.574,2.229,2.229,0,0,0-.833-.344c-.114-.027-.229-.045-.341-.078-.1-.027-.11-.088-.034-.15.108-.089.2-.216.36-.211a1.171,1.171,0,0,1,.3.063,1.778,1.778,0,0,1,.8.491,1,1,0,0,1,.211.491.517.517,0,0,0,.4.4,1.642,1.642,0,0,0,.74.006,6.057,6.057,0,0,0,1.265-.387.154.154,0,0,1,.229.092c.014.033.025.067.039.1a.171.171,0,0,1-.014.2.271.271,0,0,1-.1.053c-.163.058-.326.117-.49.172a3.676,3.676,0,0,1-1.285.261" transform="translate(3.693 30.147)" fill="#b8c766" fill-rule="evenodd"/>
      <path id="Path_358" data-name="Path 358" d="M9.363,56.849a1,1,0,0,1-.6-.125.537.537,0,0,1-.26-.363.961.961,0,0,0-.31-.6,1.876,1.876,0,0,0-.585-.315,3.466,3.466,0,0,0-.934-.188c-.161-.009-.322-.02-.482-.027s-.194-.044-.2-.191c0-.047-.011-.092-.016-.139-.009-.091.034-.152.127-.149.218.009.437.016.653.044a5.834,5.834,0,0,1,.678.136,2.021,2.021,0,0,1,.79.4,1,1,0,0,1,.346.625.512.512,0,0,0,.438.41,2,2,0,0,0,.887-.041,6.223,6.223,0,0,0,1-.321c.055-.023.11-.047.166-.066a.1.1,0,0,1,.077.006.08.08,0,0,1,0,.075c-.075.133-.15.268-.238.393a.678.678,0,0,1-.387.229,5.269,5.269,0,0,1-.916.207,1.958,1.958,0,0,1-.235,0" transform="translate(3.377 30.942)" fill="#b8c766" fill-rule="evenodd"/>
      <path id="Path_359" data-name="Path 359" d="M6.744,55.769c.041.036.081.072.124.106.28.222.567.438.839.671a2.061,2.061,0,0,1,.535.659c-.121-.027-.229-.044-.332-.075a2.93,2.93,0,0,1-.963-.488,2.273,2.273,0,0,1-.826-1.092.767.767,0,0,1-.033-.144.111.111,0,0,1,.125-.138,3.6,3.6,0,0,1,.487.059c.249.056.5.121.74.2a2.04,2.04,0,0,1,.776.459,1.269,1.269,0,0,1,.362.667,4.277,4.277,0,0,1,.078.573,3.082,3.082,0,0,0-.8-.938,3.029,3.029,0,0,0-1.091-.549l-.02.03" transform="translate(3.441 31.234)" fill="#b8c766" fill-rule="evenodd"/>
      <path id="Path_360" data-name="Path 360" d="M8.721,54.657a1.111,1.111,0,0,1-.606-.146.611.611,0,0,1-.274-.451.807.807,0,0,0-.327-.535c-.088-.067-.191-.114-.282-.178A1.226,1.226,0,0,1,7.1,53.22a.856.856,0,0,1,.135-.081c.247-.094.357-.033.515.166a1.07,1.07,0,0,1,.175.451.506.506,0,0,0,.369.385,1.434,1.434,0,0,0,.792.008c.29-.067.574-.153.861-.232a.176.176,0,0,1,.2.064c.044.056.088.111.127.169a.1.1,0,0,1-.049.163c-.218.074-.435.15-.659.207-.2.053-.41.083-.617.119-.077.013-.155.013-.233.019" transform="translate(4.015 30.006)" fill="#b8c766" fill-rule="evenodd"/>
      <path id="Path_361" data-name="Path 361" d="M8.44,53.938a1,1,0,0,1-.6-.178.763.763,0,0,1-.261-.482,1.377,1.377,0,0,1-.028-.144c0-.025,0-.074.013-.077a.236.236,0,0,1,.11,0c.019,0,.036.031.045.052a.59.59,0,0,0,.482.3,2.37,2.37,0,0,0,.712-.034.584.584,0,0,1,.277.041,1.177,1.177,0,0,1,.241.157c.074.053.067.124-.019.152a4.741,4.741,0,0,1-.484.141c-.161.036-.327.05-.491.074" transform="translate(4.269 29.982)" fill="#b8c766" fill-rule="evenodd"/>
      <path id="Path_362" data-name="Path 362" d="M7.823,56.755a1.579,1.579,0,0,1,.546-.427,1.966,1.966,0,0,1,.681-.2.721.721,0,0,1,.216.017c.033.008.058.045.086.07a.4.4,0,0,1-.061.064,3.233,3.233,0,0,1-1.02.4c-.121.025-.244.047-.366.07a.688.688,0,0,1-.081,0" transform="translate(4.422 31.717)" fill="#b8c766" fill-rule="evenodd"/>
      <line id="Line_1" data-name="Line 1" x2="73.476" transform="translate(0.537 88.406)" fill="none" stroke="#9a673d" stroke-linecap="round" stroke-linejoin="round" stroke-width="0.327"/>
    </g>
  </g>
</svg>
