<svg xmlns="http://www.w3.org/2000/svg" width="56" height="56" viewBox="0 0 56 56">
  <g id="Group_141565" data-name="Group 141565" transform="translate(-138 -864)">
    <g id="Ellipse_269" data-name="Ellipse 269" transform="translate(138 864)" fill="#fff" stroke="#c5c5c5" stroke-width="1">
      <circle cx="28" cy="28" r="28" stroke="none"/>
      <circle cx="28" cy="28" r="27.5" fill="none"/>
    </g>
    <g id="Ellipse_273" data-name="Ellipse 273" transform="translate(138 864)" fill="#fff" stroke="#c5c5c5" stroke-width="1">
      <circle cx="28" cy="28" r="28" stroke="none"/>
      <circle cx="28" cy="28" r="27.5" fill="none"/>
    </g>
    <g id="Logo" transform="translate(142 886.75)">
      <g id="Subtitle" transform="translate(17.437 7.836)">
        <path id="Path_564" data-name="Path 564" d="M177.377,78.387a.066.066,0,0,1,.023-.055.254.254,0,0,1,.066-.035l.255-.094h.02a.057.057,0,0,1,.056.026.137.137,0,0,1,.014.067v.373H178a.079.079,0,0,1,.059.023.092.092,0,0,1,.023.068v.228a.1.1,0,0,1-.023.073.078.078,0,0,1-.059.023h-.188v.952a.089.089,0,0,1-.025.068.1.1,0,0,1-.069.023h-.254q-.087,0-.087-.091v-.952h-.082q-.086,0-.087-.1v-.228q0-.09.087-.09h.082Z" transform="translate(-177.207 -78.023)" fill="#71b32f"/>
        <path id="Path_565" data-name="Path 565" d="M188.766,82.172a.091.091,0,0,1,.008-.039.084.084,0,0,1,.021-.029.106.106,0,0,1,.061-.02h.17a.06.06,0,0,1,.034.008.074.074,0,0,1,.021.021.159.159,0,0,1,.015.03.275.275,0,0,0,.015.033l.009.023.015.04.015.041.01.026q.034-.039.065-.082a.748.748,0,0,1,.066-.08.318.318,0,0,1,.078-.06.2.2,0,0,1,.1-.024.55.55,0,0,1,.109.01.455.455,0,0,1,.091.028.513.513,0,0,1,.085.047c.028.019.059.041.092.066q.078.044.029.13l-.1.184a.093.093,0,0,1-.055.044.1.1,0,0,1-.071-.011.36.36,0,0,0-.1-.074.26.26,0,0,0-.114-.024.212.212,0,0,0-.077.013.206.206,0,0,0-.06.037.334.334,0,0,0-.051.057c-.016.022-.031.047-.047.074V83.5a.1.1,0,0,1-.021.068.089.089,0,0,1-.069.023h-.253q-.088,0-.088-.091Z" transform="translate(-187.629 -81.487)" fill="#71b32f"/>
        <path id="Path_566" data-name="Path 566" d="M203.895,83.5a.111.111,0,0,1-.007.039.058.058,0,0,1-.023.029.055.055,0,0,1-.029.016.146.146,0,0,1-.029,0h-.221a.094.094,0,0,1-.038-.007.059.059,0,0,1-.024-.018.113.113,0,0,1-.015-.029L203.5,83.5l-.032-.089-.067.068a.613.613,0,0,1-.079.067.468.468,0,0,1-.094.052.282.282,0,0,1-.108.021.7.7,0,0,1-.2-.027.711.711,0,0,1-.176-.078.724.724,0,0,1-.148-.121.777.777,0,0,1-.114-.157.787.787,0,0,1-.074-.187.828.828,0,0,1-.026-.209.807.807,0,0,1,.057-.306.784.784,0,0,1,.156-.246.724.724,0,0,1,.233-.165.692.692,0,0,1,.287-.06.363.363,0,0,1,.128.022.435.435,0,0,1,.106.058.535.535,0,0,1,.086.081.868.868,0,0,1,.069.091l.044-.143.019-.048a.09.09,0,0,1,.016-.027.042.042,0,0,1,.021-.012.161.161,0,0,1,.035,0h.168a.138.138,0,0,1,.029,0,.055.055,0,0,1,.029.016.073.073,0,0,1,.023.03.1.1,0,0,1,.007.038Zm-1.108-.663a.454.454,0,0,0,.023.146.355.355,0,0,0,.066.118.314.314,0,0,0,.1.079.3.3,0,0,0,.133.029.337.337,0,0,0,.14-.029.354.354,0,0,0,.187-.2.406.406,0,0,0,0-.291.385.385,0,0,0-.075-.121.356.356,0,0,0-.113-.082.327.327,0,0,0-.14-.03.293.293,0,0,0-.133.03.314.314,0,0,0-.1.082.381.381,0,0,0-.066.121.453.453,0,0,0-.023.145" transform="translate(-199.905 -81.487)" fill="#71b32f"/>
        <path id="Path_567" data-name="Path 567" d="M473.651,76.456h.2a.139.139,0,0,1,.029,0,.055.055,0,0,1,.029.017.074.074,0,0,1,.023.03.1.1,0,0,1,.007.038v1.927a.111.111,0,0,1-.007.039.058.058,0,0,1-.023.029.055.055,0,0,1-.029.016.148.148,0,0,1-.029,0h-.221a.094.094,0,0,1-.038-.007.059.059,0,0,1-.024-.018.112.112,0,0,1-.015-.029l-.013-.037-.033-.089-.066.068a.615.615,0,0,1-.079.067.468.468,0,0,1-.094.052.282.282,0,0,1-.108.021.7.7,0,0,1-.2-.027.711.711,0,0,1-.176-.078.723.723,0,0,1-.148-.121.778.778,0,0,1-.114-.157.792.792,0,0,1-.074-.187.829.829,0,0,1-.026-.209.807.807,0,0,1,.057-.306.784.784,0,0,1,.156-.246.725.725,0,0,1,.233-.165.692.692,0,0,1,.287-.06.364.364,0,0,1,.128.022.436.436,0,0,1,.106.058.538.538,0,0,1,.087.081.892.892,0,0,1,.069.091l.008-.736s0-.051.017-.067a.113.113,0,0,1,.073-.023m-.817,1.352a.454.454,0,0,0,.023.146.354.354,0,0,0,.066.118.315.315,0,0,0,.1.079.3.3,0,0,0,.133.029.337.337,0,0,0,.14-.029.354.354,0,0,0,.187-.2.406.406,0,0,0,0-.291.387.387,0,0,0-.075-.121.356.356,0,0,0-.113-.082.327.327,0,0,0-.14-.03.293.293,0,0,0-.133.03.314.314,0,0,0-.1.082.38.38,0,0,0-.066.121.452.452,0,0,0-.023.145" transform="translate(-443.379 -76.456)" fill="#71b32f"/>
        <path id="Path_568" data-name="Path 568" d="M221.424,82.118a.068.068,0,0,1,.031-.017.145.145,0,0,1,.031,0h.17a.074.074,0,0,1,.035.008.076.076,0,0,1,.025.021.11.11,0,0,1,.016.03l.012.034.035.151a.58.58,0,0,1,.049-.083.426.426,0,0,1,.082-.087.446.446,0,0,1,.118-.069.415.415,0,0,1,.158-.028.517.517,0,0,1,.233.052.539.539,0,0,1,.179.142.661.661,0,0,1,.114.21.8.8,0,0,1,.041.256v.776a.107.107,0,0,1-.019.068.072.072,0,0,1-.059.023h-.26a.1.1,0,0,1-.066-.017.093.093,0,0,1-.018-.067v-.771a.221.221,0,0,0-.022-.1.282.282,0,0,0-.14-.136.228.228,0,0,0-.093-.02.2.2,0,0,0-.083.019.275.275,0,0,0-.078.053.308.308,0,0,0-.06.079.242.242,0,0,0-.028.1v.77a.117.117,0,0,1-.007.04.065.065,0,0,1-.022.031.1.1,0,0,1-.028.013.113.113,0,0,1-.03,0h-.254a.087.087,0,0,1-.07-.025.1.1,0,0,1-.021-.066V82.185a.092.092,0,0,1,.009-.041.075.075,0,0,1,.026-.03Z" transform="translate(-217.047 -81.498)" fill="#71b32f"/>
        <path id="Path_569" data-name="Path 569" d="M238.477,83.059a.33.33,0,0,0,.066.054.483.483,0,0,0,.068.036.4.4,0,0,0,.057.019.182.182,0,0,0,.034.006l.055,0a.28.28,0,0,0,.064-.011.129.129,0,0,0,.052-.029.073.073,0,0,0,.022-.057.1.1,0,0,0-.012-.053.1.1,0,0,0-.036-.033.284.284,0,0,0-.058-.024l-.077-.025a.9.9,0,0,1-.223-.091.506.506,0,0,1-.139-.119.394.394,0,0,1-.071-.142.622.622,0,0,1-.02-.16.423.423,0,0,1,.037-.179.392.392,0,0,1,.106-.138.494.494,0,0,1,.164-.089.68.68,0,0,1,.213-.031.672.672,0,0,1,.133.012.506.506,0,0,1,.118.039.577.577,0,0,1,.11.069.9.9,0,0,1,.106.1.075.075,0,0,1,.02.044.062.062,0,0,1-.025.044l-.084.075c-.027.024-.054.052-.083.082a.061.061,0,0,1-.027.015.054.054,0,0,1-.026,0A.076.076,0,0,1,239,82.46a.107.107,0,0,1-.02-.02.2.2,0,0,0-.09-.062.315.315,0,0,0-.094-.016.166.166,0,0,0-.088.02.063.063,0,0,0-.03.062.068.068,0,0,0,.022.048.152.152,0,0,0,.048.028.413.413,0,0,0,.061.017.607.607,0,0,1,.059.015,1.676,1.676,0,0,1,.186.075.568.568,0,0,1,.146.1.413.413,0,0,1,.1.14.517.517,0,0,1,.034.2.478.478,0,0,1-.044.21.446.446,0,0,1-.122.155.549.549,0,0,1-.184.1.764.764,0,0,1-.229.033.793.793,0,0,1-.142-.013.635.635,0,0,1-.139-.042.628.628,0,0,1-.128-.075.517.517,0,0,1-.108-.111.124.124,0,0,1-.019-.035.1.1,0,0,1-.006-.036.094.094,0,0,1,.007-.033.063.063,0,0,1,.02-.025l.145-.153a.05.05,0,0,1,.048-.017.159.159,0,0,1,.054.04" transform="translate(-232.202 -81.425)" fill="#71b32f"/>
        <path id="Path_570" data-name="Path 570" d="M252.454,77.822a.488.488,0,0,1,.045-.207.562.562,0,0,1,.12-.17.571.571,0,0,1,.173-.115.515.515,0,0,1,.2-.042h.023a.073.073,0,0,1,.059.024.1.1,0,0,1,.021.067v.226a.118.118,0,0,1-.022.073.069.069,0,0,1-.058.029H253a.118.118,0,0,0-.045.009.13.13,0,0,0-.038.024.118.118,0,0,0-.027.036.1.1,0,0,0-.01.046v.136h.177a.077.077,0,0,1,.059.022.1.1,0,0,1,.021.069v.217a.111.111,0,0,1-.021.075.074.074,0,0,1-.059.024h-.177v.849a.082.082,0,0,1-.029.068.1.1,0,0,1-.062.023h-.243a.083.083,0,0,1-.065-.027.093.093,0,0,1-.024-.065v-.849h-.116a.087.087,0,0,1-.064-.024.1.1,0,0,1-.024-.075V78.05a.089.089,0,0,1,.024-.069.091.091,0,0,1,.064-.022h.116Z" transform="translate(-244.866 -77.203)" fill="#71b32f"/>
        <path id="Path_571" data-name="Path 571" d="M263.293,82.838a.824.824,0,0,1,.026-.21.8.8,0,0,1,.074-.187.779.779,0,0,1,.115-.156.716.716,0,0,1,.326-.2.713.713,0,0,1,.2-.027.7.7,0,0,1,.287.06.729.729,0,0,1,.234.165.787.787,0,0,1,.157.246.8.8,0,0,1,.058.306.816.816,0,0,1-.1.4.773.773,0,0,1-.115.157.738.738,0,0,1-.149.121.724.724,0,0,1-.176.078.7.7,0,0,1-.2.027.714.714,0,0,1-.376-.1.733.733,0,0,1-.149-.121.766.766,0,0,1-.115-.157.816.816,0,0,1-.1-.4m.411,0a.454.454,0,0,0,.023.146.361.361,0,0,0,.065.118.312.312,0,0,0,.1.079.308.308,0,0,0,.135.029.3.3,0,0,0,.132-.029.3.3,0,0,0,.1-.079.351.351,0,0,0,.063-.118.491.491,0,0,0,0-.291.377.377,0,0,0-.063-.121.3.3,0,0,0-.1-.082.287.287,0,0,0-.132-.03.3.3,0,0,0-.135.03.311.311,0,0,0-.1.082.387.387,0,0,0-.065.121.452.452,0,0,0-.023.145" transform="translate(-254.822 -81.487)" fill="#71b32f"/>
        <path id="Path_572" data-name="Path 572" d="M438.18,82.838a.824.824,0,0,1,.026-.21.8.8,0,0,1,.074-.187.773.773,0,0,1,.115-.156.716.716,0,0,1,.326-.2.713.713,0,0,1,.2-.027.7.7,0,0,1,.287.06.727.727,0,0,1,.234.165.786.786,0,0,1,.158.246.8.8,0,0,1,.058.306.816.816,0,0,1-.1.4.773.773,0,0,1-.115.157.735.735,0,0,1-.149.121.722.722,0,0,1-.176.078.7.7,0,0,1-.2.027.714.714,0,0,1-.376-.1.736.736,0,0,1-.149-.121.761.761,0,0,1-.115-.157.813.813,0,0,1-.1-.4m.411,0a.454.454,0,0,0,.023.146.361.361,0,0,0,.065.118.311.311,0,0,0,.1.079.308.308,0,0,0,.135.029.3.3,0,0,0,.132-.029.3.3,0,0,0,.1-.079.35.35,0,0,0,.063-.118.491.491,0,0,0,0-.291.376.376,0,0,0-.063-.121.3.3,0,0,0-.1-.082.287.287,0,0,0-.132-.03.3.3,0,0,0-.135.03.311.311,0,0,0-.1.082.388.388,0,0,0-.065.121.452.452,0,0,0-.023.145" transform="translate(-412.5 -81.487)" fill="#71b32f"/>
        <path id="Path_573" data-name="Path 573" d="M455.3,82.838a.822.822,0,0,1,.026-.21.8.8,0,0,1,.074-.187.774.774,0,0,1,.115-.156.716.716,0,0,1,.326-.2.714.714,0,0,1,.2-.027.7.7,0,0,1,.287.06.728.728,0,0,1,.234.165.786.786,0,0,1,.157.246.8.8,0,0,1,.058.306.816.816,0,0,1-.1.4.773.773,0,0,1-.115.157.739.739,0,0,1-.149.121.725.725,0,0,1-.176.078.7.7,0,0,1-.2.027.714.714,0,0,1-.376-.1.733.733,0,0,1-.149-.121.761.761,0,0,1-.115-.157.815.815,0,0,1-.1-.4m.411,0a.454.454,0,0,0,.023.146.361.361,0,0,0,.065.118.311.311,0,0,0,.1.079.307.307,0,0,0,.135.029.3.3,0,0,0,.132-.029.3.3,0,0,0,.1-.079.351.351,0,0,0,.063-.118.491.491,0,0,0,0-.291.377.377,0,0,0-.063-.121.3.3,0,0,0-.1-.082.287.287,0,0,0-.132-.03.3.3,0,0,0-.135.03.311.311,0,0,0-.1.082.387.387,0,0,0-.065.121.452.452,0,0,0-.023.145" transform="translate(-427.939 -81.487)" fill="#71b32f"/>
        <path id="Path_574" data-name="Path 574" d="M281.471,82.172a.092.092,0,0,1,.008-.039.086.086,0,0,1,.021-.029.107.107,0,0,1,.061-.02h.17a.06.06,0,0,1,.034.008.072.072,0,0,1,.021.021.159.159,0,0,1,.015.03.25.25,0,0,0,.015.033l.009.023.015.04.015.041.01.026q.034-.039.065-.082a.758.758,0,0,1,.066-.08.316.316,0,0,1,.078-.06.2.2,0,0,1,.1-.024.548.548,0,0,1,.108.01.452.452,0,0,1,.091.028.509.509,0,0,1,.085.047c.028.019.059.041.092.066q.078.044.029.13l-.1.184a.093.093,0,0,1-.055.044.1.1,0,0,1-.071-.011.359.359,0,0,0-.1-.074.26.26,0,0,0-.114-.024.211.211,0,0,0-.077.013.2.2,0,0,0-.06.037.338.338,0,0,0-.051.057c-.016.022-.031.047-.047.074V83.5a.1.1,0,0,1-.021.068.089.089,0,0,1-.069.023h-.253q-.088,0-.088-.091Z" transform="translate(-271.211 -81.487)" fill="#71b32f"/>
        <path id="Path_575" data-name="Path 575" d="M371.432,80.081a.487.487,0,0,1,.045-.207.56.56,0,0,1,.12-.17.572.572,0,0,1,.173-.115.515.515,0,0,1,.2-.042H372a.074.074,0,0,1,.059.024.1.1,0,0,1,.021.067v.226a.118.118,0,0,1-.022.073.069.069,0,0,1-.058.029h-.023a.118.118,0,0,0-.045.009.13.13,0,0,0-.038.024.118.118,0,0,0-.027.036.1.1,0,0,0-.01.046v.136h.177a.077.077,0,0,1,.059.022.1.1,0,0,1,.021.069v.217a.111.111,0,0,1-.021.075.074.074,0,0,1-.059.024h-.177v.849a.082.082,0,0,1-.029.068.1.1,0,0,1-.062.023h-.243a.083.083,0,0,1-.065-.027.093.093,0,0,1-.024-.065v-.849h-.116a.087.087,0,0,1-.064-.024.1.1,0,0,1-.024-.075v-.217a.089.089,0,0,1,.024-.069.091.091,0,0,1,.064-.022h.116Z" transform="translate(-352.136 -79.23)" fill="#71b32f"/>
        <path id="Path_576" data-name="Path 576" d="M382.271,85.1a.824.824,0,0,1,.026-.21.8.8,0,0,1,.074-.187.775.775,0,0,1,.115-.156.716.716,0,0,1,.326-.2.713.713,0,0,1,.2-.027.7.7,0,0,1,.287.06.728.728,0,0,1,.234.165.785.785,0,0,1,.157.247.8.8,0,0,1,.058.306.816.816,0,0,1-.1.4.773.773,0,0,1-.115.157.738.738,0,0,1-.149.121.724.724,0,0,1-.176.078.7.7,0,0,1-.2.027.714.714,0,0,1-.376-.1.732.732,0,0,1-.149-.121.762.762,0,0,1-.115-.157.814.814,0,0,1-.1-.4m.411,0a.454.454,0,0,0,.023.146.359.359,0,0,0,.065.118.3.3,0,0,0,.238.108.3.3,0,0,0,.132-.029.3.3,0,0,0,.1-.079.349.349,0,0,0,.063-.118.491.491,0,0,0,0-.291.376.376,0,0,0-.063-.121.3.3,0,0,0-.1-.082.287.287,0,0,0-.132-.03.3.3,0,0,0-.135.03.311.311,0,0,0-.1.082.387.387,0,0,0-.065.121.453.453,0,0,0-.023.145" transform="translate(-362.093 -83.514)" fill="#71b32f"/>
        <path id="Path_577" data-name="Path 577" d="M400.449,84.432a.092.092,0,0,1,.008-.039.085.085,0,0,1,.021-.029.107.107,0,0,1,.061-.02h.17a.06.06,0,0,1,.034.008.072.072,0,0,1,.021.021.158.158,0,0,1,.015.03.24.24,0,0,0,.015.033l.009.023.015.04.015.041.01.026q.034-.039.065-.082a.748.748,0,0,1,.066-.08.317.317,0,0,1,.078-.06.2.2,0,0,1,.1-.024.556.556,0,0,1,.108.01.454.454,0,0,1,.091.028.509.509,0,0,1,.085.047c.028.019.059.041.092.066q.078.044.029.13l-.1.184a.093.093,0,0,1-.055.044.1.1,0,0,1-.071-.011.357.357,0,0,0-.1-.074.26.26,0,0,0-.114-.024.211.211,0,0,0-.077.013.2.2,0,0,0-.06.037.338.338,0,0,0-.051.057q-.024.033-.047.074v.858a.1.1,0,0,1-.021.068.089.089,0,0,1-.069.023h-.253q-.088,0-.088-.091Z" transform="translate(-378.482 -83.515)" fill="#71b32f"/>
        <path id="Path_578" data-name="Path 578" d="M295.55,82.118a.068.068,0,0,1,.031-.017.146.146,0,0,1,.031,0h.17a.072.072,0,0,1,.06.028.107.107,0,0,1,.016.03l.012.034.035.151c.011-.025.025-.052.041-.083a.362.362,0,0,1,.064-.087.332.332,0,0,1,.1-.069.357.357,0,0,1,.15-.028.482.482,0,0,1,.252.064.533.533,0,0,1,.178.173.515.515,0,0,1,.059-.079.485.485,0,0,1,.089-.077.491.491,0,0,1,.119-.058.449.449,0,0,1,.148-.023.494.494,0,0,1,.229.052.516.516,0,0,1,.171.142.638.638,0,0,1,.107.21.878.878,0,0,1,.037.256v.776a.106.106,0,0,1-.019.068.072.072,0,0,1-.059.023h-.26a.1.1,0,0,1-.066-.017.092.092,0,0,1-.018-.067v-.783a.284.284,0,0,0-.015-.095.245.245,0,0,0-.042-.076.192.192,0,0,0-.066-.051.2.2,0,0,0-.086-.018.191.191,0,0,0-.081.018.217.217,0,0,0-.068.049.239.239,0,0,0-.047.076.264.264,0,0,0-.017.1v.776a.107.107,0,0,1-.019.068.072.072,0,0,1-.059.023h-.26a.1.1,0,0,1-.066-.017.092.092,0,0,1-.018-.067v-.783a.312.312,0,0,0-.014-.095.238.238,0,0,0-.04-.076.186.186,0,0,0-.149-.069.194.194,0,0,0-.079.017.226.226,0,0,0-.07.048.279.279,0,0,0-.052.075.266.266,0,0,0-.024.1v.782a.117.117,0,0,1-.007.04.065.065,0,0,1-.022.031.1.1,0,0,1-.028.013.114.114,0,0,1-.03,0h-.254a.088.088,0,0,1-.07-.025.1.1,0,0,1-.021-.066V82.185a.092.092,0,0,1,.01-.041.075.075,0,0,1,.026-.03Z" transform="translate(-283.879 -81.498)" fill="#71b32f"/>
        <path id="Path_579" data-name="Path 579" d="M320.766,76.548a.1.1,0,0,1,.02-.07.084.084,0,0,1,.063-.021h.261a.094.094,0,0,1,.064.021.089.089,0,0,1,.024.07v.231a.091.091,0,0,1-.006.031.135.135,0,0,1-.017.032.1.1,0,0,1-.027.025.068.068,0,0,1-.037.01h-.261q-.083,0-.083-.1Zm0,.6a.105.105,0,0,1,.02-.065.073.073,0,0,1,.063-.027h.258a.079.079,0,0,1,.029.006.1.1,0,0,1,.029.019.121.121,0,0,1,.023.029.074.074,0,0,1,.01.038v1.321a.082.082,0,0,1-.091.091h-.258q-.083,0-.083-.091Z" transform="translate(-306.64 -76.457)" fill="#71b32f"/>
        <path id="Path_580" data-name="Path 580" d="M328.819,82.118a.068.068,0,0,1,.031-.017.147.147,0,0,1,.031,0h.17a.072.072,0,0,1,.06.028.108.108,0,0,1,.016.03c0,.011.008.023.012.034l.035.151a.563.563,0,0,1,.049-.083.423.423,0,0,1,.082-.087.447.447,0,0,1,.118-.069.415.415,0,0,1,.158-.028.518.518,0,0,1,.233.052.539.539,0,0,1,.178.142.664.664,0,0,1,.114.21.8.8,0,0,1,.04.256v.776a.106.106,0,0,1-.019.068.072.072,0,0,1-.059.023h-.26a.1.1,0,0,1-.066-.017.093.093,0,0,1-.018-.067v-.771a.221.221,0,0,0-.022-.1.282.282,0,0,0-.139-.136.228.228,0,0,0-.093-.02.2.2,0,0,0-.083.019.277.277,0,0,0-.078.053.309.309,0,0,0-.06.079.24.24,0,0,0-.027.1v.77a.115.115,0,0,1-.007.04.064.064,0,0,1-.022.031.1.1,0,0,1-.028.013.114.114,0,0,1-.03,0h-.254a.087.087,0,0,1-.07-.025.1.1,0,0,1-.021-.066V82.185a.091.091,0,0,1,.01-.041.074.074,0,0,1,.026-.03Z" transform="translate(-313.874 -81.498)" fill="#71b32f"/>
        <path id="Path_581" data-name="Path 581" d="M347.112,83.516a.3.3,0,0,0,.012-.092q0-.051,0-.1l-.066.078a.588.588,0,0,1-.075.076.375.375,0,0,1-.093.058.3.3,0,0,1-.12.022.716.716,0,0,1-.281-.055.666.666,0,0,1-.224-.152.693.693,0,0,1-.147-.234.819.819,0,0,1-.053-.3.86.86,0,0,1,.053-.3.762.762,0,0,1,.147-.247.69.69,0,0,1,.224-.165.664.664,0,0,1,.281-.06.335.335,0,0,1,.125.023.422.422,0,0,1,.1.058.567.567,0,0,1,.083.08c.025.03.049.059.071.088l.043-.141.012-.037a.09.09,0,0,1,.015-.028.057.057,0,0,1,.023-.017.1.1,0,0,1,.036-.006h.168a.136.136,0,0,1,.029,0,.056.056,0,0,1,.029.016.1.1,0,0,1,.024.029.086.086,0,0,1,.008.039v1.206a.887.887,0,0,1-.057.329.711.711,0,0,1-.157.244.665.665,0,0,1-.236.152.819.819,0,0,1-.423.041.921.921,0,0,1-.139-.034.805.805,0,0,1-.134-.057.555.555,0,0,1-.114-.081.126.126,0,0,1-.024-.025.086.086,0,0,1-.014-.032.094.094,0,0,1,0-.038.12.12,0,0,1,.019-.043l.107-.155a.09.09,0,0,1,.055-.035.1.1,0,0,1,.065.029.227.227,0,0,0,.065.045.439.439,0,0,0,.152.04l.068,0a.422.422,0,0,0,.106-.014.405.405,0,0,0,.1-.042.35.35,0,0,0,.084-.068.214.214,0,0,0,.05-.092m-.643-.7a.454.454,0,0,0,.023.147.352.352,0,0,0,.066.118.306.306,0,0,0,.236.107.348.348,0,0,0,.136-.027.341.341,0,0,0,.111-.074.372.372,0,0,0,.076-.111.378.378,0,0,0,.032-.139V82.8a.379.379,0,0,0-.032-.137.4.4,0,0,0-.076-.114.362.362,0,0,0-.111-.078.324.324,0,0,0-.136-.029.294.294,0,0,0-.133.03.321.321,0,0,0-.1.081.365.365,0,0,0-.066.12.45.45,0,0,0-.023.145" transform="translate(-329.449 -81.466)" fill="#71b32f"/>
        <path id="Path_582" data-name="Path 582" d="M422.149,83.516a.3.3,0,0,0,.012-.092q0-.051,0-.1l-.066.078a.586.586,0,0,1-.075.076.375.375,0,0,1-.093.058.3.3,0,0,1-.12.022.716.716,0,0,1-.281-.055.667.667,0,0,1-.224-.152.693.693,0,0,1-.147-.234.819.819,0,0,1-.053-.3.86.86,0,0,1,.053-.3.763.763,0,0,1,.147-.247.69.69,0,0,1,.224-.165.664.664,0,0,1,.281-.06.335.335,0,0,1,.125.023.422.422,0,0,1,.1.058.568.568,0,0,1,.083.08q.038.044.071.088l.043-.141.012-.037a.091.091,0,0,1,.015-.028.058.058,0,0,1,.023-.017.1.1,0,0,1,.036-.006h.168a.136.136,0,0,1,.029,0,.056.056,0,0,1,.029.016.1.1,0,0,1,.024.029.086.086,0,0,1,.008.039v1.206a.887.887,0,0,1-.057.329.71.71,0,0,1-.157.244.665.665,0,0,1-.236.152.819.819,0,0,1-.423.041.921.921,0,0,1-.139-.034.806.806,0,0,1-.134-.057.554.554,0,0,1-.114-.081.126.126,0,0,1-.024-.025.086.086,0,0,1-.014-.032.094.094,0,0,1,0-.038.12.12,0,0,1,.019-.043l.107-.155a.09.09,0,0,1,.055-.035.1.1,0,0,1,.065.029.228.228,0,0,0,.065.045.44.44,0,0,0,.152.04l.068,0a.422.422,0,0,0,.106-.014.406.406,0,0,0,.1-.042.349.349,0,0,0,.084-.068.214.214,0,0,0,.05-.092m-.643-.7a.453.453,0,0,0,.023.147.352.352,0,0,0,.066.118.306.306,0,0,0,.236.107.348.348,0,0,0,.136-.027.341.341,0,0,0,.111-.074.372.372,0,0,0,.076-.111.377.377,0,0,0,.032-.139V82.8a.377.377,0,0,0-.032-.137.4.4,0,0,0-.076-.114.363.363,0,0,0-.111-.078.324.324,0,0,0-.136-.029.294.294,0,0,0-.133.03.321.321,0,0,0-.1.081.365.365,0,0,0-.066.12.45.45,0,0,0-.023.145" transform="translate(-397.102 -81.466)" fill="#71b32f"/>
      </g>
      <g id="Logomark">
        <path id="Path_588" data-name="Path 588" d="M1.359,33.374a8.318,8.318,0,0,1,1.547.229,4.376,4.376,0,0,1,1.389.589,1.858,1.858,0,0,1,.829,1.062c.026.1.043.2.063.3a.984.984,0,0,0,.824.77A3.6,3.6,0,0,0,7.638,36.2a12.557,12.557,0,0,0,2.225-.835.2.2,0,0,1,.181,0,.284.284,0,0,1,.058.2,3.561,3.561,0,0,1-.072.433.512.512,0,0,1-.355.392c-.59.209-1.176.432-1.774.611a4.369,4.369,0,0,1-1.52.206,1.5,1.5,0,0,1-1.009-.375,1.147,1.147,0,0,1-.332-.7,1.474,1.474,0,0,0-.58-1,3.835,3.835,0,0,0-1.545-.691,7.18,7.18,0,0,0-1.9-.194c-.2.005-.266-.09-.232-.3a2.652,2.652,0,0,1,.071-.3c.066-.228.131-.276.36-.276Z" transform="translate(-0.695 -29.953)" fill="#005298" fill-rule="evenodd"/>
        <path id="Path_589" data-name="Path 589" d="M6.486,19.759a5.153,5.153,0,0,1,2.421.823A1.849,1.849,0,0,1,9.664,21.6a3.845,3.845,0,0,0,.121.492,1,1,0,0,0,.877.588,5.129,5.129,0,0,0,2.359-.408c.385-.139.762-.311,1.14-.471.113-.048.316-.132.418-.015a.635.635,0,0,1,.071.272.477.477,0,0,1-.32.615,13.576,13.576,0,0,1-1.871.66,5.3,5.3,0,0,1-1.439.213,1.6,1.6,0,0,1-1.044-.311,1.167,1.167,0,0,1-.407-.777,1.42,1.42,0,0,0-.444-.867,3.492,3.492,0,0,0-1.6-.791,6.475,6.475,0,0,0-1.415-.207.615.615,0,0,1-.172-.04.185.185,0,0,1-.12-.257,1.96,1.96,0,0,1,.241-.408.491.491,0,0,1,.429-.128" transform="translate(-5.227 -17.733)" fill="#005298" fill-rule="evenodd"/>
        <path id="Path_590" data-name="Path 590" d="M5.875,51.243a1.661,1.661,0,0,1-1.038-.229.985.985,0,0,1-.449-.662,1.779,1.779,0,0,0-.537-1.1,3.148,3.148,0,0,0-1.015-.576,5.806,5.806,0,0,0-1.619-.343C.938,48.32.659,48.3.38,48.29c-.259-.01-.335-.083-.352-.35-.005-.085-.017-.169-.026-.254-.017-.165.061-.277.219-.27a11.3,11.3,0,0,1,1.132.08,9.451,9.451,0,0,1,1.175.247,3.462,3.462,0,0,1,1.371.728,1.862,1.862,0,0,1,.6,1.142.909.909,0,0,0,.759.747A3.313,3.313,0,0,0,6.8,50.287,10.424,10.424,0,0,0,8.532,49.7c.1-.04.189-.086.287-.118a.153.153,0,0,1,.132.011.155.155,0,0,1,0,.137c-.132.242-.26.488-.412.715a1.173,1.173,0,0,1-.671.419,8.83,8.83,0,0,1-1.588.377,3.071,3.071,0,0,1-.405,0" transform="translate(0 -42.555)" fill="#71b32f" fill-rule="evenodd"/>
        <path id="Path_591" data-name="Path 591" d="M4.259,62.69c.071.064.14.132.214.194.486.407.983.8,1.456,1.225a3.74,3.74,0,0,1,.927,1.205c-.208-.049-.4-.081-.575-.138a5.048,5.048,0,0,1-1.669-.892A4.159,4.159,0,0,1,3.18,62.29a1.664,1.664,0,0,1-.058-.262.2.2,0,0,1,.219-.252,6.1,6.1,0,0,1,.843.108,12.992,12.992,0,0,1,1.282.366,3.489,3.489,0,0,1,1.347.837A2.353,2.353,0,0,1,7.44,64.3a8.359,8.359,0,0,1,.134,1.047,5.586,5.586,0,0,0-1.388-1.711,5.137,5.137,0,0,0-1.892-1l-.034.053" transform="translate(-2.811 -55.444)" fill="#71b32f" fill-rule="evenodd"/>
        <path id="Path_592" data-name="Path 592" d="M19.759,11.671a2.5,2.5,0,0,1-.92-.2,1.093,1.093,0,0,1-.582-.866,1.546,1.546,0,0,0-.649-1.049,3.767,3.767,0,0,0-1.444-.628c-.2-.047-.4-.084-.59-.142-.166-.05-.191-.161-.061-.274.187-.164.35-.4.623-.386a1.8,1.8,0,0,1,.519.114,3.051,3.051,0,0,1,1.383.9,1.9,1.9,0,0,1,.368.9.916.916,0,0,0,.694.729,2.715,2.715,0,0,0,1.282.013,10.129,10.129,0,0,0,2.192-.707.264.264,0,0,1,.4.169c.025.06.044.124.067.185a.326.326,0,0,1-.024.365.519.519,0,0,1-.179.1c-.283.107-.566.213-.85.316a6.135,6.135,0,0,1-2.227.476" transform="translate(-13.912 -7.291)" fill="#005298" fill-rule="evenodd"/>
        <path id="Path_593" data-name="Path 593" d="M33.988,4.069A1.87,1.87,0,0,1,32.939,3.8a1.127,1.127,0,0,1-.476-.824A1.49,1.49,0,0,0,31.9,2c-.152-.123-.331-.208-.488-.325a1.812,1.812,0,0,1-.222-.232,1.478,1.478,0,0,1,.231-.147c.428-.174.618-.06.892.3a1.963,1.963,0,0,1,.3.823.908.908,0,0,0,.64.7,2.383,2.383,0,0,0,1.374.015c.5-.125,1-.279,1.492-.422a.294.294,0,0,1,.347.117c.075.1.151.2.22.305a.189.189,0,0,1-.085.3c-.378.133-.755.274-1.141.378-.351.1-.712.151-1.071.215-.133.024-.269.024-.4.035" transform="translate(-28.118 -1.094)" fill="#71b32f" fill-rule="evenodd"/>
        <path id="Path_594" data-name="Path 594" d="M45.081,1.619a1.67,1.67,0,0,1-1.035-.325A1.421,1.421,0,0,1,43.6.415c-.018-.088-.042-.175-.052-.263-.005-.048,0-.136.022-.141a.372.372,0,0,1,.19,0c.032.009.062.056.08.093a1.021,1.021,0,0,0,.834.548A3.944,3.944,0,0,0,45.906.59a.971.971,0,0,1,.481.075A1.991,1.991,0,0,1,46.8.95c.128.1.117.225-.031.277a8.005,8.005,0,0,1-.838.258c-.28.065-.568.091-.852.134" transform="translate(-39.258 0)" fill="#71b32f" fill-rule="evenodd"/>
        <path id="Path_595" data-name="Path 595" d="M50.986,86.784A2.774,2.774,0,0,1,51.934,86a3.236,3.236,0,0,1,1.18-.366,1.155,1.155,0,0,1,.374.031c.056.013.1.083.15.128a.661.661,0,0,1-.107.116,5.372,5.372,0,0,1-1.766.735c-.211.047-.423.087-.635.128a1.066,1.066,0,0,1-.142.009" transform="translate(-45.969 -76.855)" fill="#71b32f" fill-rule="evenodd"/>
      </g>
      <g id="Vedanta" transform="translate(10.883 1.516)">
        <path id="Path_583" data-name="Path 583" d="M194.551,16.509v-1.4c0-.28.039-.322.3-.322h.583c.211,0,.292.084.292.309q0,1.713,0,3.425c0,.452,0,.9,0,1.356,0,.223-.052.274-.266.274s-.4,0-.6,0a.17.17,0,0,1-.186-.127c-.042-.114-.091-.225-.144-.356-.046.045-.087.085-.127.126a1.186,1.186,0,0,1-1.154.415,1.869,1.869,0,0,1-1.316-.941,2.363,2.363,0,0,1-.239-1.7,1.9,1.9,0,0,1,1.131-1.467,1.279,1.279,0,0,1,1.327.044,2.965,2.965,0,0,1,.276.25c.029.027.057.055.116.111m-1.789,1.582a.922.922,0,0,0,.892,1.029.971.971,0,0,0,.976-1.013,1,1,0,0,0-.967-1.054.949.949,0,0,0-.9,1.038" transform="translate(-183.667 -14.787)" fill="#005298" fill-rule="evenodd"/>
        <path id="Path_584" data-name="Path 584" d="M241.018,26.765c.057-.167.1-.325.166-.474a.221.221,0,0,1,.14-.126,3.026,3.026,0,0,1,.554,0c.162.016.214.1.215.3,0,.385,0,.771,0,1.156q0,1.184,0,2.369c0,.252-.065.321-.3.321-.176,0-.353-.011-.529,0-.153.013-.222-.066-.266-.2-.029-.087-.065-.17-.1-.269l-.229.215a1.108,1.108,0,0,1-1.031.313,1.982,1.982,0,0,1-1.151-.626,2.173,2.173,0,0,1-.536-1.845,2.062,2.062,0,0,1,.824-1.411,2.019,2.019,0,0,1,.866-.361,1.245,1.245,0,0,1,1.309.563.645.645,0,0,0,.074.071m-1.092.447a.95.95,0,0,0-.9,1.037.917.917,0,0,0,.9,1.029.976.976,0,0,0,.978-1.025,1.008,1.008,0,0,0-.98-1.041" transform="translate(-225.389 -24.946)" fill="#005298" fill-rule="evenodd"/>
        <path id="Path_585" data-name="Path 585" d="M286.395,26.883c.039-.049.068-.081.093-.116a1.225,1.225,0,0,1,1.137-.563,1.576,1.576,0,0,1,1.414,1.4,3.419,3.419,0,0,1,.038.467c0,.689,0,1.379,0,2.069,0,.21-.047.259-.247.259h-.691c-.187,0-.214-.027-.214-.221q0-1.035,0-2.069a.694.694,0,0,0-1.376-.172.778.778,0,0,0-.008.156q0,1,0,2c0,.251-.056.309-.3.309h-.664c-.168,0-.236-.063-.236-.235q0-1.826,0-3.653a.223.223,0,0,1,.241-.241c.154,0,.307.005.461,0a.206.206,0,0,1,.226.161c.043.138.076.28.122.456" transform="translate(-268.149 -25.033)" fill="#005298" fill-rule="evenodd"/>
        <path id="Path_586" data-name="Path 586" d="M112.512,29.117c.048-.151.1-.3.144-.457q.253-.843.5-1.686a.215.215,0,0,1,.24-.177c.275.007.551.012.826,0,.2-.01.218.127.164.266-.147.384-.3.767-.452,1.149-.309.778-.621,1.556-.928,2.335-.182.461-.145.377-.517.381s-.376,0-.521-.373q-.666-1.714-1.335-3.427c-.07-.179-.06-.353.206-.332a5.518,5.518,0,0,0,.637,0c.329-.013.3.061.387.319.21.661.408,1.326.611,1.989,0,0,.008,0,.035.011" transform="translate(-110.6 -25.564)" fill="#005298" fill-rule="evenodd"/>
        <path id="Path_587" data-name="Path 587" d="M327.524,19.279c0,.395,0,.789,0,1.184,0,.248-.053.3-.284.3h-.623c-.235,0-.291-.059-.291-.313,0-.356,0-.713,0-1.07,0-.442,0-.885,0-1.327,0-.112-.022-.161-.141-.158-.268.006-.324-.058-.324-.338q0-.257,0-.514c0-.216.065-.287.273-.3.19-.01.19-.01.19-.206,0-.166,0-.333,0-.5a.254.254,0,0,1,.17-.274c.24-.089.476-.192.719-.272s.307,0,.31.253c0,.286,0,.571,0,.856,0,.1.033.147.133.143.117-.005.235-.006.352,0,.18.009.255.081.26.255.006.214.007.428,0,.642-.007.184-.085.253-.258.254-.113,0-.226.006-.339,0s-.15.032-.148.153c.006.409,0,.818,0,1.227" transform="translate(-304.68 -15.401)" fill="#005298" fill-rule="evenodd"/>
        <path id="Path_596" data-name="Path 596" d="M355.921,26.432c0-.122-.053-.217-.179-.225a3.678,3.678,0,0,0-.579-.006c-.062.006-.134.1-.167.174a4.335,4.335,0,0,0-.152.442l-.1-.135a1.214,1.214,0,0,0-1.168-.527,1.953,1.953,0,0,0-1.408.819,2.179,2.179,0,0,0-.4,1.038,2.271,2.271,0,0,0,.129,1.086,1.96,1.96,0,0,0,1.117,1.181,1.456,1.456,0,0,0,1,.114,1.506,1.506,0,0,0,.6-.4c.037-.036.078-.066.126-.107.045.123.081.224.119.324a.188.188,0,0,0,.2.138c.19-.005.38,0,.569,0,.245,0,.3-.058.3-.317q0-1.606,0-3.211c0-.128,0-.257,0-.385m-2.166,2.882a.919.919,0,0,1-.891-1.021.951.951,0,0,1,.926-1.048,1.024,1.024,0,0,1,.949,1.047.986.986,0,0,1-.983,1.021" transform="translate(-328.019 -24.98)" fill="#005298" fill-rule="evenodd"/>
        <path id="Path_597" data-name="Path 597" d="M150.809,28.588c.253,0,.506,0,.758-.014s.329-.1.338-.343a2.009,2.009,0,0,0-.928-1.877,1.724,1.724,0,0,0-1.6-.192,1.958,1.958,0,0,0-1.3,1.6,2.1,2.1,0,0,0,.372,1.715,1.993,1.993,0,0,0,1.9.837,1.909,1.909,0,0,0,1.136-.564.229.229,0,0,0,.019-.339c-.1-.128-.206-.252-.312-.374s-.208-.129-.351-.02a1.166,1.166,0,0,1-1.156.216.725.725,0,0,1-.48-.644h.141c.488,0,.975,0,1.463,0m-.719-1.528a.856.856,0,0,1,.676.584h-1.532a.857.857,0,0,1,.856-.584" transform="translate(-144.351 -24.892)" fill="#005298" fill-rule="evenodd"/>
      </g>
    </g>
  </g>
</svg>
