<svg id="Icon_-_Workplace" data-name="Icon - Workplace" xmlns="http://www.w3.org/2000/svg" width="61.512" height="61.441" viewBox="0 0 61.512 61.441">
  <path id="Path_556" data-name="Path 556" d="M4.092,11.011a56.661,56.661,0,0,1,10.079,1.415,29.333,29.333,0,0,1,9.052,3.647c2.484,1.607,4.571,3.591,5.4,6.571.173.619.277,1.255.409,1.884.615,2.926,2.98,4.268,5.367,4.765,3.606.754,7.1,0,10.605-.794a84.964,84.964,0,0,0,14.5-5.165,1.381,1.381,0,0,1,1.182.027,1.7,1.7,0,0,1,.379,1.244,21.417,21.417,0,0,1-.467,2.68,3.239,3.239,0,0,1-2.314,2.428c-3.841,1.294-7.66,2.674-11.555,3.775a29.8,29.8,0,0,1-9.906,1.276,10.078,10.078,0,0,1-6.578-2.322,6.949,6.949,0,0,1-2.163-4.312,9.035,9.035,0,0,0-3.783-6.2,25.67,25.67,0,0,0-10.069-4.275,49.223,49.223,0,0,0-12.407-1.2C.544,16.486.088,15.894.311,14.592a16.511,16.511,0,0,1,.465-1.87c.431-1.409.855-1.711,2.343-1.711Z" transform="translate(0.236 10.157)" fill="#226f2f" fill-rule="evenodd"/>
  <path id="Path_557" data-name="Path 557" d="M6.419,6.527C12,7.208,17.432,8.4,22.2,11.619a11.519,11.519,0,0,1,4.933,6.294,22.989,22.989,0,0,0,.786,3.043c1.094,2.413,3.255,3.358,5.717,3.635,5.35.6,10.4-.813,15.373-2.522,2.512-.861,4.965-1.922,7.432-2.916.732-.3,2.061-.817,2.722-.094a3.794,3.794,0,0,1,.465,1.68c.365,1.993-.194,3.033-2.088,3.808a91.426,91.426,0,0,1-12.193,4.085,36.409,36.409,0,0,1-9.373,1.319,10.8,10.8,0,0,1-6.8-1.926,7.1,7.1,0,0,1-2.657-4.8,8.657,8.657,0,0,0-2.893-5.365c-2.982-2.67-6.634-3.972-10.45-4.894a44.257,44.257,0,0,0-9.22-1.28,4.126,4.126,0,0,1-1.115-.244,1.131,1.131,0,0,1-.782-1.59A12.094,12.094,0,0,1,3.622,7.319a3.314,3.314,0,0,1,2.8-.792" transform="translate(1.783 6.013)" fill="#ffe600" fill-rule="evenodd"/>
  <path id="Path_558" data-name="Path 558" d="M33.35,24.631a17.033,17.033,0,0,1-5.992-1.253,6.758,6.758,0,0,1-3.793-5.358,9.534,9.534,0,0,0-4.231-6.494,25.256,25.256,0,0,0-9.41-3.885c-1.282-.29-2.58-.517-3.843-.877-1.077-.308-1.242-.992-.4-1.7C6.9,4.054,7.961,2.622,9.742,2.682a12.277,12.277,0,0,1,3.385.707,20.009,20.009,0,0,1,9.008,5.542,11.447,11.447,0,0,1,2.4,5.548,5.8,5.8,0,0,0,4.521,4.51,18.576,18.576,0,0,0,8.354.079A68.517,68.517,0,0,0,51.693,14.7a1.741,1.741,0,0,1,2.589,1.044c.165.373.285.763.438,1.142.292.734.521,1.659-.154,2.257a3.362,3.362,0,0,1-1.165.594c-1.845.661-3.687,1.323-5.54,1.955-4.517,1.544-9.6,3.118-14.512,2.943" transform="translate(4.746 2.473)" fill="#f6750e" fill-rule="evenodd"/>
  <path id="Path_559" data-name="Path 559" d="M38.283,39.329a11.272,11.272,0,0,1-6.761-1.417,6.114,6.114,0,0,1-2.928-4.1c-.506-2.624-1.351-5.027-3.5-6.786a20.9,20.9,0,0,0-6.619-3.56A39.568,39.568,0,0,0,7.928,21.343c-1.815-.1-3.629-.215-5.45-.286C.786,21,.294,20.548.184,18.891.15,18.364.073,17.843.015,17.32c-.111-1.023.4-1.715,1.426-1.676,2.461.1,4.938.167,7.376.5a65.309,65.309,0,0,1,7.651,1.532,22.969,22.969,0,0,1,8.937,4.5,11.379,11.379,0,0,1,3.9,7.067c.475,2.672,2.436,4.047,4.944,4.623,3.372.777,6.7.267,10.025-.452A70.3,70.3,0,0,0,55.6,29.777c.621-.252,1.23-.532,1.867-.729a1.034,1.034,0,0,1,.863.067.912.912,0,0,1,.006.848c-.857,1.5-1.694,3.016-2.684,4.429-1.046,1.486-2.71,2.068-4.377,2.589a60.474,60.474,0,0,1-10.346,2.332,21.227,21.227,0,0,1-2.641.015" transform="translate(0 14.429)" fill="#1d4d9d" fill-rule="evenodd"/>
  <path id="Path_560" data-name="Path 560" d="M8.475,26.043c.463.4.913.817,1.392,1.2,3.164,2.522,6.407,4.958,9.485,7.58a23.357,23.357,0,0,1,6.038,7.457c-1.357-.3-2.578-.5-3.75-.852a33.412,33.412,0,0,1-10.873-5.519c-4.246-3.26-7.6-7.18-9.325-12.341a9.879,9.879,0,0,1-.381-1.621,1.268,1.268,0,0,1,1.428-1.557,41.552,41.552,0,0,1,5.494.671c2.812.627,5.617,1.365,8.353,2.265A22.941,22.941,0,0,1,25.107,28.5,14.307,14.307,0,0,1,29.2,36.025a49.191,49.191,0,0,1,.871,6.478,34.976,34.976,0,0,0-9.041-10.59,34.089,34.089,0,0,0-12.33-6.2l-.225.329" transform="translate(0.959 18.798)" fill="#571d71" fill-rule="evenodd"/>
  <path id="Path_561" data-name="Path 561" d="M28.653,18.037A12.674,12.674,0,0,1,21.819,16.4a6.9,6.9,0,0,1-3.1-5.1,9.155,9.155,0,0,0-3.685-6.053c-.994-.757-2.155-1.288-3.18-2.007A11.63,11.63,0,0,1,10.4,1.807,10.157,10.157,0,0,1,11.907.9C14.7-.177,15.936.525,17.724,2.766A11.749,11.749,0,0,1,19.7,7.86,5.743,5.743,0,0,0,23.879,12.2a16.307,16.307,0,0,0,8.952.09c3.26-.769,6.482-1.726,9.719-2.607a1.969,1.969,0,0,1,2.261.725c.488.625.984,1.244,1.434,1.892a1.144,1.144,0,0,1-.552,1.845c-2.464.825-4.923,1.694-7.436,2.338-2.291.59-4.641.934-6.976,1.332-.865.15-1.751.15-2.63.219" transform="translate(9.594 0.372)" fill="#f6750e" fill-rule="evenodd"/>
  <path id="Path_562" data-name="Path 562" d="M24.547,10.016C22.108,9.9,19.789,9.55,17.807,8a8.653,8.653,0,0,1-2.939-5.436c-.113-.54-.271-1.078-.333-1.63C14.5.644,14.555.1,14.678.066a2.541,2.541,0,0,1,1.236.023c.211.054.408.344.521.573,1.128,2.236,3.178,3.02,5.438,3.387,2.7.446,5.369-.037,8.047-.4a6.655,6.655,0,0,1,3.135.463,13.2,13.2,0,0,1,2.716,1.761c.836.6.763,1.394-.206,1.715a55.1,55.1,0,0,1-5.463,1.6c-1.826.4-3.7.561-5.556.829" transform="translate(13.395 0)" fill="#d8001a" fill-rule="evenodd"/>
  <path id="Path_563" data-name="Path 563" d="M17.006,35.382a17.888,17.888,0,0,1,6.175-4.833,21.948,21.948,0,0,1,7.689-2.268,7.88,7.88,0,0,1,2.434.2c.365.077.654.515.975.788a3.946,3.946,0,0,1-.7.719A35.977,35.977,0,0,1,22.071,34.53c-1.374.292-2.759.54-4.141.8a7.37,7.37,0,0,1-.925.054" transform="translate(15.686 26.059)" fill="#571d71" fill-rule="evenodd"/>
</svg>
