<svg xmlns="http://www.w3.org/2000/svg" width="60" height="60" viewBox="0 0 60 60">
  <g id="Group_142055" data-name="Group 142055" transform="translate(-156 -1899)">
    <circle id="Ellipse_282" data-name="Ellipse 282" cx="30" cy="30" r="30" transform="translate(156 1899)" fill="#e3f0f9"/>
    <g id="Group_142046" data-name="Group 142046" transform="translate(135.842 21.187)">
      <g id="Group_142045" data-name="Group 142045" transform="translate(32.159 1898.813)">
        <path id="Path_41588" data-name="Path 41588" d="M37.42,21.291l-4.671-6.938a.441.441,0,0,0-.62-.115l-1.038.727c-1.1.771-3.216.443-4.716-.186l-2.021-.846a5.584,5.584,0,0,0-4.517.085,5.619,5.619,0,0,0-4.528-.085l-2.021.846c-1.526.64-3.664.983-4.751.221L7.5,14.273a.443.443,0,0,0-.62.116l-4.636,6.9a.442.442,0,0,0,.113.608L5.7,24.245l-.589.825a2.405,2.405,0,0,0,1.951,3.8,2.44,2.44,0,0,0,.4-.034c.012,0,.022-.007.035-.01a2.4,2.4,0,0,0,3.144,2.765,2.426,2.426,0,0,0,.028.41,2.4,2.4,0,0,0,2.367,2.006,2.414,2.414,0,0,0,1.237-.345c0,.013,0,.026,0,.039a2.4,2.4,0,0,0,4.326,1l.676-.947,1.63,1.142a2.391,2.391,0,0,0,3.762-2.187,2.367,2.367,0,0,0,1.094.27,2.471,2.471,0,0,0,.423-.037,2.389,2.389,0,0,0,1.96-2.656,2.362,2.362,0,0,0,.84.16,2.462,2.462,0,0,0,.423-.037,2.382,2.382,0,0,0,1.966-2.571,2.394,2.394,0,0,0,3.03-3.638l2.916-2.316a.442.442,0,0,0,.091-.592Zm-30.1,6.675a1.521,1.521,0,0,1-1.488-2.383l.911-1.276A1.521,1.521,0,0,1,9.22,26.073l-.455.638-.455.638a1.508,1.508,0,0,1-.987.616Zm1.647,2.6a1.522,1.522,0,0,1-.355-2.121l.869-1.217.455-.638h0l.413-.579a1.52,1.52,0,1,1,2.475,1.766l-1.739,2.436a1.521,1.521,0,0,1-2.119.354ZM13.3,33.105a1.521,1.521,0,0,1-1.487-2.384l1.739-2.435a1.51,1.51,0,0,1,.987-.617,1.629,1.629,0,0,1,.253-.02,1.521,1.521,0,0,1,1.234,2.4l-.869,1.217-.455.638h0l-.413.58a1.51,1.51,0,0,1-.987.617Zm4.595,1.083a1.52,1.52,0,1,1-2.475-1.766l.455-.638.455-.638a1.518,1.518,0,0,1,2.5,1.727l-.011.011c-.006.009-.007.021-.013.032Zm15.967-7.535a1.52,1.52,0,0,1-2.117.373L30.278,26l-3.971-2.781a.442.442,0,1,0-.506.724l.583.408h0l3.387,2.373.1.07a1.52,1.52,0,1,1-1.745,2.49l-.972-.681-3.1-2.169a.441.441,0,1,0-.506.723l3.1,2.17A1.52,1.52,0,1,1,24.9,31.82L21.8,29.65a.441.441,0,0,0-.506.723l.583.408h0l.464.326.82.574a1.52,1.52,0,0,1-1.745,2.49l-1.663-1.164a2.4,2.4,0,0,0-2.592-3.351c-.012,0-.022.008-.035.01a2.386,2.386,0,0,0-3.144-2.761,2.4,2.4,0,0,0-3.633-2.075c0-.012,0-.025,0-.037a2.392,2.392,0,0,0-4.109-1.25L3.216,21.425l4.144-6.17.669.469c1.463,1.023,3.93.57,5.6-.13l2.021-.847a4.737,4.737,0,0,1,3.2-.16l-4.036,2.838a2.4,2.4,0,0,0,2.757,3.939l3.7-2.586a3.522,3.522,0,0,1,4-.013l8.214,5.771h0a1.523,1.523,0,0,1,.375,2.117Zm-.136-3.03L25.775,18.04a4.407,4.407,0,0,0-5.014.013l-3.7,2.586a1.52,1.52,0,1,1-1.744-2.491l4.14-2.912a4.712,4.712,0,0,1,4.552-.489l2.021.846c1.645.69,4.089,1.128,5.565.095l.67-.469,4.191,6.226Z" transform="translate(-2.167 -13.497)" fill="#0063a8" stroke="#0063a8" stroke-miterlimit="10" stroke-width="0.7"/>
      </g>
    </g>
  </g>
</svg>
