<svg xmlns="http://www.w3.org/2000/svg" width="60" height="60" viewBox="0 0 60 60">
  <g id="Group_142079" data-name="Group 142079" transform="translate(-960 -4886)">
    <circle id="Ellipse_280" data-name="Ellipse 280" cx="30" cy="30" r="30" transform="translate(960 4886)" fill="#e3f0f9"/>
    <g id="noun-world-population-day-4954651" transform="translate(877.631 4809.906)">
      <path id="Path_41610" data-name="Path 41610" d="M108.921,135.355a.577.577,0,0,0,.466.564h6.953v5.749h0a.575.575,0,0,0,.391.542l.007,0h.038l.009,0h19.645a.575.575,0,0,0,.571-.512v-5.811h6.844a.577.577,0,0,0,.564-.466v-4.617a3.407,3.407,0,0,0-3.405-3.406h-5.664a3.4,3.4,0,0,0-2.559,1.16,5.451,5.451,0,0,0-1.242-.143h-9.758a5.455,5.455,0,0,0-1.243.143,3.4,3.4,0,0,0-2.559-1.16h-5.663a3.408,3.408,0,0,0-3.407,3.406Zm26.934,5.749V133.91a4.306,4.306,0,0,0-4.3-4.3h-9.758a4.306,4.306,0,0,0-4.3,4.3V141.1h3.921v-4a.574.574,0,0,1,1.148,0v4h8.228v-4a.574.574,0,0,1,1.148,0v4Zm7.419-6.323v-3.935a2.259,2.259,0,0,0-2.257-2.258h-5.664a2.248,2.248,0,0,0-1.351.45,5.457,5.457,0,0,1,3,4.872v.87Zm-23.931-5.742a2.249,2.249,0,0,0-1.352-.45h-5.663a2.259,2.259,0,0,0-2.258,2.258v3.935h6.271v-.87a5.456,5.456,0,0,1,3-4.872Zm7.328-14.536a6.243,6.243,0,1,0,6.243,6.244A6.246,6.246,0,0,0,126.672,114.5Zm-11.512,4a3.865,3.865,0,1,0,3.864,3.865A3.867,3.867,0,0,0,115.16,118.506Zm23.024,0a3.865,3.865,0,1,0,3.865,3.865A3.867,3.867,0,0,0,138.184,118.506Zm-11.512-2.855a5.1,5.1,0,1,1-5.095,5.1A5.1,5.1,0,0,1,126.672,115.65Zm-11.512,4a2.717,2.717,0,1,1-2.716,2.717A2.717,2.717,0,0,1,115.16,119.654Zm23.024,0a2.717,2.717,0,1,1-2.716,2.717A2.718,2.718,0,0,1,138.184,119.654Z" transform="translate(-14.552 -22.408)" fill="#0063a8" stroke="#0063a8" stroke-width="0.4" fill-rule="evenodd"/>
    </g>
  </g>
</svg>
