<svg xmlns="http://www.w3.org/2000/svg" width="60" height="60" viewBox="0 0 60 60">
  <g id="Group_142057" data-name="Group 142057" transform="translate(-557 -1899)">
    <circle id="Ellipse_286" data-name="Ellipse 286" cx="30" cy="30" r="30" transform="translate(557 1899)" fill="#e3f0f9"/>
    <g id="Group_142047" data-name="Group 142047" transform="translate(7812.943 -3565)">
      <path id="Path_41592" data-name="Path 41592" d="M252.355,61.707a4.945,4.945,0,0,0-3.708,8.283l6.93,7.544a.748.748,0,0,0,1.1,0l6.938-7.544a4.94,4.94,0,0,0-.307-6.974h-.015a4.939,4.939,0,0,0-6.975.307l-.187.2-.187-.21a4.945,4.945,0,0,0-3.589-1.606Zm.025,1.56a3.444,3.444,0,0,1,2.463,1.028l.748.808a.748.748,0,0,0,1.1,0l.748-.808a3.443,3.443,0,0,1,5.074,4.648l-.022.06-6.362,6.885-6.362-6.945a3.443,3.443,0,0,1,2.611-5.676Z" transform="translate(-7481.154 5414.293)" fill="#0063a8"/>
      <g id="noun-health-care-1658456" transform="translate(-7244.943 5495.557) rotate(-23)">
        <path id="Path_41593" data-name="Path 41593" d="M16.313,0A2.344,2.344,0,0,0,14.651.76,5.039,5.039,0,0,0,13.7,4.216c0,3.523-.017,4.731,0,8.951,0,.043-.026.131-.181.313-.078.091-.251.23-.378.346a2.943,2.943,0,0,0-.757-1.76h0l-.033-.032a2.038,2.038,0,0,0-2.04-.625,5.148,5.148,0,0,0-1.876,1.316C7.015,14.105,4.988,15.84,3.28,17.709S.138,21.592.006,23.665h0v.016s-.02,5.612.017,6.878a.527.527,0,0,0,.526.51H9.484a.526.526,0,0,0,.526-.527V28.107L18.781,18.3l.049-.05-.017-.016a1.454,1.454,0,0,0,.378-.839,10.291,10.291,0,0,0,.165-1.284c.078-1.005.108-2.3.115-3.7.014-2.808-.052-6.052.017-8.178.087-2.7-1.51-4.306-3.176-4.229Zm.033,1.053c.966-.045,2.164.849,2.09,3.143-.071,2.183,0,5.424-.017,8.211-.007,1.393-.025,2.666-.1,3.62a9.544,9.544,0,0,1-.148,1.152c-.058.274-.2.41-.082.313h0a.526.526,0,0,0-.05.05l-8.952,10h0a.524.524,0,0,0-.132.362v2.106H1.075c-.024-1.636-.017-6.236-.017-6.286V23.7c.116-1.6,1.374-3.49,3.011-5.282S7.7,14.9,9.155,13.48h.017a4.844,4.844,0,0,1,1.448-1.069c.32-.1.523-.077.938.329l.033.033a1.711,1.711,0,0,1,.543,1.234,2.8,2.8,0,0,1-.921,1.415c-.337.345-.691.716-1.053,1.069h0a.458.458,0,0,0-.033.033c-.712.694-1.452,1.383-2.09,2.073h0a.53.53,0,1,0,.79.708c.59-.638,1.3-1.331,1.991-2.007a.532.532,0,0,0,.1-.082,24.211,24.211,0,0,1,2.518-2.221,7,7,0,0,0,.889-.823,1.57,1.57,0,0,0,.428-1.02c-.017-4.216,0-5.408,0-8.935a4.093,4.093,0,0,1,.675-2.748,1.185,1.185,0,0,1,.921-.411Z" transform="translate(31.069 0) rotate(90)" fill="#0063a8" stroke="#0063a8" stroke-width="0.5"/>
      </g>
    </g>
  </g>
</svg>
