<svg xmlns="http://www.w3.org/2000/svg" width="60" height="60" viewBox="0 0 60 60">
  <g id="Group_142080" data-name="Group 142080" transform="translate(-961 -5281)">
    <g id="Group_142053" data-name="Group 142053" transform="translate(7 3779)">
      <circle id="Ellipse_281" data-name="Ellipse 281" cx="30" cy="30" r="30" transform="translate(954 1502)" fill="#e3f0f9"/>
    </g>
    <g id="noun-rewards-2434642" transform="translate(786.949 5195.49)">
      <path id="Path_41611" data-name="Path 41611" d="M395.118,322.558l-3.016.07-1.438,2.362-3.038-5.772c1.063-.622,1.874-1.125,2.441-1.514q.707-.485,1.755-1.312Zm-2.734-8.954q-2.2,1.826-3.341,2.607t-3.833,2.308l4.543,8.632a.968.968,0,0,0,1.683.053l1.7-2.788,3.4-.079a.967.967,0,0,0,.831-1.423Z" transform="translate(-178.035 -195.219)" fill="#0063a8"/>
      <path id="Path_41612" data-name="Path 41612" d="M191.409,322.558l3.016.07,1.438,2.362,3.038-5.772c-1.063-.622-1.874-1.125-2.441-1.514q-.707-.485-1.755-1.312Zm2.734-8.954q2.2,1.826,3.341,2.607t3.832,2.308l-4.543,8.632a.968.968,0,0,1-1.683.053l-1.7-2.788-3.4-.079a.968.968,0,0,1-.831-1.423Z" transform="translate(0 -195.219)" fill="#0063a8"/>
      <path id="Path_41613" data-name="Path 41613" d="M223.5,125.328a13.41,13.41,0,1,1,13.256-13.409A13.333,13.333,0,0,1,223.5,125.328Zm0-1.811a11.6,11.6,0,1,0-11.445-11.6A11.522,11.522,0,0,0,223.5,123.517Z" transform="translate(-19.231)" fill="#0063a8"/>
      <path id="Path_41614" data-name="Path 41614" d="M286.533,177.252l2.884.889.056-3.056,1.736-2.516-2.863-1-1.813-2.431-1.813,2.431-2.863,1,1.736,2.516.056,3.056Zm-3.132,2.861a1.2,1.2,0,0,1-1.548-1.121l-.061-3.327-1.884-2.73a1.2,1.2,0,0,1,.3-1.663,1.208,1.208,0,0,1,.284-.145l3.1-1.085,1.975-2.648a1.2,1.2,0,0,1,1.917,0l1.975,2.648,3.1,1.085a1.2,1.2,0,0,1,.589,1.808l-1.884,2.73-.061,3.327a1.2,1.2,0,0,1-1.548,1.121l-3.132-.965Z" transform="translate(-82.27 -62.082)" fill="#0063a8"/>
    </g>
  </g>
</svg>
