<svg xmlns="http://www.w3.org/2000/svg" width="60" height="60" viewBox="0 0 60 60">
  <g id="Group_142078" data-name="Group 142078" transform="translate(-563 -4886)">
    <circle id="Ellipse_279" data-name="Ellipse 279" cx="30" cy="30" r="30" transform="translate(563 4886)" fill="#e3f0f9"/>
    <g id="noun-globe-884670" transform="translate(468.337 4846.451)">
      <path id="Path_41615" data-name="Path 41615" d="M141.535,306.647A3.366,3.366,0,0,1,140.447,309a1.359,1.359,0,0,1-1,.379,1.63,1.63,0,0,1-.954-.532,3.245,3.245,0,0,1-.915-2.441,1.984,1.984,0,0,1,3.954.242.456.456,0,0,0,.912,0,2.894,2.894,0,1,0-5.772.314,4.286,4.286,0,0,0,1.337,2.683,2.408,2.408,0,0,0,1.489.648,2.3,2.3,0,0,0,1.549-.612,4.173,4.173,0,0,0,1.4-3.033.456.456,0,0,0-.912,0Z" transform="translate(-28.535 -233.095)" fill="#0063a8" stroke="#0063a8" stroke-width="0.2"/>
      <path id="Path_41616" data-name="Path 41616" d="M115.45,388.372v1.951l.456-.456h-9.778l.456.456v-1.1a7.122,7.122,0,0,1,.029-1.2,2.091,2.091,0,0,1,1.17-1.512,3.182,3.182,0,0,1,1.434-.182l-.394-.226,1.807,2.466a.464.464,0,0,0,.788,0l1.792-2.466-.394.226a3.094,3.094,0,0,1,1.586.261,2.063,2.063,0,0,1,1.047,1.787.456.456,0,0,0,.912,0,3.01,3.01,0,0,0-1.5-2.575,2.95,2.95,0,0,0-1.465-.385c-.336,0-.753-.08-.976.227l-1.78,2.45-.011.016h.788l-1.79-2.444c-.224-.306-.545-.249-.88-.249a3.241,3.241,0,0,0-1.321.259,3,3,0,0,0-1.738,2.4,8.9,8.9,0,0,0-.018,1.147v1.1a.46.46,0,0,0,.456.456h9.778a.46.46,0,0,0,.456-.456v-1.951a.457.457,0,0,0-.913,0Z" transform="translate(0 -308.256)" fill="#0063a8" stroke="#0063a8" stroke-width="0.2"/>
      <path id="Path_41617" data-name="Path 41617" d="M497.545,306.647A3.366,3.366,0,0,1,496.457,309a1.359,1.359,0,0,1-1,.379,1.63,1.63,0,0,1-.954-.532,3.245,3.245,0,0,1-.915-2.441,1.984,1.984,0,0,1,3.954.242.456.456,0,0,0,.912,0,2.894,2.894,0,1,0-5.772.314,4.287,4.287,0,0,0,1.337,2.683,2.408,2.408,0,0,0,1.489.648,2.3,2.3,0,0,0,1.549-.612,4.173,4.173,0,0,0,1.4-3.033.456.456,0,0,0-.912,0Z" transform="translate(-356.267 -233.095)" fill="#0063a8" stroke="#0063a8" stroke-width="0.2"/>
      <path id="Path_41618" data-name="Path 41618" d="M471.457,388.372v1.951l.456-.456h-9.778l.456.456v-1.1a7.131,7.131,0,0,1,.029-1.2,2.091,2.091,0,0,1,1.17-1.512,3.182,3.182,0,0,1,1.434-.182l-.394-.226,1.807,2.466a.464.464,0,0,0,.788,0l1.792-2.466-.394.226a3.094,3.094,0,0,1,1.586.261,2.063,2.063,0,0,1,1.047,1.787.456.456,0,0,0,.912,0,3.009,3.009,0,0,0-1.5-2.575,2.95,2.95,0,0,0-1.465-.385c-.336,0-.753-.08-.976.227l-1.78,2.45-.012.016h.788l-1.79-2.444c-.224-.306-.545-.249-.88-.249a3.24,3.24,0,0,0-1.321.259,3,3,0,0,0-1.738,2.4,8.889,8.889,0,0,0-.018,1.147v1.1a.46.46,0,0,0,.456.456h9.778a.46.46,0,0,0,.456-.456v-1.951a.456.456,0,0,0-.912,0Z" transform="translate(-327.728 -308.256)" fill="#0063a8" stroke="#0063a8" stroke-width="0.2"/>
      <path id="Path_41619" data-name="Path 41619" d="M319.535,53.44a3.366,3.366,0,0,1-1.088,2.352,1.359,1.359,0,0,1-1,.379,1.63,1.63,0,0,1-.954-.532,3.243,3.243,0,0,1-.915-2.441,1.984,1.984,0,0,1,3.954.242.456.456,0,0,0,.912,0,2.894,2.894,0,1,0-5.772.314,4.286,4.286,0,0,0,1.337,2.683,2.408,2.408,0,0,0,1.489.648,2.3,2.3,0,0,0,1.549-.612,4.172,4.172,0,0,0,1.4-3.033.456.456,0,0,0-.912,0Z" transform="translate(-192.396 0)" fill="#0063a8" stroke="#0063a8" stroke-width="0.2"/>
      <path id="Path_41620" data-name="Path 41620" d="M293.457,135.162v1.951l.456-.456h-9.778l.456.456v-1.1a7.118,7.118,0,0,1,.029-1.2,2.091,2.091,0,0,1,1.17-1.512,3.182,3.182,0,0,1,1.434-.182l-.394-.226,1.807,2.466a.464.464,0,0,0,.788,0l1.792-2.466-.394.226a3.093,3.093,0,0,1,1.586.261,2.062,2.062,0,0,1,1.047,1.787.456.456,0,0,0,.912,0,3.009,3.009,0,0,0-1.5-2.575,2.95,2.95,0,0,0-1.465-.385c-.336,0-.753-.08-.976.226l-1.78,2.45-.011.016h.788l-1.79-2.444c-.224-.306-.545-.249-.88-.249a3.241,3.241,0,0,0-1.321.259,3,3,0,0,0-1.738,2.4,8.9,8.9,0,0,0-.018,1.147v1.1a.461.461,0,0,0,.456.456h9.778a.461.461,0,0,0,.456-.456v-1.951a.457.457,0,0,0-.913,0Z" transform="translate(-163.867 -75.159)" fill="#0063a8" stroke="#0063a8" stroke-width="0.2"/>
      <path id="Path_41621" data-name="Path 41621" d="M155.414,146.782a15.21,15.21,0,0,1,7.373-9.992c.094-.053.189-.1.284-.155.518-.278.058-1.066-.46-.788a16.123,16.123,0,0,0-7.906,9.983c-.063.235-.119.472-.17.711-.124.573.756.817.88.242Z" transform="translate(-44.978 -78.469)" fill="#0063a8" stroke="#0063a8" stroke-width="0.2"/>
      <path id="Path_41622" data-name="Path 41622" d="M263.719,477.686a15.18,15.18,0,0,1-14.321.008c-.108-.058-.214-.118-.321-.179a.457.457,0,0,0-.46.788,15.983,15.983,0,0,0,14.706.6c.29-.134.575-.28.856-.432.518-.28.057-1.068-.46-.788Z" transform="translate(-131.395 -392.995)" fill="#0063a8" stroke="#0063a8" stroke-width="0.2"/>
      <path id="Path_41623" data-name="Path 41623" d="M432.609,134.175a15.219,15.219,0,0,1,7.853,9.577c.046.17.088.342.129.514.134.573,1.014.33.88-.243a16.116,16.116,0,0,0-7.6-10.208c-.262-.151-.528-.293-.8-.428a.464.464,0,0,0-.624.164.459.459,0,0,0,.164.624Z" transform="translate(-300.77 -76.206)" fill="#0063a8" stroke="#0063a8" stroke-width="0.2"/>
      <path id="Path_41624" data-name="Path 41624" d="M272.677,248.482a6.414,6.414,0,1,1-3.175-5.536,6.489,6.489,0,0,1,3.175,5.536.456.456,0,0,0,.912,0,7.321,7.321,0,1,0-5.832,7.171,7.3,7.3,0,0,0,4.144-2.5,7.387,7.387,0,0,0,1.688-4.674.457.457,0,0,0-.913,0Z" transform="translate(-141.111 -175.471)" fill="#0063a8" stroke="#0063a8" stroke-width="0.2"/>
      <path id="Path_41625" data-name="Path 41625" d="M309.469,248.421a12.222,12.222,0,0,1-.489,3.491,5.919,5.919,0,0,1-1.232,2.336c-.062.066-.128.128-.2.188-.033.029-.066.057-.1.085.07-.057-.039.028-.044.032a2.315,2.315,0,0,1-.209.132c-.035.02-.071.038-.107.056l-.072.033q.073-.031,0,0a1.812,1.812,0,0,1-.222.066c-.037.009-.075.016-.112.022.113-.02-.011,0-.03,0a1.662,1.662,0,0,1-.229,0c-.019,0-.144-.018-.03,0-.05-.007-.1-.019-.15-.031a1.84,1.84,0,0,1-.75-.422,3.549,3.549,0,0,1-.718-.909,8.582,8.582,0,0,1-.988-2.9,13.08,13.08,0,0,1-.1-3.676,9.447,9.447,0,0,1,.821-3.047,6.19,6.19,0,0,1,.317-.577,3.849,3.849,0,0,1,.342-.475,3.438,3.438,0,0,1,.387-.386s.117-.091.043-.035c.033-.025.068-.049.1-.073a2.288,2.288,0,0,1,.246-.143l.072-.034c-.094.044.022-.008.036-.013a1.884,1.884,0,0,1,.184-.056c.028-.007.219-.038.1-.024a1.7,1.7,0,0,1,.191-.011,1.782,1.782,0,0,1,.191.011c-.115-.011.075.017.1.024a1.828,1.828,0,0,1,.184.056l.073.028c-.1-.039.023.013.035.019a1.9,1.9,0,0,1,.62.464,3.584,3.584,0,0,1,.555.738,9.87,9.87,0,0,1,1.166,5.038.456.456,0,0,0,.912,0,9.842,9.842,0,0,0-1.8-6.212,2.8,2.8,0,0,0-1.964-1.077,2.636,2.636,0,0,0-1.992.935,6.632,6.632,0,0,0-1.364,2.516,12.457,12.457,0,0,0-.556,3.529,13.352,13.352,0,0,0,.41,3.662,7.609,7.609,0,0,0,1.222,2.7,3,3,0,0,0,1.975,1.288,2.505,2.505,0,0,0,2.016-.8,6.266,6.266,0,0,0,1.412-2.44,12.242,12.242,0,0,0,.626-3.484c.01-.2.013-.41.013-.614a.456.456,0,0,0-.912,0Z" transform="translate(-181.388 -175.443)" fill="#0063a8" stroke="#0063a8" stroke-width="0.2"/>
      <path id="Path_41626" data-name="Path 41626" d="M345.39,241.847v13.734a.456.456,0,0,0,.912,0V241.847A.456.456,0,0,0,345.39,241.847Z" transform="translate(-220.685 -175.697)" fill="#0063a8" stroke="#0063a8" stroke-width="0.2"/>
      <path id="Path_41627" data-name="Path 41627" d="M259.537,328.788h13.734a.456.456,0,0,0,0-.912H259.537A.456.456,0,0,0,259.537,328.788Z" transform="translate(-141.245 -255.299)" fill="#0063a8" stroke="#0063a8" stroke-width="0.2"/>
      <path id="Path_41628" data-name="Path 41628" d="M274.317,374.378h11.391a.456.456,0,0,0,0-.912H274.317A.456.456,0,0,0,274.317,374.378Z" transform="translate(-154.851 -297.268)" fill="#0063a8" stroke="#0063a8" stroke-width="0.2"/>
      <path id="Path_41629" data-name="Path 41629" d="M274.317,283.208h11.391a.456.456,0,0,0,0-.912H274.317A.456.456,0,0,0,274.317,283.208Z" transform="translate(-154.851 -213.34)" fill="#0063a8" stroke="#0063a8" stroke-width="0.2"/>
    </g>
  </g>
</svg>
