<svg id="Group_141914" data-name="Group 141914" xmlns="http://www.w3.org/2000/svg" xmlns:xlink="http://www.w3.org/1999/xlink" width="40" height="29.673" viewBox="0 0 40 29.673">
  <defs>
    <clipPath id="clip-path">
      <rect id="Rectangle_1856" data-name="Rectangle 1856" width="40" height="29.673" fill="#0d63a8"/>
    </clipPath>
  </defs>
  <g id="Group_141911" data-name="Group 141911" clip-path="url(#clip-path)">
    <path id="Path_37882" data-name="Path 37882" d="M0,143.352c.1-.347.177-.7.3-1.04a7.659,7.659,0,0,1,2.889-3.593c.365-.271.749-.518,1.139-.752a1.17,1.17,0,0,1,1.612.36,1.188,1.188,0,0,1-.362,1.616,18.077,18.077,0,0,0-1.892,1.434c-1.782,1.7-1.779,3.49-.032,5.218a12.707,12.707,0,0,0,4.567,2.7,29.424,29.424,0,0,0,7.594,1.7c-.329-.335-.623-.615-.9-.915a1.169,1.169,0,0,1,1.666-1.641c.039.035.075.072.112.109q1.464,1.463,2.926,2.928a1.184,1.184,0,0,1,0,1.848q-1.459,1.468-2.927,2.927a1.177,1.177,0,0,1-1.764.092,1.191,1.191,0,0,1,.1-1.736c.377-.375.768-.735,1.235-1.18-.713-.086-1.3-.148-1.887-.23a28.2,28.2,0,0,1-9.266-2.728,10.827,10.827,0,0,1-4.175-3.493A6.9,6.9,0,0,1,0,144.6v-1.25" transform="translate(0 -127.023)" fill="#0d63a8"/>
    <path id="Path_37883" data-name="Path 37883" d="M323.267,150.676a6.682,6.682,0,0,1-1.855,3.531,12.5,12.5,0,0,1-2.977,2.189,26.17,26.17,0,0,1-8,2.633c-.589.105-1.182.187-1.775.267a1.168,1.168,0,0,1-1.375-1.013,1.154,1.154,0,0,1,1.027-1.29,31.431,31.431,0,0,0,6.552-1.554,13.534,13.534,0,0,0,4.074-2.18,8.148,8.148,0,0,0,1.453-1.561,2.774,2.774,0,0,0,0-3.293,7.036,7.036,0,0,0-1.938-1.9,1.149,1.149,0,0,1-.527-1.177,1.014,1.014,0,0,1,.8-.911,1.313,1.313,0,0,1,.892.079,7.642,7.642,0,0,1,3.462,4.219c.077.259.127.526.19.789Z" transform="translate(-283.267 -133.097)" fill="#0d63a8"/>
    <path id="Path_37884" data-name="Path 37884" d="M211.051,94.836a3.135,3.135,0,0,1,2.723-.526,2.416,2.416,0,0,1,2.172,2.262,6.635,6.635,0,0,1-.031,1.9,2.779,2.779,0,0,1-2.218,2.347,5.249,5.249,0,0,1-2.475.036,2.942,2.942,0,0,1-2.457-2.962q-.058-2.381,0-4.765a2.959,2.959,0,0,1,2.477-2.949,5.164,5.164,0,0,1,2.812.1,2.737,2.737,0,0,1,1.968,2.582c-.012.563-.218.824-.778.88a3.085,3.085,0,0,1-.926-.062.692.692,0,0,1-.569-.659.882.882,0,0,0-.808-.9,1.363,1.363,0,0,0-1.887,1.407c-.014.411,0,.824,0,1.311m2.655,2.653c-.006-.083-.008-.253-.031-.421a1.1,1.1,0,0,0-1.111-1.044c-1.006-.078-1.483.351-1.512,1.365a3.585,3.585,0,0,0,.016.468,1.292,1.292,0,0,0,1.8,1.185c.58-.177.833-.621.835-1.552" transform="translate(-192.428 -82.996)" fill="#0d63a8"/>
    <path id="Path_37885" data-name="Path 37885" d="M332.242,95.483c0,.807.029,1.614-.007,2.419a2.98,2.98,0,0,1-2.645,2.958,5.31,5.31,0,0,1-2.4-.1,2.824,2.824,0,0,1-2.173-2.775,49.346,49.346,0,0,1,.035-5.184,2.779,2.779,0,0,1,2.456-2.684,5.18,5.18,0,0,1,2.473.062,2.939,2.939,0,0,1,2.251,2.886c.033.805.006,1.613.006,2.419m-4.938-.016h.011c0,.767-.027,1.536.008,2.3a1.122,1.122,0,0,0,1.18,1.145,1.177,1.177,0,0,0,1.4-1.034,3.023,3.023,0,0,0,.049-.5q.006-1.892,0-3.785a3.176,3.176,0,0,0-.059-.581,1.132,1.132,0,0,0-1.063-.975,1.233,1.233,0,0,0-1.523,1.324c-.019.7,0,1.4,0,2.107" transform="translate(-299.582 -82.964)" fill="#0d63a8"/>
    <path id="Path_37886" data-name="Path 37886" d="M99.3,95.08c1.43.707,1.626,1.665,1.388,3.278a2.921,2.921,0,0,1-2.585,2.455,5.323,5.323,0,0,1-2.66-.146A2.74,2.74,0,0,1,93.482,98.2c-.032-.628.161-.864.779-.921a3.756,3.756,0,0,1,.661,0c.659.056.783.172.847.823a.669.669,0,0,0,.555.666,6,6,0,0,0,1.384.035.727.727,0,0,0,.663-.673,5.929,5.929,0,0,0,.028-1.238.813.813,0,0,0-.675-.721,2.826,2.826,0,0,0-.539-.078c-.313-.015-.609-.057-.735-.4a1.122,1.122,0,0,1,.1-1.149.867.867,0,0,1,.541-.232A1.255,1.255,0,0,0,98,92.355a.929.929,0,0,0-.536-.341,2.763,2.763,0,0,0-.891,0,.636.636,0,0,0-.585.624c-.083.727-.3.908-1.032.923-1.167.023-1.439-.282-1.2-1.426a2.555,2.555,0,0,1,2.056-2.007,5.288,5.288,0,0,1,2.665.007,2.464,2.464,0,0,1,1.892,2.969A2.523,2.523,0,0,1,99.3,95.08" transform="translate(-86.176 -82.93)" fill="#0d63a8"/>
    <path id="Path_37887" data-name="Path 37887" d="M416.341,3.534A3.512,3.512,0,1,1,412.873,0a3.508,3.508,0,0,1,3.468,3.533M414,3.5a1.166,1.166,0,0,0-1.174-1.159,1.193,1.193,0,0,0-1.162,1.181,1.193,1.193,0,0,0,1.184,1.16A1.167,1.167,0,0,0,414,3.5" transform="translate(-377.339 0)" fill="#0d63a8"/>
  </g>
</svg>
