<svg xmlns="http://www.w3.org/2000/svg" xmlns:xlink="http://www.w3.org/1999/xlink" width="75" height="75" viewBox="0 0 75 75"><defs><clipPath id="a"><path d="M22.693,12.563,18.866,16.39l-3.827-3.827A8.22,8.22,0,0,0,3.408,24.182L13.026,33.8a8.107,8.107,0,0,0,5.085,2.367,7.74,7.74,0,0,0,1.522,0A8.145,8.145,0,0,0,24.706,33.8l9.617-9.616a8.22,8.22,0,0,0-11.63-11.619" fill="none"/></clipPath><radialGradient id="b" cx="0.5" cy="0.5" r="0.6" gradientTransform="matrix(0.698, 0, 0, -1, -0.002, 2.076)" gradientUnits="objectBoundingBox"><stop offset="0" stop-color="#b2e599"/><stop offset="1" stop-color="#74bf44"/></radialGradient><clipPath id="c"><rect width="37.732" height="37.209" transform="translate(0 0)" fill="none"/></clipPath></defs><path d="M37.5,0A37.5,37.5,0,1,1,0,37.5,37.5,37.5,0,0,1,37.5,0Z" fill="#dff1ff"/><g transform="translate(18.634 18.895)"><g opacity="0"><g clip-path="url(#a)"><rect width="37.334" height="26.055" transform="translate(0.199 10.16)" fill="url(#b)"/></g></g><g clip-path="url(#c)"><path d="M35.035,11.851l0,0a9.245,9.245,0,0,0-13.052,0l-3.115,3.114-3.117-3.117A9.227,9.227,0,0,0,2.7,24.893l9.617,9.617a9.132,9.132,0,0,0,5.7,2.656,8.37,8.37,0,0,0,.866.043,8.217,8.217,0,0,0,.848-.042,9.2,9.2,0,0,0,5.695-2.657l9.617-9.617a9.232,9.232,0,0,0,0-13.042M33.612,23.47,24,33.086a7.112,7.112,0,0,1-4.461,2.076,6.7,6.7,0,0,1-1.343,0,7.128,7.128,0,0,1-4.453-2.074L4.12,23.47A7.214,7.214,0,0,1,14.328,13.275L18.154,17.1a1.006,1.006,0,0,0,1.424,0L23.4,13.278A7.213,7.213,0,1,1,33.612,23.47" fill="#0063a8"/><path d="M19.1,8.925a4.462,4.462,0,1,0-4.462-4.462A4.466,4.466,0,0,0,19.1,8.925m0-6.911a2.448,2.448,0,1,1-2.449,2.449A2.452,2.452,0,0,1,19.1,2.014" fill="#0063a8"/></g></g></svg>