<svg xmlns="http://www.w3.org/2000/svg" xmlns:xlink="http://www.w3.org/1999/xlink" width="75" height="75" viewBox="0 0 75 75"><defs><clipPath id="a"><path d="M1.007,20.433v12.9a4.85,4.85,0,1,0,9.7,0v-12.9a4.85,4.85,0,1,0-9.7,0m29.674,0v12.9a4.85,4.85,0,1,0,9.7,0v-12.9a4.85,4.85,0,1,0-9.7,0M15.844,16.5v12.9a4.85,4.85,0,1,0,9.7,0V16.5a4.85,4.85,0,0,0-9.7,0" fill="none"/></clipPath><radialGradient id="b" cx="0.5" cy="0.5" r="0.633" gradientTransform="matrix(0.674, 0, 0, -1, -0.008, 2.076)" gradientUnits="objectBoundingBox"><stop offset="0" stop-color="#b2e599"/><stop offset="1" stop-color="#74bf44"/></radialGradient><clipPath id="c"><rect width="41.388" height="39.192" transform="translate(0 0)" fill="none"/></clipPath></defs><g transform="translate(-39.5)"><path d="M37.5,0A37.5,37.5,0,1,1,0,37.5,37.5,37.5,0,0,1,37.5,0Z" transform="translate(39.5)" fill="#dff1ff"/><g transform="translate(56.306 17.904)"><g opacity="0"><g clip-path="url(#a)"><rect width="39.374" height="26.531" transform="translate(1.007 11.654)" fill="url(#b)"/></g></g><g clip-path="url(#c)"><path d="M20.694,34.255h0a4.849,4.849,0,0,1-4.85-4.85V16.5a4.85,4.85,0,0,1,9.7,0v12.9A4.849,4.849,0,0,1,20.694,34.255Z" fill="none" stroke="#0063a8" stroke-linecap="round" stroke-linejoin="round" stroke-width="2.014"/><path d="M24.15,4.463a3.455,3.455,0,1,1-3.456-3.456A3.456,3.456,0,0,1,24.15,4.463Z" fill="none" stroke="#0063a8" stroke-linecap="round" stroke-linejoin="round" stroke-width="2.014"/><path d="M5.857,38.185h0a4.849,4.849,0,0,1-4.85-4.85v-12.9a4.85,4.85,0,1,1,9.7,0v12.9A4.849,4.849,0,0,1,5.857,38.185Z" fill="none" stroke="#0063a8" stroke-linecap="round" stroke-linejoin="round" stroke-width="2.014"/><path d="M9.313,8.392A3.455,3.455,0,1,1,5.857,4.936,3.456,3.456,0,0,1,9.313,8.392Z" fill="none" stroke="#0063a8" stroke-linecap="round" stroke-linejoin="round" stroke-width="2.014"/><path d="M35.531,38.185h0a4.849,4.849,0,0,1-4.85-4.85v-12.9a4.85,4.85,0,1,1,9.7,0v12.9A4.849,4.849,0,0,1,35.531,38.185Z" fill="none" stroke="#0063a8" stroke-linecap="round" stroke-linejoin="round" stroke-width="2.014"/><path d="M38.987,8.392a3.455,3.455,0,1,1-3.456-3.456A3.456,3.456,0,0,1,38.987,8.392Z" fill="none" stroke="#0063a8" stroke-linecap="round" stroke-linejoin="round" stroke-width="2.014"/></g></g></g></svg>