<svg xmlns="http://www.w3.org/2000/svg" xmlns:xlink="http://www.w3.org/1999/xlink" width="75" height="75" viewBox="0 0 75 75"><defs><clipPath id="a"><path d="M11.214,14.543c-.555,1.5.722,6.33,1.277,7.441s-3.831.278-3.831.278c1.389,1.332.056,3.609.652,4.954s-.763,3.32,0,4.819-.319,4.165,0,5.162-.091,2.738,0,3.279,7.178.248,9.677,0a5.422,5.422,0,0,0,3.776-2.2l3.5-.855V24.955l-2.555.027a7.515,7.515,0,0,1-.833-2.42c-.278-1.525-3.963-3.079-5.219-3.621s-2.348-3.351-2.869-5.518c-.174-.723-.568-1.006-1.037-1.006a3.441,3.441,0,0,0-2.537,2.126" fill="none"/></clipPath><radialGradient id="b" cx="0.503" cy="0.496" r="0.413" gradientTransform="matrix(1.614, 0, 0, -1, 0.297, 2.053)" gradientUnits="objectBoundingBox"><stop offset="0" stop-color="#b2e599"/><stop offset="1" stop-color="#74bf44"/></radialGradient><clipPath id="c"><rect width="34.045" height="41.782" transform="translate(0 0)" fill="none"/></clipPath></defs><g transform="translate(-8.5)"><path d="M37.5,0A37.5,37.5,0,1,1,0,37.5,37.5,37.5,0,0,1,37.5,0Z" transform="translate(8.5)" fill="#dff1ff"/><g transform="translate(28.978 16.609)"><g opacity="0"><g clip-path="url(#a)"><rect width="17.715" height="28.6" transform="translate(8.549 12.417)" fill="url(#b)"/></g></g><g clip-path="url(#c)"><path d="M27.859,23.057H26.486a1.006,1.006,0,0,0-1,.918H24.161c-.537-2.687-3.144-4.884-5.723-5.769-.944-.323-1.992-2.075-2.8-4.683a2.392,2.392,0,0,0-1.941-1.661,2.293,2.293,0,0,0-2.243.951c-2.039,2.941-.73,6.743.294,8.841l-5.685.034H3.266A3.26,3.26,0,0,0,.917,27.215a3.243,3.243,0,0,0,0,4.52,3.243,3.243,0,0,0,.907,5.176,3.226,3.226,0,0,0-.438,1.6,3.271,3.271,0,0,0,3.268,3.267H7.476a3.314,3.314,0,0,0,.511-.051h11a4.966,4.966,0,0,0,4.724-2.53h1.953a1.007,1.007,0,0,0,.98.774h1.213a6.191,6.191,0,0,0,6.185-6.185V29.243a6.192,6.192,0,0,0-6.185-6.186M3.266,35.248a1.253,1.253,0,1,1,0-2.506h4.21a1.253,1.253,0,1,1,0,2.506H3.266ZM2.013,29.474a1.254,1.254,0,0,1,1.253-1.252h4.21a1.253,1.253,0,1,1,0,2.506H3.266a1.255,1.255,0,0,1-1.253-1.254M3.266,23.7h4.21a1.253,1.253,0,1,1,0,2.506H3.266a1.253,1.253,0,0,1,0-2.506M3.4,38.514a1.254,1.254,0,0,1,1.254-1.252H7.476A1.254,1.254,0,0,1,8.73,38.514a1.237,1.237,0,0,1-1,1.2H5.589a.94.94,0,0,0-.255.052h-.68A1.256,1.256,0,0,1,3.4,38.514m19.617-1.327a1.026,1.026,0,0,0-.983.789c-.043.178-.493,1.74-3.045,1.74H10.507a3.221,3.221,0,0,0-.681-3.461,3.253,3.253,0,0,0,.661-3.529,8.019,8.019,0,0,0,6.944-4.562,1.006,1.006,0,1,0-1.831-.836,6.021,6.021,0,0,1-5.1,3.378,3.234,3.234,0,0,0-.672-3.491,3.247,3.247,0,0,0,.655-3.539l2.978-.018a1.007,1.007,0,0,0,.831-1.566c-.034-.051-3.287-5.1-1.185-8.132a.282.282,0,0,1,.283-.108.4.4,0,0,1,.324.268c1.061,3.412,2.431,5.428,4.072,5.991,2.194.753,4.465,2.781,4.465,4.871a1.007,1.007,0,0,0,1.007,1.006H25.6v11.2Zm9.014-3.4a4.177,4.177,0,0,1-4.172,4.172h-.234c0-.01-.009-.019-.012-.029V25.07h.246a4.178,4.178,0,0,1,4.172,4.173Z" fill="#0063a8"/><path d="M12.768,8.925A4.462,4.462,0,1,0,8.305,4.463a4.466,4.466,0,0,0,4.463,4.462m0-6.911a2.449,2.449,0,1,1-2.45,2.449,2.452,2.452,0,0,1,2.45-2.449" fill="#0063a8"/></g></g></g></svg>