<svg xmlns="http://www.w3.org/2000/svg" xmlns:xlink="http://www.w3.org/1999/xlink" width="75" height="75" viewBox="0 0 75 75"><defs><clipPath id="a"><path d="M9.742,17.039c0,5.842,3.871,7.594,4.758,11.126a.969.969,0,0,0,.949.712h6.822a.969.969,0,0,0,.949-.712c.887-3.532,4.758-5.284,4.758-11.126,0-5.084-4.484-8.68-9.118-8.68s-9.118,3.6-9.118,8.68m9.117-8.68h0Z" fill="none"/></clipPath><radialGradient id="b" cx="0.5" cy="0.5" r="0.473" gradientTransform="matrix(1.125, 0, 0, -1, 0.067, 3.163)" gradientUnits="objectBoundingBox"><stop offset="0" stop-color="#b2e599"/><stop offset="1" stop-color="#74bf44"/></radialGradient><clipPath id="c"><rect width="37.72" height="40.813" transform="translate(0 0)" fill="none"/></clipPath></defs><g transform="translate(-9.5)"><path d="M37.5,0A37.5,37.5,0,1,1,0,37.5,37.5,37.5,0,0,1,37.5,0Z" transform="translate(9.5)" fill="#dff1ff"/><g transform="translate(28.14 17.094)"><g opacity="0"><g clip-path="url(#a)"><rect width="18.236" height="20.518" transform="translate(9.742 8.359)" fill="url(#b)"/></g></g><g clip-path="url(#c)"><path d="M18.86,7.352c-4.869,0-10.125,3.7-10.125,9.686,0,3.915,1.586,6.132,2.984,8.087a10,10,0,0,1,1.805,3.286,1.968,1.968,0,0,0,1.925,1.473h6.822A1.97,1.97,0,0,0,24.2,28.41,9.962,9.962,0,0,1,26,25.125c1.4-1.955,2.984-4.172,2.984-8.087,0-5.982-5.256-9.686-10.125-9.686m5.5,16.6a11.488,11.488,0,0,0-2.091,3.916l-6.794.051a11.8,11.8,0,0,0-2.119-3.967c-1.283-1.793-2.61-3.647-2.61-6.916,0-4.738,4.21-7.673,8.112-7.673s8.112,2.935,8.112,7.673c0,3.269-1.327,5.123-2.61,6.916" fill="#0063a8"/><path d="M18.861,5.388a.9.9,0,0,0,.9-.9V.9a.9.9,0,0,0-1.8,0V4.49a.9.9,0,0,0,.9.9" fill="#0063a8"/><path d="M9.332,8.069l-2.54-2.54A.893.893,0,0,0,5.529,6.792l2.54,2.54A.893.893,0,0,0,9.332,8.069" fill="#0063a8"/><path d="M32.192,5.529a.88.88,0,0,0-1.263,0l-2.54,2.54a.893.893,0,0,0,1.263,1.263l2.54-2.54a.891.891,0,0,0,0-1.263" fill="#0063a8"/><path d="M4.49,17.962H.9a.9.9,0,1,0,0,1.8H4.49a.9.9,0,1,0,0-1.8" fill="#0063a8"/><path d="M36.822,17.962H33.23a.9.9,0,0,0,0,1.8h3.592a.9.9,0,1,0,0-1.8" fill="#0063a8"/><path d="M18.86,31.889a4.462,4.462,0,1,0,4.462,4.462,4.466,4.466,0,0,0-4.462-4.462m0,6.911a2.448,2.448,0,1,1,2.449-2.449A2.452,2.452,0,0,1,18.86,38.8" fill="#0063a8"/></g></g></g></svg>