<svg xmlns="http://www.w3.org/2000/svg" xmlns:xlink="http://www.w3.org/1999/xlink" width="75" height="75" viewBox="0 0 75 75"><defs><clipPath id="a"><path d="M2.969,21.151l-1.962.981s-.476,3.719,1.935,5.325,4.981,2.591,7.07,1.3a14.059,14.059,0,0,0,3.766-4.17l.734-2.846H12.1L7.985,12.589Zm25.5,0-1.962.981s-.476,3.719,1.935,5.325,4.981,2.591,7.07,1.3a14.049,14.049,0,0,0,3.765-4.17l.735-2.846H37.6l-4.116-9.148Z" fill="none"/></clipPath><radialGradient id="b" cx="0.506" cy="0.48" r="1.098" gradientTransform="matrix(0.442, 0, 0, -1, -0.008, 2.769)" gradientUnits="objectBoundingBox"><stop offset="0" stop-color="#b2e599"/><stop offset="1" stop-color="#74bf44"/></radialGradient><clipPath id="c"><rect width="41.503" height="36.757" transform="translate(0 0)" fill="none"/></clipPath></defs><g transform="translate(-1.5)"><path d="M37.5,0A37.5,37.5,0,1,1,0,37.5,37.5,37.5,0,0,1,37.5,0Z" transform="translate(1.5)" fill="#dff1ff"/><g transform="translate(18.249 19.121)"><g opacity="0"><g clip-path="url(#a)"><rect width="39.477" height="17.459" transform="translate(0.531 12.589)" fill="url(#b)"/></g></g><g clip-path="url(#c)"><path d="M1.007,22.132a6.621,6.621,0,1,0,13.241,0Z" fill="none" stroke="#0063a8" stroke-linecap="round" stroke-linejoin="round" stroke-width="2.014"/><path d="M2.477,22.132,7.628,11.878l5.151,10.254" fill="none" stroke="#0063a8" stroke-linecap="round" stroke-linejoin="round" stroke-width="2.014"/><path d="M27.255,22.132a6.62,6.62,0,1,0,13.241,0Z" fill="none" stroke="#0063a8" stroke-linecap="round" stroke-linejoin="round" stroke-width="2.014"/><path d="M28.725,22.132l5.151-10.254,5.151,10.254" fill="none" stroke="#0063a8" stroke-linecap="round" stroke-linejoin="round" stroke-width="2.014"/><line x2="26.248" transform="translate(7.628 11.878)" fill="none" stroke="#0063a8" stroke-linecap="round" stroke-linejoin="round" stroke-width="2.014"/><line x2="9.115" transform="translate(16.194 35.75)" fill="none" stroke="#0063a8" stroke-linecap="round" stroke-linejoin="round" stroke-width="2.014"/><line y1="23.872" transform="translate(20.751 11.878)" fill="none" stroke="#0063a8" stroke-linecap="round" stroke-linejoin="round" stroke-width="2.014"/><path d="M24.207,4.462a3.456,3.456,0,1,1-3.456-3.455A3.456,3.456,0,0,1,24.207,4.462Z" fill="none" stroke="#0063a8" stroke-linecap="round" stroke-linejoin="round" stroke-width="2.014"/></g></g></g></svg>