<svg xmlns="http://www.w3.org/2000/svg" xmlns:xlink="http://www.w3.org/1999/xlink" width="75" height="75" viewBox="0 0 75 75"><defs><clipPath id="a"><path d="M4.865,3.486s-2.495.027-3.413.976-.917,5.8-.917,5.8l.48,7.515,3.48,6.849,4.468,4.406s2.057,1.629,2.052,3.3-.448,3.221,1.033,3.109a21.591,21.591,0,0,1,2.4.133c2.2.18,4.922.361,4.9-.65-.037-1.482-.259-9.071-.259-9.071s-2.628-3.258-3.369-4.035a2.369,2.369,0,0,1-.741-1.482V14.185s-.851-1.814-2.3-1.518c-.67.137-.9,1.235-.957,2.37l-.3-7.59S9.6,5.9,8.383,7.212l-.3-4.09a3.991,3.991,0,0,0-1.816-.586,1.429,1.429,0,0,0-1.406.95" fill="none"/></clipPath><radialGradient id="b" cx="0.5" cy="0.497" r="0.404" gradientTransform="matrix(1.773, 0, 0, -1, 0.022, 2.001)" gradientUnits="objectBoundingBox"><stop offset="0" stop-color="#b2e599"/><stop offset="1" stop-color="#74bf44"/></radialGradient><clipPath id="c"><rect width="42.879" height="35.949" transform="translate(0 0)" fill="none"/></clipPath></defs><path d="M37.5,0A37.5,37.5,0,1,1,0,37.5,37.5,37.5,0,0,1,37.5,0Z" fill="#dff1ff"/><g transform="translate(16.061 19.525)"><g opacity="0"><g clip-path="url(#a)"><rect width="18.831" height="33.393" transform="translate(0.535 2.536)" fill="url(#b)"/></g></g><g clip-path="url(#c)"><path d="M18.8,24.11c-.827-.849-1.708-1.794-2.693-2.892a1.04,1.04,0,0,1-.248-.626c-.006-1.032-.006-2.064-.006-3.094s0-2.06-.007-3.086A2.367,2.367,0,0,0,13.86,12a3.448,3.448,0,0,0-1.029.01c-.129.013-.262.027-.394.036,0-.4,0-.8,0-1.208,0-.856.006-1.741,0-2.616a2.429,2.429,0,0,0-2.119-2.4,3.788,3.788,0,0,0-.914.049c-.125.016-.251.033-.378.045,0-.177,0-.356,0-.536,0-.405.006-.824,0-1.246a2.447,2.447,0,0,0-4.7-.94,2.346,2.346,0,0,1-.107.237,2.728,2.728,0,0,0-2.778.022A3.022,3.022,0,0,0,0,6.182c.059,2.439.051,4.924.042,7.329,0,1.191-.009,2.424,0,3.633a1.812,1.812,0,0,0,.234.91c.968,1.82,1.976,3.662,2.951,5.444l.851,1.555a3.012,3.012,0,0,0,.489.656q.862.865,1.725,1.729c1.074,1.078,2.185,2.191,3.284,3.282a2.251,2.251,0,0,1,.7,1.665c-.013.871-.013,1.753-.013,2.609.013.705.267.955.969.955h7.716c.762,0,.994-.235.994-1.007.005-1.127,0-2.254,0-3.381,0-1.479,0-3.007.01-4.509A3.971,3.971,0,0,0,18.8,24.11m-.349,8.145q0,.877,0,1.755v.429h-6.7c0-.195,0-.388-.005-.581-.007-.429-.011-.833.005-1.24a3.9,3.9,0,0,0-1.291-3.134C9.176,28.243,7.895,26.949,6.656,25.7q-.467-.472-.934-.943a2.271,2.271,0,0,1-.391-.515C4.192,22.161,3,19.97,1.682,17.544A1.243,1.243,0,0,1,1.524,17c-.012-3.673-.012-7.4,0-11.089a1.284,1.284,0,0,1,.987-1.325A1.223,1.223,0,0,1,3.9,5.152a2.161,2.161,0,0,1,.22.865q.009,2.124.006,4.242T4.13,14.5a1.337,1.337,0,0,0,.253.781l2,2.565c1.467,1.882,2.982,3.829,4.483,5.736a1.425,1.425,0,0,0,.561.491.765.765,0,0,0,.987-.742,1.414,1.414,0,0,0-.375-.729l-1.929-2.4c-.122-.152-.248-.3-.377-.455a5.144,5.144,0,0,1-1.4-2.451A1.073,1.073,0,0,1,8.8,16.2a.681.681,0,0,1,.8.246c.843.893,1.7,1.814,2.53,2.7q.742.8,1.486,1.6c1.341,1.441,2.726,2.932,4.1,4.392a2.567,2.567,0,0,1,.75,1.869c-.019,1.747-.016,3.524-.014,5.244M12.437,14.489a.968.968,0,1,1,1.927-.013v4.732a1.031,1.031,0,0,1-.009.109l0,.035-.474-.507c-.461-.49-.895-.953-1.319-1.43a.515.515,0,0,1-.108-.336c-.013-.867-.013-1.705-.013-2.59M10.228,7.31a.972.972,0,0,1,.712,1c.012,1.888.012,3.808.012,5.665V15.6a2.762,2.762,0,0,0-1.9-.947c0-.016-.005-.03-.009-.045a1.116,1.116,0,0,1-.021-.181V8.372a1.792,1.792,0,0,1,.145-.615.915.915,0,0,1,1.057-.447m-2.7,7.656a.757.757,0,0,1-.092.358c-.148.241-.3.474-.469.72l-.049.075c-.355-.44-.806-1-1.239-1.576a.676.676,0,0,1-.065-.332V4.267a1.146,1.146,0,0,1,.31-.832.884.884,0,0,1,.637-.251h.022a.969.969,0,0,1,.945,1.083c.012,3.55.012,7.149,0,10.7" fill="#0063a8"/><path d="M42.878,6.182a3.022,3.022,0,0,0-1.437-2.735,2.731,2.731,0,0,0-2.778-.022c-.039-.079-.077-.16-.108-.241a2.448,2.448,0,0,0-4.7.944c-.008.421-.006.841,0,1.246,0,.18,0,.359,0,.536-.126-.012-.254-.029-.377-.045a3.574,3.574,0,0,0-.915-.049,2.428,2.428,0,0,0-2.119,2.4c-.008.874-.006,1.759,0,2.614q0,.609,0,1.209c-.131-.009-.264-.024-.393-.036A3.54,3.54,0,0,0,29.022,12a2.37,2.37,0,0,0-1.991,2.417c-.006,1.025-.006,2.054-.006,3.085s0,2.062-.006,3.094a1.046,1.046,0,0,1-.25.626c-.983,1.1-1.864,2.044-2.692,2.892a3.957,3.957,0,0,0-1.149,2.94c.013,1.5.012,3.032.01,4.511,0,1.127,0,2.254,0,3.381,0,.772.233,1.007.995,1.007h7.716c.7,0,.956-.25.968-.956,0-.855,0-1.737-.012-2.606a2.257,2.257,0,0,1,.7-1.667c1.116-1.108,2.246-2.24,3.339-3.335l1.673-1.677a3.124,3.124,0,0,0,.488-.654q.423-.779.85-1.556c.975-1.782,1.983-3.624,2.95-5.442a1.826,1.826,0,0,0,.235-.912c.005-1.209,0-2.442,0-3.633-.009-2.4-.018-4.89.041-7.329M31.127,33.858c0,.193-.005.386-.005.581h-6.7V34.01q0-.877,0-1.755c0-1.72,0-3.5-.013-5.243a2.567,2.567,0,0,1,.75-1.871c1.376-1.459,2.762-2.95,4.1-4.392q.742-.8,1.486-1.6c.83-.891,1.686-1.812,2.53-2.7a.678.678,0,0,1,.8-.246,1.071,1.071,0,0,1,.467,1.1,5.128,5.128,0,0,1-1.4,2.447c-.13.154-.259.306-.381.458q-.965,1.2-1.928,2.4a1.407,1.407,0,0,0-.375.729.765.765,0,0,0,.987.742,1.422,1.422,0,0,0,.56-.491c1.5-1.907,3.017-3.854,4.483-5.736l2-2.564a1.342,1.342,0,0,0,.253-.782q.009-2.124.006-4.241t.007-4.239a2.134,2.134,0,0,1,.218-.868,1.221,1.221,0,0,1,1.389-.56,1.281,1.281,0,0,1,.986,1.324c.013,3.686.013,7.416,0,11.089a1.235,1.235,0,0,1-.156.537c-1.318,2.428-2.511,4.619-3.651,6.7a2.274,2.274,0,0,1-.391.514q-.468.471-.934.943c-1.239,1.252-2.52,2.547-3.812,3.788a3.9,3.9,0,0,0-1.289,3.132c.016.409.011.813.005,1.242M35.351,4.267A.969.969,0,0,1,36.3,3.184h.022a.887.887,0,0,1,.637.251,1.146,1.146,0,0,1,.309.832v9.944a.678.678,0,0,1-.062.327c-.354.468-.75.972-1.242,1.581l-.064-.1c-.161-.24-.312-.465-.452-.7a.76.76,0,0,1-.093-.36c-.013-3.55-.013-7.149,0-10.7M32.9,7.275a.911.911,0,0,1,.809.48,1.77,1.77,0,0,1,.145.617v6.053a.909.909,0,0,1-.021.172c0,.019-.006.036-.008.054a2.762,2.762,0,0,0-1.9.947V13.971c0-1.856,0-3.776.012-5.664a.973.973,0,0,1,.71-1,.9.9,0,0,1,.25-.035M28.516,19.208V14.477a.968.968,0,1,1,1.926.011c0,.886,0,1.724-.012,2.592a.509.509,0,0,1-.111.337c-.421.474-.855.938-1.316,1.428-.155.165-.314.333-.475.507l0-.035a1.032,1.032,0,0,1-.009-.109" fill="#0063a8"/><path d="M25.9,4.462a4.463,4.463,0,1,0-4.463,4.462A4.467,4.467,0,0,0,25.9,4.462M21.439,6.911a2.449,2.449,0,1,1,2.45-2.449,2.452,2.452,0,0,1-2.45,2.449" fill="#0063a8"/></g></g></svg>