<svg xmlns="http://www.w3.org/2000/svg" xmlns:xlink="http://www.w3.org/1999/xlink" width="75" height="75" viewBox="0 0 75 75"><defs><clipPath id="a"><path d="M14.445,14.146a7.187,7.187,0,0,1-7.027-.581C5.871,12.4,5.053,15.024,5.053,15.024L.858,21.688,5.053,25a7.368,7.368,0,0,1,2.876-1.047c.963.084,2.777,2.469,3.961,2.469s2.147,1.741,4.976,2.555.5,4.184.89,3.99,1.131-.843,3.12.465.306,2.1,1.342,3.43,4.592,1.111,5.48,0c.387-.483-.138-1.36-.853-2.195a7.975,7.975,0,0,0,2.113.987c2.879.852,2.961-3.263,2.961-3.263l-4.887-4.044a43.876,43.876,0,0,0,6,3.925c1.925.815,3.036-2.83,3.036-2.83l-5.159-4.138a46.288,46.288,0,0,0,5.9,4.138c2.222,1.094,3.185-.8,3.851-1.951S37.1,23.243,36.213,22.5A71.827,71.827,0,0,0,26,17.358c-2.592-.925-4.887,3.145-8.24,4.4S15.778,18.578,16.3,17.1s6.218-3.628,4.885-4.162a3.567,3.567,0,0,0-1.3-.2,14.508,14.508,0,0,0-5.438,1.415" fill="none"/></clipPath><radialGradient id="b" cx="0.493" cy="0.498" r="0.645" gradientTransform="matrix(0.637, 0, 0, -1, -0.008, 2.128)" gradientUnits="objectBoundingBox"><stop offset="0" stop-color="#b2e599"/><stop offset="1" stop-color="#74bf44"/></radialGradient><clipPath id="c"><rect width="44.437" height="39.847" transform="translate(0 0)" fill="none"/></clipPath></defs><path d="M37.5,0A37.5,37.5,0,1,1,0,37.5,37.5,37.5,0,0,1,37.5,0Z" fill="#dff1ff"/><g transform="translate(15.281 17.578)"><g opacity="0"><g clip-path="url(#a)"><rect width="40.465" height="25.796" transform="translate(0.858 12.403)" fill="url(#b)"/></g></g><g clip-path="url(#c)"><path d="M44.272,21.386l-5.76-8.556a.986.986,0,0,0-1.382-.256l-1.28.9c-1.164.818-3.595.479-5.392-.274l-2.493-1.045a7.389,7.389,0,0,0-5.74.03,7.391,7.391,0,0,0-5.753-.03L13.98,13.2c-1.831.766-4.285,1.123-5.435.316l-1.281-.9a.987.987,0,0,0-1.382.258L.166,21.388a.989.989,0,0,0,.253,1.355l3.765,2.636-.468.656a3.411,3.411,0,0,0,.793,4.749,3.637,3.637,0,0,0,2.006.632,3.251,3.251,0,0,0,.043.683,3.384,3.384,0,0,0,1.379,2.209,3.421,3.421,0,0,0,2.555.583l0,.018a3.377,3.377,0,0,0,1.379,2.21,3.428,3.428,0,0,0,3.2.4A3.406,3.406,0,0,0,18.3,39.847a3.41,3.41,0,0,0,2.775-1.426l.58-.811L23.3,38.768a3.412,3.412,0,0,0,4.742-.836,3.306,3.306,0,0,0,.585-1.575,3.388,3.388,0,0,0,4.308-3.051,3.278,3.278,0,0,0,1.177,0,3.388,3.388,0,0,0,2.2-1.4,3.314,3.314,0,0,0,.58-1.521,3.433,3.433,0,0,0,3.875-1.267,3.385,3.385,0,0,0,.563-2.544,3.346,3.346,0,0,0-.518-1.282l3.255-2.587a.992.992,0,0,0,.2-1.322M29.084,23.893a.985.985,0,0,0,.242,1.372l5.02,3.516a1.435,1.435,0,0,1-.572,2.587,1.461,1.461,0,0,1-1.074-.239l-5.02-3.515a.986.986,0,0,0-1.13,1.615l3.822,2.676a1.433,1.433,0,1,1-1.646,2.346l-3.821-2.674a.985.985,0,0,0-1.13,1.614l2.3,1.614a1.431,1.431,0,0,1,.351,1.995,1.435,1.435,0,0,1-2,.352l-1.768-1.237A3.41,3.41,0,0,0,21.4,32.1a3.372,3.372,0,0,0-2-.628,3.393,3.393,0,0,0-1.423-2.9,3.412,3.412,0,0,0-2.538-.587l-.023.005a3.391,3.391,0,0,0-4.573-2.632,3.388,3.388,0,0,0-5.416-1.518L2.34,21.684l4.617-6.877.457.321c1.951,1.364,5.166.792,7.327-.114l2.493-1.046a5.362,5.362,0,0,1,2.688-.38L15.779,16.5a3.4,3.4,0,0,0,1.361,6.141,3.364,3.364,0,0,0,2.543-.563l4.559-3.189a3.9,3.9,0,0,1,4.429-.016L38.8,25.993a1.433,1.433,0,1,1-1.645,2.348l-6.7-4.69a.987.987,0,0,0-1.371.242M20.616,35.669l-1.148,1.609a1.434,1.434,0,0,1-2.335-1.667l1.123-1.573a1.425,1.425,0,0,1,.931-.581,1.494,1.494,0,0,1,.239-.021,1.429,1.429,0,0,1,1.185,2.23Zm-15.3-8.491L6.442,25.6a1.429,1.429,0,0,1,.931-.58A1.4,1.4,0,0,1,7.613,25a1.436,1.436,0,0,1,1.165,2.268L7.654,28.845a1.423,1.423,0,0,1-.931.581h0a1.436,1.436,0,0,1-1.4-2.249M8.747,30.7l2.143-3a1.443,1.443,0,0,1,1.17-.6,1.435,1.435,0,0,1,1.165,2.267l-2.144,3a1.434,1.434,0,0,1-2,.333h0a1.434,1.434,0,0,1-.334-2m3.938,2.811,2.143-3a1.426,1.426,0,0,1,.931-.58,1.411,1.411,0,0,1,1.07.247,1.432,1.432,0,0,1,.334,2l-2.143,3a1.429,1.429,0,0,1-.931.58h0a1.449,1.449,0,0,1-1.07-.248,1.434,1.434,0,0,1-.334-2M29.8,17.26a5.876,5.876,0,0,0-6.684.018l-4.56,3.189a1.434,1.434,0,0,1-1.643-2.35l5.1-3.59a5.374,5.374,0,0,1,5.19-.558l2.492,1.045c2.13.891,5.316,1.449,7.284.071l.459-.321,4.69,6.968-2.8,2.225Zm7.586-4.325Zm-31.135.186Z" fill="#0063a8"/><path d="M22.219,8.924a4.462,4.462,0,1,0-4.463-4.462,4.467,4.467,0,0,0,4.463,4.462m0-6.911A2.448,2.448,0,1,1,19.77,4.462a2.452,2.452,0,0,1,2.449-2.449" fill="#0063a8"/></g></g></svg>