<svg xmlns="http://www.w3.org/2000/svg" xmlns:xlink="http://www.w3.org/1999/xlink" width="24.615" height="21.664" viewBox="0 0 24.615 21.664">
  <defs>
    <radialGradient id="radial-gradient" cx="0.5" cy="0.5" r="0.5" gradientUnits="objectBoundingBox">
      <stop offset="0" stop-color="#b2e599"/>
      <stop offset="1" stop-color="#74bf44"/>
    </radialGradient>
  </defs>
  <path id="_" data-name="&quot;" d="M11.758-64.114l4.4-11.57H11.262L6.09-64.813C5-61.94,4.692-60.775,4.692-59.3a5.08,5.08,0,0,0,5.2,5.28,5.062,5.062,0,0,0,5.125-5.28A4.775,4.775,0,0,0,11.758-64.114Zm13.153,0,4.4-11.57H24.415L19.243-64.813c-1.087,2.873-1.4,4.038-1.4,5.513a5.08,5.08,0,0,0,5.2,5.28,5.062,5.062,0,0,0,5.125-5.28A4.775,4.775,0,0,0,24.911-64.114Z" transform="translate(29.307 -54.02) rotate(180)" fill="url(#radial-gradient)"/>
</svg>
