<svg xmlns="http://www.w3.org/2000/svg" width="82" height="83" viewBox="0 0 82 83">
  <g id="Group_142116" data-name="Group 142116" transform="translate(-2221 -1614)">
    <ellipse id="Ellipse_270" data-name="Ellipse 270" cx="41" cy="41.5" rx="41" ry="41.5" transform="translate(2221 1614)" fill="#e0f2ff"/>
    <g id="Group_142113" data-name="Group 142113" transform="translate(-1690.999 -428.742)">
      <path id="Path_39552" data-name="Path 39552" d="M126.127,0c.754.142,1.519.24,2.26.435A12,12,0,0,1,134.679,4.5a.668.668,0,0,1-.019.989c-.308.254-.653.207-.968-.168a11.225,11.225,0,0,0-3.359-2.749.858.858,0,0,0-.43-.163c-.925.123-1.846.274-2.769.416l-.006.15c.318.172.641.336.953.518.639.373,1.3.723,1.9,1.145a1.6,1.6,0,0,1,.78,1.523A1.067,1.067,0,0,1,129.712,7.2a4.842,4.842,0,0,1-1.484-.313c-.726-.274-1.42-.635-2.234-1.008.114.211.167.317.227.42a2.156,2.156,0,0,1-.179,2.66c-.511.632-1.064,1.232-1.624,1.822a4.991,4.991,0,0,0-1.433,2.619,3.527,3.527,0,0,1-.623,1.339,2.268,2.268,0,0,1-2.411.918,2.231,2.231,0,0,1-1.546-2c-.152-1.143-.314-2.286-.516-3.421a3.717,3.717,0,0,0-.979-1.822c-.445-.5-.826-1.049-1.228-1.567a10.792,10.792,0,0,0,1,12.375c.983-.585,1.952-1.176,2.936-1.74a1.977,1.977,0,0,1,1.573-.2,1.692,1.692,0,0,1,1.265,1.971,1.738,1.738,0,0,0,.739,1.967,2.763,2.763,0,0,1,1.086,1.791.426.426,0,0,0,.307.251,10.222,10.222,0,0,0,3.55-.373c-.081-.121-.141-.208-.2-.3a2.76,2.76,0,0,1-.145-3,.544.544,0,0,0-.138-.8,13.73,13.73,0,0,1-1.044-.952,2.671,2.671,0,0,1-.845-1.816,2.147,2.147,0,0,1,2.446-2.353,4.49,4.49,0,0,1,1.2.262,1.044,1.044,0,0,0,.9-.042c.584-.3,1.159-.613,1.749-.9a4.294,4.294,0,0,1,4.148-.068,18.287,18.287,0,0,0-.2-2.429c-.213-.981-.583-1.927-.874-2.892-.059-.2-.155-.452-.079-.6a.944.944,0,0,1,.541-.455c.305-.078.52.149.658.431a11.731,11.731,0,0,1,1.09,3.582A12.279,12.279,0,1,1,122.982.2c.389-.074.781-.131,1.172-.2Zm1.039,1.476a10.469,10.469,0,0,0-4.309.067,10.961,10.961,0,0,0-6.137,3.731.393.393,0,0,0-.055.556,12,12,0,0,0,1.083,1.582,6.041,6.041,0,0,1,1.605,3.467c.135.9.234,1.81.347,2.716a.858.858,0,0,0,.513.779.793.793,0,0,0,.939-.23,2.916,2.916,0,0,0,.589-1.105,5.672,5.672,0,0,1,1.336-2.684c.641-.71,1.293-1.411,1.913-2.139a.968.968,0,0,0,.041-1.395c-.167-.248-.36-.482-.506-.742a.976.976,0,0,1,.737-1.532,2.613,2.613,0,0,1,1.163.158c.72.266,1.408.616,2.112.924.266.116.542.211.813.315l.056-.1a4.446,4.446,0,0,0-.516-.42c-.464-.278-.948-.524-1.414-.8a12.963,12.963,0,0,1-1.592-.989A.922.922,0,0,1,126,2.052a10.333,10.333,0,0,1,1.168-.576m1.491,19.444a5.71,5.71,0,0,0,.268.8c.3.59.625.693,1.206.389a10.97,10.97,0,0,0,5.679-7c.219-.775.106-.967-.663-1.261-.053-.02-.108-.036-.163-.051a3.163,3.163,0,0,0-2.277.315c-.618.293-1.214.632-1.828.935a2.207,2.207,0,0,1-1.934.087,2.7,2.7,0,0,0-1.208-.121c-.475.037-.653.308-.683.777a1.715,1.715,0,0,0,.717,1.39c.345.32.713.62,1.031.965a1.454,1.454,0,0,1,.219,1.881c-.148.286-.245.6-.364.895m-11.074-.687a10.991,10.991,0,0,0,5.39,2.828,2.9,2.9,0,0,0-1.068-1.276,1.839,1.839,0,0,1-.79-1.9c.034-.254.063-.51.076-.766.023-.45-.216-.686-.657-.6a2.575,2.575,0,0,0-.738.315c-.581.332-1.152.681-1.723,1.031-.154.095-.292.216-.489.363" transform="translate(3827.6 2061.742)" fill="#0063a8"/>
      <path id="Path_39553" data-name="Path 39553" d="M284.283,254.156h-.036a2.5,2.5,0,0,0-2.333,1.9l-.769,3.158a10.325,10.325,0,0,1-5.513,6.852.945.945,0,0,1-1.346-1.012l.607-3.477a1.944,1.944,0,0,0-3.553-1.383l-3.929,6.138a1.442,1.442,0,0,0-1.859.149l-2.85,2.85a.718.718,0,0,0,0,1.015l8.275,8.275a.718.718,0,0,0,1.015,0l2.85-2.85a1.442,1.442,0,0,0,.08-1.949,22.492,22.492,0,0,0,2.653-1.733.718.718,0,1,0-.868-1.144,21.87,21.87,0,0,1-2.836,1.818l-5.41-5.41,4.088-6.385a.509.509,0,0,1,.93.362l-.607,3.477a2.381,2.381,0,0,0,3.391,2.548,11.757,11.757,0,0,0,6.277-7.8l.769-3.158c.247-1.017,1.71-1.064,1.624-.173a21.072,21.072,0,0,1-6.129,12.9.718.718,0,0,0,1.011,1.019,22.51,22.51,0,0,0,6.547-13.784A2.013,2.013,0,0,0,284.283,254.156Zm-12.8,22.943-7.26-7.26,2.348-2.343,7.254,7.26Z" transform="translate(3690.63 1828.169)" fill="#0063a8"/>
      <path id="Path_39554" data-name="Path 39554" d="M20.819,266.478a1.442,1.442,0,0,0-1.859-.149l-3.929-6.138a1.944,1.944,0,0,0-3.553,1.383l.607,3.477a.945.945,0,0,1-1.346,1.012,10.326,10.326,0,0,1-5.512-6.852l-.769-3.158a2.5,2.5,0,0,0-2.333-1.9H2.088A2.014,2.014,0,0,0,.01,256.359,22.453,22.453,0,0,0,11.45,273.82a1.441,1.441,0,0,0,.079,1.949l2.85,2.85a.718.718,0,0,0,1.015,0l3.185-3.185a.718.718,0,0,0-1.015-1.015L14.887,277.1l-2.343-2.348,7.26-7.254,2.343,2.342-2.553,2.553a.718.718,0,0,0,1.015,1.015l3.061-3.061a.718.718,0,0,0,0-1.015ZM1.439,256.22a.577.577,0,0,1,.6-.633H2.07a1.05,1.05,0,0,1,.992.8l.769,3.158a11.757,11.757,0,0,0,6.277,7.8A2.381,2.381,0,0,0,13.5,264.8l-.607-3.477a.509.509,0,0,1,.93-.362l4.088,6.385-5.41,5.41A21.181,21.181,0,0,1,1.439,256.22Z" transform="translate(3927.999 1828.171)" fill="#0063a8"/>
    </g>
  </g>
</svg>
