<svg xmlns="http://www.w3.org/2000/svg" width="82" height="83" viewBox="0 0 82 83">
  <g id="icn2" transform="translate(-580 -1435)">
    <ellipse id="Ellipse_272" data-name="Ellipse 272" cx="41" cy="41.5" rx="41" ry="41.5" transform="translate(580 1435)" fill="#e0f2ff"/>
    <g id="Group_142136" data-name="Group 142136" transform="translate(-1332.174 -233.528)">
      <path id="Path_39616" data-name="Path 39616" d="M136.164,0a25.61,25.61,0,0,1,3.184.719c5.334,1.916,8.569,5.68,9.363,11.3A13.82,13.82,0,1,1,132.5.224c.443-.083.889-.15,1.333-.224Zm11.169,13.856a12.317,12.317,0,1,0-12.321,12.293,12.323,12.323,0,0,0,12.321-12.293" transform="translate(1818.55 1684.528)" fill="#0063a8"/>
      <path id="Path_39617" data-name="Path 39617" d="M334.856,272.9a1.244,1.244,0,0,1-.473-1.1c.01-3.611,0-7.222.008-10.833a1.8,1.8,0,0,1,.066-.548.675.675,0,0,1,.738-.488.663.663,0,0,1,.679.562,3.31,3.31,0,0,1,.042.655q0,4.784,0,9.568v.631h4.307v-.612q0-9.036,0-18.073c0-.971.143-1.132,1.192-1.258l-3.343-3.559-3.352,3.561c.176.02.279.031.382.044.546.073.8.308.8.853q.022,2.632,0,5.265a.772.772,0,0,1-.766.83.794.794,0,0,1-.744-.861c-.016-1.282-.007-2.565-.008-3.847,0-.216,0-.431,0-.711-.494,0-.928,0-1.362,0a.789.789,0,0,1-.821-.463.772.772,0,0,1,.232-.913q2.494-2.658,5-5.308a.757.757,0,0,1,1.261,0c1.683,1.776,3.367,3.55,5.02,5.354a.991.991,0,0,1,.192.855,1.067,1.067,0,0,1-.741.456,8.918,8.918,0,0,1-1.423.02v.632q0,9.112.008,18.225a1.09,1.09,0,0,1-.515,1.062Z" transform="translate(1628.971 1463.472)" fill="#0063a8"/>
      <path id="Path_39618" data-name="Path 39618" d="M202.492,315.863a1.258,1.258,0,0,1-.471-1.146q.012-6.631.005-13.261v-.672a9.013,9.013,0,0,1-1.39-.019,1.086,1.086,0,0,1-.748-.435.956.956,0,0,1,.15-.851c1.674-1.829,3.379-3.63,5.088-5.427a.719.719,0,0,1,1.154,0c1.719,1.811,3.434,3.626,5.119,5.467a.918.918,0,0,1,.136.818,1.026,1.026,0,0,1-.71.426,9.979,9.979,0,0,1-1.445.019v.605c0,4.471-.006,8.942.008,13.413a1.087,1.087,0,0,1-.515,1.061Zm5.368-1.544V303.5c0-1.114,0-2.227,0-3.341a.788.788,0,0,1,.81-.894c.107-.011.214-.018.4-.034l-3.362-3.576-3.335,3.544c1.108.189,1.181.278,1.181,1.392q0,6.53,0,13.059v.669Z" transform="translate(1747.867 1420.513)" fill="#0063a8"/>
      <path id="Path_39619" data-name="Path 39619" d="M68.891,362.458a1.25,1.25,0,0,1-.47-1.148c.018-.877,0-1.755.012-2.632,0-.228.021-.536.162-.66a1.032,1.032,0,0,1,.779-.279.908.908,0,0,1,.536.618,10.709,10.709,0,0,1,.045,1.615c0,.3,0,.6,0,.937h4.3v-.519q0-4.05,0-8.1c0-.973.144-1.127,1.226-1.209l-3.374-3.595-3.367,3.572c.172.025.274.046.378.053.545.036.815.27.824.815q.029,1.721,0,3.442a.764.764,0,0,1-.755.79.782.782,0,0,1-.751-.8c-.024-.691-.008-1.384-.009-2.076,0-.2,0-.4,0-.65-.486,0-.92,0-1.355,0a.8.8,0,0,1-.823-.464.762.762,0,0,1,.217-.913q2.481-2.635,4.963-5.27A.808.808,0,0,1,72.8,346q2.432,2.577,4.858,5.159a.821.821,0,0,1-.654,1.482c-.386-.017-.772,0-1.23,0v.563c0,2.734-.009,5.468.009,8.2a1.083,1.083,0,0,1-.516,1.06Z" transform="translate(1868 1373.918)" fill="#0063a8"/>
      <path id="Path_39628" data-name="Path 39628" d="M169.074,58a10.109,10.109,0,0,1-10.206-9.175,9.809,9.809,0,0,1,1.035-5.338c.307-.607.705-.813,1.146-.6s.514.669.222,1.264a8.481,8.481,0,1,0,6.884-4.636,8.175,8.175,0,0,0-4.7,1.908c-.091.075-.175.159-.269.23a.792.792,0,0,1-1.132-.044A.769.769,0,0,1,162.2,40.5a9.578,9.578,0,0,1,4.542-2.3,10,10,0,1,1,3.784,19.643c-.565.087-1.138.127-1.456.162" transform="translate(1784.727 1650.391)" fill="#0063a8"/>
      <path id="Path_39629" data-name="Path 39629" d="M229.515,81.766a1.293,1.293,0,0,0-.979-1.214c-.48-.147-.988-.2-1.476-.32a2.656,2.656,0,0,1-2.1-2.314,2.786,2.786,0,0,1,1.725-2.862.457.457,0,0,0,.334-.523,3.339,3.339,0,0,1,.049-.8.674.674,0,0,1,.733-.567c.393.013.745.252.7.648a1.356,1.356,0,0,0,.98,1.578,2.417,2.417,0,0,1,.877.943.75.75,0,1,1-1.29.765,1.438,1.438,0,0,0-1.4-.712,1.2,1.2,0,0,0-1.178,1.108,1.078,1.078,0,0,0,.829,1.219c.449.133.923.182,1.377.3a2.714,2.714,0,0,1,2.272,2.656,2.877,2.877,0,0,1-2.1,2.93.624.624,0,0,0-.309.406c-.057.241-.006.505-.039.754a.69.69,0,0,1-.723.64.674.674,0,0,1-.724-.577,3.227,3.227,0,0,1-.046-.8c.018-.286-.085-.41-.362-.488a2.9,2.9,0,0,1-1.909-1.606c-.254-.534-.149-.96.274-1.177s.8-.048,1.079.494a1.97,1.97,0,0,0,3.025.433,3.961,3.961,0,0,0,.384-.907" transform="translate(1725.602 1618.775)" fill="#0063a8"/>
    </g>
  </g>
</svg>
