<svg xmlns="http://www.w3.org/2000/svg" width="82" height="83" viewBox="0 0 82 83">
  <g id="icn3" transform="translate(-2094 -1707)">
    <ellipse id="Ellipse_271" data-name="Ellipse 271" cx="41" cy="41.5" rx="41" ry="41.5" transform="translate(2094 1707)" fill="#e0f2ff"/>
    <g id="Group_142114" data-name="Group 142114" transform="translate(-904 -679.131)">
      <path id="Path_39556" data-name="Path 39556" d="M0,194.142a.949.949,0,0,1,.933-.476c1.927.014,3.854,0,5.782.007.729,0,.953.225.953.952q0,3.624,0,7.249v.531h3.812v-.521q0-8.068,0-16.137c0-.764.208-.977.969-.978q2.826,0,5.652,0c.842,0,1.048.205,1.048,1.04q0,8.025,0,16.051v.541h3.811v-.546q0-13.073,0-26.147c0-.832.178-1.012,1.008-1.013q2.848,0,5.7,0c.763,0,.967.207.967.975q0,13.073,0,26.147v.613h.528c4.013,0,8.025.005,12.038-.008a1.058,1.058,0,0,1,1,.438v.95H0v-9.668m24.358,8.265h4.857v-26.3H24.358ZM17.75,186.185H12.891v16.233H17.75ZM1.409,202.4H6.258v-7.319H1.409Z" transform="translate(3017 2245.516)" fill="#0063a8"/>
      <path id="Path_39557" data-name="Path 39557" d="M143.7,19.508a1.46,1.46,0,0,1-1.036.515c-1.067.218-2.135.437-3.2.682a.622.622,0,0,0-.354.332c-.412.944-.81,1.893-1.186,2.852a.678.678,0,0,0,.042.531c.617.986,1.262,1.954,1.9,2.929a.783.783,0,0,1-.116,1.215q-1.14,1.148-2.288,2.288a.788.788,0,0,1-1.214.122c-.962-.629-1.916-1.268-2.888-1.88a.787.787,0,0,0-.569-.075.688.688,0,0,1-.856-.3.663.663,0,0,1,.217-.909c.915-.594.89-.585,1.68-.066.948.623,1.9,1.24,2.809,1.834l1.834-1.838c-.625-.96-1.285-2-1.976-3.022a.9.9,0,0,1-.026-1.109,10.823,10.823,0,0,0,1.417-3.4.931.931,0,0,1,.834-.786c1.1-.215,2.188-.463,3.285-.678.223-.044.322-.108.317-.351q-.021-.992,0-1.985c.005-.241-.093-.317-.314-.361-1.111-.221-2.217-.464-3.327-.686a.885.885,0,0,1-.783-.733,10.976,10.976,0,0,0-1.428-3.441.9.9,0,0,1,.025-1.11c.683-1.011,1.339-2.04,1.979-3.022l-1.836-1.835c-.946.615-1.978,1.264-2.984,1.951a.949.949,0,0,1-1.182.031,10.873,10.873,0,0,0-3.4-1.409.881.881,0,0,1-.736-.779c-.222-1.11-.465-2.217-.687-3.328-.044-.219-.116-.322-.359-.316q-.992.022-1.985,0c-.238,0-.309.083-.354.312-.214,1.1-.46,2.189-.678,3.285a.937.937,0,0,1-.784.84,10.91,10.91,0,0,0-3.438,1.433.856.856,0,0,1-1.036-.018c-1.026-.687-2.064-1.355-3.055-2L114.13,7.062c.6.921,1.225,1.933,1.905,2.908a1.047,1.047,0,0,1,.032,1.33,10.237,10.237,0,0,0-1.353,3.286.927.927,0,0,1-.834.786c-1.1.21-2.189.461-3.286.68-.227.045-.312.131-.308.367.013.661-.009,1.324.016,1.984a.443.443,0,0,0,.265.322c1.09.249,2.183.487,3.281.7a.99.99,0,0,1,.881.847,17.93,17.93,0,0,0,.645,1.911.726.726,0,0,1-.3.994.686.686,0,0,1-.967-.442c-.225-.557-.4-1.136-.623-1.693a.609.609,0,0,0-.355-.332c-1.173-.27-2.354-.51-3.531-.763-.535-.115-.688-.306-.689-.863q0-1.683,0-3.366c0-.546.174-.753.7-.862,1.137-.236,2.274-.474,3.412-.7a.614.614,0,0,0,.514-.466c.339-.926.732-1.834,1.138-2.733a.514.514,0,0,0-.031-.581c-.647-.967-1.28-1.943-1.915-2.917a.792.792,0,0,1,.128-1.215Q114,5.088,115.143,3.947c.437-.434.686-.457,1.213-.114.975.634,1.942,1.281,2.927,1.9a.676.676,0,0,0,.53.04c.958-.376,1.908-.775,2.852-1.188A.62.62,0,0,0,123,4.23c.257-1.117.467-2.246.737-3.36A3.91,3.91,0,0,1,124.2,0h4.143a1.026,1.026,0,0,1,.529.782c.216,1.125.466,2.244.692,3.367a.588.588,0,0,0,.447.483c.922.346,1.832.729,2.731,1.132a.544.544,0,0,0,.616-.034c.965-.648,1.943-1.276,2.917-1.909a.763.763,0,0,1,1.174.12q1.162,1.155,2.316,2.317a.761.761,0,0,1,.123,1.173c-.634.974-1.265,1.95-1.911,2.916a.551.551,0,0,0-.034.62c.4.9.787,1.809,1.132,2.732a.588.588,0,0,0,.486.444c1.123.227,2.241.478,3.366.693a1.047,1.047,0,0,1,.781.53Z" transform="translate(2917.492 2405.131)" fill="#0063a8"/>
      <path id="Path_39559" data-name="Path 39559" d="M214.005,114.313a8.35,8.35,0,0,1,7.314-8.172,8.243,8.243,0,0,1,8.288,12.048.678.678,0,0,1-.941.347.686.686,0,0,1-.289-.957c.051-.118.115-.231.17-.348a6.8,6.8,0,0,0-1.459-7.849,6.864,6.864,0,0,0-11.541,3.917,6.862,6.862,0,0,0,.218,3.068.694.694,0,0,1-.451.96c-.377.113-.715-.107-.869-.566a1.138,1.138,0,0,1-.046-.166q-.2-1.141-.392-2.282" transform="translate(2821.468 2308.213)" fill="#0063a8"/>
      <rect id="Rectangle_1965" data-name="Rectangle 1965" width="44" height="44" transform="translate(3017 2405.327)" fill="none"/>
    </g>
  </g>
</svg>
