<svg xmlns="http://www.w3.org/2000/svg" width="82" height="83" viewBox="0 0 82 83">
  <g id="icn4" transform="translate(-2346 -1723)">
    <ellipse id="Ellipse_271" data-name="Ellipse 271" cx="41" cy="41.5" rx="41" ry="41.5" transform="translate(2346 1723)" fill="#e0f2ff"/>
    <g id="Group_142120" data-name="Group 142120" transform="translate(-514.729 -125.126)">
      <path id="Path_39568" data-name="Path 39568" d="M29.285,46.434a16.268,16.268,0,0,0-2.752-6.459,40.572,40.572,0,0,1-2.581-4.142,12.8,12.8,0,0,1-1.152-6.52,14.756,14.756,0,0,1,3.8-9.4c.058-.066.1-.142.209-.285h-.437q-3.377,0-6.754,0c-.786,0-.982.2-.984.979s.017,1.554-.009,2.33a.526.526,0,0,0,.392.585,2.856,2.856,0,1,1-2.271.008.627.627,0,0,0,.458-.733c-.019-.776-.009-1.553,0-2.33a2.106,2.106,0,0,1,2.319-2.336c2.172-.012,4.346-.064,6.515.019a5.025,5.025,0,0,0,4.023-1.16,14.775,14.775,0,0,1,19.02,2.889,16.29,16.29,0,0,1,2.661,4.026.612.612,0,0,0,.444.3c1.426.023,2.854.021,4.28.011.625,0,.823-.214.828-.835.006-.824-.017-1.649.011-2.473a.585.585,0,0,0-.427-.658,2.853,2.853,0,1,1,2.314.006.631.631,0,0,0-.468.725c.021.808.017,1.617,0,2.425A2.1,2.1,0,0,1,56.493,25.6c-1.173.01-2.346,0-3.52,0-.138,0-.277.013-.329.015.178,1.368.439,2.707.512,4.057a14.071,14.071,0,0,1-2.881,9.092A21.407,21.407,0,0,0,47.16,44.5c-.048.148-.094.3-.162.513.846,0,1.646,0,2.445,0,.654,0,.9.2.9.7s-.281.723-.9.725c-.918,0-1.837,0-2.874,0-.1,1.026-.229,2.038-.3,3.055-.053.768-.195.944-.964.944H30.61c-.743,0-.9-.158-.95-.914-.026-.411-.058-.822-.1-1.232-.011-.125-.048-.249-.083-.423h-.506q-3.662,0-7.325,0a2.155,2.155,0,0,1-2.384-2.38c0-.539-.021-1.079.006-1.617a.618.618,0,0,0-.44-.7,2.834,2.834,0,0,1-1.694-2.962,2.868,2.868,0,1,1,4.01,2.978.6.6,0,0,0-.445.691c.025.617.007,1.236.016,1.854a.639.639,0,0,0,.679.7c2.614.013,5.229.007,7.887.007M44.824,49c.026-.244.057-.448.068-.653a16.178,16.178,0,0,1,2.614-7.976c.732-1.147,1.484-2.283,2.2-3.438a12.664,12.664,0,0,0,1.818-8.779A13.87,13.87,0,0,0,47.2,20.058,13.139,13.139,0,0,0,32.013,17.55a13.317,13.317,0,0,0-7.656,10.577,12.358,12.358,0,0,0,1.615,8.449c.645,1.052,1.355,2.064,2.057,3.08A15.76,15.76,0,0,1,30.78,46.1c.155.95.24,1.911.358,2.871h3.884c0-1.655,0-3.272,0-4.888,0-.64.25-.961.732-.955.459.006.7.318.7.93q0,2.211,0,4.422c0,.167,0,.334,0,.5h3.029c0-1.221,0-2.407,0-3.594,0-.523.271-.825.709-.821s.709.3.718.826c.009.555,0,1.109,0,1.664V49ZM58.016,19.053a1.437,1.437,0,0,0,1.448-1.4A1.484,1.484,0,0,0,58.012,16.2a1.433,1.433,0,0,0-1.4,1.439,1.4,1.4,0,0,0,1.408,1.416m-40.127,5.69a1.433,1.433,0,0,0-1.418,1.424A1.485,1.485,0,0,0,17.9,27.6a1.437,1.437,0,0,0,1.424-1.47,1.392,1.392,0,0,0-1.437-1.387m2.094,17.235a1.418,1.418,0,0,0,1.43-1.406,1.428,1.428,0,1,0-2.856-.006,1.423,1.423,0,0,0,1.426,1.412" transform="translate(2864.389 1851.809)" fill="#0063a8"/>
      <path id="Path_39569" data-name="Path 39569" d="M168.373,441.777a14.531,14.531,0,0,1-1.159,2.192,4.391,4.391,0,0,1-4.634,1.695,4.487,4.487,0,0,1-3.575-3.354c-.114-.395-.27-.482-.644-.476-1.22.022-2.44.013-3.66,0-.6,0-.846-.2-.879-.643a.651.651,0,0,1,.632-.78,4.055,4.055,0,0,1,.522-.018q8.6,0,17.205,0a4.838,4.838,0,0,1,.521.025.558.558,0,0,1,.565.58.633.633,0,0,1-.48.72,2.228,2.228,0,0,1-.562.053c-1.329,0-2.659,0-3.853,0m-1.663.028h-6.277a3.131,3.131,0,0,0,3.124,2.543,3.223,3.223,0,0,0,3.153-2.543" transform="translate(2738.812 1466.648)" fill="#0063a8"/>
      <path id="Path_39570" data-name="Path 39570" d="M410.111,338.038c0-1.045.008-2.044,0-3.042-.005-.49-.242-.713-.74-.721-.571-.009-1.142,0-1.712-.005-.535-.008-.809-.259-.811-.719s.25-.7.8-.709c.634-.005,1.269-.013,1.9.006a2.027,2.027,0,0,1,1.984,1.974c.026.935.023,1.871,0,2.806a.485.485,0,0,0,.36.552,2.862,2.862,0,0,1-.865,5.52,2.834,2.834,0,0,1-2.966-2.158,2.9,2.9,0,0,1,1.624-3.341c.129-.056.263-.1.42-.162m.749,4.158a1.434,1.434,0,0,0,1.421-1.422,1.486,1.486,0,0,0-1.48-1.432,1.433,1.433,0,0,0-1.376,1.465,1.393,1.393,0,0,0,1.435,1.389" transform="translate(2509.855 1563.977)" fill="#0063a8"/>
      <path id="Path_39571" data-name="Path 39571" d="M177.159,408.621q-3.708,0-7.416,0c-.624,0-.862-.2-.877-.684a.648.648,0,0,1,.594-.727,3,3,0,0,1,.521-.024q7.178,0,14.357,0a2.86,2.86,0,0,1,.566.036.641.641,0,0,1,.545.762.606.606,0,0,1-.637.626c-.3.014-.6.012-.9.012h-6.751" transform="translate(2725.197 1496.702)" fill="#0063a8"/>
      <path id="Path_39578" data-name="Path 39578" d="M148.4,74.577a3.446,3.446,0,0,1,.476-.628c.434-.368.917-.678,1.353-1.044a.581.581,0,0,0,.174-.461,9.114,9.114,0,0,1-.01-3.118.636.636,0,0,0-.185-.5c-.434-.368-.911-.685-1.36-1.035a.739.739,0,0,1-.222-1.145q.64-1.137,1.284-2.272a.855.855,0,0,1,1.3-.416c.478.209.946.443,1.433.626a.577.577,0,0,0,.485-.074,8.559,8.559,0,0,1,2.7-1.561.636.636,0,0,0,.332-.419c.109-.558.15-1.129.245-1.69.1-.592.342-.785.934-.789q1.308-.008,2.616,0c.57,0,.779.183.856.734s.121,1.134.227,1.693a.694.694,0,0,0,.35.461,8.189,8.189,0,0,1,2.645,1.55.5.5,0,0,0,.628.08c.5-.234,1.013-.445,1.524-.656a.852.852,0,0,1,1.232.423q.655,1.129,1.291,2.269a.8.8,0,0,1-.253,1.23c-.429.325-.881.624-1.286.976a.7.7,0,0,0-.21.548,7.735,7.735,0,0,1-.018,3.019.511.511,0,0,0,.243.6c.441.308.873.631,1.3.96a.751.751,0,0,1,.242,1.178c-.436.771-.871,1.543-1.316,2.309a.807.807,0,0,1-1.19.4c-.526-.218-1.04-.464-1.574-.659a.586.586,0,0,0-.489.072,8.805,8.805,0,0,1-2.738,1.582.586.586,0,0,0-.3.394c-.1.512-.143,1.034-.213,1.551-.1.718-.34.931-1.057.934-.824,0-1.649,0-2.473,0-.643,0-.889-.208-.99-.843-.084-.531-.166-1.064-.205-1.6a.456.456,0,0,0-.359-.472,7.237,7.237,0,0,1-2.651-1.531.459.459,0,0,0-.587-.079q-.73.341-1.472.657a.8.8,0,0,1-1.157-.384c-.452-.78-.895-1.566-1.336-2.352-.076-.135-.123-.286-.221-.518m2.65,1.671c.574-.254,1.089-.459,1.581-.707a.885.885,0,0,1,1.146.2,6.2,6.2,0,0,0,3.12,1.709.824.824,0,0,1,.7.838c.049.6.123,1.191.189,1.8H159.5c.066-.579.137-1.142.191-1.706a.877.877,0,0,1,.714-.878,6.835,6.835,0,0,0,3.17-1.825.786.786,0,0,1,.984-.178c.569.26,1.155.486,1.754.735l.849-1.493c-.479-.371-.918-.733-1.38-1.063a.976.976,0,0,1-.42-1.184,6.429,6.429,0,0,0,0-3.382,1,1,0,0,1,.43-1.189c.458-.335.9-.7,1.369-1.068l-.852-1.488c-.569.236-1.111.423-1.615.681a.938.938,0,0,1-1.228-.214A6.53,6.53,0,0,0,160.4,64.1a.888.888,0,0,1-.722-.925c-.031-.578-.123-1.152-.189-1.73h-1.705c-.066.6-.138,1.175-.19,1.754a.863.863,0,0,1-.655.88,6.9,6.9,0,0,0-3.216,1.838.808.808,0,0,1-1.03.172c-.532-.263-1.085-.483-1.645-.729l-.857,1.5c.49.381.955.76,1.44,1.113a.886.886,0,0,1,.382,1.062A6.563,6.563,0,0,0,152,72.511a.98.98,0,0,1-.409,1.153c-.461.355-.919.713-1.4,1.085l.856,1.5" transform="translate(2743.715 1810.818)" fill="#0063a8"/>
      <path id="Path_39580" data-name="Path 39580" d="M217.747,131.043a4.5,4.5,0,1,1-4.474-4.512,4.495,4.495,0,0,1,4.474,4.512m-1.436-.082a3.064,3.064,0,1,0-6.129.024,3.064,3.064,0,1,0,6.129-.024" transform="translate(2689.109 1750.658)" fill="#0063a8"/>
      <rect id="Rectangle_1966" data-name="Rectangle 1966" width="49" height="49" transform="translate(2877.729 1865.126)" fill="none"/>
    </g>
  </g>
</svg>
