<svg xmlns="http://www.w3.org/2000/svg" width="82" height="83" viewBox="0 0 82 83">
  <g id="icn5" transform="translate(-2221 -1846)">
    <ellipse id="Ellipse_273" data-name="Ellipse 273" cx="41" cy="41.5" rx="41" ry="41.5" transform="translate(2221 1846)" fill="#e0f2ff"/>
    <g id="Group_142122" data-name="Group 142122" transform="translate(-1023.691 -486.481)">
      <path id="Path_39582" data-name="Path 39582" d="M30.5,59.2a5.274,5.274,0,0,1-1-4.687,4.409,4.409,0,0,1,.739-1.647,4.927,4.927,0,0,0,.847-2.038,19.7,19.7,0,0,1,11.454-13.9,5.886,5.886,0,0,0,1.081-.747c.437-.34.831-.74,1.286-1.053.438-.3.93-.524,1.441-.8a5.442,5.442,0,0,1-1.1-4.619,5.212,5.212,0,0,1,2.06-3.173,5.3,5.3,0,0,1,6.886.474,5.432,5.432,0,0,1,.381,7.327,6.519,6.519,0,0,1,.889.453c.639.456,1.249.951,1.876,1.423a5.759,5.759,0,0,0,.993.693A19.8,19.8,0,0,1,70.053,51.695a1.4,1.4,0,0,0,.237.576,5.366,5.366,0,0,1,.231,6.8c-.041.058-.076.121-.106.17a18.685,18.685,0,0,1,2,1.289,8.1,8.1,0,0,1,2.793,7.213c-.032.485-.382.727-.954.728-2.4,0-4.809.066-7.209-.025a3.7,3.7,0,0,0-2.985,1.189,18.605,18.605,0,0,1-11.36,5.3A19.6,19.6,0,0,1,35.941,68.77a1.065,1.065,0,0,0-.686-.285c-2.78-.019-5.56-.012-8.34-.013-.976,0-1.186-.2-1.217-1.192a8.012,8.012,0,0,1,2.4-6.38,20.361,20.361,0,0,1,2.4-1.7m32.4,9.275h-.571q-1.991,0-3.982,0c-.7,0-1.01-.236-1.047-.932a9.9,9.9,0,0,1,.074-1.928,7.549,7.549,0,0,1,3.024-5.3c.544-.393,1.151-.7,1.732-1.044a5.238,5.238,0,0,1-.493-6.085c1.453-2.49,3.724-3.165,6.544-2.448a18.449,18.449,0,0,0-9.129-11.68c.049.239.088.372.1.509a28.453,28.453,0,0,1,.275,2.873c0,.907-.255,1.075-1.157,1.075q-7.8,0-15.6,0c-.879,0-1.083-.171-1.162-1.029a5.187,5.187,0,0,1,0-1.071c.088-.756.216-1.508.327-2.264-3.908,1.662-9.2,8.509-8.946,11.57,2.73-.574,4.63-.048,6.011,1.833,1.642,2.236,1.47,4.52-.1,6.766.176.084.319.154.463.22a7.1,7.1,0,0,1,3.279,2.993,8.786,8.786,0,0,1,1.126,4.9c-.043.8-.325,1.042-1.114,1.044-.628,0-1.256,0-1.883,0H38.049a18.069,18.069,0,0,0,24.847,0M27.354,66.806H41.98a5.989,5.989,0,0,0-4.316-6.12A1.038,1.038,0,0,0,37,60.7a5.435,5.435,0,0,1-4.663,0,.9.9,0,0,0-.561-.052,6.04,6.04,0,0,0-4.423,6.156m46.212.027a5.981,5.981,0,0,0-4.235-6.115,1.4,1.4,0,0,0-.859.039,5.415,5.415,0,0,1-4.416,0,1.356,1.356,0,0,0-.859-.035,5.707,5.707,0,0,0-4.113,4.64c-.1.476-.115.97-.172,1.475Zm-15.8-24.979a6.021,6.021,0,0,0-4.435-6.175.848.848,0,0,0-.51.052,5.357,5.357,0,0,1-4.7-.005.815.815,0,0,0-.511-.044,5.967,5.967,0,0,0-4.422,6.172Zm-7.3-7.283a3.722,3.722,0,1,0-3.709-3.714,3.68,3.68,0,0,0,3.709,3.714m19.5,21.241a3.673,3.673,0,0,0-3.708-3.72,3.725,3.725,0,1,0,.072,7.45,3.662,3.662,0,0,0,3.636-3.729m-38.992.02a3.667,3.667,0,0,0,3.711,3.709,3.725,3.725,0,1,0-.024-7.449,3.674,3.674,0,0,0-3.687,3.74" transform="translate(3235 2324)" fill="#0063a8" stroke="#0063a8" stroke-width="0.1"/>
    </g>
  </g>
</svg>
