<svg xmlns="http://www.w3.org/2000/svg" width="82" height="83" viewBox="0 0 82 83">
  <g id="icn6" transform="translate(-2346 -1846)">
    <ellipse id="Ellipse_274" data-name="Ellipse 274" cx="41" cy="41.5" rx="41" ry="41.5" transform="translate(2346 1846)" fill="#e0f2ff"/>
    <g id="_9-productivity" data-name="9-productivity" transform="translate(2363 1864)">
      <path id="Path_39446" data-name="Path 39446" d="M47.758,21.2a.748.748,0,0,0-.72-.167L35.073,24.565a.75.75,0,0,0-.318,1.249l2,2L26.25,38.325,19.9,31.976A3.76,3.76,0,0,0,14.579,32L.2,47.49a.75.75,0,1,0,1.1,1.02L15.659,33.038a2.253,2.253,0,0,1,3.182,0l6.879,6.879a.772.772,0,0,0,1.061,0L38.349,28.347a.75.75,0,0,0,0-1.061l-1.641-1.641,9.554-2.822L44.141,33.079l-1.549-1.55a.75.75,0,0,0-1.061,0l-13.69,13.69a2.253,2.253,0,0,1-3.182,0L17.78,38.341a.75.75,0,0,0-1.093.035L4.687,52A.75.75,0,1,0,5.813,53L17.285,39.966,23.6,46.281a3.756,3.756,0,0,0,5.3,0l13.16-13.16,2,2a.75.75,0,0,0,1.265-.378L47.985,21.9a.751.751,0,0,0-.227-.7Z" transform="translate(0 -5.25)" fill="#0063a8" stroke="#0063a8" stroke-width="0.5"/>
      <path id="Path_39447" data-name="Path 39447" d="M16.75,56a.75.75,0,0,0-.75.75v4.5a.75.75,0,1,0,1.5,0v-4.5A.75.75,0,0,0,16.75,56Z" transform="translate(-4 -14)" fill="#0063a8" stroke="#0063a8" stroke-width="0.5"/>
      <path id="Path_39448" data-name="Path 39448" d="M4.75,44.75A.75.75,0,0,0,5.5,44V33.5H13v.75a.75.75,0,1,0,1.5,0v-1.5a.75.75,0,0,0-.75-.75h-9a.75.75,0,0,0-.75.75V44A.75.75,0,0,0,4.75,44.75Z" transform="translate(-1 -8)" fill="#0063a8" stroke="#0063a8" stroke-width="0.5"/>
      <path id="Path_39449" data-name="Path 39449" d="M46.75,48a.75.75,0,0,0-.75.75v10.5a.75.75,0,1,0,1.5,0V48.75A.75.75,0,0,0,46.75,48Z" transform="translate(-11.5 -12)" fill="#0063a8" stroke="#0063a8" stroke-width="0.5"/>
      <path id="Path_39450" data-name="Path 39450" d="M46.75,18a.75.75,0,0,0,.75-.75V1.5H55V14.25a.75.75,0,0,0,1.5,0V.75A.75.75,0,0,0,55.75,0h-9A.75.75,0,0,0,46,.75v16.5A.75.75,0,0,0,46.75,18Z" transform="translate(-11.5)" fill="#0063a8" stroke="#0063a8" stroke-width="0.5"/>
      <path id="Path_39451" data-name="Path 39451" d="M58.75,42a.75.75,0,0,0-.75.75v15a.75.75,0,1,0,1.5,0v-15A.75.75,0,0,0,58.75,42Z" transform="translate(-14.5 -10.5)" fill="#0063a8" stroke="#0063a8" stroke-width="0.5"/>
      <path id="Path_39452" data-name="Path 39452" d="M37.75,57a.75.75,0,0,0-.75.75V61.5a.75.75,0,1,0,1.5,0V57.75A.75.75,0,0,0,37.75,57Z" transform="translate(-9.25 -14.25)" fill="#0063a8" stroke="#0063a8" stroke-width="0.5"/>
      <path id="Path_39453" data-name="Path 39453" d="M25.75,29.75A.75.75,0,0,0,26.5,29V21.5H34v12a.75.75,0,1,0,1.5,0V20.75a.75.75,0,0,0-.75-.75h-9a.75.75,0,0,0-.75.75V29A.75.75,0,0,0,25.75,29.75Z" transform="translate(-6.25 -5)" fill="#0063a8" stroke="#0063a8" stroke-width="0.5"/>
      <path id="Path_39454" data-name="Path 39454" d="M25.75,51a.75.75,0,0,0-.75.75V60a.75.75,0,1,0,1.5,0V51.75A.75.75,0,0,0,25.75,51Z" transform="translate(-6.25 -12.75)" fill="#0063a8" stroke="#0063a8" stroke-width="0.5"/>
    </g>
  </g>
</svg>
