<svg xmlns="http://www.w3.org/2000/svg" width="82" height="83" viewBox="0 0 82 83">
  <g id="icn7" transform="translate(-2488 -1846)">
    <ellipse id="Ellipse_275" data-name="Ellipse 275" cx="41" cy="41.5" rx="41" ry="41.5" transform="translate(2488 1846)" fill="#e0f2ff"/>
    <g id="Group_142127" data-name="Group 142127" transform="translate(-324.967 -435.574)">
      <path id="Path_39591" data-name="Path 39591" d="M85.2,139.236l4.722-4c.571-.485,1.374-.871,1.642-1.488.244-.564-.128-1.377-.166-2.084a10.548,10.548,0,0,1,3.3-8.2,16.474,16.474,0,0,1,9.46-4.756,35.217,35.217,0,0,1,4.091-.271.839.839,0,0,1,.985.921c-.181,5.9-2.2,10.925-7.152,14.429a9.6,9.6,0,0,1-8.852,1.379.822.822,0,0,0-.66.151q-3.788,3.184-7.546,6.4c-.529.451-.9.467-1.36.077q-2.507-2.106-5.026-4.2c-.956-.793-1.918-1.578-2.9-2.339a.848.848,0,0,0-.668-.146c-3.879,1.269-7.268.278-10.255-2.3A17.111,17.111,0,0,1,59.1,121.595a19.772,19.772,0,0,1-.134-2.177.845.845,0,0,1,.914-.987,18.8,18.8,0,0,1,10,2.286c.6.327.772.78.521,1.255-.262.494-.778.615-1.388.279a17.458,17.458,0,0,0-7.8-2.08c-.125-.005-.25,0-.533,0,.163,1.013.263,1.984.481,2.927a14.677,14.677,0,0,0,5.765,9.112,8.3,8.3,0,0,0,6.836,1.435c-.495-.417-.886-.754-1.286-1.081q-2.886-2.357-5.776-4.709c-.584-.476-.689-.975-.3-1.423.352-.41.882-.4,1.424.04q3.235,2.64,6.466,5.286c.179.146.366.282.614.473a6.492,6.492,0,0,0-.179-3.4,13.052,13.052,0,0,0-.7-1.715c-.29-.642-.2-1.141.278-1.4s.956-.062,1.29.567a9.369,9.369,0,0,1,.987,6.7.812.812,0,0,0,.365.95c2,1.614,3.981,3.25,5.97,4.878.126.1.264.192.488.354v-.729c0-3.407-.012-6.815.013-10.222a.957.957,0,0,0-.6-.977A12.441,12.441,0,0,1,76.478,118c-1.024-6.164.78-11.634,4.381-16.588a33.848,33.848,0,0,1,2.646-3.054c.635-.684,1.049-.685,1.686-.039,4.756,4.826,7.574,10.513,7.307,17.406-.2,5.12-2.3,9.244-7,11.755a.594.594,0,0,0-.281.422c-.015,3.724-.012,7.448-.012,11.339m0-22.586.132.052c.376-.588.741-1.184,1.13-1.763a.887.887,0,1,1,1.484.948,18.89,18.89,0,0,1-1.311,2.054,6.431,6.431,0,0,0-1.452,4.993,24.581,24.581,0,0,1,.017,2.711c.369-.243.623-.393.86-.568,3.187-2.363,4.5-5.657,4.665-9.5a19.757,19.757,0,0,0-2.774-10.718A23.524,23.524,0,0,0,84.33,100c-4.222,4.689-6.75,9.975-6.3,16.382a11.551,11.551,0,0,0,3.058,7.313,8.064,8.064,0,0,0,2.316,1.827c0-4.106,0-8.112-.011-12.118a1.371,1.371,0,0,0-.253-.695c-.685-1.035-1.394-2.053-2.091-3.079-.465-.685-.445-1.186.054-1.5.476-.3.966-.139,1.395.475.264.378.522.759.784,1.138l.123-.034v-.543c0-1.457-.009-2.914.005-4.37a.9.9,0,1,1,1.79-.021c.009.192,0,.386,0,.578q0,5.652,0,11.305m22.3,3.616a1.609,1.609,0,0,0-.289-.071,16.227,16.227,0,0,0-10.116,3.482,9.666,9.666,0,0,0-3.842,6.167,18.407,18.407,0,0,0-.018,2.551c.246-.2.346-.277.443-.359l6.468-5.485c.049-.042.1-.086.145-.126a.909.909,0,0,1,1.361.021.881.881,0,0,1-.194,1.3c-1.41,1.218-2.835,2.419-4.253,3.627l-2.654,2.263a7.351,7.351,0,0,0,5.362-.617c5.039-2.73,6.94-7.341,7.588-12.751" transform="translate(2770 2205.788)" fill="#0063a8"/>
      <path id="Path_39592" data-name="Path 39592" d="M110.422,58.574a21.6,21.6,0,0,1,21.118,17.665.909.909,0,0,1-.67,1.187c-.565.109-.957-.2-1.088-.893A19.714,19.714,0,0,0,108.59,60.464,19.68,19.68,0,0,0,90.938,76.7c-.186,1.071-.232,2.167-.33,3.253-.063.7-.341,1.048-.874,1.047-.558,0-.861-.391-.861-1.112a21.5,21.5,0,0,1,16.716-20.742,18.628,18.628,0,0,1,2.017-.366c.935-.1,1.878-.141,2.817-.207" transform="translate(2743.941 2240)" fill="#0063a8"/>
      <path id="Path_39613" data-name="Path 39613" d="M410.061,221.063a.914.914,0,0,1-.919-.867.9.9,0,0,1,.9-.891.86.86,0,0,1,.873.842.873.873,0,0,1-.855.916" transform="translate(2464.857 2099.94)" fill="#0063a8"/>
      <path id="Path_39614" data-name="Path 39614" d="M158.1,292.146a.9.9,0,0,1,.9.879.841.841,0,0,1-.814.891.9.9,0,0,1-.951-.834.936.936,0,0,1,.862-.937" transform="translate(2684.364 2036.465)" fill="#0063a8"/>
    </g>
  </g>
</svg>
