<svg xmlns="http://www.w3.org/2000/svg" width="591" height="378" viewBox="0 0 591 378">
  <g id="pop4" transform="translate(-398 -3926)">
    <line id="Line_762" data-name="Line 762" x1="493.947" transform="translate(475.503 4130.635)" fill="none" stroke="#606060" stroke-width="0.5" opacity="0.5"/>
    <line id="Line_773" data-name="Line 773" x1="7.056" transform="translate(476.209 4113.7)" fill="none" stroke="#606060" stroke-width="0.5" opacity="0.5"/>
    <line id="Line_784" data-name="Line 784" x1="2.823" transform="translate(531.248 4130.635) rotate(90)" fill="none" stroke="#606060" stroke-width="0.5" opacity="0.5"/>
    <line id="Line_802" data-name="Line 802" x1="2.823" transform="translate(507.257 4130.635) rotate(90)" fill="none" stroke="#606060" stroke-width="0.5" opacity="0.5"/>
    <line id="Line_785" data-name="Line 785" x1="2.823" transform="translate(555.24 4130.635) rotate(90)" fill="none" stroke="#606060" stroke-width="0.5" opacity="0.5"/>
    <line id="Line_786" data-name="Line 786" x1="2.823" transform="translate(579.231 4130.635) rotate(90)" fill="none" stroke="#606060" stroke-width="0.5" opacity="0.5"/>
    <line id="Line_787" data-name="Line 787" x1="2.823" transform="translate(604.635 4130.635) rotate(90)" fill="none" stroke="#606060" stroke-width="0.5" opacity="0.5"/>
    <line id="Line_788" data-name="Line 788" x1="2.823" transform="translate(627.215 4130.635) rotate(90)" fill="none" stroke="#606060" stroke-width="0.5" opacity="0.5"/>
    <line id="Line_789" data-name="Line 789" x1="2.823" transform="translate(652.618 4130.635) rotate(90)" fill="none" stroke="#606060" stroke-width="0.5" opacity="0.5"/>
    <line id="Line_790" data-name="Line 790" x1="2.823" transform="translate(676.61 4130.635) rotate(90)" fill="none" stroke="#606060" stroke-width="0.5" opacity="0.5"/>
    <line id="Line_791" data-name="Line 791" x1="2.823" transform="translate(700.602 4130.635) rotate(90)" fill="none" stroke="#606060" stroke-width="0.5" opacity="0.5"/>
    <line id="Line_792" data-name="Line 792" x1="2.823" transform="translate(726.005 4130.635) rotate(90)" fill="none" stroke="#606060" stroke-width="0.5" opacity="0.5"/>
    <line id="Line_793" data-name="Line 793" x1="2.823" transform="translate(751.407 4130.635) rotate(90)" fill="none" stroke="#606060" stroke-width="0.5" opacity="0.5"/>
    <line id="Line_794" data-name="Line 794" x1="2.823" transform="translate(775.399 4130.635) rotate(90)" fill="none" stroke="#606060" stroke-width="0.5" opacity="0.5"/>
    <line id="Line_795" data-name="Line 795" x1="2.823" transform="translate(799.391 4130.635) rotate(90)" fill="none" stroke="#606060" stroke-width="0.5" opacity="0.5"/>
    <line id="Line_796" data-name="Line 796" x1="2.823" transform="translate(823.383 4130.635) rotate(90)" fill="none" stroke="#606060" stroke-width="0.5" opacity="0.5"/>
    <line id="Line_797" data-name="Line 797" x1="2.823" transform="translate(847.374 4130.635) rotate(90)" fill="none" stroke="#606060" stroke-width="0.5" opacity="0.5"/>
    <line id="Line_798" data-name="Line 798" x1="2.823" transform="translate(871.366 4130.635) rotate(90)" fill="none" stroke="#606060" stroke-width="0.5" opacity="0.5"/>
    <line id="Line_799" data-name="Line 799" x1="2.823" transform="translate(898.887 4130.635) rotate(90)" fill="none" stroke="#606060" stroke-width="0.5" opacity="0.5"/>
    <line id="Line_800" data-name="Line 800" x1="2.823" transform="translate(922.878 4130.635) rotate(90)" fill="none" stroke="#606060" stroke-width="0.5" opacity="0.5"/>
    <line id="Line_801" data-name="Line 801" x1="2.823" transform="translate(946.869 4130.635) rotate(90)" fill="none" stroke="#606060" stroke-width="0.5" opacity="0.5"/>
    <line id="Line_774" data-name="Line 774" x1="7.056" transform="translate(476.209 4096.764)" fill="none" stroke="#606060" stroke-width="0.5" opacity="0.5"/>
    <line id="Line_775" data-name="Line 775" x1="7.056" transform="translate(476.209 4079.829)" fill="none" stroke="#606060" stroke-width="0.5" opacity="0.5"/>
    <line id="Line_776" data-name="Line 776" x1="7.056" transform="translate(476.209 4062.894)" fill="none" stroke="#606060" stroke-width="0.5" opacity="0.5"/>
    <line id="Line_777" data-name="Line 777" x1="7.056" transform="translate(476.209 4045.958)" fill="none" stroke="#606060" stroke-width="0.5" opacity="0.5"/>
    <line id="Line_778" data-name="Line 778" x1="7.056" transform="translate(476.209 4029.023)" fill="none" stroke="#606060" stroke-width="0.5" opacity="0.5"/>
    <line id="Line_779" data-name="Line 779" x1="7.056" transform="translate(476.209 4012.088)" fill="none" stroke="#606060" stroke-width="0.5" opacity="0.5"/>
    <line id="Line_780" data-name="Line 780" x1="7.056" transform="translate(476.209 3995.153)" fill="none" stroke="#606060" stroke-width="0.5" opacity="0.5"/>
    <line id="Line_781" data-name="Line 781" x1="7.056" transform="translate(476.209 3978.217)" fill="none" stroke="#606060" stroke-width="0.5" opacity="0.5"/>
    <line id="Line_782" data-name="Line 782" x1="7.056" transform="translate(476.209 3961.282)" fill="none" stroke="#606060" stroke-width="0.5" opacity="0.5"/>
    <line id="Line_772" data-name="Line 772" x1="211.692" transform="translate(479.737 3926) rotate(90)" fill="none" stroke="#606060" stroke-width="0.5" opacity="0.5"/>
    <text id="FY2004" transform="translate(499.495 4175) rotate(-90)" fill="#323232" font-size="9" font-family="MPLUS1-Medium, 'M PLUS \31 '" font-weight="500"><tspan x="0" y="10">FY2004</tspan></text>
    <text id="FY2005" transform="translate(532.897 4175) rotate(-90)" fill="#323232" font-size="9" font-family="MPLUS1-Medium, 'M PLUS \31 '" font-weight="500"><tspan x="0" y="0">FY2005</tspan></text>
    <text id="FY2006" transform="translate(556.889 4175) rotate(-90)" fill="#323232" font-size="9" font-family="MPLUS1-Medium, 'M PLUS \31 '" font-weight="500"><tspan x="0" y="0">FY2006</tspan></text>
    <text id="FY2007" transform="translate(580.881 4175) rotate(-90)" fill="#323232" font-size="9" font-family="MPLUS1-Medium, 'M PLUS \31 '" font-weight="500"><tspan x="0" y="0">FY2007</tspan></text>
    <text id="FY2008" transform="translate(604.873 4175) rotate(-90)" fill="#323232" font-size="9" font-family="MPLUS1-Medium, 'M PLUS \31 '" font-weight="500"><tspan x="0" y="0">FY2008</tspan></text>
    <text id="FY2009" transform="translate(628.864 4175) rotate(-90)" fill="#323232" font-size="9" font-family="MPLUS1-Medium, 'M PLUS \31 '" font-weight="500"><tspan x="0" y="0">FY2009</tspan></text>
    <text id="FY2010" transform="translate(654.268 4175) rotate(-90)" fill="#323232" font-size="9" font-family="MPLUS1-Medium, 'M PLUS \31 '" font-weight="500"><tspan x="0" y="0">FY2010</tspan></text>
    <text id="FY2011" transform="translate(678.259 4175) rotate(-90)" fill="#323232" font-size="9" font-family="MPLUS1-Medium, 'M PLUS \31 '" font-weight="500"><tspan x="0" y="0">FY2011</tspan></text>
    <text id="FY2012" transform="translate(702.251 4175) rotate(-90)" fill="#323232" font-size="9" font-family="MPLUS1-Medium, 'M PLUS \31 '" font-weight="500"><tspan x="0" y="0">FY2012</tspan></text>
    <text id="FY2013" transform="translate(727.654 4175) rotate(-90)" fill="#323232" font-size="9" font-family="MPLUS1-Medium, 'M PLUS \31 '" font-weight="500"><tspan x="0" y="0">FY2013</tspan></text>
    <text id="FY2014" transform="translate(753.057 4175) rotate(-90)" fill="#323232" font-size="9" font-family="MPLUS1-Medium, 'M PLUS \31 '" font-weight="500"><tspan x="0" y="0">FY2014</tspan></text>
    <text id="FY2015" transform="translate(777.049 4175) rotate(-90)" fill="#323232" font-size="9" font-family="MPLUS1-Medium, 'M PLUS \31 '" font-weight="500"><tspan x="0" y="0">FY2015</tspan></text>
    <text id="FY2016" transform="translate(801.04 4175) rotate(-90)" fill="#323232" font-size="9" font-family="MPLUS1-Medium, 'M PLUS \31 '" font-weight="500"><tspan x="0" y="0">FY2016</tspan></text>
    <text id="FY2017" transform="translate(825.031 4175) rotate(-90)" fill="#323232" font-size="9" font-family="MPLUS1-Medium, 'M PLUS \31 '" font-weight="500"><tspan x="0" y="0">FY2017</tspan></text>
    <text id="FY2018" transform="translate(849.023 4175) rotate(-90)" fill="#323232" font-size="9" font-family="MPLUS1-Medium, 'M PLUS \31 '" font-weight="500"><tspan x="0" y="0">FY2018</tspan></text>
    <text id="FY2019" transform="translate(873.016 4175) rotate(-90)" fill="#323232" font-size="9" font-family="MPLUS1-Medium, 'M PLUS \31 '" font-weight="500"><tspan x="0" y="0">FY2019</tspan></text>
    <text id="FY2020" transform="translate(900.535 4175) rotate(-90)" fill="#323232" font-size="9" font-family="MPLUS1-Medium, 'M PLUS \31 '" font-weight="500"><tspan x="0" y="0">FY2020</tspan></text>
    <text id="FY2021" transform="translate(924.527 4175) rotate(-90)" fill="#323232" font-size="9" font-family="MPLUS1-Medium, 'M PLUS \31 '" font-weight="500"><tspan x="0" y="0">FY2021</tspan></text>
    <text id="FY2022" transform="translate(948.519 4175) rotate(-90)" fill="#323232" font-size="9" font-family="MPLUS1-Medium, 'M PLUS \31 '" font-weight="500"><tspan x="0" y="0">FY2022</tspan></text>
    <text id="_400" data-name="400" transform="translate(450.745 4098.413)" fill="#323232" font-size="10" font-family="MPLUS1-Medium, 'M PLUS \31 '" font-weight="500"><tspan x="0" y="0">400</tspan></text>
    <text id="_200" data-name="200" transform="translate(450.745 4115.35)" fill="#323232" font-size="10" font-family="MPLUS1-Medium, 'M PLUS \31 '" font-weight="500"><tspan x="0" y="0">200</tspan></text>
    <text id="_600" data-name="600" transform="translate(450.745 4081.479)" fill="#323232" font-size="10" font-family="MPLUS1-Medium, 'M PLUS \31 '" font-weight="500"><tspan x="0" y="0">600</tspan></text>
    <text id="_800" data-name="800" transform="translate(450.745 4064.544)" fill="#323232" font-size="10" font-family="MPLUS1-Medium, 'M PLUS \31 '" font-weight="500"><tspan x="0" y="0">800</tspan></text>
    <text id="_1_000" data-name="1,000" transform="translate(443.689 4047.607)" fill="#323232" font-size="10" font-family="MPLUS1-Medium, 'M PLUS \31 '" font-weight="500"><tspan x="0" y="0">1,000</tspan></text>
    <text id="_1_600" data-name="1,600" transform="translate(443.689 3996.802)" fill="#323232" font-size="10" font-family="MPLUS1-Medium, 'M PLUS \31 '" font-weight="500"><tspan x="0" y="0">1,600</tspan></text>
    <text id="_1_800" data-name="1,800" transform="translate(443.689 3979.455)" fill="#323232" font-size="10" font-family="MPLUS1-Medium, 'M PLUS \31 '" font-weight="500"><tspan x="0" y="0">1,800</tspan></text>
    <text id="_2_000" data-name="2,000" transform="translate(443.689 3962.52)" fill="#323232" font-size="10" font-family="MPLUS1-Medium, 'M PLUS \31 '" font-weight="500"><tspan x="0" y="0">2,000</tspan></text>
    <text id="_1_400" data-name="1,400" transform="translate(443.689 4013.737)" fill="#323232" font-size="10" font-family="MPLUS1-Medium, 'M PLUS \31 '" font-weight="500"><tspan x="0" y="0">1,400</tspan></text>
    <text id="_1_200" data-name="1,200" transform="translate(443.689 4030.673)" fill="#323232" font-size="10" font-family="MPLUS1-Medium, 'M PLUS \31 '" font-weight="500"><tspan x="0" y="0">1,200</tspan></text>
    <text id="_0" data-name="0" transform="translate(462.036 4132.284)" fill="#323232" font-size="10" font-family="MPLUS1-Medium, 'M PLUS \31 '" font-weight="500"><tspan x="0" y="0">0</tspan></text>
    <g id="Group_142164" data-name="Group 142164" transform="translate(480.728 3980.999)">
      <g id="Group_142163" data-name="Group 142163" transform="translate(0 0)">
        <g id="Group_142162" data-name="Group 142162">
          <path id="Path_39668" data-name="Path 39668" d="M506.525,52.986,458,94.462l269.271-6.08V0L678.1,26.276,653.617,24.1,603.142,47.991l-50.475,6.732Z" transform="translate(-258.588)" fill="#74bf44"/>
          <path id="Path_39669" data-name="Path 39669" d="M273.562,155.762,231,169.639H598.859V78L573.887,90.92l-13.681.957-35.83.957L473.344,120.59l-38,11.006-47.122-3.35-10.858-1.2-24.973-2.871-23.453,14.356-25.19,10.288Z" transform="translate(-130.176 -45.432)" fill="#698ed0"/>
          <path id="Path_39670" data-name="Path 39670" d="M334.573,170.924,302,176.787H639.023V101l-24.538,11.292-49.077,1.954-53.854,26.927-43,4.995L441.847,144l-16.5.651-32.356,1.3-16.5,10.423Z" transform="translate(-170.34 -58.462)" fill="rgba(37,94,145,0.84)"/>
          <path id="Path_39671" data-name="Path 39671" d="M25.431,206.176,2,219.639l467.316-1.086V128L443.5,137.12l-20.393,3.04H394.25l-22.78,4.777L346.087,160.79l-40.353,4.343-32.326-1.3-50.767,1.52L174.477,186.2l-40.136,6.3-34.929,5.212-23,5.429-24.95,4.126Z" transform="translate(-0.632 -74.625)" fill="#2c4d84"/>
          <path id="Path_39672" data-name="Path 39672" d="M23.383,278.013,0,288.653l322.164-1.737v-32.79l-30.311.869L271.5,251.52H259.16L219.972,250,195.29,261.943l-24.249,6.515H144.628l-24.465,3.909L86.82,276.058,49.364,279.1Z" transform="translate(0.499 -143.639)" fill="#e0f2fe"/>
          <path id="Path_39673" data-name="Path 39673" d="M24.346,281.75,2,289.133l467.316.651V252l-46.211,2.606-28.638,1.954-25.817-.869-23.865,3.474-21.478-3.474H294.886l-20.827-2.606-16.922.869H241.3l-18.875-1.737-24.95,11.943-22.346,5.429-25.383,1.52-46.428,5.863L55.37,281.75Z" transform="translate(-0.632 -144.77)" fill="#a5a5a5"/>
          <path id="Path_39674" data-name="Path 39674" d="M24.8,284.571,2.219,291.4,470.9,293.282v-35.3l-49.712,2.751-18.751,2.063L388.7,261.419l-8.721-.688-10.466.688-25.728,2.522-20.931-4.356L289.5,258.209l-7.849-.917-8.067-1.146-30.089,1.146L228.666,255h-5.887l-24.638,12.608L171.759,273.8H149.738l-35.976,5.043-19.623,2.292-37.72,3.439Z" transform="translate(-2.219 -146.468)" fill="#0063a8"/>
        </g>
        <rect id="Rectangle_1986" data-name="Rectangle 1986" width="317.116" height="1.411" transform="translate(0 143.971)" fill="#0063a8"/>
      </g>
      <rect id="Rectangle_1987" data-name="Rectangle 1987" width="468" height="4" transform="translate(0.474 144.818)" fill="#0063a8"/>
    </g>
    <g id="Group_142165" data-name="Group 142165" transform="translate(455 4192.202)">
      <text id="Zinc-_Lead" data-name="Zinc- Lead" transform="translate(9.869 13.798)" fill="#323232" font-size="11" font-family="MPLUS1-Medium, 'M PLUS \31 '" font-weight="500"><tspan x="0" y="0">Zinc- Lead</tspan></text>
      <rect id="Rectangle_1988" data-name="Rectangle 1988" width="4.234" height="18.347" transform="translate(0 -0.202)" fill="#0063a8"/>
    </g>
    <g id="Group_142170" data-name="Group 142170" transform="translate(765 4192.202)">
      <text id="Power" transform="translate(9.869 13.798)" fill="#323232" font-size="11" font-family="MPLUS1-Medium, 'M PLUS \31 '" font-weight="500"><tspan x="0" y="0">Power</tspan></text>
      <rect id="Rectangle_1993" data-name="Rectangle 1993" width="4.234" height="18.347" transform="translate(0 -0.202)" fill="#30659a"/>
    </g>
    <g id="Group_142171" data-name="Group 142171" transform="translate(820 4192.202)">
      <text id="Iron_Ore" data-name="Iron Ore" transform="translate(9.869 13.798)" fill="#323232" font-size="11" font-family="MPLUS1-Medium, 'M PLUS \31 '" font-weight="500"><tspan x="0" y="0">Iron Ore</tspan></text>
      <rect id="Rectangle_1994" data-name="Rectangle 1994" width="4.234" height="18.347" transform="translate(0 -0.202)" fill="#698ed0"/>
    </g>
    <g id="Group_142172" data-name="Group 142172" transform="translate(884 4192.202)">
      <text id="Oil_Gas" data-name="Oil &amp; Gas" transform="translate(9.869 13.798)" fill="#323232" font-size="11" font-family="MPLUS1-Medium, 'M PLUS \31 '" font-weight="500"><tspan x="0" y="0">Oil &amp; Gas</tspan></text>
      <rect id="Rectangle_1995" data-name="Rectangle 1995" width="4.234" height="18.347" transform="translate(0 -0.202)" fill="#74bf44"/>
    </g>
    <g id="Group_142166" data-name="Group 142166" transform="translate(530 4192.202)">
      <text id="Silver" transform="translate(9.869 13.798)" fill="#323232" font-size="11" font-family="MPLUS1-Medium, 'M PLUS \31 '" font-weight="500"><tspan x="0" y="0">Silver</tspan></text>
      <rect id="Rectangle_1989" data-name="Rectangle 1989" width="4.234" height="18.347" transform="translate(0 -0.202)" fill="#a5a5a5"/>
    </g>
    <g id="Group_142167" data-name="Group 142167" transform="translate(582 4192.202)">
      <text id="Copper" transform="translate(9.869 13.798)" fill="#323232" font-size="11" font-family="MPLUS1-Medium, 'M PLUS \31 '" font-weight="500"><tspan x="0" y="0">Copper</tspan></text>
      <rect id="Rectangle_1990" data-name="Rectangle 1990" width="4.234" height="18.347" transform="translate(0 -0.202)" fill="#e0f2fe"/>
    </g>
    <g id="Group_142168" data-name="Group 142168" transform="translate(641 4192.202)">
      <text id="Aluminium" transform="translate(9.869 13.798)" fill="#323232" font-size="11" font-family="MPLUS1-Medium, 'M PLUS \31 '" font-weight="500"><tspan x="0" y="0">Aluminium</tspan></text>
      <rect id="Rectangle_1991" data-name="Rectangle 1991" width="4.234" height="18.347" transform="translate(0 -0.202)" fill="#2c4d84"/>
    </g>
    <g id="Group_142169" data-name="Group 142169" transform="translate(716 4192.202)">
      <text id="Steel" transform="translate(9.869 13.798)" fill="#323232" font-size="11" font-family="MPLUS1-Medium, 'M PLUS \31 '" font-weight="500"><tspan x="0" y="0">Steel</tspan></text>
      <rect id="Rectangle_1992" data-name="Rectangle 1992" width="4.234" height="18.347" transform="translate(0 -0.202)" fill="#636363"/>
    </g>
    <path id="Path_39675" data-name="Path 39675" d="M2349.136,9545.48l21.7-10.477H2397.4l23.571-2.058,24.507-11.037v7.669s-19.643,7.11-23.2,7.11-21.139,3.553-22.823,3.553h-26.751Z" transform="translate(-1495.411 -5493.72)" fill="#636363"/>
    <text id="Total_Production_Copper_Equivalent_kt_" data-name="Total Production Copper Equivalent
(kt)" transform="translate(412 4043.985) rotate(-90)" fill="#2a2a2a" font-size="12" font-family="MPLUS1-SemiBold, 'M PLUS \31 '" font-weight="600"><tspan x="-103.962" y="0">Total Production Copper Equivalent</tspan><tspan x="-11.262" y="12">(kt)</tspan></text>
    <text id="_10x_or_14_CAGR_Production_Growth_against_India_s_GDP_of_5.7_" data-name="10x or ~ 14% CAGR Production
Growth against India&apos;s GDP of 5.7%" transform="matrix(0.974, -0.225, 0.225, 0.974, 572.881, 3988.35)" fill="#2a2a2a" font-size="12" font-family="MPLUS1-SemiBold, 'M PLUS \31 '" font-weight="600" letter-spacing="0.002em"><tspan x="-93.006" y="14">10x or ~ 14% CAGR Production</tspan><tspan x="-105.3" y="28">Growth against India&apos;s GDP of 5.7%</tspan></text>
    <g id="Group_142173" data-name="Group 142173" transform="translate(537.6 3941.65)">
      <rect id="Rectangle_1996" data-name="Rectangle 1996" width="5.645" height="327.385" transform="translate(314.703 19.932) rotate(74)" fill="#0063a8"/>
      <path id="Polygon_3" data-name="Polygon 3" d="M14.535,0,29.069,29.069H0Z" transform="translate(333.83 0) rotate(72)" fill="#0063a8"/>
    </g>
    <text id="_All_commodity_and_power_capacities_rebased_to_Copper_equivalent_capacity_defined_as_production_x_commodity_price_copper_price_using_average_commodity_prices_for_FY_2022._Power_rebased_using_FY_2022_realisations_Copper_custom_smelting_production_reba" data-name="*All commodity and power capacities rebased to Copper equivalent capacity (defined as production 
x commodity price / copper price) using average commodity prices for FY 2022. Power rebased using
FY 2022 realisations, Copper custom smelting production reba" transform="translate(400 4259)" fill="#606060" font-size="12" font-family="MPLUS1-Medium, 'M PLUS \31 '" font-weight="500"><tspan x="0" y="0">*All commodity and power capacities rebased to Copper equivalent capacity (defined as production </tspan><tspan x="0" y="14">x commodity price / copper price) using average commodity prices for FY 2022. Power rebased using</tspan><tspan x="0" y="28">FY 2022 realisations, Copper custom smelting production rebaseda at TC/RC for FY 2022, Iron ore </tspan><tspan x="0" y="42" xml:space="preserve">volumes refers to sales with prices rebased at realized prices for FY 2022  </tspan></text>
  </g>
</svg>
