<svg xmlns="http://www.w3.org/2000/svg" width="465" height="292.269" viewBox="0 0 465 292.269">
  <g id="pop5" transform="translate(-1973 -8431.999)">
    <g id="Group_142108" data-name="Group 142108" transform="translate(0 -0.244)">
      <path id="Rectangle_1953" data-name="Rectangle 1953" d="M13.384,0h76.08A53.536,53.536,0,0,1,143,53.536v0a53.536,53.536,0,0,1-53.536,53.536H0a0,0,0,0,1,0,0V13.384A13.384,13.384,0,0,1,13.384,0Z" transform="translate(2012.226 8570.371) rotate(-75)" fill="#74bf44"/>
      <path id="Rectangle_1956" data-name="Rectangle 1956" d="M13.375,0H90.5A53.5,53.5,0,0,1,144,53.5v0A53.5,53.5,0,0,1,90.5,107H0a0,0,0,0,1,0,0V13.375A13.375,13.375,0,0,1,13.375,0Z" transform="translate(2047.714 8535.126) rotate(-9)" fill="#0063a8"/>
      <path id="Rectangle_1957" data-name="Rectangle 1957" d="M13.259,0H91.785a53.036,53.036,0,0,1,53.036,53.036v0a53.036,53.036,0,0,1-53.036,53.036H0a0,0,0,0,1,0,0V13.259A13.259,13.259,0,0,1,13.259,0Z" transform="translate(2069.8 8547.104) rotate(45)" fill="#757575"/>
      <circle id="Ellipse_261" data-name="Ellipse 261" cx="60" cy="60" r="60" transform="translate(1973 8526)" fill="#e0f2fe"/>
      <text id="Capital_Allocation" data-name="Capital
Allocation" transform="translate(2033 8583)" font-size="16" font-family="MPLUS1-Medium, 'M PLUS \31 '" font-weight="500"><tspan x="-27.712" y="0">Capital</tspan><tspan x="-39.2" y="24">Allocation</tspan></text>
      <g id="Group_142105" data-name="Group 142105" transform="translate(-3.666 -1.717)">
        <path id="Path_39418" data-name="Path 39418" d="M0,48.543a4.227,4.227,0,0,1,.964-.782q14.521-5.817,29.06-11.591c.786-.313,1.077-.186,1.39.6q3.583,9,7.167,17.99a.959.959,0,0,0,.074.127v.453a4.538,4.538,0,0,1-.829.589c-1.352.567-2.718,1.1-4.086,1.632a.484.484,0,0,0-.37.54c.014,3.359.009,6.717.008,10.076,0,.855-.2,1.055-1.073,1.055q-15.642,0-31.284.009A1.016,1.016,0,0,1,0,68.7V48.543m31.848,1H1.531V67.7H31.848Zm1.531,6.528,3.53-1.407L30.173,37.752,4.639,47.919c1.437.079,2.846.082,4.255.074a.716.716,0,0,0,.331-.116,4.993,4.993,0,0,1,.591-.378q3.192-1.288,6.393-2.553,4.51-1.791,9.024-3.574a.755.755,0,0,1,1,.255,4.469,4.469,0,0,0,3.793,1.642.771.771,0,0,1,.912.558c.524,1.276,1.028,2.559,1.549,3.836a.625.625,0,0,0,.253.333c.532.228.635.35.635.92q0,3.341,0,6.681v.474M12.852,47.923l.027.06h18.1c-.383-.964-.763-1.887-1.112-2.822a.52.52,0,0,0-.545-.387,5.72,5.72,0,0,1-3.712-1.619.444.444,0,0,0-.556-.106q-5.914,2.37-11.833,4.726l-.367.147" transform="translate(2133 8516.091)" fill="#fff"/>
        <path id="Path_39423" data-name="Path 39423" d="M53.8,250.155q-4.453,0-8.905,0c-.9,0-.958-.048-1.291-.887a4.442,4.442,0,0,0-2.754-2.657c-.574-.2-.719-.354-.723-.95q-.02-3.075,0-6.15c0-.643.138-.768.759-1a4.488,4.488,0,0,0,2.773-2.788c.219-.606.378-.736,1.014-.737q9.132,0,18.263,0c.586,0,.756.141.958.7a4.509,4.509,0,0,0,2.827,2.833c.574.21.714.38.715.992q.006,3.056,0,6.113a.836.836,0,0,1-.694.972,4.445,4.445,0,0,0-2.86,2.887c-.178.522-.363.662-.908.662q-4.585,0-9.169,0v.005m-.011-13.662q-4.226,0-8.452,0c-.2,0-.363-.007-.474.243a5.807,5.807,0,0,1-2.959,2.979.417.417,0,0,0-.279.454q.013,2.4,0,4.792a.422.422,0,0,0,.286.452,5.875,5.875,0,0,1,2.945,2.947.422.422,0,0,0,.451.288q8.47-.01,16.941,0a.414.414,0,0,0,.451-.278,5.845,5.845,0,0,1,2.976-2.965.364.364,0,0,0,.255-.391q-.013-2.452,0-4.9a.361.361,0,0,0-.26-.385,5.888,5.888,0,0,1-2.958-2.933.436.436,0,0,0-.471-.3c-2.817.01-5.634.006-8.452.006" transform="translate(2095.911 8332.141)" fill="#fff"/>
        <path id="Path_39425" data-name="Path 39425" d="M170.014,279.592a4.544,4.544,0,1,1-4.5-4.562,4.562,4.562,0,0,1,4.5,4.562m-1.52-.007a3.026,3.026,0,1,0-3.042,3.035,3.03,3.03,0,0,0,3.042-3.035" transform="translate(1984.223 8295.118)" fill="#fff"/>
        <path id="Path_39426" data-name="Path 39426" d="M96.625,322.482a1.135,1.135,0,0,1-1.124-1.127,1.16,1.16,0,0,1,1.151-1.148,1.177,1.177,0,0,1,1.128,1.138,1.141,1.141,0,0,1-1.155,1.136m.44-1.033,0-.177c-.147-.1-.3-.28-.439-.275a.48.48,0,0,0-.329.346.47.47,0,0,0,.314.348c.142.013.3-.154.45-.242" transform="translate(2044.709 8253.35)" fill="#fff"/>
        <path id="Path_39427" data-name="Path 39427" d="M317.873,322.479a1.114,1.114,0,0,1-1.126-1.115,1.14,1.14,0,0,1,1.132-1.158,1.181,1.181,0,0,1,1.141,1.128,1.143,1.143,0,0,1-1.146,1.146m.433-1.044q0-.084,0-.168c-.149-.1-.3-.276-.447-.27a.481.481,0,0,0-.323.352.468.468,0,0,0,.322.341c.145.008.3-.162.449-.256" transform="translate(1840.167 8253.352)" fill="#fff"/>
      </g>
      <g id="Group_142106" data-name="Group 142106" transform="translate(123 -295.173)">
        <path id="Path_39430" data-name="Path 39430" d="M47.91,71.017a5.934,5.934,0,0,1-.595.582A18.4,18.4,0,0,0,43.3,75.615a.671.671,0,0,0-.088.749,3.342,3.342,0,0,1-3.735,4.685c-.119-.021-.241-.02-.4-.032a3.322,3.322,0,0,1-1.254,2.94,3.557,3.557,0,0,1-3.19.572,3.3,3.3,0,0,1-1.213,2.954,3.525,3.525,0,0,1-3.179.6c-.018.252-.02.479-.051.7a3.377,3.377,0,0,1-4.651,2.756,6.548,6.548,0,0,1-2.178-1.5.869.869,0,0,0-1.117-.173,3.062,3.062,0,0,1-3.3-.442,3.142,3.142,0,0,1-1.285-3.2A1.8,1.8,0,0,0,17.671,86a3.484,3.484,0,0,1-4.653-3.846,3.457,3.457,0,0,1-3.6-1.177,3.192,3.192,0,0,1-.655-2.895,3.63,3.63,0,0,1-3.886-1.147,3.324,3.324,0,0,1-.342-4.079c-.426-.407-.877-.833-1.323-1.264Q1.832,70.26.457,68.922C.292,68.76.152,68.572,0,68.4v-.468c.491-.609.848-.64,1.421-.087,1.391,1.342,2.772,2.694,4.2,4.083.475-.311.973-.623,1.456-.955a3.406,3.406,0,0,1,4.024-.082,3.545,3.545,0,0,1,1.559,3.856,3.347,3.347,0,0,1,3.411.562,3.279,3.279,0,0,1,1.179,3.287,3.435,3.435,0,0,1,3.316.8,3.266,3.266,0,0,1,.978,3.265,3.5,3.5,0,0,1,3.681.7c.486-.352.892-.171,1.311.194,1,.87,2.021,1.713,3.039,2.561a2.539,2.539,0,0,0,1.615.642A1.862,1.862,0,0,0,33.07,84.2a3.206,3.206,0,0,0-1.121-1.46c-.994-.828-2-1.647-2.963-2.506a1.041,1.041,0,0,1-.312-.757.765.765,0,0,1,.492-.526,1.01,1.01,0,0,1,.748.211c1.3,1.048,2.576,2.118,3.847,3.2a2.882,2.882,0,0,0,2.105.839,1.841,1.841,0,0,0,1.71-2.288,2.656,2.656,0,0,0-.913-1.482c-1.076-.9-2.161-1.789-3.211-2.72a1.078,1.078,0,0,1-.342-.787c.065-.6.73-.756,1.258-.321.795.653,1.581,1.316,2.371,1.976.586.49,1.168.984,1.757,1.471a2.513,2.513,0,0,0,1.58.608,1.816,1.816,0,0,0,1.862-2.475,3.4,3.4,0,0,0-.963-1.386c-4.182-3.551-8.4-7.065-12.59-10.6a.443.443,0,0,0-.643-.024c-.8.542-1.61,1.066-2.422,1.588a3.775,3.775,0,0,1-4.41-.229,3.844,3.844,0,0,1-1.454-4.178A3.18,3.18,0,0,1,20.783,60.6c.178-.117.353-.237.534-.359-1.285-.283-2.547-.514-3.783-.843a17.2,17.2,0,0,1-5.122-2.314c-.56-.373-.61-1.082-.062-1.3a1.085,1.085,0,0,1,.854.1,18.132,18.132,0,0,0,4.219,1.958,21.518,21.518,0,0,0,5.684.981,1.176,1.176,0,0,0,.647-.175c1.909-1.233,3.8-2.5,5.713-3.724a6.2,6.2,0,0,1,5.822-.419,10.225,10.225,0,0,1,2.539,1.354,4.2,4.2,0,0,0,3.709.679,12.891,12.891,0,0,0,3.442-1.4,4.985,4.985,0,0,1,.453-.239.689.689,0,0,1,.918.3.659.659,0,0,1-.2.916c-2.1,1.235-4.275,2.265-6.817,1.973a3.956,3.956,0,0,1-1.962-.8,8.417,8.417,0,0,0-3.864-1.765,4.712,4.712,0,0,0-3.428.726c-2.721,1.813-5.453,3.61-8.214,5.361a2,2,0,0,0-1.051,2.316,2.634,2.634,0,0,0,2.212,1.946,2.431,2.431,0,0,0,1.633-.42c2.575-1.7,5.16-3.374,7.742-5.058q.2-.128.394-.251c.476-.3.9-.244,1.144.139s.108.773-.377,1.09c-.821.537-1.644,1.07-2.466,1.607-.571.373-1.14.749-1.74,1.143L42.066,74.79c.352-.432.685-.855,1.032-1.266a19.4,19.4,0,0,1,3.44-3.151c.606-.442.907-.4,1.371.175Zm-38.816.671a4.9,4.9,0,0,0-.948.333,20.427,20.427,0,0,0-1.981,1.315,2.029,2.029,0,0,0-.633.881A1.929,1.929,0,0,0,6.3,76.312a2.053,2.053,0,0,0,2.318.187,23.563,23.563,0,0,0,1.98-1.317,1.952,1.952,0,0,0,.628-.885,2.172,2.172,0,0,0-2.131-2.609M20.207,81.846A1.938,1.938,0,0,0,17.4,80.151c-.813.486-1.6,1.013-2.37,1.568a1.624,1.624,0,0,0-.516.744,1.708,1.708,0,0,0,.661,1.851,1.762,1.762,0,0,0,2.082.192c.792-.491,1.567-1.009,2.339-1.531a1.408,1.408,0,0,0,.614-1.129M13.9,75.921a3.77,3.77,0,0,0-.825.279c-.807.5-1.6,1.027-2.38,1.565a1.368,1.368,0,0,0-.59,1.3,1.931,1.931,0,0,0,2.83,1.491c.784-.477,1.557-.978,2.292-1.526a1.671,1.671,0,0,0,.576-.858,1.951,1.951,0,0,0-1.9-2.25m10.9,9.827a1.851,1.851,0,0,0-.964-1.6,1.671,1.671,0,0,0-1.857-.037c-.777.489-1.538,1-2.3,1.513a1.345,1.345,0,0,0-.628,1.186,1.83,1.83,0,0,0,1,1.629,1.658,1.658,0,0,0,1.815.015c.765-.479,1.517-.981,2.266-1.485a1.4,1.4,0,0,0,.668-1.217m-.769,3c.518.421.937.791,1.387,1.119a2.276,2.276,0,0,0,1.907.387,1.889,1.889,0,0,0,1.016-3.049,16.57,16.57,0,0,0-2-1.961c.079,1.774-.9,2.745-2.311,3.5" transform="translate(1951 8881)" fill="#fff"/>
      </g>
      <g id="Group_142107" data-name="Group 142107" transform="translate(-734.783 -233.081)">
        <path id="Path_39432" data-name="Path 39432" d="M39.246,19.606c-.3-.6-.555-1.176-.861-1.722a2.556,2.556,0,0,1-.323-1.371c.025-.888.007-1.777.007-2.7-.16-.008-.292-.02-.425-.02q-4.215,0-8.431-.005a.715.715,0,0,0-.6.257,3.137,3.137,0,0,1-2.363,1.06c-1.138.013-2.276,0-3.413.011a1.476,1.476,0,0,0-.614.158,4.592,4.592,0,0,1-1.928.5.632.632,0,0,0-.445.242q-2.072,3.183-4.108,6.39a1.236,1.236,0,0,0-.112.611,6.571,6.571,0,0,1,.018,1.1.9.9,0,0,0,.276.872q3.821,4.14,7.629,8.291a6,6,0,0,1,1.434,3.293c.341,2.189.718,4.372,1.074,6.558.036.221.138.281.355.283a17.124,17.124,0,0,1,2.417.083,3.2,3.2,0,0,1,2.647,3.159c0,.439.009.878,0,1.316a.656.656,0,0,1-.693.7c-.082,0-.164,0-.247,0H8.747c-.761,0-.96-.187-.948-.936a10.978,10.978,0,0,1,.079-1.678,3.233,3.233,0,0,1,3.163-2.649c.685-.007,1.369,0,2.112,0l.32-1.888c.324-1.914.646-3.829.975-5.742a5.222,5.222,0,0,1,1.071-2.277q-.849-1.22-1.7-2.444c-.738-1.054-1.471-2.113-2.229-3.154a.987.987,0,0,0-.544-.355A3.957,3.957,0,0,1,8.912,20.92a1.558,1.558,0,0,0,.351-.66c.3-1.263.54-2.54.851-3.8a5.893,5.893,0,0,1,4.037-4.383c.646-.222,1.3-.42,1.938-.662a.608.608,0,0,0,.332-.377,3.968,3.968,0,0,1,5.734-2.708,1.786,1.786,0,0,0,.77.192c1.11.021,2.221,0,3.331.012A3.13,3.13,0,0,1,28.619,9.6a.713.713,0,0,0,.6.256q5.984-.009,11.968,0a3.292,3.292,0,0,1,3.465,3.45c0,1.179.011,2.358-.008,3.537a2.007,2.007,0,0,1-.182.783c-.3.657-.642,1.3-.992,1.993.5.486.991.98,1.5,1.457a.9.9,0,0,1,.338.836,2.5,2.5,0,0,0,1.042,2.55c.689.557,1.266,1.252,1.9,1.873a1.07,1.07,0,0,1,.353.834c-.014,1.412.01,2.825-.02,4.236a1.223,1.223,0,0,1-.31.754c-.987,1.029-2.008,2.025-3.013,3.035-.246.247-.5.431-.871.269a.727.727,0,0,1-.4-.782c.007-1.179.013-2.358,0-3.537a.968.968,0,0,1,.37-.864.92.92,0,0,0,.306-.752,1.972,1.972,0,0,0-.652-1.649,2.435,2.435,0,0,0-2.28-.926c-.58.074-1.178,0-1.766.023a.9.9,0,0,0-.5.2c-.253.207-.447.49-.708.684a1.7,1.7,0,0,0-.707,1.7.911.911,0,0,0,.305.711.989.989,0,0,1,.373.864c-.017,1.193-.011,2.386,0,3.578a.685.685,0,0,1-1.238.512c-1.026-1.029-2.064-2.046-3.071-3.094a1.164,1.164,0,0,1-.286-.724q-.04-2.138,0-4.278a1.228,1.228,0,0,1,.314-.752c.888-.933,1.818-1.827,2.714-2.752a.783.783,0,0,0,.233-.557,2.742,2.742,0,0,1,1.194-2.838,7.31,7.31,0,0,0,.656-.62M24.755,43.395c-.011-.145-.011-.268-.031-.388q-.566-3.4-1.138-6.792a4,4,0,0,0-7.895.022c-.295,1.766-.6,3.53-.889,5.3-.1.614-.193,1.23-.291,1.862Zm5.374,3.952A2.122,2.122,0,0,0,27.9,44.713q-8.261.064-16.523,0a2.119,2.119,0,0,0-2.22,2.634ZM20.2,31.58l-5.1-5.554-2.122,1.539,3.523,5.029a5.579,5.579,0,0,1,3.7-1.014M39.388,16.4h3.946c0-.15,0-.271,0-.392,0-1.013.029-2.027-.014-3.038a1.967,1.967,0,0,0-3.922,0c-.044,1.133-.01,2.268-.01,3.433m1.981,9.243c.41,0,.822-.013,1.231.005a.43.43,0,0,0,.474-.284c.259-.557.547-1.1.813-1.652a1.029,1.029,0,0,0,.1-.388c.058-1.289.056-1.289-.848-2.2a6.5,6.5,0,0,0-.554-.547.844.844,0,0,0-.459-.191,4.779,4.779,0,0,0-1.786.052c-.491.193-.836.761-1.245,1.165a1.144,1.144,0,0,0-.2.206,1.007,1.007,0,0,0-.167.388,3.418,3.418,0,0,0,.483,2.309c.182.269.274.6.455.868a.65.65,0,0,0,.429.258c.421.035.847.012,1.271.012m-32.258-2a2.633,2.633,0,1,0,2.67-2.606,2.644,2.644,0,0,0-2.67,2.606M20.322,9.188a2.634,2.634,0,1,0,2.61,2.666,2.641,2.641,0,0,0-2.61-2.666m-9.63,10.606A1.052,1.052,0,0,0,11.7,19.4q2.291-2.845,4.627-5.653a.77.77,0,0,0,.079-1.038c-.724.247-1.452.471-2.163.741a4.185,4.185,0,0,0-2.613,2.61c-.4,1.2-.626,2.454-.94,3.731M23.729,9.859a4,4,0,0,1,.011,3.921c.106.009.16.017.215.017.766,0,1.533.011,2.3,0a1.988,1.988,0,0,0,1.94-1.859,1.94,1.94,0,0,0-1.714-2.061c-.892-.075-1.8-.016-2.752-.016m-6.356,4.679-4.32,5.284,1.9,1.365,3.684-5.73-1.263-.919M29.488,12.46h8.6l.564-1.267H29.488Zm8.4,12.328c-.8.8-1.566,1.558-2.319,2.333a.63.63,0,0,0-.127.4c-.011.985.03,1.973-.019,2.956a1.541,1.541,0,0,0,.574,1.385c.481.407.9.883,1.416,1.395,0-.642-.015-1.174.006-1.7a.7.7,0,0,0-.275-.638,1.024,1.024,0,0,1-.4-.936c.025-.505-.031-1.016.021-1.517a1.465,1.465,0,0,1,.329-.786c.466-.517.989-.982,1.5-1.477l-.71-1.411m7.421,8.366.1.039c.576-.585,1.156-1.166,1.723-1.759a.569.569,0,0,0,.149-.352c.011-1.218.009-2.436,0-3.654a.453.453,0,0,0-.105-.29c-.764-.779-1.536-1.549-2.338-2.353-.207.408-.384.776-.58,1.133a.319.319,0,0,0,.077.454c.428.4.828.837,1.256,1.24a1.086,1.086,0,0,1,.382.9,11.929,11.929,0,0,0,0,1.4,1.18,1.18,0,0,1-.427,1.051.6.6,0,0,0-.227.359c-.023.61-.01,1.222-.01,1.833M42.913,17.762H39.857c.345,1.193.484,1.3,1.656,1.3a3.8,3.8,0,0,0,.533-.007.434.434,0,0,0,.292-.153c.2-.355.369-.726.575-1.141" transform="translate(2794 8697)" fill="#fff"/>
      </g>
    </g>
    <g id="Group_142109" data-name="Group 142109" transform="translate(0 -14)">
      <g id="Group_142102" data-name="Group 142102">
        <rect id="Rectangle_1958" data-name="Rectangle 1958" width="130" height="50" rx="10" transform="translate(2239 8483)" fill="#74bf44"/>
        <text id="Capital" transform="translate(2304 8514)" fill="#fff" font-size="14" font-family="MPLUS1-Medium, 'M PLUS \31 '" font-weight="500"><tspan x="-24.248" y="0">Capital</tspan></text>
      </g>
      <g id="Group_142103" data-name="Group 142103">
        <rect id="Rectangle_1959" data-name="Rectangle 1959" width="130" height="50" rx="10" transform="translate(2239 8565)" fill="#0063a8"/>
        <text id="Dividend" transform="translate(2304 8596)" fill="#fff" font-size="14" font-family="MPLUS1-Medium, 'M PLUS \31 '" font-weight="500"><tspan x="-29.491" y="0">Dividend</tspan></text>
      </g>
      <g id="Group_142104" data-name="Group 142104">
        <rect id="Rectangle_1960" data-name="Rectangle 1960" width="130" height="50" rx="10" transform="translate(2239 8647)" fill="#e0f2fe"/>
        <text id="Mergers_Acquisitions" data-name="Mergers&amp;
Acquisitions" transform="translate(2304 8668)" font-size="14" font-family="MPLUS1-Medium, 'M PLUS \31 '" font-weight="500"><tspan x="-32.648" y="0">Mergers&amp;</tspan><tspan x="-41.741" y="20">Acquisitions</tspan></text>
      </g>
      <rect id="Rectangle_1961" data-name="Rectangle 1961" width="1" height="232" transform="translate(2437 8476)" fill="#3c3c3c"/>
      <path id="Path_39435" data-name="Path 39435" d="M106.947,19.715a3.141,3.141,0,0,1-1.314-1.112,1.035,1.035,0,0,1,.126-1.383c.533-.546,1.078-1.082,1.618-1.622L113,9.978c.036-.036.069-.074.114-.121-.05-.054-.1-.106-.144-.154q-3.566-3.567-7.133-7.132A1.123,1.123,0,0,1,105.49,1.4a.377.377,0,0,1,.048-.125A3.266,3.266,0,0,1,106.905.034.18.18,0,0,0,106.947,0h.424a2.164,2.164,0,0,1,.86.616Q112.413,4.8,116.6,8.988a1.1,1.1,0,0,1,.009,1.719q-4.307,4.309-8.621,8.611a3.435,3.435,0,0,1-.617.4Z" transform="translate(2287.576 8498)" fill="#1a1818"/>
      <path id="Path_39436" data-name="Path 39436" d="M106.947,19.715a3.141,3.141,0,0,1-1.314-1.112,1.035,1.035,0,0,1,.126-1.383c.533-.546,1.078-1.082,1.618-1.622L113,9.978c.036-.036.069-.074.114-.121-.05-.054-.1-.106-.144-.154q-3.566-3.567-7.133-7.132A1.123,1.123,0,0,1,105.49,1.4a.377.377,0,0,1,.048-.125A3.266,3.266,0,0,1,106.905.034.18.18,0,0,0,106.947,0h.424a2.164,2.164,0,0,1,.86.616Q112.413,4.8,116.6,8.988a1.1,1.1,0,0,1,.009,1.719q-4.307,4.309-8.621,8.611a3.435,3.435,0,0,1-.617.4Z" transform="translate(2287.576 8580)" fill="#1a1818"/>
      <path id="Path_39437" data-name="Path 39437" d="M106.947,19.715a3.141,3.141,0,0,1-1.314-1.112,1.035,1.035,0,0,1,.126-1.383c.533-.546,1.078-1.082,1.618-1.622L113,9.978c.036-.036.069-.074.114-.121-.05-.054-.1-.106-.144-.154q-3.566-3.567-7.133-7.132A1.123,1.123,0,0,1,105.49,1.4a.377.377,0,0,1,.048-.125A3.266,3.266,0,0,1,106.905.034.18.18,0,0,0,106.947,0h.424a2.164,2.164,0,0,1,.86.616Q112.413,4.8,116.6,8.988a1.1,1.1,0,0,1,.009,1.719q-4.307,4.309-8.621,8.611a3.435,3.435,0,0,1-.617.4Z" transform="translate(2287.576 8662)" fill="#1a1818"/>
    </g>
  </g>
</svg>
