<svg xmlns="http://www.w3.org/2000/svg" xmlns:xlink="http://www.w3.org/1999/xlink" width="165" height="165" viewBox="0 0 165 165">
  <defs>
    <filter id="Path_39395" x="0" y="0" width="165" height="165" filterUnits="userSpaceOnUse">
      <feOffset dy="3" input="SourceAlpha"/>
      <feGaussianBlur stdDeviation="15" result="blur"/>
      <feFlood flood-color="#33678b" flood-opacity="0.051"/>
      <feComposite operator="in" in2="blur"/>
      <feComposite in="SourceGraphic"/>
    </filter>
    <clipPath id="clip-path">
      <path id="Path_39396" data-name="Path 39396" d="M14.445,14.146a7.187,7.187,0,0,1-7.027-.581C5.871,12.4,5.053,15.024,5.053,15.024L.858,21.688,5.053,25a7.368,7.368,0,0,1,2.876-1.047c.963.084,2.777,2.469,3.961,2.469s2.147,1.741,4.976,2.555.5,4.184.89,3.99,1.131-.843,3.12.465.306,2.1,1.342,3.43,4.592,1.111,5.48,0c.387-.483-.138-1.36-.853-2.195a7.975,7.975,0,0,0,2.113.987c2.879.852,2.961-3.263,2.961-3.263l-4.887-4.044a43.876,43.876,0,0,0,6,3.925c1.925.815,3.036-2.83,3.036-2.83l-5.159-4.138a46.288,46.288,0,0,0,5.9,4.138c2.222,1.094,3.185-.8,3.851-1.951S37.1,23.243,36.213,22.5A71.827,71.827,0,0,0,26,17.358c-2.592-.925-4.887,3.145-8.24,4.4S15.778,18.578,16.3,17.1s6.218-3.628,4.885-4.162a3.567,3.567,0,0,0-1.3-.2,14.508,14.508,0,0,0-5.438,1.415" fill="none"/>
    </clipPath>
    <radialGradient id="radial-gradient" cx="0.493" cy="0.498" r="0.645" gradientTransform="matrix(0.637, 0, 0, -1, -0.008, 2.128)" gradientUnits="objectBoundingBox">
      <stop offset="0" stop-color="#b2e599"/>
      <stop offset="1" stop-color="#74bf44"/>
    </radialGradient>
    <clipPath id="clip-path-2">
      <rect id="Rectangle_1716" data-name="Rectangle 1716" width="44.437" height="39.847" transform="translate(0 0)" fill="none"/>
    </clipPath>
  </defs>
  <g id="Group_141599" data-name="Group 141599" transform="translate(45 42)">
    <g transform="matrix(1, 0, 0, 1, -45, -42)" filter="url(#Path_39395)">
      <g id="Path_39395-2" data-name="Path 39395" transform="translate(45 42)" fill="#fff">
        <path d="M 37.5 74.59999847412109 C 32.49135971069336 74.59999847412109 27.63274002075195 73.619140625 23.05912971496582 71.68466186523438 C 18.64133071899414 69.81609344482422 14.67366981506348 67.1409912109375 11.2663402557373 63.73366165161133 C 7.859010219573975 60.32632827758789 5.183909893035889 56.35866165161133 3.315340042114258 51.94086837768555 C 1.380859971046448 47.36724853515625 0.4000000059604645 42.50864028930664 0.4000000059604645 37.5 C 0.4000000059604645 32.49134826660156 1.380859971046448 27.63274002075195 3.315340042114258 23.05912971496582 C 5.183909893035889 18.64133071899414 7.859010219573975 14.67366981506348 11.2663402557373 11.2663402557373 C 14.67366981506348 7.859010219573975 18.64133071899414 5.183909893035889 23.05912971496582 3.315340042114258 C 27.63274002075195 1.380859971046448 32.49134826660156 0.4000000059604645 37.5 0.4000000059604645 C 42.50864028930664 0.4000000059604645 47.36724853515625 1.380859971046448 51.94086837768555 3.315340042114258 C 56.35866165161133 5.183909893035889 60.32632827758789 7.859010219573975 63.73366165161133 11.2663402557373 C 67.1409912109375 14.67366981506348 69.81609344482422 18.64133071899414 71.68466186523438 23.05912971496582 C 73.619140625 27.63274002075195 74.59999847412109 32.49135971069336 74.59999847412109 37.5 C 74.59999847412109 42.50864028930664 73.619140625 47.36724853515625 71.68466186523438 51.94086837768555 C 69.81609344482422 56.35866165161133 67.1409912109375 60.32632827758789 63.73366165161133 63.73366165161133 C 60.32632827758789 67.1409912109375 56.35866165161133 69.81609344482422 51.94086837768555 71.68466186523438 C 47.36724853515625 73.619140625 42.50864028930664 74.59999847412109 37.5 74.59999847412109 Z" stroke="none"/>
        <path d="M 37.5 0.8000030517578125 C 32.54518127441406 0.8000030517578125 27.73899078369141 1.770233154296875 23.21495056152344 3.683738708496094 C 18.84482955932617 5.532142639160156 14.91989898681641 8.178459167480469 11.54917907714844 11.54917907714844 C 8.178459167480469 14.91989898681641 5.532142639160156 18.84482955932617 3.683738708496094 23.21495056152344 C 1.770233154296875 27.73899078369141 0.8000030517578125 32.54518127441406 0.8000030517578125 37.5 C 0.8000030517578125 42.45481872558594 1.770233154296875 47.26100158691406 3.683738708496094 51.78504943847656 C 5.532142639160156 56.15515899658203 8.178459167480469 60.0800895690918 11.54917907714844 63.45082092285156 C 14.91989898681641 66.82154083251953 18.84482955932617 69.46785736083984 23.21495056152344 71.31626129150391 C 27.73899078369141 73.22976684570312 32.54518127441406 74.19999694824219 37.5 74.19999694824219 C 42.45481872558594 74.19999694824219 47.26100158691406 73.22976684570312 51.78504943847656 71.31626129150391 C 56.15515899658203 69.46785736083984 60.0800895690918 66.82154083251953 63.45082092285156 63.45082092285156 C 66.82154083251953 60.0800895690918 69.46785736083984 56.15515899658203 71.31626129150391 51.78504943847656 C 73.22976684570312 47.26100158691406 74.19999694824219 42.45481872558594 74.19999694824219 37.5 C 74.19999694824219 32.54518127441406 73.22976684570312 27.73899078369141 71.31626129150391 23.21495056152344 C 69.46785736083984 18.84482955932617 66.82154083251953 14.91989898681641 63.45082092285156 11.54917907714844 C 60.0800895690918 8.178459167480469 56.15515899658203 5.532142639160156 51.78504943847656 3.683738708496094 C 47.26100158691406 1.770233154296875 42.45481872558594 0.8000030517578125 37.5 0.8000030517578125 M 37.5 0 C 58.21067047119141 0 75 16.78932189941406 75 37.5 C 75 58.21067047119141 58.21067047119141 75 37.5 75 C 16.78932189941406 75 0 58.21067047119141 0 37.5 C 0 16.78932189941406 16.78932189941406 0 37.5 0 Z" stroke="none" fill="#e9e9e9"/>
      </g>
    </g>
    <g id="Group_141437" data-name="Group 141437" transform="translate(15.281 17.577)">
      <g id="Group_141434" data-name="Group 141434">
        <g id="Group_141433" data-name="Group 141433" clip-path="url(#clip-path)">
          <rect id="Rectangle_1715" data-name="Rectangle 1715" width="40.465" height="25.796" transform="translate(0.858 12.403)" fill="url(#radial-gradient)"/>
        </g>
      </g>
      <g id="Group_141436" data-name="Group 141436">
        <g id="Group_141435" data-name="Group 141435" clip-path="url(#clip-path-2)">
          <path id="Path_39397" data-name="Path 39397" d="M44.272,21.386l-5.76-8.556a.986.986,0,0,0-1.382-.256l-1.28.9c-1.164.818-3.595.479-5.392-.274l-2.493-1.045a7.389,7.389,0,0,0-5.74.03,7.391,7.391,0,0,0-5.753-.03L13.98,13.2c-1.831.766-4.285,1.123-5.435.316l-1.281-.9a.987.987,0,0,0-1.382.258L.166,21.388a.989.989,0,0,0,.253,1.355l3.765,2.636-.468.656a3.411,3.411,0,0,0,.793,4.749,3.637,3.637,0,0,0,2.006.632,3.251,3.251,0,0,0,.043.683,3.384,3.384,0,0,0,1.379,2.209,3.421,3.421,0,0,0,2.555.583l0,.018a3.377,3.377,0,0,0,1.379,2.21,3.428,3.428,0,0,0,3.2.4A3.406,3.406,0,0,0,18.3,39.847a3.41,3.41,0,0,0,2.775-1.426l.58-.811L23.3,38.768a3.412,3.412,0,0,0,4.742-.836,3.306,3.306,0,0,0,.585-1.575,3.388,3.388,0,0,0,4.308-3.051,3.278,3.278,0,0,0,1.177,0,3.388,3.388,0,0,0,2.2-1.4,3.314,3.314,0,0,0,.58-1.521,3.433,3.433,0,0,0,3.875-1.267,3.385,3.385,0,0,0,.563-2.544,3.346,3.346,0,0,0-.518-1.282l3.255-2.587a.992.992,0,0,0,.2-1.322M29.084,23.893a.985.985,0,0,0,.242,1.372l5.02,3.516a1.435,1.435,0,0,1-.572,2.587,1.461,1.461,0,0,1-1.074-.239l-5.02-3.515a.986.986,0,0,0-1.13,1.615l3.822,2.676a1.433,1.433,0,1,1-1.646,2.346l-3.821-2.674a.985.985,0,0,0-1.13,1.614l2.3,1.614a1.431,1.431,0,0,1,.351,1.995,1.435,1.435,0,0,1-2,.352l-1.768-1.237A3.41,3.41,0,0,0,21.4,32.1a3.372,3.372,0,0,0-2-.628,3.393,3.393,0,0,0-1.423-2.9,3.412,3.412,0,0,0-2.538-.587l-.023.005a3.391,3.391,0,0,0-4.573-2.632,3.388,3.388,0,0,0-5.416-1.518L2.34,21.684l4.617-6.877.457.321c1.951,1.364,5.166.792,7.327-.114l2.493-1.046a5.362,5.362,0,0,1,2.688-.38L15.779,16.5a3.4,3.4,0,0,0,1.361,6.141,3.364,3.364,0,0,0,2.543-.563l4.559-3.189a3.9,3.9,0,0,1,4.429-.016L38.8,25.993a1.433,1.433,0,1,1-1.645,2.348l-6.7-4.69a.987.987,0,0,0-1.371.242M20.616,35.669l-1.148,1.609a1.434,1.434,0,0,1-2.335-1.667l1.123-1.573a1.425,1.425,0,0,1,.931-.581,1.494,1.494,0,0,1,.239-.021,1.429,1.429,0,0,1,1.185,2.23Zm-15.3-8.491L6.442,25.6a1.429,1.429,0,0,1,.931-.58A1.4,1.4,0,0,1,7.613,25a1.436,1.436,0,0,1,1.165,2.268L7.654,28.845a1.423,1.423,0,0,1-.931.581h0a1.436,1.436,0,0,1-1.4-2.249M8.747,30.7l2.143-3a1.443,1.443,0,0,1,1.17-.6,1.435,1.435,0,0,1,1.165,2.267l-2.144,3a1.434,1.434,0,0,1-2,.333h0a1.434,1.434,0,0,1-.334-2m3.938,2.811,2.143-3a1.426,1.426,0,0,1,.931-.58,1.411,1.411,0,0,1,1.07.247,1.432,1.432,0,0,1,.334,2l-2.143,3a1.429,1.429,0,0,1-.931.58h0a1.449,1.449,0,0,1-1.07-.248,1.434,1.434,0,0,1-.334-2M29.8,17.26a5.876,5.876,0,0,0-6.684.018l-4.56,3.189a1.434,1.434,0,0,1-1.643-2.35l5.1-3.59a5.374,5.374,0,0,1,5.19-.558l2.492,1.045c2.13.891,5.316,1.449,7.284.071l.459-.321,4.69,6.968-2.8,2.225Zm7.586-4.325Zm-31.135.186Z" fill="#0063a8"/>
          <path id="Path_39398" data-name="Path 39398" d="M22.219,8.924a4.462,4.462,0,1,0-4.463-4.462,4.467,4.467,0,0,0,4.463,4.462m0-6.911A2.448,2.448,0,1,1,19.77,4.462a2.452,2.452,0,0,1,2.449-2.449" fill="#0063a8"/>
        </g>
      </g>
    </g>
  </g>
</svg>
