<svg id="Group_141753" data-name="Group 141753" xmlns="http://www.w3.org/2000/svg" width="59.05" height="59.05" viewBox="0 0 59.05 59.05">
  <rect id="Rectangle_581" data-name="Rectangle 581" width="59.05" height="59.05" rx="29.525" transform="translate(0 0)" fill="#0063a8"/>
  <path id="Icon_awesome-linkedin-in" data-name="Icon awesome-linkedin-in" d="M4.112,18.371H.3V6.106H4.112ZM2.206,4.433A2.216,2.216,0,1,1,4.411,2.206,2.224,2.224,0,0,1,2.206,4.433ZM18.366,18.371h-3.8V12.4c0-1.423-.029-3.248-1.98-3.248-1.98,0-2.284,1.546-2.284,3.145v6.073H6.5V6.106H10.15V7.779H10.2a4,4,0,0,1,3.6-1.981c3.855,0,4.563,2.538,4.563,5.835v6.737Z" transform="translate(21.559 17.736)" fill="#fff"/>
</svg>
