<svg xmlns="http://www.w3.org/2000/svg" width="59.05" height="59.05" viewBox="0 0 59.05 59.05">
  <g id="Group_141752" data-name="Group 141752" transform="translate(0)">
    <rect id="Rectangle_94" data-name="Rectangle 94" width="59.05" height="59.05" rx="29.525" transform="translate(0 0)" fill="#0063a8"/>
    <path id="Icon_awesome-twitter" data-name="Icon awesome-twitter" d="M19.847,7.858c.014.2.014.393.014.59a12.81,12.81,0,0,1-12.9,12.9A12.811,12.811,0,0,1,0,19.311a9.378,9.378,0,0,0,1.095.056,9.079,9.079,0,0,0,5.628-1.937,4.542,4.542,0,0,1-4.239-3.144,5.718,5.718,0,0,0,.856.07A4.8,4.8,0,0,0,4.534,14.2,4.534,4.534,0,0,1,.9,9.753V9.7a4.566,4.566,0,0,0,2.049.575,4.54,4.54,0,0,1-1.4-6.063,12.886,12.886,0,0,0,9.348,4.744,5.118,5.118,0,0,1-.112-1.039,4.538,4.538,0,0,1,7.846-3.1A8.926,8.926,0,0,0,21.5,3.718a4.521,4.521,0,0,1-1.993,2.5,9.088,9.088,0,0,0,2.611-.7,9.745,9.745,0,0,1-2.274,2.344Z" transform="translate(17.811 17.23)" fill="#fff"/>
  </g>
</svg>
