<svg xmlns="http://www.w3.org/2000/svg" width="14.048" height="14.046" viewBox="0 0 14.048 14.046">
  <path id="Icon_ionic-ios-call" data-name="Icon ionic-ios-call" d="M18.132,15.5a11.8,11.8,0,0,0-2.465-1.649c-.739-.355-1.009-.347-1.532.029-.435.314-.717.607-1.218.5a7.264,7.264,0,0,1-2.446-1.81,7.212,7.212,0,0,1-1.81-2.446c-.106-.5.187-.783.5-1.218.377-.523.388-.794.029-1.532A11.566,11.566,0,0,0,7.538,4.907C7,4.37,6.879,4.487,6.583,4.593a5.431,5.431,0,0,0-.874.464A2.637,2.637,0,0,0,4.66,6.165c-.208.45-.45,1.287.779,3.474a19.385,19.385,0,0,0,3.408,4.546h0l0,0,0,0h0A19.461,19.461,0,0,0,13.4,17.6c2.187,1.229,3.024.987,3.474.779a2.592,2.592,0,0,0,1.108-1.05,5.431,5.431,0,0,0,.464-.874C18.552,16.159,18.673,16.039,18.132,15.5Z" transform="translate(-4.49 -4.502)" fill="#292727"/>
</svg>
