<svg xmlns="http://www.w3.org/2000/svg" width="31" height="31" viewBox="0 0 31 31">
  <g id="Group_141844" data-name="Group 141844" transform="translate(54.662 0.078)">
    <rect id="Rectangle_581" data-name="Rectangle 581" width="31" height="31" rx="15.5" transform="translate(-54.662 -0.078)" fill="#bcbcbd"/>
    <path id="Icon_awesome-instagram" data-name="Icon awesome-instagram" d="M5.551,4.944a2.843,2.843,0,1,0,2.015.833A2.848,2.848,0,0,0,5.551,4.944Zm0,4.7A1.851,1.851,0,1,1,7.4,7.791,1.851,1.851,0,0,1,5.551,9.643ZM9.179,4.828a.662.662,0,1,1-.194-.47.664.664,0,0,1,.194.47Zm1.886.674a3.287,3.287,0,0,0-.9-2.327,3.309,3.309,0,0,0-2.328-.9c-.917-.052-3.665-.052-4.583,0a3.3,3.3,0,0,0-2.326.893A3.3,3.3,0,0,0,.034,5.5c-.052.917-.052,3.665,0,4.583a3.287,3.287,0,0,0,.9,2.327,3.313,3.313,0,0,0,2.327.9c.917.052,3.665.052,4.583,0a3.287,3.287,0,0,0,2.327-.9,3.309,3.309,0,0,0,.9-2.327c.052-.917.052-3.663,0-4.58ZM9.879,11.066a1.875,1.875,0,0,1-1.053,1.053,12.249,12.249,0,0,1-3.274.223,12.269,12.269,0,0,1-3.274-.223,1.875,1.875,0,0,1-1.053-1.053A12.249,12.249,0,0,1,1,7.792a12.269,12.269,0,0,1,.223-3.274A1.875,1.875,0,0,1,2.278,3.465a12.249,12.249,0,0,1,3.274-.223,12.2,12.2,0,0,1,3.269.223A1.875,1.875,0,0,1,9.875,4.518,12.249,12.249,0,0,1,10.1,7.792a12.218,12.218,0,0,1-.218,3.274Z" transform="translate(-44.781 7.559)" fill="#fff"/>
  </g>
</svg>
