<svg xmlns="http://www.w3.org/2000/svg" width="12" height="12" viewBox="0 0 12 12">
  <g id="instagram" transform="translate(-2567 -10329)">
    <g id="Rectangle_1892" data-name="Rectangle 1892" transform="translate(2567 10329)" fill="none" stroke="#707070" stroke-width="1" opacity="0">
      <rect width="12" height="12" stroke="none"/>
      <rect x="0.5" y="0.5" width="11" height="11" fill="none"/>
    </g>
    <path id="Icon_awesome-instagram" data-name="Icon awesome-instagram" d="M4.576,4.469A2.348,2.348,0,1,0,6.924,6.817,2.344,2.344,0,0,0,4.576,4.469Zm0,3.875A1.527,1.527,0,1,1,6.1,6.817,1.529,1.529,0,0,1,4.576,8.344ZM7.568,4.373a.548.548,0,1,1-.548-.548A.546.546,0,0,1,7.568,4.373Zm1.555.556a2.71,2.71,0,0,0-.74-1.919,2.728,2.728,0,0,0-1.919-.74c-.756-.043-3.022-.043-3.779,0a2.724,2.724,0,0,0-1.919.738,2.719,2.719,0,0,0-.74,1.919c-.043.756-.043,3.023,0,3.779a2.71,2.71,0,0,0,.74,1.919,2.732,2.732,0,0,0,1.919.74c.756.043,3.022.043,3.779,0a2.71,2.71,0,0,0,1.919-.74,2.728,2.728,0,0,0,.74-1.919c.043-.756.043-3.02,0-3.777ZM8.146,9.517a1.546,1.546,0,0,1-.871.871,10.093,10.093,0,0,1-2.7.184,10.172,10.172,0,0,1-2.7-.184,1.546,1.546,0,0,1-.871-.871,10.094,10.094,0,0,1-.184-2.7,10.172,10.172,0,0,1,.184-2.7,1.546,1.546,0,0,1,.871-.871,10.093,10.093,0,0,1,2.7-.184,10.172,10.172,0,0,1,2.7.184,1.546,1.546,0,0,1,.871.871,10.093,10.093,0,0,1,.184,2.7A10.088,10.088,0,0,1,8.146,9.517Z" transform="translate(2568.425 10328.217)" fill="#fff"/>
  </g>
</svg>
