<svg xmlns="http://www.w3.org/2000/svg" width="31.271" height="31.271" viewBox="0 0 31.271 31.271">
  <g id="Group_141957" data-name="Group 141957" transform="translate(-1133.519 -695.365)">
    <rect id="Rectangle_581" data-name="Rectangle 581" width="31.271" height="31.271" rx="15.635" transform="translate(1133.519 695.365)" fill="#bcbcbd"/>
    <path id="Icon_awesome-linkedin-in" data-name="Icon awesome-linkedin-in" d="M2.178,9.729H.161V3.234H2.178ZM1.168,2.348A1.174,1.174,0,1,1,2.336,1.169,1.178,1.178,0,0,1,1.168,2.348ZM9.726,9.729H7.714V6.567c0-.754-.015-1.72-1.049-1.72-1.049,0-1.209.819-1.209,1.666V9.729H3.441V3.234H5.375V4.12H5.4A2.119,2.119,0,0,1,7.312,3.071c2.041,0,2.416,1.344,2.416,3.09V9.729Z" transform="translate(1144.935 704.757)" fill="#fff"/>
  </g>
</svg>
