<svg id="Logomark" xmlns="http://www.w3.org/2000/svg" width="28.123" height="28.842" viewBox="0 0 28.123 28.842">
  <path id="Path_588" data-name="Path 588" d="M2.524,33.374a25.371,25.371,0,0,1,4.609.665,13.216,13.216,0,0,1,4.137,1.712,5.42,5.42,0,0,1,2.47,3.085c.079.29.127.589.187.883a2.9,2.9,0,0,0,2.454,2.237,10.975,10.975,0,0,0,4.849-.373,38.015,38.015,0,0,0,6.628-2.425.611.611,0,0,1,.54.014.81.81,0,0,1,.174.583,10.108,10.108,0,0,1-.214,1.257,1.5,1.5,0,0,1-1.057,1.14c-1.757.608-3.5,1.256-5.284,1.774a13.327,13.327,0,0,1-4.529.6,4.531,4.531,0,0,1-3.007-1.089,3.3,3.3,0,0,1-.99-2.025A4.262,4.262,0,0,0,11.763,38.5a11.57,11.57,0,0,0-4.6-2.007,21.916,21.916,0,0,0-5.672-.565C.9,35.944.693,35.667.8,35.055a7.542,7.542,0,0,1,.213-.879c.2-.662.391-.8,1.071-.8Z" transform="translate(-0.545 -23.437)" fill="#fff" fill-rule="evenodd"/>
  <path id="Path_589" data-name="Path 589" d="M7.848,19.762a15.614,15.614,0,0,1,7.213,2.391,5.386,5.386,0,0,1,2.255,2.955,10.94,10.94,0,0,0,.36,1.429,2.97,2.97,0,0,0,2.614,1.707,15.627,15.627,0,0,0,7.029-1.184c1.148-.405,2.27-.9,3.4-1.369.335-.139.942-.383,1.244-.043a1.809,1.809,0,0,1,.213.789,1.381,1.381,0,0,1-.954,1.787,41.138,41.138,0,0,1-5.574,1.917,16.18,16.18,0,0,1-4.286.619,4.847,4.847,0,0,1-3.109-.9A3.366,3.366,0,0,1,17.036,27.6a4.091,4.091,0,0,0-1.323-2.517,10.51,10.51,0,0,0-4.777-2.3,19.75,19.75,0,0,0-4.214-.6,1.872,1.872,0,0,1-.511-.115.533.533,0,0,1-.357-.746,5.664,5.664,0,0,1,.717-1.186,1.487,1.487,0,0,1,1.278-.372" transform="translate(-4.098 -13.875)" fill="#fff" fill-rule="evenodd"/>
  <path id="Path_590" data-name="Path 590" d="M17.5,58.534a5.051,5.051,0,0,1-3.091-.665,2.861,2.861,0,0,1-1.339-1.924,5.12,5.12,0,0,0-1.6-3.185,9.445,9.445,0,0,0-3.025-1.672,17.679,17.679,0,0,0-4.822-1c-.83-.047-1.661-.1-2.492-.135-.773-.03-1-.24-1.049-1.018-.016-.247-.05-.492-.077-.738-.051-.479.18-.8.652-.785,1.125.046,2.258.077,3.371.233a28.784,28.784,0,0,1,3.5.719,10.4,10.4,0,0,1,4.086,2.114A5.367,5.367,0,0,1,13.4,53.8a2.676,2.676,0,0,0,2.261,2.171,10.114,10.114,0,0,0,4.583-.213,31.605,31.605,0,0,0,5.174-1.707c.284-.117.563-.251.854-.343a.465.465,0,0,1,.395.032.44.44,0,0,1,0,.4c-.393.7-.775,1.417-1.227,2.078a3.507,3.507,0,0,1-2,1.216,26.872,26.872,0,0,1-4.731,1.1,9.382,9.382,0,0,1-1.207.008" transform="translate(0 -33.298)" fill="#fff" fill-rule="evenodd"/>
  <path id="Path_591" data-name="Path 591" d="M6.518,64.433c.212.187.417.383.636.562,1.447,1.183,2.929,2.326,4.336,3.558a10.9,10.9,0,0,1,2.76,3.5c-.621-.143-1.178-.235-1.713-.4a15.166,15.166,0,0,1-4.972-2.591A12.1,12.1,0,0,1,3.3,63.271a4.732,4.732,0,0,1-.174-.761.589.589,0,0,1,.654-.731,18.608,18.608,0,0,1,2.511.315,39.476,39.476,0,0,1,3.819,1.063,10.439,10.439,0,0,1,4.011,2.432,6.779,6.779,0,0,1,1.87,3.531,23.708,23.708,0,0,1,.4,3.04,16.313,16.313,0,0,0-4.134-4.971A15.438,15.438,0,0,0,6.62,64.279l-.1.155" transform="translate(-2.204 -43.383)" fill="#fff" fill-rule="evenodd"/>
  <path id="Path_592" data-name="Path 592" d="M28.325,18.429a7.615,7.615,0,0,1-2.739-.587,3.176,3.176,0,0,1-1.735-2.516,4.478,4.478,0,0,0-1.934-3.048,11.372,11.372,0,0,0-4.3-1.824c-.586-.137-1.18-.243-1.756-.412-.493-.145-.569-.466-.183-.8.557-.477,1.042-1.149,1.855-1.121a5.464,5.464,0,0,1,1.548.331,9.117,9.117,0,0,1,4.119,2.6,5.447,5.447,0,0,1,1.1,2.6,2.69,2.69,0,0,0,2.068,2.117,8.29,8.29,0,0,0,3.819.037,30.729,30.729,0,0,0,6.53-2.053.79.79,0,0,1,1.183.49c.075.176.13.359.2.537a.929.929,0,0,1-.07,1.059,1.56,1.56,0,0,1-.533.279c-.843.31-1.686.62-2.534.917a18.676,18.676,0,0,1-6.634,1.381" transform="translate(-10.907 -5.705)" fill="#fff" fill-rule="evenodd"/>
  <path id="Path_593" data-name="Path 593" d="M39.531,9.5a5.684,5.684,0,0,1-3.125-.768,3.257,3.257,0,0,1-1.419-2.392A4.306,4.306,0,0,0,33.3,3.5c-.454-.356-.985-.605-1.454-.943a5.324,5.324,0,0,1-.662-.674,4.42,4.42,0,0,1,.689-.428c1.276-.5,1.842-.175,2.659.878A5.616,5.616,0,0,1,35.44,4.72a2.664,2.664,0,0,0,1.908,2.039,7.273,7.273,0,0,0,4.093.043c1.492-.362,2.965-.811,4.445-1.225a.887.887,0,0,1,1.034.341c.223.292.449.583.656.887a.542.542,0,0,1-.254.866c-1.127.387-2.25.8-3.4,1.1-1.047.276-2.122.437-3.189.625-.395.07-.8.071-1.2.1" transform="translate(-22.045 -0.856)" fill="#fff" fill-rule="evenodd"/>
  <path id="Path_594" data-name="Path 594" d="M48.126,4.7a5.064,5.064,0,0,1-3.082-.945A4.093,4.093,0,0,1,43.7,1.205C43.649.951,43.576.7,43.548.441c-.016-.139.01-.394.066-.409a1.136,1.136,0,0,1,.566.01c.1.026.185.162.238.269A3.047,3.047,0,0,0,46.9,1.9a12.044,12.044,0,0,0,3.679-.188,2.959,2.959,0,0,1,1.433.217,5.942,5.942,0,0,1,1.242.826c.383.283.349.654-.094.805a24.3,24.3,0,0,1-2.5.749c-.835.188-1.692.264-2.539.389" transform="translate(-30.778 0)" fill="#fff" fill-rule="evenodd"/>
  <path id="Path_595" data-name="Path 595" d="M50.986,88.979a8.222,8.222,0,0,1,2.823-2.269,9.819,9.819,0,0,1,3.515-1.064,3.526,3.526,0,0,1,1.113.091c.167.037.3.242.446.371a1.941,1.941,0,0,1-.32.337A16.231,16.231,0,0,1,53.3,88.579c-.628.137-1.261.254-1.893.373a3.252,3.252,0,0,1-.422.026" transform="translate(-36.04 -60.136)" fill="#fff" fill-rule="evenodd"/>
</svg>
