<svg id="Logo" xmlns="http://www.w3.org/2000/svg" width="173" height="37" viewBox="0 0 346 72.082">
  <g id="Logomark">
    <path id="Path_588" data-name="Path 588" d="M5.015,33.374a62.777,62.777,0,0,1,11.156,1.571,32.413,32.413,0,0,1,10.013,4.048c2.75,1.781,5.06,3.983,5.979,7.293.19.686.307,1.392.453,2.089.68,3.248,3.3,4.736,5.939,5.29,3.992.838,7.86,0,11.737-.882A93.429,93.429,0,0,0,66.335,47.05a1.51,1.51,0,0,1,1.307.034,1.884,1.884,0,0,1,.42,1.378,23.392,23.392,0,0,1-.518,2.971,3.588,3.588,0,0,1-2.559,2.7C60.733,55.567,56.507,57.1,52.2,58.322a32.975,32.975,0,0,1-10.962,1.413c-2.639-.156-5.215-.669-7.277-2.574a7.727,7.727,0,0,1-2.4-4.789,10.039,10.039,0,0,0-4.184-6.878A28.345,28.345,0,0,0,16.233,40.75,54.26,54.26,0,0,0,2.5,39.416c-1.416.035-1.92-.621-1.672-2.067a17.488,17.488,0,0,1,.515-2.077c.475-1.564.946-1.9,2.593-1.9Z" transform="translate(-0.224 -9.881)" fill="#005298" fill-rule="evenodd"/>
    <path id="Path_589" data-name="Path 589" d="M10.761,19.767c6.182.755,12.189,2.076,17.459,5.653a12.774,12.774,0,0,1,5.459,6.986,25.374,25.374,0,0,0,.871,3.377c1.21,2.678,3.6,3.729,6.327,4.036,5.921.667,11.511-.9,17.012-2.8,2.779-.958,5.493-2.134,8.223-3.237.812-.328,2.28-.906,3.012-.1a4.2,4.2,0,0,1,.515,1.865c.4,2.209-.214,3.366-2.31,4.225A101.2,101.2,0,0,1,53.837,44.3a40.029,40.029,0,0,1-10.374,1.463c-2.659-.032-5.3-.4-7.525-2.135A7.906,7.906,0,0,1,33,38.294a9.6,9.6,0,0,0-3.2-5.952c-3.3-2.967-7.339-4.409-11.564-5.434a48.867,48.867,0,0,0-10.2-1.42A4.623,4.623,0,0,1,6.8,25.216a1.254,1.254,0,0,1-.864-1.764,13.336,13.336,0,0,1,1.736-2.805,3.657,3.657,0,0,1,3.094-.88" transform="translate(-1.684 -5.85)" fill="#005298" fill-rule="evenodd"/>
    <path id="Path_590" data-name="Path 590" d="M42.366,73.7a12.464,12.464,0,0,1-7.482-1.573,6.767,6.767,0,0,1-3.24-4.548c-.56-2.912-1.5-5.581-3.876-7.531A23.024,23.024,0,0,0,20.446,56.1,43.677,43.677,0,0,0,8.774,53.742c-2.01-.111-4.02-.24-6.031-.318C.872,53.353.325,52.856.2,51.018c-.038-.584-.121-1.162-.186-1.744-.124-1.132.436-1.9,1.579-1.856,2.723.109,5.464.183,8.16.552a71.129,71.129,0,0,1,8.47,1.7,25.4,25.4,0,0,1,9.889,5,12.608,12.608,0,0,1,4.318,7.842c.529,2.965,2.7,4.49,5.474,5.132,3.731.863,7.416.3,11.093-.5A77.785,77.785,0,0,0,61.523,63.1c.688-.277,1.362-.593,2.066-.812a1.148,1.148,0,0,1,.955.077,1.019,1.019,0,0,1,.007.941c-.951,1.661-1.875,3.349-2.971,4.913-1.154,1.652-3,2.3-4.841,2.876a66.349,66.349,0,0,1-11.451,2.589,23.248,23.248,0,0,1-2.923.018" transform="translate(0 -14.039)" fill="#71b32f" fill-rule="evenodd"/>
    <path id="Path_591" data-name="Path 591" d="M11.347,68.06c.512.443,1.01.906,1.54,1.329,3.5,2.8,7.09,5.5,10.5,8.412a25.886,25.886,0,0,1,6.681,8.277c-1.5-.337-2.851-.556-4.147-.945a37.022,37.022,0,0,1-12.034-6.126c-4.7-3.618-8.415-7.971-10.319-13.7a10.968,10.968,0,0,1-.421-1.8,1.406,1.406,0,0,1,1.582-1.729,46.06,46.06,0,0,1,6.077.745c3.114.7,6.215,1.514,9.243,2.513a25.384,25.384,0,0,1,9.71,5.75,15.913,15.913,0,0,1,4.527,8.349,54.82,54.82,0,0,1,.965,7.188A38.794,38.794,0,0,0,25.24,74.576a37.691,37.691,0,0,0-13.645-6.882l-.248.365" transform="translate(-0.906 -18.29)" fill="#71b32f" fill-rule="evenodd"/>
    <path id="Path_592" data-name="Path 592" d="M46.641,32.487A18.805,18.805,0,0,1,40.011,31.1a7.513,7.513,0,0,1-4.2-5.949,10.567,10.567,0,0,0-4.682-7.206,27.875,27.875,0,0,0-10.412-4.312c-1.419-.323-2.855-.574-4.251-.974-1.194-.343-1.377-1.1-.442-1.881,1.347-1.127,2.522-2.717,4.491-2.65a13.5,13.5,0,0,1,3.746.783,22.141,22.141,0,0,1,9.97,6.152,12.723,12.723,0,0,1,2.655,6.158c.562,2.732,2.42,4.252,5,5.006a20.53,20.53,0,0,0,9.245.088,75.665,75.665,0,0,0,15.805-4.854,1.926,1.926,0,0,1,2.864,1.158c.181.415.316.85.485,1.271a2.155,2.155,0,0,1-.17,2.5,3.807,3.807,0,0,1-1.29.66c-2.041.733-4.081,1.466-6.133,2.169-5,1.713-10.619,3.46-16.057,3.266" transform="translate(-4.482 -2.406)" fill="#005298" fill-rule="evenodd"/>
    <path id="Path_593" data-name="Path 593" d="M51.382,20.791a14.018,14.018,0,0,1-7.563-1.815,7.672,7.672,0,0,1-3.434-5.656A10.142,10.142,0,0,0,36.307,6.6c-1.1-.842-2.383-1.431-3.519-2.23a12.733,12.733,0,0,1-1.6-1.594,10.742,10.742,0,0,1,1.667-1.011c3.089-1.192,4.457-.413,6.436,2.075A13.092,13.092,0,0,1,41.481,9.5a6.363,6.363,0,0,0,4.618,4.82,18,18,0,0,0,9.906.1c3.611-.857,7.176-1.917,10.758-2.9a2.176,2.176,0,0,1,2.5.806c.54.691,1.087,1.379,1.588,2.1a1.271,1.271,0,0,1-.614,2.046c-2.727.916-5.445,1.881-8.227,2.6-2.533.653-5.136,1.034-7.72,1.478-.956.165-1.938.168-2.911.243" transform="translate(-9.058 -0.361)" fill="#71b32f" fill-rule="evenodd"/>
    <path id="Path_594" data-name="Path 594" d="M54.636,11.117c-2.7-.132-5.265-.517-7.46-2.234-1.966-1.536-2.766-3.7-3.25-6.034-.126-.6-.3-1.2-.372-1.808-.039-.328.024-.932.159-.967A2.812,2.812,0,0,1,45.083.1c.233.061.448.384.575.636,1.248,2.483,3.515,3.352,6.017,3.765,2.991.493,5.94-.043,8.906-.443a7.316,7.316,0,0,1,3.469.514,14.414,14.414,0,0,1,3.006,1.953c.926.669.845,1.547-.227,1.9A59.881,59.881,0,0,1,60.782,10.2c-2.02.445-4.095.624-6.146.921" transform="translate(-12.647 0)" fill="#71b32f" fill-rule="evenodd"/>
    <path id="Path_595" data-name="Path 595" d="M50.986,93.545a19.824,19.824,0,0,1,6.834-5.365,24.183,24.183,0,0,1,8.508-2.515,8.732,8.732,0,0,1,2.695.215c.4.087.722.573,1.079.877a4.636,4.636,0,0,1-.774.8A39.82,39.82,0,0,1,56.59,92.6c-1.52.324-3.052.6-4.582.882a8.062,8.062,0,0,1-1.022.063" transform="translate(-14.809 -25.354)" fill="#71b32f" fill-rule="evenodd"/>
  </g>
  <g id="Subtitle" transform="translate(125.693 53.799)">
    <path id="Path_564" data-name="Path 564" d="M178.432,79.471a.441.441,0,0,1,.166-.378,1.86,1.86,0,0,1,.474-.241l1.841-.642a.379.379,0,0,1,.077-.008h.068a.421.421,0,0,1,.4.175.9.9,0,0,1,.1.459l-.008,2.562h1.353a.585.585,0,0,1,.422.155.611.611,0,0,1,.162.464v1.568a.67.67,0,0,1-.162.5.576.576,0,0,1-.422.159h-1.353l.008,6.539a.594.594,0,0,1-.179.468.718.718,0,0,1-.494.158h-1.833a.553.553,0,0,1-.624-.626l-.008-6.539h-.592q-.624,0-.624-.659V82.017a.549.549,0,0,1,.624-.619h.592Z" transform="translate(-177.207 -76.973)" fill="#71b32f"/>
    <path id="Path_565" data-name="Path 565" d="M188.766,82.826a.6.6,0,0,1,.061-.265.578.578,0,0,1,.15-.2.792.792,0,0,1,.438-.137h1.224a.45.45,0,0,1,.243.057.52.52,0,0,1,.15.146,1.08,1.08,0,0,1,.105.2,1.84,1.84,0,0,0,.109.227c.011.022.033.075.064.158s.069.176.106.277.074.2.11.284l.069.175q.244-.268.466-.565a5.2,5.2,0,0,1,.475-.549,2.279,2.279,0,0,1,.559-.414,1.535,1.535,0,0,1,.73-.163,4.158,4.158,0,0,1,.782.065,3.4,3.4,0,0,1,.653.191,3.758,3.758,0,0,1,.611.322c.2.129.423.282.661.455q.561.3.211.9l-.738,1.261a.667.667,0,0,1-.4.3.761.761,0,0,1-.51-.074,2.591,2.591,0,0,0-.709-.508,1.957,1.957,0,0,0-.824-.166,1.592,1.592,0,0,0-.555.089,1.5,1.5,0,0,0-.434.253,2.333,2.333,0,0,0-.365.39c-.113.152-.227.321-.341.505v5.888a.552.552,0,0,1-.648.626H189.4a.556.556,0,0,1-.632-.626Z" transform="translate(-180.567 -78.117)" fill="#71b32f"/>
    <path id="Path_566" data-name="Path 566" d="M213.288,91.951a.73.73,0,0,1-.049.265.4.4,0,0,1-.162.2.4.4,0,0,1-.21.113,1.1,1.1,0,0,1-.211.025h-1.6a.708.708,0,0,1-.277-.045.424.424,0,0,1-.17-.126.76.76,0,0,1-.109-.2c-.03-.079-.06-.165-.094-.257l-.234-.61c-.147.146-.306.3-.479.469a4.384,4.384,0,0,1-.571.459,3.429,3.429,0,0,1-.677.354,2.121,2.121,0,0,1-.778.143,5.253,5.253,0,0,1-2.681-.721,5.18,5.18,0,0,1-1.067-.829,5.357,5.357,0,0,1-.823-1.078,5.253,5.253,0,0,1-.531-1.281,5.432,5.432,0,0,1-.187-1.436,5.306,5.306,0,0,1,.414-2.1,5.361,5.361,0,0,1,1.126-1.692,5.256,5.256,0,0,1,3.747-1.541,2.737,2.737,0,0,1,.923.151,3.192,3.192,0,0,1,.767.395,3.787,3.787,0,0,1,.624.553,6,6,0,0,1,.5.626l.316-.984q.081-.2.133-.329a.61.61,0,0,1,.114-.188.3.3,0,0,1,.15-.081,1.214,1.214,0,0,1,.252-.02h1.208a1.043,1.043,0,0,1,.211.025.4.4,0,0,1,.21.113.5.5,0,0,1,.162.2.653.653,0,0,1,.049.26ZM205.3,87.4a2.981,2.981,0,0,0,.166,1,2.4,2.4,0,0,0,.475.809,2.251,2.251,0,0,0,1.7.74,2.533,2.533,0,0,0,1.009-.2,2.586,2.586,0,0,0,.811-.541A2.456,2.456,0,0,0,210,88.4a2.636,2.636,0,0,0-.54-2.826,2.561,2.561,0,0,0-.811-.566,2.455,2.455,0,0,0-1.009-.207,2.2,2.2,0,0,0-.961.207,2.249,2.249,0,0,0-.743.566,2.578,2.578,0,0,0-.475.829,2.973,2.973,0,0,0-.166.992" transform="translate(-184.525 -78.117)" fill="#71b32f"/>
    <path id="Path_567" data-name="Path 567" d="M481.24,76.456H482.7a1.05,1.05,0,0,1,.211.025.4.4,0,0,1,.21.113.511.511,0,0,1,.162.2.656.656,0,0,1,.049.26V90.29a.73.73,0,0,1-.049.265.632.632,0,0,1-.372.312,1.11,1.11,0,0,1-.211.025h-1.6a.708.708,0,0,1-.277-.045.424.424,0,0,1-.17-.126.761.761,0,0,1-.109-.2c-.03-.079-.06-.165-.094-.257l-.235-.61c-.146.146-.3.3-.479.469a4.383,4.383,0,0,1-.571.459,3.426,3.426,0,0,1-.677.354,2.122,2.122,0,0,1-.778.143,5.253,5.253,0,0,1-2.68-.721,5.174,5.174,0,0,1-1.067-.829,5.355,5.355,0,0,1-.823-1.078,5.279,5.279,0,0,1-.531-1.281,5.43,5.43,0,0,1-.187-1.435,5.305,5.305,0,0,1,.414-2.1,5.36,5.36,0,0,1,1.126-1.692,5.256,5.256,0,0,1,3.747-1.541,2.746,2.746,0,0,1,.924.151,3.2,3.2,0,0,1,.767.395,3.819,3.819,0,0,1,.624.553,6.184,6.184,0,0,1,.5.626l.061-5.051s-.006-.348.125-.46a.84.84,0,0,1,.523-.158m-5.892,9.279a2.981,2.981,0,0,0,.166,1,2.4,2.4,0,0,0,.474.809,2.251,2.251,0,0,0,1.7.74,2.533,2.533,0,0,0,1.009-.2,2.584,2.584,0,0,0,.811-.541,2.468,2.468,0,0,0,.54-.809,2.662,2.662,0,0,0,0-2,2.639,2.639,0,0,0-.54-.829,2.558,2.558,0,0,0-.811-.566,2.456,2.456,0,0,0-1.009-.207,2.2,2.2,0,0,0-.961.207,2.248,2.248,0,0,0-.743.566,2.577,2.577,0,0,0-.474.829,2.972,2.972,0,0,0-.166.992" transform="translate(-263.028 -76.456)" fill="#71b32f"/>
    <path id="Path_568" data-name="Path 568" d="M221.606,82.374a.5.5,0,0,1,.223-.114,1.1,1.1,0,0,1,.223-.025h1.225a.555.555,0,0,1,.251.053.539.539,0,0,1,.179.141.746.746,0,0,1,.117.2c.03.077.058.155.085.236l.252,1.038a3.943,3.943,0,0,1,.352-.573,2.985,2.985,0,0,1,.588-.6,3.255,3.255,0,0,1,.848-.471,3.126,3.126,0,0,1,1.139-.191,3.827,3.827,0,0,1,2.965,1.329,4.476,4.476,0,0,1,.822,1.441,5.238,5.238,0,0,1,.292,1.76v5.327a.708.708,0,0,1-.134.468.53.53,0,0,1-.426.158h-1.873a.724.724,0,0,1-.479-.118.616.616,0,0,1-.13-.46V86.685a1.458,1.458,0,0,0-.157-.663,1.922,1.922,0,0,0-.418-.552,2,2,0,0,0-.588-.379,1.711,1.711,0,0,0-.67-.139,1.509,1.509,0,0,0-.6.13,1.993,1.993,0,0,0-.56.362,2.127,2.127,0,0,0-.43.545,1.6,1.6,0,0,0-.2.68v5.287a.769.769,0,0,1-.053.277.445.445,0,0,1-.157.211.74.74,0,0,1-.2.089.854.854,0,0,1-.215.025h-1.833a.571.571,0,0,1-.656-.626V82.836a.609.609,0,0,1,.068-.284.527.527,0,0,1,.191-.2Z" transform="translate(-190.053 -78.121)" fill="#71b32f"/>
    <path id="Path_569" data-name="Path 569" d="M240.171,89.319a2.354,2.354,0,0,0,.475.37,3.541,3.541,0,0,0,.49.245,2.956,2.956,0,0,0,.414.134,1.377,1.377,0,0,0,.243.041c.1,0,.234,0,.393-.012a2.111,2.111,0,0,0,.458-.074.942.942,0,0,0,.377-.2.489.489,0,0,0,.158-.39.634.634,0,0,0-.09-.362.7.7,0,0,0-.259-.228,2.1,2.1,0,0,0-.418-.167c-.164-.049-.35-.106-.555-.171a6.7,6.7,0,0,1-1.606-.626,3.6,3.6,0,0,1-1-.818,2.656,2.656,0,0,1-.515-.972,4.076,4.076,0,0,1-.145-1.1,2.786,2.786,0,0,1,.267-1.227,2.714,2.714,0,0,1,.763-.949,3.618,3.618,0,0,1,1.182-.609,5.13,5.13,0,0,1,1.533-.215,5.078,5.078,0,0,1,.958.085,3.78,3.78,0,0,1,.851.269,4.206,4.206,0,0,1,.791.471,6.341,6.341,0,0,1,.766.688.5.5,0,0,1,.142.3.418.418,0,0,1-.182.3c-.211.174-.412.346-.6.513s-.391.355-.6.561a.45.45,0,0,1-.194.1.409.409,0,0,1-.187,0,.559.559,0,0,1-.17-.081.751.751,0,0,1-.146-.139,1.415,1.415,0,0,0-.649-.427,2.371,2.371,0,0,0-.681-.11,1.246,1.246,0,0,0-.633.139.427.427,0,0,0-.219.423.455.455,0,0,0,.159.329,1.106,1.106,0,0,0,.349.191,3.1,3.1,0,0,0,.437.118c.155.03.3.064.426.1a12.431,12.431,0,0,1,1.338.512,4.111,4.111,0,0,1,1.054.679,2.837,2.837,0,0,1,.694.964,3.4,3.4,0,0,1,.246,1.367,3.152,3.152,0,0,1-.32,1.44,3.088,3.088,0,0,1-.88,1.066,4.03,4.03,0,0,1-1.326.658,5.76,5.76,0,0,1-1.651.228,5.991,5.991,0,0,1-1.021-.09,4.741,4.741,0,0,1-1.005-.288,4.585,4.585,0,0,1-.925-.513,3.64,3.64,0,0,1-.778-.76.842.842,0,0,1-.133-.24.672.672,0,0,1-.042-.248.619.619,0,0,1,.05-.224.434.434,0,0,1,.141-.175l1.046-1.049a.369.369,0,0,1,.344-.114,1.143,1.143,0,0,1,.386.276" transform="translate(-194.939 -78.097)" fill="#71b32f"/>
    <path id="Path_570" data-name="Path 570" d="M253.717,80.956a3.216,3.216,0,0,1,.324-1.423,3.869,3.869,0,0,1,.868-1.167,4.14,4.14,0,0,1,1.248-.79,3.869,3.869,0,0,1,1.475-.288h.162a.54.54,0,0,1,.426.167.659.659,0,0,1,.151.459v1.553a.781.781,0,0,1-.158.5.506.506,0,0,1-.418.2h-.162a.884.884,0,0,0-.324.061.943.943,0,0,0-.275.167.816.816,0,0,0-.194.248.68.68,0,0,0-.074.313v.935h1.274a.573.573,0,0,1,.425.15.654.654,0,0,1,.15.476v1.488a.738.738,0,0,1-.15.512.548.548,0,0,1-.425.163h-1.274v5.832a.553.553,0,0,1-.206.468.728.728,0,0,1-.45.158h-1.752a.612.612,0,0,1-.64-.626V84.681h-.836a.646.646,0,0,1-.458-.163.67.67,0,0,1-.174-.512V82.518a.6.6,0,0,1,.174-.476.68.68,0,0,1,.458-.15h.836Z" transform="translate(-199.022 -76.703)" fill="#71b32f"/>
    <path id="Path_571" data-name="Path 571" d="M263.293,87.4a5.309,5.309,0,0,1,1.553-3.794,5.178,5.178,0,0,1,1.075-.825,5.424,5.424,0,0,1,2.709-.716,5.3,5.3,0,0,1,3.758,1.541,5.381,5.381,0,0,1,1.135,1.692,5.261,5.261,0,0,1,.418,2.1,5.374,5.374,0,0,1-.19,1.436,5.467,5.467,0,0,1-.535,1.281,5.279,5.279,0,0,1-4.586,2.628,5.411,5.411,0,0,1-1.431-.187,5.32,5.32,0,0,1-1.277-.533,5.261,5.261,0,0,1-1.9-1.907,5.438,5.438,0,0,1-.535-1.281,5.346,5.346,0,0,1-.19-1.436m2.96,0a2.978,2.978,0,0,0,.166,1,2.444,2.444,0,0,0,.47.809,2.233,2.233,0,0,0,.738.541,2.31,2.31,0,0,0,.977.2,2.222,2.222,0,0,0,.953-.2,2.152,2.152,0,0,0,.721-.541,2.373,2.373,0,0,0,.454-.809,3.218,3.218,0,0,0,0-2,2.544,2.544,0,0,0-.454-.829A2.114,2.114,0,0,0,268.6,84.8a2.185,2.185,0,0,0-1.715.773,2.622,2.622,0,0,0-.47.829,2.97,2.97,0,0,0-.166.992" transform="translate(-202.232 -78.117)" fill="#71b32f"/>
    <path id="Path_572" data-name="Path 572" d="M438.18,87.4a5.368,5.368,0,0,1,.725-2.72,5.339,5.339,0,0,1,.827-1.074,5.2,5.2,0,0,1,1.075-.825,5.424,5.424,0,0,1,2.709-.716,5.3,5.3,0,0,1,3.759,1.541,5.374,5.374,0,0,1,1.136,1.692,5.261,5.261,0,0,1,.417,2.1,5.376,5.376,0,0,1-.19,1.436,5.472,5.472,0,0,1-.535,1.281,5.327,5.327,0,0,1-.828,1.078,5.257,5.257,0,0,1-1.075.829,5.279,5.279,0,0,1-2.684.721,5.411,5.411,0,0,1-1.431-.187,5.32,5.32,0,0,1-1.277-.533,5.25,5.25,0,0,1-1.9-1.907,5.412,5.412,0,0,1-.536-1.281,5.344,5.344,0,0,1-.189-1.436m2.96,0a2.979,2.979,0,0,0,.165,1,2.443,2.443,0,0,0,.47.809,2.232,2.232,0,0,0,.738.541,2.311,2.311,0,0,0,.977.2,2.225,2.225,0,0,0,.954-.2,2.165,2.165,0,0,0,.721-.541,2.37,2.37,0,0,0,.453-.809,3.217,3.217,0,0,0,0-2,2.541,2.541,0,0,0-.453-.829,2.114,2.114,0,0,0-1.675-.773,2.185,2.185,0,0,0-1.715.773,2.621,2.621,0,0,0-.47.829,2.97,2.97,0,0,0-.165.992" transform="translate(-253.072 -78.117)" fill="#71b32f"/>
    <path id="Path_573" data-name="Path 573" d="M455.3,87.4a5.4,5.4,0,0,1,.19-1.44,5.287,5.287,0,0,1,1.363-2.354,5.178,5.178,0,0,1,1.075-.825,5.423,5.423,0,0,1,2.709-.716A5.3,5.3,0,0,1,464.4,83.6a5.371,5.371,0,0,1,1.135,1.692,5.261,5.261,0,0,1,.418,2.1,5.374,5.374,0,0,1-.19,1.436,5.469,5.469,0,0,1-.535,1.281,5.279,5.279,0,0,1-4.586,2.628,5.417,5.417,0,0,1-1.432-.187,5.321,5.321,0,0,1-1.277-.533,5.25,5.25,0,0,1-1.9-1.907,5.4,5.4,0,0,1-.536-1.281,5.347,5.347,0,0,1-.19-1.436m2.96,0a2.979,2.979,0,0,0,.166,1,2.442,2.442,0,0,0,.47.809,2.233,2.233,0,0,0,.738.541,2.31,2.31,0,0,0,.977.2,2.221,2.221,0,0,0,.953-.2,2.152,2.152,0,0,0,.721-.541,2.372,2.372,0,0,0,.454-.809,3.217,3.217,0,0,0,0-2,2.543,2.543,0,0,0-.454-.829,2.114,2.114,0,0,0-1.675-.773,2.185,2.185,0,0,0-1.715.773,2.62,2.62,0,0,0-.47.829,2.971,2.971,0,0,0-.166.992" transform="translate(-258.05 -78.117)" fill="#71b32f"/>
    <path id="Path_574" data-name="Path 574" d="M281.471,82.826a.608.608,0,0,1,.061-.265.59.59,0,0,1,.15-.2.8.8,0,0,1,.438-.137h1.224a.45.45,0,0,1,.243.057.5.5,0,0,1,.15.146,1.071,1.071,0,0,1,.106.2,1.659,1.659,0,0,0,.109.227c.01.022.033.075.064.158s.069.176.106.277.074.2.11.284l.07.175q.243-.268.466-.565a5.276,5.276,0,0,1,.475-.549,2.275,2.275,0,0,1,.559-.414,1.538,1.538,0,0,1,.731-.163,4.146,4.146,0,0,1,.782.065,3.39,3.39,0,0,1,.653.191,3.73,3.73,0,0,1,.611.322c.2.129.423.282.662.455q.56.3.211.9l-.739,1.261a.664.664,0,0,1-.4.3.764.764,0,0,1-.511-.074,2.579,2.579,0,0,0-.709-.508,1.954,1.954,0,0,0-.824-.166,1.59,1.59,0,0,0-.555.089,1.493,1.493,0,0,0-.434.253,2.369,2.369,0,0,0-.365.39c-.113.152-.227.321-.34.505v5.888a.553.553,0,0,1-.648.626H282.1a.556.556,0,0,1-.632-.626Z" transform="translate(-207.517 -78.117)" fill="#71b32f"/>
    <path id="Path_575" data-name="Path 575" d="M372.7,83.215a3.214,3.214,0,0,1,.324-1.423,3.856,3.856,0,0,1,.868-1.167,4.143,4.143,0,0,1,1.248-.79,3.869,3.869,0,0,1,1.475-.289h.162a.545.545,0,0,1,.426.166.663.663,0,0,1,.151.46v1.553a.781.781,0,0,1-.158.5.506.506,0,0,1-.418.2h-.162a.885.885,0,0,0-.324.061.945.945,0,0,0-.275.167.814.814,0,0,0-.194.248.678.678,0,0,0-.074.313v.935h1.274a.573.573,0,0,1,.425.15.654.654,0,0,1,.15.476v1.488a.739.739,0,0,1-.15.512.548.548,0,0,1-.425.163h-1.274v5.832a.553.553,0,0,1-.207.468.724.724,0,0,1-.45.158h-1.752a.611.611,0,0,1-.64-.626V86.94h-.836a.646.646,0,0,1-.458-.163.67.67,0,0,1-.174-.512V84.777a.6.6,0,0,1,.174-.476.68.68,0,0,1,.458-.15h.836Z" transform="translate(-233.609 -77.372)" fill="#71b32f"/>
    <path id="Path_576" data-name="Path 576" d="M382.271,89.655a5.406,5.406,0,0,1,.19-1.44,5.287,5.287,0,0,1,1.363-2.354,5.175,5.175,0,0,1,1.075-.825,5.424,5.424,0,0,1,2.709-.716,5.3,5.3,0,0,1,3.759,1.541,5.367,5.367,0,0,1,1.135,1.693,5.255,5.255,0,0,1,.418,2.1,5.374,5.374,0,0,1-.19,1.435,5.468,5.468,0,0,1-.535,1.281A5.279,5.279,0,0,1,387.607,95a5.412,5.412,0,0,1-1.431-.187,5.322,5.322,0,0,1-1.277-.533,5.252,5.252,0,0,1-1.9-1.907,5.417,5.417,0,0,1-.536-1.281,5.351,5.351,0,0,1-.19-1.435m2.96,0a2.98,2.98,0,0,0,.166,1,2.437,2.437,0,0,0,.47.809,2.225,2.225,0,0,0,.738.541,2.311,2.311,0,0,0,.977.2,2.221,2.221,0,0,0,.953-.2,2.143,2.143,0,0,0,.721-.541,2.369,2.369,0,0,0,.454-.809,3.217,3.217,0,0,0,0-2,2.547,2.547,0,0,0-.454-.829,2.114,2.114,0,0,0-1.675-.773,2.184,2.184,0,0,0-1.715.773,2.621,2.621,0,0,0-.47.829,2.974,2.974,0,0,0-.166.992" transform="translate(-236.819 -78.786)" fill="#71b32f"/>
    <path id="Path_577" data-name="Path 577" d="M400.449,85.086a.608.608,0,0,1,.061-.265.589.589,0,0,1,.15-.2.794.794,0,0,1,.438-.137h1.224a.45.45,0,0,1,.243.057.505.505,0,0,1,.15.146,1.078,1.078,0,0,1,.106.2,1.619,1.619,0,0,0,.109.227c.01.022.033.075.064.158s.069.176.106.277.074.2.11.284.058.148.069.175q.242-.268.466-.565a5.193,5.193,0,0,1,.474-.549,2.278,2.278,0,0,1,.559-.414,1.538,1.538,0,0,1,.731-.163,4.2,4.2,0,0,1,.782.065,3.389,3.389,0,0,1,.653.191,3.722,3.722,0,0,1,.611.322c.2.129.424.282.661.455q.561.3.211.9l-.738,1.261a.666.666,0,0,1-.4.3.762.762,0,0,1-.511-.073,2.569,2.569,0,0,0-.709-.509,1.955,1.955,0,0,0-.824-.166,1.59,1.59,0,0,0-.555.089,1.492,1.492,0,0,0-.434.253,2.368,2.368,0,0,0-.365.39q-.17.228-.341.505v5.888a.553.553,0,0,1-.648.626h-1.826a.556.556,0,0,1-.632-.626Z" transform="translate(-242.104 -78.787)" fill="#71b32f"/>
    <path id="Path_578" data-name="Path 578" d="M295.732,82.374a.5.5,0,0,1,.223-.114,1.105,1.105,0,0,1,.223-.025H297.4a.555.555,0,0,1,.251.053.531.531,0,0,1,.179.141.728.728,0,0,1,.118.2c.03.077.057.155.085.236l.251,1.038c.081-.169.179-.359.3-.573a2.5,2.5,0,0,1,.462-.6,2.4,2.4,0,0,1,.722-.471,2.687,2.687,0,0,1,1.082-.191,3.61,3.61,0,0,1,1.817.442,3.763,3.763,0,0,1,1.28,1.188,3.546,3.546,0,0,1,.422-.54,3.456,3.456,0,0,1,.641-.532,3.619,3.619,0,0,1,.856-.4,3.383,3.383,0,0,1,1.066-.158,3.6,3.6,0,0,1,2.882,1.329,4.3,4.3,0,0,1,.77,1.441,5.759,5.759,0,0,1,.264,1.76v5.327a.7.7,0,0,1-.134.468.53.53,0,0,1-.425.158h-1.874a.719.719,0,0,1-.478-.118.613.613,0,0,1-.13-.46V86.6a1.867,1.867,0,0,0-.109-.651,1.659,1.659,0,0,0-.3-.525,1.376,1.376,0,0,0-.475-.35,1.486,1.486,0,0,0-.621-.126,1.432,1.432,0,0,0-.584.122,1.564,1.564,0,0,0-.487.338,1.634,1.634,0,0,0-.336.521,1.734,1.734,0,0,0-.126.671v5.327a.712.712,0,0,1-.134.468.53.53,0,0,1-.426.158h-1.873a.722.722,0,0,1-.478-.118.612.612,0,0,1-.13-.46V86.6a2.049,2.049,0,0,0-.1-.651,1.607,1.607,0,0,0-.291-.525,1.36,1.36,0,0,0-.463-.35,1.43,1.43,0,0,0-.611-.126,1.46,1.46,0,0,0-.572.118,1.637,1.637,0,0,0-.5.333,1.916,1.916,0,0,0-.373.516,1.748,1.748,0,0,0-.174.668v5.368a.768.768,0,0,1-.053.277.445.445,0,0,1-.158.211.743.743,0,0,1-.2.089.864.864,0,0,1-.216.025h-1.833a.572.572,0,0,1-.657-.626V82.836a.6.6,0,0,1,.07-.284.519.519,0,0,1,.19-.2Z" transform="translate(-211.601 -78.121)" fill="#71b32f"/>
    <path id="Path_579" data-name="Path 579" d="M320.766,77.083a.653.653,0,0,1,.146-.483.626.626,0,0,1,.454-.142h1.881a.7.7,0,0,1,.458.142.594.594,0,0,1,.175.483v1.586a.592.592,0,0,1-.045.212.9.9,0,0,1-.126.22.687.687,0,0,1-.2.174.508.508,0,0,1-.264.069h-1.881q-.6,0-.6-.675Zm0,4.116a.7.7,0,0,1,.146-.448.538.538,0,0,1,.454-.186h1.857a.6.6,0,0,1,.211.044.713.713,0,0,1,.21.131.839.839,0,0,1,.167.2.491.491,0,0,1,.069.26v9.068a.61.61,0,0,1-.171.468.686.686,0,0,1-.486.158h-1.857q-.6,0-.6-.626Z" transform="translate(-218.94 -76.456)" fill="#71b32f"/>
    <path id="Path_580" data-name="Path 580" d="M329,82.374a.5.5,0,0,1,.223-.114,1.11,1.11,0,0,1,.223-.025h1.224a.556.556,0,0,1,.251.053.532.532,0,0,1,.179.141.731.731,0,0,1,.118.2c.03.077.058.155.085.236l.252,1.038a3.824,3.824,0,0,1,.353-.573,2.965,2.965,0,0,1,.588-.6,3.261,3.261,0,0,1,.847-.471,3.128,3.128,0,0,1,1.139-.191,3.824,3.824,0,0,1,2.965,1.329,4.491,4.491,0,0,1,.823,1.441,5.242,5.242,0,0,1,.292,1.76v5.327a.7.7,0,0,1-.134.468.529.529,0,0,1-.425.158h-1.874a.721.721,0,0,1-.478-.118.615.615,0,0,1-.131-.46V86.685a1.459,1.459,0,0,0-.157-.663,1.909,1.909,0,0,0-.418-.552,2.009,2.009,0,0,0-.587-.379,1.714,1.714,0,0,0-.67-.139,1.515,1.515,0,0,0-.6.13,2.005,2.005,0,0,0-.56.362,2.139,2.139,0,0,0-.43.545,1.591,1.591,0,0,0-.2.68v5.287a.755.755,0,0,1-.054.277.44.44,0,0,1-.157.211.726.726,0,0,1-.2.089.86.86,0,0,1-.215.025h-1.833a.647.647,0,0,1-.5-.171.654.654,0,0,1-.154-.455V82.836a.6.6,0,0,1,.069-.284.518.518,0,0,1,.191-.2Z" transform="translate(-221.272 -78.121)" fill="#71b32f"/>
    <path id="Path_581" data-name="Path 581" d="M353.621,92.188a1.953,1.953,0,0,0,.086-.63q0-.354,0-.72-.235.253-.479.533a4.129,4.129,0,0,1-.538.521,2.73,2.73,0,0,1-.67.4,2.272,2.272,0,0,1-.868.153,5.389,5.389,0,0,1-2.026-.374,4.821,4.821,0,0,1-1.614-1.044,4.731,4.731,0,0,1-1.061-1.606,5.39,5.39,0,0,1-.382-2.058,5.652,5.652,0,0,1,.382-2.086,5.194,5.194,0,0,1,1.061-1.692,4.951,4.951,0,0,1,3.641-1.541,2.519,2.519,0,0,1,.9.155,3.085,3.085,0,0,1,.731.4,4.016,4.016,0,0,1,.6.549c.181.2.353.405.515.606l.308-.968c.032-.092.061-.176.089-.252a.613.613,0,0,1,.105-.191.413.413,0,0,1,.167-.118.724.724,0,0,1,.263-.041h1.209a1.03,1.03,0,0,1,.206.025.41.41,0,0,1,.208.113.658.658,0,0,1,.17.2.566.566,0,0,1,.057.268v8.279a5.835,5.835,0,0,1-.414,2.262,4.729,4.729,0,0,1-2.83,2.716,6.189,6.189,0,0,1-3.049.28,6.905,6.905,0,0,1-1-.232,5.964,5.964,0,0,1-.965-.394,4,4,0,0,1-.823-.557.887.887,0,0,1-.17-.171.574.574,0,0,1-.1-.22.613.613,0,0,1,0-.264.805.805,0,0,1,.134-.3l.77-1.065a.654.654,0,0,1,.4-.243.746.746,0,0,1,.47.2,1.643,1.643,0,0,0,.465.312,3.256,3.256,0,0,0,.545.188,3.326,3.326,0,0,0,.551.089c.18.014.345.02.49.02a3.185,3.185,0,0,0,.763-.1,3,3,0,0,0,.741-.289,2.5,2.5,0,0,0,.609-.468,1.45,1.45,0,0,0,.36-.634m-4.637-4.831a2.983,2.983,0,0,0,.166,1.012,2.39,2.39,0,0,0,.474.809,2.189,2.189,0,0,0,.743.537,2.3,2.3,0,0,0,.961.2,2.62,2.62,0,0,0,.977-.184,2.467,2.467,0,0,0,.8-.509,2.553,2.553,0,0,0,.548-.764,2.494,2.494,0,0,0,.231-.951v-.269a2.5,2.5,0,0,0-.231-.939,2.714,2.714,0,0,0-.548-.781,2.615,2.615,0,0,0-.8-.537,2.436,2.436,0,0,0-.977-.2,2.2,2.2,0,0,0-.961.207,2.3,2.3,0,0,0-.743.557,2.474,2.474,0,0,0-.474.821,2.958,2.958,0,0,0-.166.993" transform="translate(-226.294 -78.11)" fill="#71b32f"/>
    <path id="Path_582" data-name="Path 582" d="M428.658,92.188a1.953,1.953,0,0,0,.086-.63q0-.354,0-.72-.235.253-.479.533a4.136,4.136,0,0,1-.538.521,2.733,2.733,0,0,1-.67.4,2.272,2.272,0,0,1-.868.153,5.389,5.389,0,0,1-2.026-.374,4.824,4.824,0,0,1-1.614-1.044,4.734,4.734,0,0,1-1.061-1.606,5.389,5.389,0,0,1-.382-2.058,5.652,5.652,0,0,1,.382-2.086,5.2,5.2,0,0,1,1.061-1.692,4.952,4.952,0,0,1,3.641-1.541,2.519,2.519,0,0,1,.9.155,3.081,3.081,0,0,1,.731.4,4,4,0,0,1,.6.549c.181.2.353.405.515.606l.309-.968c.032-.092.061-.176.089-.252a.613.613,0,0,1,.1-.191.413.413,0,0,1,.167-.118.724.724,0,0,1,.263-.041h1.209a1.027,1.027,0,0,1,.206.025.41.41,0,0,1,.208.113.658.658,0,0,1,.17.2.568.568,0,0,1,.057.268v8.279a5.835,5.835,0,0,1-.413,2.262,4.729,4.729,0,0,1-2.83,2.716,6.188,6.188,0,0,1-3.049.28,6.915,6.915,0,0,1-1-.232,5.964,5.964,0,0,1-.964-.394,4,4,0,0,1-.823-.557.9.9,0,0,1-.17-.171.58.58,0,0,1-.1-.22.614.614,0,0,1,0-.264.807.807,0,0,1,.134-.3l.77-1.065a.654.654,0,0,1,.4-.243.747.747,0,0,1,.47.2,1.643,1.643,0,0,0,.465.312,3.251,3.251,0,0,0,.545.188,3.324,3.324,0,0,0,.551.089c.18.014.345.02.489.02a3.185,3.185,0,0,0,.763-.1,3,3,0,0,0,.741-.289,2.5,2.5,0,0,0,.609-.468,1.451,1.451,0,0,0,.36-.634m-4.637-4.831a2.98,2.98,0,0,0,.166,1.012,2.391,2.391,0,0,0,.474.809,2.186,2.186,0,0,0,.743.537,2.3,2.3,0,0,0,.961.2,2.62,2.62,0,0,0,.977-.184,2.469,2.469,0,0,0,.8-.509,2.554,2.554,0,0,0,.547-.764,2.494,2.494,0,0,0,.231-.951v-.269a2.5,2.5,0,0,0-.231-.939,2.715,2.715,0,0,0-.547-.781,2.616,2.616,0,0,0-.8-.537,2.436,2.436,0,0,0-.977-.2,2.2,2.2,0,0,0-.961.207,2.3,2.3,0,0,0-.743.557,2.475,2.475,0,0,0-.474.821,2.955,2.955,0,0,0-.166.993" transform="translate(-248.107 -78.11)" fill="#71b32f"/>
  </g>
  <g id="Vedanta" transform="translate(78.448 10.405)">
    <path id="Path_583" data-name="Path 583" d="M212.613,26.609V17c0-1.924.284-2.209,2.186-2.209,1.4,0,2.8,0,4.2,0,1.521,0,2.105.578,2.105,2.124q.011,11.759,0,23.517c0,3.1.007,6.2,0,9.307,0,1.53-.376,1.883-1.915,1.884-1.434,0-2.865-.024-4.3.012a1.225,1.225,0,0,1-1.341-.87c-.3-.781-.653-1.545-1.036-2.443-.331.31-.63.582-.916.866-2.314,2.29-4.882,3.5-8.319,2.848a13.462,13.462,0,0,1-9.484-6.46A15.547,15.547,0,0,1,192.07,33.9a13.172,13.172,0,0,1,8.151-10.07c3.19-1.3,6.457-1.8,9.568.3a21.047,21.047,0,0,1,1.991,1.718c.209.183.41.376.833.763M199.719,37.47c0,4.358,2.812,7.083,6.431,7.064a6.825,6.825,0,0,0,7.038-6.957,7.009,7.009,0,0,0-6.967-7.234c-3.737,0-6.484,3-6.5,7.127" transform="translate(-134.158 -14.787)" fill="#005298" fill-rule="evenodd"/>
    <path id="Path_584" data-name="Path 584" d="M260.271,30.631c.41-1.147.735-2.23,1.2-3.252a1.573,1.573,0,0,1,1.009-.863,22.9,22.9,0,0,1,3.99-.019c1.17.111,1.541.717,1.546,2.07.013,2.645,0,5.291,0,7.938q0,8.132,0,16.267c0,1.732-.471,2.205-2.176,2.205-1.271,0-2.548-.077-3.81.022a1.7,1.7,0,0,1-1.921-1.378c-.207-.594-.467-1.168-.744-1.85-.646.577-1.148,1.029-1.652,1.478a8.244,8.244,0,0,1-7.431,2.148,14.591,14.591,0,0,1-12.159-16.961,14.044,14.044,0,0,1,5.942-9.686,14.954,14.954,0,0,1,6.24-2.476c3.988-.685,7.035.74,9.432,3.865a4.56,4.56,0,0,0,.533.49M252.4,33.7c-3.52-.061-6.489,2.965-6.455,7.122.038,4.282,2.57,7.03,6.468,7.064a6.862,6.862,0,0,0,7.05-7.037A7.08,7.08,0,0,0,252.4,33.7" transform="translate(-147.611 -18.141)" fill="#005298" fill-rule="evenodd"/>
    <path id="Path_585" data-name="Path 585" d="M292.918,30.874c.284-.337.494-.554.671-.8a8.978,8.978,0,0,1,8.194-3.863c5.523.227,9.465,4.8,10.19,9.6a22.374,22.374,0,0,1,.271,3.2c.03,4.734.016,9.469.012,14.2,0,1.443-.342,1.776-1.781,1.778q-2.494,0-4.984,0c-1.349,0-1.539-.185-1.539-1.517q-.005-7.1,0-14.206a5.378,5.378,0,0,0-4.767-5.184c-1.979-.253-4.655,1.818-5.149,4a5.092,5.092,0,0,0-.059,1.072q0,6.859,0,13.715c0,1.724-.4,2.118-2.129,2.118-1.594,0-3.19,0-4.786,0-1.211-.006-1.7-.435-1.7-1.614q-.019-12.539,0-25.081a1.567,1.567,0,0,1,1.738-1.653c1.107-.009,2.217.035,3.321-.015a1.48,1.48,0,0,1,1.626,1.1c.312.949.545,1.922.881,3.131" transform="translate(-161.398 -18.17)" fill="#005298" fill-rule="evenodd"/>
    <path id="Path_586" data-name="Path 586" d="M124.383,42.741c.345-1.039.708-2.084,1.04-3.138q1.82-5.784,3.62-11.575a1.545,1.545,0,0,1,1.727-1.215c1.985.05,3.974.08,5.956,0,1.47-.065,1.568.874,1.185,1.828-1.061,2.639-2.164,5.266-3.26,7.891-2.227,5.344-4.476,10.68-6.688,16.031-1.311,3.166-1.043,2.59-3.723,2.616-2.734.027-2.709,0-3.753-2.562q-4.8-11.767-9.623-23.524c-.5-1.231-.433-2.423,1.482-2.282a41.758,41.758,0,0,0,4.588.011c2.372-.087,2.2.422,2.788,2.19,1.515,4.537,2.943,9.1,4.408,13.657.006.017.057.018.253.077" transform="translate(-110.599 -18.346)" fill="#005298" fill-rule="evenodd"/>
    <path id="Path_587" data-name="Path 587" d="M337.842,41.611c0,2.711.006,5.419,0,8.129,0,1.7-.384,2.084-2.046,2.084q-2.245,0-4.491,0c-1.693,0-2.1-.4-2.1-2.149-.006-2.447,0-4.9,0-7.346,0-3.036-.02-6.073.013-9.108.007-.769-.159-1.105-1.018-1.088-1.934.043-2.333-.4-2.333-2.317,0-1.174,0-2.351,0-3.525,0-1.486.467-1.968,1.967-2.043,1.369-.07,1.371-.07,1.371-1.412,0-1.141.015-2.284,0-3.428a1.738,1.738,0,0,1,1.222-1.878c1.731-.614,3.433-1.321,5.182-1.866,1.643-.512,2.216-.026,2.236,1.734.022,1.96.028,3.919-.006,5.877-.013.719.235,1.012.958.98.843-.037,1.694-.041,2.537,0,1.294.063,1.839.556,1.875,1.748.043,1.47.053,2.941-.007,4.408-.054,1.263-.612,1.734-1.861,1.742-.813,0-1.628.042-2.44-.013s-1.081.219-1.067,1.047c.042,2.807.016,5.615.016,8.422" transform="translate(-173.176 -14.99)" fill="#005298" fill-rule="evenodd"/>
    <path id="Path_596" data-name="Path 596" d="M381.828,28.118c-.026-.836-.384-1.49-1.291-1.542a27.831,27.831,0,0,0-4.173-.041c-.444.043-.963.7-1.205,1.191a28.79,28.79,0,0,0-1.1,3.034c-.353-.439-.548-.686-.748-.929a8.927,8.927,0,0,0-8.422-3.615,14.234,14.234,0,0,0-10.151,5.619,14.546,14.546,0,0,0-2.865,7.127,14.9,14.9,0,0,0,.931,7.454,13.757,13.757,0,0,0,8.051,8.11c2.3.9,4.7,1.519,7.216.782a10.9,10.9,0,0,0,4.3-2.74c.264-.245.56-.452.911-.737.325.845.587,1.536.858,2.221a1.351,1.351,0,0,0,1.422.945c1.367-.036,2.736-.01,4.1-.012,1.768,0,2.165-.4,2.165-2.176q0-11.024,0-22.047c0-.882.019-1.763-.009-2.645M366.211,47.9c-3.816-.08-6.371-2.764-6.425-7.006-.052-4.2,2.9-7.3,6.672-7.192a7.176,7.176,0,0,1,6.84,7.19,6.937,6.937,0,0,1-7.088,7.009" transform="translate(-180.702 -18.153)" fill="#005298" fill-rule="evenodd"/>
    <path id="Path_597" data-name="Path 597" d="M168.03,43.5c1.822-.008,3.644-.013,5.463-.1,1.8-.081,2.373-.683,2.44-2.358a13.594,13.594,0,0,0-6.691-12.888,12.957,12.957,0,0,0-11.551-1.319,13.61,13.61,0,0,0-9.339,10.989A13.893,13.893,0,0,0,151.034,49.6a14.677,14.677,0,0,0,13.69,5.745,14.026,14.026,0,0,0,8.187-3.872,1.523,1.523,0,0,0,.135-2.325c-.726-.877-1.484-1.727-2.25-2.568-.835-.915-1.5-.884-2.529-.139a8.734,8.734,0,0,1-8.336,1.483,5.007,5.007,0,0,1-3.463-4.419h1.015c3.515,0,7.03.009,10.547,0m-5.185-10.49a6.089,6.089,0,0,1,4.869,4.007H156.672a6.177,6.177,0,0,1,6.173-4.007" transform="translate(-121.482 -18.124)" fill="#005298" fill-rule="evenodd"/>
  </g>
</svg>
