<svg xmlns="http://www.w3.org/2000/svg" width="12.314" height="18.773" viewBox="0 0 12.314 18.773">
  <path id="Path_39349" data-name="Path 39349" d="M.591-40.1H11.777v.025a18.86,18.86,0,0,1-1.116,1.76H7.673a4.374,4.374,0,0,1,.837,1.9H11.7q.058.013.058.05-1.07,1.735-1.093,1.735H8.591a5.387,5.387,0,0,1-.791,2.15,4.959,4.959,0,0,1-1.826,1.647,6.785,6.785,0,0,1-3.116.842v.025q0,.126,6.733,8.638H6.626Q.068-29.583.068-29.621v-1.672l.023-.063a9.205,9.205,0,0,0,1.361.088q3.675,0,4.57-2.578a2.23,2.23,0,0,0,.14-.78H-.491q-.047,0-.047-.05,1.1-1.735,1.128-1.735H5.87v-.025a3.167,3.167,0,0,0-1.756-1.547A5.113,5.113,0,0,0,2.44-38.31H-.514v-.063Q.556-40.1.591-40.1Z" transform="translate(0.537 40.095)" fill="#292727"/>
</svg>
