<svg xmlns="http://www.w3.org/2000/svg" width="12" height="12" viewBox="0 0 12 12">
  <g id="twitter" transform="translate(-2618 -10329)">
    <g id="Rectangle_1894" data-name="Rectangle 1894" transform="translate(2618 10329)" fill="none" stroke="#707070" stroke-width="1" opacity="0">
      <rect width="12" height="12" stroke="none"/>
      <rect x="0.5" y="0.5" width="11" height="11" fill="none"/>
    </g>
    <path id="Icon_awesome-twitter" data-name="Icon awesome-twitter" d="M8.678,5.338c.006.086.006.172.006.258a5.6,5.6,0,0,1-5.64,5.64A5.6,5.6,0,0,1,0,10.346a4.1,4.1,0,0,0,.479.025A3.97,3.97,0,0,0,2.94,9.524,1.986,1.986,0,0,1,1.086,8.149a2.5,2.5,0,0,0,.374.031,2.1,2.1,0,0,0,.522-.067A1.982,1.982,0,0,1,.393,6.167V6.142a2,2,0,0,0,.9.252A1.985,1.985,0,0,1,.675,3.743,5.634,5.634,0,0,0,4.762,5.817a2.238,2.238,0,0,1-.049-.454A1.984,1.984,0,0,1,8.144,4.007,3.9,3.9,0,0,0,9.4,3.528,1.977,1.977,0,0,1,8.53,4.62a3.974,3.974,0,0,0,1.141-.307,4.261,4.261,0,0,1-.994,1.025Z" transform="translate(2619.164 10327.725)" fill="#fff"/>
  </g>
</svg>
