<svg xmlns="http://www.w3.org/2000/svg" width="31.271" height="31.271" viewBox="0 0 31.271 31.271">
  <g id="Group_141958" data-name="Group 141958" transform="translate(-1178.874 -695.365)">
    <rect id="Rectangle_94" data-name="Rectangle 94" width="31.271" height="31.271" rx="15.635" transform="translate(1178.874 695.365)" fill="#bcbcbd"/>
    <path id="Icon_awesome-twitter" data-name="Icon awesome-twitter" d="M10.51,5.752c.007.1.007.208.007.312a6.784,6.784,0,0,1-6.831,6.831A6.784,6.784,0,0,1,0,11.817a4.967,4.967,0,0,0,.58.03A4.808,4.808,0,0,0,3.56,10.821,2.4,2.4,0,0,1,1.316,9.156a3.028,3.028,0,0,0,.453.037A2.539,2.539,0,0,0,2.4,9.111,2.4,2.4,0,0,1,.476,6.755v-.03a2.418,2.418,0,0,0,1.085.3A2.4,2.4,0,0,1,.818,3.819a6.824,6.824,0,0,0,4.95,2.512,2.71,2.71,0,0,1-.059-.55A2.4,2.4,0,0,1,9.863,4.139a4.727,4.727,0,0,0,1.524-.58,2.394,2.394,0,0,1-1.055,1.323,4.813,4.813,0,0,0,1.382-.372,5.161,5.161,0,0,1-1.2,1.241Z" transform="translate(1188.306 702.899)" fill="#fff"/>
  </g>
</svg>
