<svg xmlns="http://www.w3.org/2000/svg" width="31.271" height="31.271" viewBox="0 0 31.271 31.271">
  <g id="Group_141960" data-name="Group 141960" transform="translate(-1268.729 -695.365)">
    <rect id="Rectangle_96" data-name="Rectangle 96" width="31.271" height="31.271" rx="15.635" transform="translate(1268.729 695.365)" fill="#bcbcbd"/>
    <path id="Icon_awesome-youtube" data-name="Icon awesome-youtube" d="M14.071,5.963A1.671,1.671,0,0,0,12.9,4.78,39.49,39.49,0,0,0,7.7,4.5a39.49,39.49,0,0,0-5.2.28A1.671,1.671,0,0,0,1.328,5.963,17.529,17.529,0,0,0,1.05,9.185a17.529,17.529,0,0,0,.278,3.222A1.646,1.646,0,0,0,2.5,13.571a39.49,39.49,0,0,0,5.2.28,39.49,39.49,0,0,0,5.2-.28,1.646,1.646,0,0,0,1.176-1.164,17.529,17.529,0,0,0,.278-3.222,17.529,17.529,0,0,0-.278-3.222Zm-7.732,5.2V7.207L9.815,9.185,6.339,11.162Z" transform="translate(1276.832 701.78)" fill="#fff"/>
  </g>
</svg>
