<svg xmlns="http://www.w3.org/2000/svg" width="16.543" height="14.046" viewBox="0 0 16.543 14.046">
  <path id="Icon_ionic-ios-call" data-name="Icon ionic-ios-call" d="M20.556,15.5a14.287,14.287,0,0,0-2.9-1.649c-.87-.355-1.189-.347-1.8.029-.512.314-.844.607-1.434.5a8.664,8.664,0,0,1-2.881-1.81A7.374,7.374,0,0,1,9.4,10.122c-.125-.5.22-.783.586-1.218.444-.523.457-.794.034-1.532A11.636,11.636,0,0,0,8.079,4.907c-.633-.538-.775-.421-1.124-.314a6.876,6.876,0,0,0-1.029.464A2.868,2.868,0,0,0,4.69,6.165c-.245.45-.53,1.287.917,3.474a20.019,20.019,0,0,0,4.014,4.546h0l0,0,0,0h0A23.014,23.014,0,0,0,14.983,17.6c2.575,1.229,3.562.987,4.091.779a2.913,2.913,0,0,0,1.3-1.05,5.188,5.188,0,0,0,.547-.874C21.051,16.159,21.193,16.039,20.556,15.5Z" transform="translate(-4.49 -4.502)" fill="#222"/>
</svg>
