<svg xmlns="http://www.w3.org/2000/svg" width="34.332" height="34.332" viewBox="0 0 34.332 34.332">
  <g id="Group_141832" data-name="Group 141832" transform="translate(0)">
    <rect id="Rectangle_581" data-name="Rectangle 581" width="34.332" height="34.332" rx="17.166" transform="translate(0)" fill="#8eca68"/>
    <path id="Icon_awesome-linkedin-in" data-name="Icon awesome-linkedin-in" d="M2.391,10.681H.176V3.55H2.391Zm-1.108-8.1A1.288,1.288,0,1,1,2.565,1.283,1.293,1.293,0,0,1,1.282,2.578Zm9.4,8.1H8.469V7.21c0-.827-.017-1.888-1.151-1.888-1.151,0-1.328.9-1.328,1.829v3.531H3.778V3.55H5.9v.973h.031a2.327,2.327,0,0,1,2.1-1.152c2.241,0,2.653,1.476,2.653,3.393v3.917Z" transform="translate(12.396 10.311)" fill="#fff"/>
  </g>
</svg>
