<svg xmlns="http://www.w3.org/2000/svg" width="34.332" height="34.332" viewBox="0 0 34.332 34.332">
  <g id="Group_141833" data-name="Group 141833" transform="translate(0)">
    <rect id="Rectangle_94" data-name="Rectangle 94" width="34.332" height="34.332" rx="17.166" transform="translate(0)" fill="#8eca68"/>
    <path id="Icon_awesome-twitter" data-name="Icon awesome-twitter" d="M11.539,5.984c.008.114.008.229.008.343a7.448,7.448,0,0,1-7.5,7.5A7.449,7.449,0,0,1,0,12.643a5.453,5.453,0,0,0,.637.033,5.279,5.279,0,0,0,3.272-1.126A2.641,2.641,0,0,1,1.444,9.721a3.324,3.324,0,0,0,.5.041,2.788,2.788,0,0,0,.694-.09A2.636,2.636,0,0,1,.522,7.086V7.053a2.655,2.655,0,0,0,1.191.335A2.64,2.64,0,0,1,.9,3.862,7.492,7.492,0,0,0,6.333,6.62a2.976,2.976,0,0,1-.065-.6,2.638,2.638,0,0,1,4.562-1.8A5.19,5.19,0,0,0,12.5,3.577a2.629,2.629,0,0,1-1.159,1.453,5.284,5.284,0,0,0,1.518-.408,5.666,5.666,0,0,1-1.322,1.363Z" transform="translate(10.938 8.603)" fill="#fff"/>
  </g>
</svg>
