<svg xmlns="http://www.w3.org/2000/svg" width="34.332" height="34.332" viewBox="0 0 34.332 34.332">
  <g id="Group_141834" data-name="Group 141834" transform="translate(0)">
    <rect id="Rectangle_96" data-name="Rectangle 96" width="34.332" height="34.332" rx="17.166" transform="translate(0)" fill="#8eca68"/>
    <path id="Icon_ionic-logo-whatsapp" data-name="Icon ionic-logo-whatsapp" d="M9.061,2.25A6.543,6.543,0,0,0,2.493,8.767a6.45,6.45,0,0,0,.942,3.365l-1.185,3.5,3.636-1.155a6.579,6.579,0,0,0,9.743-5.707A6.543,6.543,0,0,0,9.061,2.25Zm3.266,8.992a1.7,1.7,0,0,1-1.162.749c-.308.016-.317.239-2-.491A6.853,6.853,0,0,1,6.4,8.882a3.221,3.221,0,0,1-.62-1.746A1.861,1.861,0,0,1,6.42,5.771a.643.643,0,0,1,.455-.192c.132,0,.218,0,.316,0s.245-.02.372.318.431,1.169.47,1.254a.3.3,0,0,1,0,.292,1.141,1.141,0,0,1-.178.271c-.088.094-.184.21-.263.282s-.178.166-.087.337A5.026,5.026,0,0,0,8.4,9.519a4.583,4.583,0,0,0,1.317.876c.165.09.263.08.365-.028s.437-.47.555-.632.229-.131.381-.07.96.494,1.125.584.275.135.314.206A1.379,1.379,0,0,1,12.327,11.242Z" transform="translate(7.959 8.688)" fill="#fff"/>
  </g>
</svg>
